<svg xmlns="http://www.w3.org/2000/svg" xmlns:xlink="http://www.w3.org/1999/xlink" width="739.285" height="843.37" viewBox="0 0 739.285 843.37">
  <defs>
    <filter id="Path_27104" x="61.791" y="742.146" width="677.494" height="101.224" filterUnits="userSpaceOnUse">
      <feOffset dy="3" input="SourceAlpha"/>
      <feGaussianBlur stdDeviation="3" result="blur"/>
      <feFlood flood-color="#8a8a8a"/>
      <feComposite operator="in" in2="blur"/>
      <feComposite in="SourceGraphic"/>
    </filter>
    <filter id="Union_10" x="0" y="0" width="733.35" height="828.358" filterUnits="userSpaceOnUse">
      <feOffset dy="3" input="SourceAlpha"/>
      <feGaussianBlur stdDeviation="3" result="blur-2"/>
      <feFlood flood-color="#51efde"/>
      <feComposite operator="in" in2="blur-2"/>
      <feComposite in="SourceGraphic"/>
    </filter>
    <filter id="Path_27162" x="151.228" y="138.662" width="215.688" height="320.496" filterUnits="userSpaceOnUse">
      <feOffset dx="-1" dy="3" input="SourceAlpha"/>
      <feGaussianBlur stdDeviation="3" result="blur-3"/>
      <feFlood flood-color="#51efde"/>
      <feComposite operator="in" in2="blur-3"/>
      <feComposite in="SourceGraphic"/>
    </filter>
  </defs>
  <g id="cat_subscribe" data-name="cat subscribe" transform="translate(-15861.18 -7264.051)">
    <g transform="matrix(1, 0, 0, 1, 15861.18, 7264.05)" filter="url(#Path_27104)">
      <path id="Path_27104-2" data-name="Path 27104" d="M352.616,344.7c83.344,0,158.757,18.507,216.733,26.627,68.195,9.526,111.965,25.83,111.965,41.378,0,16.262-45.029,15.527-116.917,15.024-55.122-.378-125.9-15.024-204.71-15.024-82.652,0-160.058,14.184-219.44,14.352-70.964.21-118.428,1.28-118.428-14.352,0-14.1,39.868-30.027,97.508-39.406C179.066,363.564,260.228,344.7,352.616,344.7Z" transform="translate(48.97 403.45)" fill="rgba(255,255,255,0.19)" fill-rule="evenodd"/>
    </g>
    <g transform="matrix(1, 0, 0, 1, 15861.18, 7264.05)" filter="url(#Union_10)">
      <path id="Union_10-2" data-name="Union 10" d="M580.513,808.483C536.765,794.865,479.5,773.861,478.432,772.56a6.965,6.965,0,0,1-.63-8.078c-22.787-1.825-45.176-3.945-46.288-3.9-24.194,1.154-70.671,14.436-91.675,20.29-8.561,2.392-17.269,4.511-26.019,6.295,4.406,5.981,5.855,12.212.86,15.548-2.245,1.511-157.372,8.771-158.233,0-1.469-13.807,11.268-30.677,25.18-30.677h16.786a71.345,71.345,0,0,1-20.563-29.187,409.575,409.575,0,0,1-76.672-42.575c-25.725-18.15-49.309-39.49-67.775-64.837C11.015,604.7-3.169,566.528.608,527.752c3.126-32.082,18.024-62.151,38.8-87.625,18.527-22.724,41.021-41.714,65.047-58.479a25.56,25.56,0,0,1,2.665-1.49,15.463,15.463,0,0,1,5.729-1.343l2.917.126c.944.23,1.888.356,2.812.671a14.689,14.689,0,0,1,4.994,2.832c.734.651,1.343,1.448,2.1,2.1A14.444,14.444,0,0,1,128,389.768a15.99,15.99,0,0,1-3.273,13.723,34.968,34.968,0,0,1-4.826,4.322c-19.179,15.863-37.014,33.322-51.43,53.57-13.911,19.43-24.4,41.84-25.871,65.719-1.343,21.381,5.245,42.826,16.786,61.228,15.611,25.179,38.483,45.134,63.306,61.543a340.064,340.064,0,0,0,49.5,27.089c.756-6.4,1.8-13.093,3.19-20.144,7.575-38.923,38.671-60.851,58.416-94.633,23.585-40.434,25.915-95.179,18.738-177.285a140.215,140.215,0,0,1-52.452-19.108,12.531,12.531,0,0,0-3.966,2.5c-4.081,3.594-8.193,5.8-10.6,4.154-2.25-1.528-2.972-5.63-4-10.868a42.783,42.783,0,0,0-2.1-7.687.315.315,0,0,0-.561-.1c-1.475,2.733-8.482,14.959-12.712,10.161-2.356-2.662-3.836-14.622-8.471-24.687-7.548-16.406-12.646-28.122-15.65-35.23-.086-.185-.164-.377-.243-.585s-.165-.375-.24-.551-.147-.367-.222-.543q-1.3-3.118-2.415-6.3c-3.48-9.806-5.93-20.229-8.233-32.354-13.251-6.185-100.778-35.021-99.268-62.187C32.258,186,130,168.69,144.955,164.994a135.515,135.515,0,0,1,36.236-41.285q4.771-3.653,9.623-6.757a1.089,1.089,0,0,1,.24-.168c10.838-7,22.214-10.908,33.535-14.093,1.334-.369,2.661-.73,3.988-1.092a120.61,120.61,0,0,1,16.09-3.15c9-12.5,54.7-99.843,69.411-94.868,25.691,8.681,27.61,101.762,28.463,116.635,3.929,2.3,7.649,4.684,11.238,7.214a127.607,127.607,0,0,1,12.29,9.8s.061.066.2.19c.744.671,3.463,3.138,8.141,7.559a115.374,115.374,0,0,1,13.176,12.692q5.615,5.492,12.685,12.548c7.84,7.821,18.534,13.366,20.233,16.484,2.481,4.591-6.3,6.992-11.3,7.963a46.452,46.452,0,0,1,1.147,4.873c.691.453,1.489.932,2.413,1.434,4.661,2.538,8.355,4.195,9.009,6.845.695,2.821-2.785,5.93-7.565,8.513a15.645,15.645,0,0,0-2.317,1.49c.468,22.962-2.534,52.561-1.576,70.7.252,4.721,4.49,13.24,10.491,23.606,101.369-39.008,184.986-91.36,252.614-155.777a25.62,25.62,0,0,1,38.693,3.923c4.847,6.694-6.441,26.586-12,32.314-43.791,45.176-158.295,150.637-240.528,189.224.608,1.595,1.112,3.127,1.532,4.6,13.66,46.959,31.1,95.64,47.275,141.718,38.042,23.564,76.671,73.881,76.671,124.471,0,52.457-16.072,92.094-43.035,107.37l48.387,14.918,32.922,2.875c13.261,4.091,25.578,13.744,20.122,26.523-.922,2.157-18.887,7.467-38.686,7.467A83.256,83.256,0,0,1,580.513,808.483Z" transform="translate(10.01 3.6)" fill="#100725" stroke="#51efde" stroke-width="2"/>
    </g>
    <path id="Path_27108" data-name="Path 27108" d="M65.38,341.5a44.72,44.72,0,0,0,1.826-6.61c2.833-15.234-1.364-33.887,1.07-32.482l.273.147.168.1h0l.776.441h0l.588.336h.273l.294.147.336.189h.126c.525.315,1.07.609,1.616.9h0l.315.168.42.231h0l1.7.923h0l2.6,1.406a76.945,76.945,0,0,1-12.38,34.1Z" transform="translate(15951.992 7635.967)" fill="#51efde"/>
    <path id="Path_27109" data-name="Path 27109" d="M283.669,349.68l19.136,5.917c-20.06,6.526-54.556,7.68-67.565-.252,7.176.5,13.87.923,19.346,1.154A53.38,53.38,0,0,0,283.669,349.68Z" transform="translate(16125.549 7675.967)" fill="#4d4d4f" fill-rule="evenodd"/>
    <path id="Path_27110" data-name="Path 27110" d="M100.176,355.37c21.193,17.752,52.331,22.284,85.526,19.472,1.259,5.288-72.916,10.491-83.932.776a36.678,36.678,0,0,1-12.4-20.249Z" transform="translate(15981.342 7679.216)" fill="#4d4d4f" fill-rule="evenodd"/>
    <path id="Path_27111" data-name="Path 27111" d="M156.27,518.284c8.813-46.288,6.064-148.538,4.994-185.615-1.2-41.966,11.2-108.482,44.253-113.686,58.9-9.274,71.741,49.9,75.539,67.565,8.393,40.119,3.924,97-.8,123.044a316.4,316.4,0,0,1-28.033,85.925c-25.347,3-65.047,14.352-83.932,19.619Q162.313,516.815,156.27,518.284Z" transform="translate(16038.816 7529.347)" fill="#4d4d4f" fill-rule="evenodd"/>
    <path id="Path_27114" data-name="Path 27114" d="M107.537,286.366c9.274-4.152,17.652-8.891,27.318-12.022,7.05-2.5,13.219-1.616,17.311,14.31s19.556,33.573,20.06,45.764c.462,10.638-8.267,20.983-16.975,27.005-9.065,6.295-27.635,12.842-37.329,10.869s-13.744-15.318-20.983-22.725c-2.77-2.875-8.519-4.2-14.5-5.519q.944-6.589,2.329-13.6C88.273,312.742,97.675,299.669,107.537,286.366Z" transform="translate(15964.73 7588.063)" fill="#4d4d4f" fill-rule="evenodd"/>
    <path id="Path_27131" data-name="Path 27131" d="M1697.6,2564a7.442,7.442,0,0,1,3.643,1.547,10.9,10.9,0,0,1,2.688,3.011,13.289,13.289,0,0,1,1.935,5.8,14.99,14.99,0,0,1,.01,2.025,1.995,1.995,0,0,1-3.964.228l-.044-.282c-.084-.533-.094-1.065-.149-1.594-.092-.515-.085-1.051-.212-1.555-.043-.258-.074-.518-.124-.775s-.131-.5-.18-.761a5.96,5.96,0,0,0-.206-.759c-.084-.249-.141-.511-.241-.755a21.165,21.165,0,0,0-1.332-2.984C1698.91,2566.132,1698.31,2565.121,1697.6,2564Z" transform="translate(14788.818 5500.857)" fill="#51efde"/>
    <path id="Path_27133" data-name="Path 27133" d="M1705.906,2564a7.443,7.443,0,0,0-3.643,1.547,10.9,10.9,0,0,0-2.688,3.011,13.292,13.292,0,0,0-1.935,5.8,15.03,15.03,0,0,0-.01,2.025,1.995,1.995,0,0,0,3.964.228l.044-.282c.084-.533.094-1.065.149-1.594.092-.515.085-1.051.212-1.555.043-.258.074-.518.124-.775s.131-.5.18-.761a5.96,5.96,0,0,1,.206-.759c.084-.249.141-.511.241-.755a21.152,21.152,0,0,1,1.332-2.984C1704.6,2566.132,1705.2,2565.121,1705.906,2564Z" transform="translate(14352.18 5497.318)" fill="#51efde"/>
    <path id="Path_27132" data-name="Path 27132" d="M1815.2,2539.53a7.884,7.884,0,0,1,3.78,1.424,10.93,10.93,0,0,1,2.885,2.953,12.644,12.644,0,0,1,1.774,3.83,12.376,12.376,0,0,1,.388,2.08,6.575,6.575,0,0,1,.05,1.049c0,.348,0,.7-.021,1.045a2,2,0,0,1-3.963.228l-.046-.276c-.089-.538-.094-1.078-.16-1.605-.1-.521-.1-1.059-.244-1.568a14.5,14.5,0,0,0-.879-3.061,19.919,19.919,0,0,0-1.52-2.979C1816.657,2541.632,1815.974,2540.646,1815.2,2539.53Z" transform="translate(14684.605 5522.542)" fill="#51efde"/>
    <path id="Path_27134" data-name="Path 27134" d="M1824.08,2539.53a7.884,7.884,0,0,0-3.78,1.424,10.931,10.931,0,0,0-2.885,2.953,12.638,12.638,0,0,0-1.774,3.83,12.376,12.376,0,0,0-.388,2.08,6.575,6.575,0,0,0-.05,1.049c0,.348,0,.7.022,1.045a2,2,0,0,0,3.963.228l.046-.276c.089-.538.094-1.078.16-1.605.1-.521.1-1.059.244-1.568a14.5,14.5,0,0,1,.879-3.061,19.9,19.9,0,0,1,1.52-2.979C1822.623,2541.632,1823.306,2540.646,1824.08,2539.53Z" transform="translate(14220.617 5519.003)" fill="#51efde"/>
    <path id="mouth" d="M0,56.278c-.037,30.167,27.986,46.629,62.029,46.95,33.792.318,60.256-15.622,60.292-45.78C122.359,26.2,93.731.309,61.329,0,27.543-.327.042,22.811,0,56.278Z" transform="matrix(0.809, -0.588, 0.588, 0.809, 16100.047, 7556.928)" fill="#4d4d4f"/>
    <path id="Path_27112" data-name="Path 27112" d="M129.874,202.333c-.713-3.336,6.8-.546,19.011-.147,9.946.336,45.995-15.045,53.821-26.04,13.24-18.654,23.711-42.134,25.557-37.266,2.959,7.722-27.278,71.447-40.665,81.833S131.2,208.4,129.874,202.333Z" transform="translate(15999.775 7387.732)" fill="#ff7a94" fill-rule="evenodd"/>
    <path id="Path_27118" data-name="Path 27118" d="M132.089,159.45c6.568-6.819,20.983-14.9,31.16-20.165,6.5-3.357,4.2,4.763,4.2,4.763l-14.814,21.8S121.325,170.592,132.089,159.45Z" transform="translate(15999.785 7387.999)" fill="#da7392" fill-rule="evenodd"/>
    <path id="Path_27119" data-name="Path 27119" d="M123.271,98.571c6.014-48.256,29.148-93.747,33.8-94.107,13.812-1.1,22.713,27.264,28.286,52.822,5.353,24.422,6.535,32.72,8.66,39.143,1.123,3.354-2.566,2.33-20.749,1.516C151.056,96.98,122.99,100.731,123.271,98.571Z" transform="matrix(0.974, 0.225, -0.225, 0.974, 16039.491, 7261.164)" fill="#4d4d4f" fill-rule="evenodd"/>
    <path id="Path_27120" data-name="Path 27120" d="M117.611,169.927c-43.749-40.917-91.507-42.386-95.892-64.69-4.805-24.4,107.013-19.871,119.6-5.728,2.791,3.147-3.357,5.9-10.491,26.69C124.85,144.076,119.143,171.438,117.611,169.927Z" transform="translate(15896.875 7372.471)" fill="#4d4d4f" fill-rule="evenodd"/>
    <path id="Polygon_1" data-name="Polygon 1" d="M7.078,0l7.078,14.155H0Z" transform="translate(16160.715 7602.426) rotate(169)" fill="#fff"/>
    <path id="Polygon_2" data-name="Polygon 2" d="M7.078,0l7.078,14.155H0Z" transform="matrix(-0.799, 0.602, -0.602, -0.799, 16212.145, 7576.076)" fill="#fff"/>
    <g id="Group_73580" data-name="Group 73580" transform="translate(16054.492 7448.863) rotate(-43)">
      <path id="Path_26867" data-name="Path 26867" d="M2.05,37.692a.45.45,0,0,0,.864,0c1.832-5.925,1.376-12.285,1.454-18.427.072-5.961,2-12.87.114-18.572A.983.983,0,0,0,2.708.465C-.609,4.946.068,11.234.037,16.595.006,23.508-.1,31.006,2.05,37.692Z" transform="translate(47.537)" fill="#51efde"/>
      <path id="Path_26868" data-name="Path 26868" d="M1.335,22.824A58.089,58.089,0,0,0,5.252,12.185C6.4,8.19,7.8,4.708,6.887.552,6.722-.183,5.826-.12,5.454.366,2.975,3.579,2.349,7.233,1.314,11.1.227,15.192-.394,18.509.279,22.685a.6.6,0,0,0,1.056.14Z" transform="translate(58.752 10.78)" fill="#51efde"/>
      <path id="Path_26869" data-name="Path 26869" d="M.815,23.942c3.493-3.032,6.029-6.934,8.87-10.567A59.928,59.928,0,0,0,17.6,1.173.787.787,0,0,0,16.37.221C9.964,6.11,1.41,14.539,0,23.471a.518.518,0,0,0,.812.471Z" transform="translate(69.187 7.582)" fill="#51efde"/>
      <path id="Path_26870" data-name="Path 26870" d="M5.5,23.56c.274.254.875.2.937-.248.543-3.964-.818-8.135-1.335-12.062C4.623,7.57,4.043,3.528,1.9.424,1.5-.151.405-.2.255.636-.407,4.367.364,8.118.928,11.813,1.528,15.741,2.449,20.786,5.5,23.56Z" transform="translate(31.386 11.731)" fill="#51efde"/>
      <path id="Path_26871" data-name="Path 26871" d="M11.594,14.577c3.772,3.829,7.793,9.651,12.74,11.9.254.114.657,0,.621-.352-.574-5.263-5.547-9.713-8.9-13.454C11.775,7.886,6.74,3.006,1,.082A.678.678,0,0,0,.08,1C2.849,6.338,7.413,10.313,11.594,14.577Z" transform="translate(0 7.198)" fill="#51efde"/>
    </g>
    <g transform="matrix(1, 0, 0, 1, 15861.18, 7264.05)" filter="url(#Path_27162)">
      <path id="Path_27162-2" data-name="Path 27162" d="M257.091,75.133c1.154.252,2.35.441,3.483.8a45.03,45.03,0,0,1,14.688,8.393c4.763,4.2-3.21,17.479-6.568,20.4-38.021,33.216-75.832,80.05-102.816,110.119-10.114,11.247-18.087,27.7-25.284,40.917-1.532,2.812,1.133,9.757,5.267,10.282,6.987.881,47,16.786,49.247,26.271,2.728,11.583,13.912,39.364,2.917,44.5-4.742,2.1-11.9,42.145-12.254,38.116-2.1-23.585-86.6-69.57-94.906-80.523a51.072,51.072,0,0,1-9.17-37.392c2.245-16.786,10.68-32.1,20.1-45.89,16.954-24.76,38.336-46.414,60.2-66.978,23.9-22.557,49.037-43.666,74.846-63.767l2.959-2.1a25.641,25.641,0,0,1,6.61-2.707,25.179,25.179,0,0,1,7.092-.839Z" transform="translate(81.13 70.94)" fill="#100725" stroke="#51efde" stroke-width="2"/>
    </g>
    <path id="Path_27163" data-name="Path 27163" d="M35.5,0A35.5,35.5,0,0,1,71,35.5v6c0,19.606-20.478,74.326-40.084,74.326S0,61.106,0,41.5v-6C0,17.56-6.383-9.666,11.2-12.1,12.5-12.28,33.833,0,35.5,0Z" transform="translate(16121 7628)" fill="#100725"/>
  </g>
</svg>
