<svg xmlns="http://www.w3.org/2000/svg" xmlns:xlink="http://www.w3.org/1999/xlink" width="1034.811" height="1021.246" viewBox="0 0 1034.811 1021.246">
  <defs>
    <filter id="Ellipse_11663" x="220.328" y="939.246" width="604" height="82" filterUnits="userSpaceOnUse">
      <feOffset dy="3" input="SourceAlpha"/>
      <feGaussianBlur stdDeviation="3" result="blur"/>
      <feFlood flood-color="#8a8a8a"/>
      <feComposite operator="in" in2="blur"/>
      <feComposite in="SourceGraphic"/>
    </filter>
    <filter id="Path_26896" x="587.156" y="521.05" width="187.777" height="249.919" filterUnits="userSpaceOnUse">
      <feOffset dy="3" input="SourceAlpha"/>
      <feGaussianBlur stdDeviation="3" result="blur-2"/>
      <feFlood flood-color="#51efde"/>
      <feComposite operator="in" in2="blur-2"/>
      <feComposite in="SourceGraphic"/>
    </filter>
    <filter id="Path_27150" x="342.885" y="541.484" width="345.453" height="393.727" filterUnits="userSpaceOnUse">
      <feOffset dy="3" input="SourceAlpha"/>
      <feGaussianBlur stdDeviation="3" result="blur-3"/>
      <feFlood flood-color="#51efde"/>
      <feComposite operator="in" in2="blur-3"/>
      <feComposite in="SourceGraphic"/>
    </filter>
    <filter id="Path_27156" x="568.479" y="619.333" width="120.342" height="113.235" filterUnits="userSpaceOnUse">
      <feOffset dy="3" input="SourceAlpha"/>
      <feGaussianBlur stdDeviation="3" result="blur-4"/>
      <feFlood flood-color="#51efde"/>
      <feComposite operator="in" in2="blur-4"/>
      <feComposite in="SourceGraphic"/>
    </filter>
    <filter id="head" x="294.412" y="230.683" width="426.529" height="345.229" filterUnits="userSpaceOnUse">
      <feOffset dy="3" input="SourceAlpha"/>
      <feGaussianBlur stdDeviation="3" result="blur-5"/>
      <feFlood flood-color="#51efde"/>
      <feComposite operator="in" in2="blur-5"/>
      <feComposite in="SourceGraphic"/>
    </filter>
    <filter id="Path_26943" x="251.408" y="526.227" width="157.592" height="114.736" filterUnits="userSpaceOnUse">
      <feOffset dy="3" input="SourceAlpha"/>
      <feGaussianBlur stdDeviation="3" result="blur-6"/>
      <feFlood flood-color="#51efde"/>
      <feComposite operator="in" in2="blur-6"/>
      <feComposite in="SourceGraphic"/>
    </filter>
    <filter id="Path_26968" x="250.746" y="495.028" width="88.168" height="75.406" filterUnits="userSpaceOnUse">
      <feOffset dy="3" input="SourceAlpha"/>
      <feGaussianBlur stdDeviation="3" result="blur-7"/>
      <feFlood flood-color="#51efde"/>
      <feComposite operator="in" in2="blur-7"/>
      <feComposite in="SourceGraphic"/>
    </filter>
    <linearGradient id="linear-gradient" x1="0.649" y1="-1.228" x2="0.444" y2="1.043" gradientUnits="objectBoundingBox">
      <stop offset="0" stop-color="#1a1818"/>
      <stop offset="1" stop-color="#4d4d4f"/>
    </linearGradient>
    <filter id="Path_26884" x="522.416" y="787.034" width="163.93" height="211.342" filterUnits="userSpaceOnUse">
      <feOffset dy="3" input="SourceAlpha"/>
      <feGaussianBlur stdDeviation="3" result="blur-8"/>
      <feFlood flood-color="#51efde"/>
      <feComposite operator="in" in2="blur-8"/>
      <feComposite in="SourceGraphic"/>
    </filter>
    <filter id="Path_27121" x="317.912" y="799.046" width="164.697" height="208.474" filterUnits="userSpaceOnUse">
      <feOffset dy="3" input="SourceAlpha"/>
      <feGaussianBlur stdDeviation="3" result="blur-9"/>
      <feFlood flood-color="#51efde"/>
      <feComposite operator="in" in2="blur-9"/>
      <feComposite in="SourceGraphic"/>
    </filter>
  </defs>
  <g id="cat_beat" data-name="cat beat" transform="translate(-16635.672 -7100.754)">
    <g transform="matrix(1, 0, 0, 1, 16635.67, 7100.75)" filter="url(#Ellipse_11663)">
      <ellipse id="Ellipse_11663-2" data-name="Ellipse 11663" cx="293" cy="32" rx="293" ry="32" transform="translate(229.33 945.25)" fill="rgba(255,255,255,0.2)"/>
    </g>
    <g id="cat_beat-2" data-name="cat beat" transform="translate(-1372 739)">
      <g transform="matrix(1, 0, 0, 1, 18007.67, 6361.75)" filter="url(#Path_26896)">
        <path id="Path_26896-2" data-name="Path 26896" d="M1758.788,1440.608s125.011,2.608,157.047-104.225c22.437-74.75-12.194-116.639-50.169-124.324-25.63-5.18-52.783,5.241-64.964,31.655-10.712,23.27-4.124,41.788,5.009,50.036a16.892,16.892,0,0,0,9.234,4.6c17.324,1.833,25.076-9.009,25.984-28.113.153-3.275,1.577-15.935,12.52-15.754a21.936,21.936,0,0,1,4.991.66c16.725,4.2,25.241,28.115,24.61,55.356a127.065,127.065,0,0,1-7.412,39.971c-12.766,35.106-73.79,56.365-120.229,64.13Z" transform="translate(-1158.14 -682.66)" fill="#100725" stroke="#51efde" stroke-width="2"/>
      </g>
      <g transform="matrix(1, 0, 0, 1, 18007.67, 6361.75)" filter="url(#Path_27150)">
        <g id="Path_27150-2" data-name="Path 27150" transform="translate(-527.09 -638.43)" fill="#100725">
          <path d="M 1115.22607421875 1560.13623046875 C 1115.224853515625 1560.13623046875 1115.2236328125 1560.13623046875 1115.222412109375 1560.13623046875 C 1114.82470703125 1560.135375976563 1114.449462890625 1559.988159179688 1114.10693359375 1559.69873046875 C 1113.065551757813 1558.817260742188 1112.543334960938 1557.48046875 1112.551513671875 1555.720703125 C 1109.273315429688 1548.735473632813 1100.385009765625 1532.159301757813 1091.43896484375 1517.003540039063 C 1086.443115234375 1508.5400390625 1082.131225585938 1501.69189453125 1078.622680664063 1496.649536132813 C 1076.67529296875 1493.850708007813 1075.001831054688 1491.65234375 1073.648681640625 1490.115478515625 C 1071.872924804688 1488.098510742188 1071.12548828125 1487.771484375 1070.99365234375 1487.726318359375 C 1069.88232421875 1487.713500976563 1069.296630859375 1487.320678710938 1068.779052734375 1486.973388671875 C 1067.4755859375 1486.098876953125 1064.01318359375 1483.77587890625 1034.863891601563 1483.77587890625 C 1032.92431640625 1483.77587890625 1030.877075195313 1483.786376953125 1028.779052734375 1483.80712890625 C 996.9885864257813 1484.119873046875 989.1424560546875 1486.511474609375 986.188720703125 1487.411743164063 C 985.3062744140625 1487.680786132813 984.668701171875 1487.875122070313 983.9274291992188 1487.875244140625 C 983.8479614257813 1487.875244140625 983.7685546875 1487.873046875 983.6888427734375 1487.868408203125 C 983.24755859375 1488.343627929688 982.5736083984375 1488.938110351563 981.5487060546875 1489.748046875 C 980.1103515625 1490.884643554688 978.015869140625 1492.410034179688 975.323486328125 1494.281616210938 C 970.8175048828125 1497.413940429688 964.554443359375 1501.576293945313 956.7081909179688 1506.653198242188 C 943.3617553710938 1515.288940429688 929.8665161132813 1523.698486328125 929.7317504882813 1523.782348632813 L 928.68310546875 1524.435546875 L 927.8411254882813 1523.531494140625 C 927.7297973632813 1523.411987304688 925.067138671875 1520.542602539063 920.9970092773438 1515.23095703125 C 917.2527465820313 1510.344604492188 911.5706787109375 1502.387817382813 905.7642211914063 1492.23046875 C 899.23681640625 1480.812133789063 893.88330078125 1468.993041992188 889.8523559570313 1457.101684570313 C 884.8086547851563 1442.222900390625 881.832763671875 1427.1875 881.0073852539063 1412.413330078125 C 880.1630859375 1397.332153320313 880.318603515625 1381.69189453125 881.4695434570313 1365.92724609375 C 882.50927734375 1351.685302734375 884.3838500976563 1337.030029296875 887.0411376953125 1322.368774414063 C 888.1974487304688 1315.969604492188 896.2677001953125 1291.472534179688 911.0274047851563 1249.558837890625 C 922.0046997070313 1218.38623046875 932.7841186523438 1188.694213867188 932.8917236328125 1188.397827148438 L 933.2505493164063 1187.409912109375 L 934.3016357421875 1187.409912109375 L 1118.642211914063 1187.409912109375 L 1119.517944335938 1187.409912109375 L 1119.948486328125 1188.172485351563 C 1120.001586914063 1188.266479492188 1125.339599609375 1197.762939453125 1132.493896484375 1213.959106445313 C 1134.368530273438 1218.209716796875 1140.309326171875 1220.806274414063 1142.261474609375 1221.659545898438 C 1142.559448242188 1221.789794921875 1142.774780273438 1221.883911132813 1142.9296875 1221.962280273438 L 1142.94482421875 1221.969970703125 L 1142.959838867188 1221.977905273438 C 1146.23681640625 1223.729736328125 1152.768920898438 1229.2373046875 1161.038940429688 1236.210083007813 C 1162.40283203125 1237.360229492188 1163.813232421875 1238.549438476563 1165.2568359375 1239.761962890625 C 1170.110107421875 1243.838500976563 1175.430786132813 1249.679565429688 1181.071044921875 1257.122924804688 C 1186.35693359375 1264.097778320313 1191.757446289063 1272.410888671875 1196.27783203125 1280.530883789063 C 1200.492065429688 1288.1005859375 1203.563720703125 1294.833984375 1204.705322265625 1299.004516601563 C 1205.13134765625 1300.560791015625 1204.948120117188 1302.018798828125 1204.160766601563 1303.337890625 C 1203.015869140625 1305.255737304688 1200.636474609375 1306.794677734375 1196.67236328125 1308.180908203125 C 1193.402099609375 1309.324584960938 1189.510620117188 1310.224487304688 1185.390625 1311.17724609375 C 1180.105346679688 1312.399536132813 1174.64013671875 1313.663330078125 1170.775634765625 1315.44873046875 C 1168.853149414063 1316.3369140625 1167.4609375 1317.299438476563 1166.637817382813 1318.309448242188 C 1165.814208984375 1319.320190429688 1165.537719726563 1320.378540039063 1165.767822265625 1321.64013671875 C 1171.486083984375 1352.828125 1173.5634765625 1383.373413085938 1171.941650390625 1412.426025390625 C 1171.431762695313 1421.551879882813 1169.70849609375 1431.494995117188 1166.819458007813 1441.979370117188 C 1164.284545898438 1451.179077148438 1160.908569335938 1460.733032226563 1156.49853515625 1471.1875 C 1148.47998046875 1490.196655273438 1138.651977539063 1508.186889648438 1130.755126953125 1522.642333984375 C 1122.579223632813 1537.6083984375 1116.085815429688 1549.494506835938 1115.582153320313 1555.124877929688 C 1115.95947265625 1555.949096679688 1116.246459960938 1556.619506835938 1116.4365234375 1557.121337890625 C 1116.696166992188 1557.806640625 1117.019165039063 1558.659545898438 1116.53125 1559.422119140625 C 1116.244873046875 1559.869506835938 1115.757202148438 1560.13623046875 1115.22607421875 1560.13623046875 Z" stroke="none"/>
          <path d="M 1115.225830078125 1558.636352539063 C 1115.452392578125 1558.636840820313 1115.012939453125 1557.458984375 1114.059814453125 1555.405517578125 C 1113.993286132813 1556.844116210938 1114.310302734375 1557.905639648438 1115.075317382813 1558.553100585938 C 1115.141235351563 1558.60888671875 1115.191284179688 1558.63623046875 1115.225830078125 1558.636352539063 M 1114.059814453125 1555.405517578125 C 1114.83056640625 1538.7275390625 1167.143188476563 1471.42431640625 1170.443969726563 1412.342407226563 C 1172.221069335938 1380.507080078125 1169.4091796875 1349.817749023438 1164.292114257813 1321.9091796875 C 1161.785522460938 1308.160888671875 1206.505615234375 1311.261840820313 1203.258544921875 1299.400512695313 C 1201.04052734375 1291.2978515625 1191.160888671875 1272.920288085938 1179.87548828125 1258.02880859375 C 1174.674926757813 1251.165771484375 1169.391479492188 1245.19384765625 1164.292114257813 1240.910522460938 C 1154.261474609375 1232.485107421875 1145.918579101563 1225.260375976563 1142.252685546875 1223.30078125 C 1141.217407226563 1222.777099609375 1133.501708984375 1219.961547851563 1131.121826171875 1214.565185546875 C 1123.914428710938 1198.248901367188 1118.642211914063 1188.909912109375 1118.642211914063 1188.909912109375 L 934.3016357421875 1188.909912109375 C 934.3016357421875 1188.909912109375 891.271484375 1307.3935546875 888.51708984375 1322.63623046875 C 883.495849609375 1350.34033203125 880.7381591796875 1380.768310546875 882.5050048828125 1412.329711914063 C 886.090576171875 1476.50732421875 928.938720703125 1522.509155273438 928.938720703125 1522.509155273438 C 928.938720703125 1522.509155273438 982.79736328125 1488.96240234375 982.9996337890625 1486.226684570313 C 983.3508911132813 1486.3291015625 983.6415405273438 1486.375244140625 983.9271850585938 1486.375244140625 C 986.4707641601563 1486.374755859375 988.5750122070313 1482.70263671875 1028.764282226563 1482.30712890625 C 1030.914306640625 1482.286010742188 1032.9404296875 1482.27587890625 1034.863891601563 1482.27587890625 C 1072.93310546875 1482.27587890625 1067.939086914063 1486.226684570313 1071.050048828125 1486.226684570313 C 1076.947143554688 1486.227783203125 1107.536499023438 1541.352416992188 1114.059814453125 1555.405517578125 M 1115.228515625 1561.63623046875 L 1115.225952148438 1561.63623046875 L 1115.2236328125 1561.63623046875 L 1115.218505859375 1561.63623046875 C 1114.697875976563 1561.635498046875 1113.911499023438 1561.49755859375 1113.138671875 1560.844360351563 C 1112.322387695313 1560.1533203125 1111.736450195313 1559.257934570313 1111.395629882813 1558.181396484375 C 1111.190063476563 1557.531860351563 1111.077392578125 1556.833862304688 1111.05517578125 1556.064208984375 C 1107.792602539063 1549.177612304688 1099.301635742188 1533.337768554688 1090.713500976563 1518.7275390625 C 1085.91748046875 1510.568359375 1081.55712890625 1503.58740234375 1078.10400390625 1498.539184570313 C 1073.16650390625 1491.321166992188 1071.140258789063 1489.592651367188 1070.581787109375 1489.208740234375 C 1069.264892578125 1489.105590820313 1068.480590820313 1488.579467773438 1067.943359375 1488.218994140625 C 1067.41162109375 1487.8623046875 1066.421875 1487.1982421875 1062.295532226563 1486.569213867188 C 1056.667114257813 1485.711059570313 1047.437744140625 1485.27587890625 1034.863891601563 1485.27587890625 C 1032.930786132813 1485.27587890625 1030.888549804688 1485.286376953125 1028.793823242188 1485.307006835938 C 997.2193603515625 1485.61767578125 989.5233154296875 1487.963500976563 986.6260986328125 1488.8466796875 C 985.8263549804688 1489.09033203125 985.1204223632813 1489.305541992188 984.3251342773438 1489.361328125 C 983.83056640625 1489.831909179688 983.218505859375 1490.340209960938 982.4786987304688 1490.924926757813 C 981.0164184570313 1492.080444335938 978.8971557617188 1493.624267578125 976.1796264648438 1495.513305664063 C 971.66015625 1498.655029296875 965.3831176757813 1502.82666015625 957.5230712890625 1507.91259765625 C 944.1659545898438 1516.555297851563 930.65966796875 1524.9716796875 930.5248413085938 1525.0556640625 L 928.4275512695313 1526.361938476563 L 926.7434692382813 1524.553955078125 C 926.630126953125 1524.432250976563 923.9198608398438 1521.511474609375 919.806396484375 1516.143310546875 C 916.0341186523438 1511.220336914063 910.3098754882813 1503.204711914063 904.4619750976563 1492.974975585938 C 897.8869018554688 1481.473022460938 892.4935302734375 1469.565673828125 888.4317016601563 1457.583374023438 C 883.344482421875 1442.575927734375 880.3426513671875 1427.40673828125 879.5097045898438 1412.4970703125 C 878.6618041992188 1397.351928710938 878.81787109375 1381.646728515625 879.9734497070313 1365.817993164063 C 881.0171508789063 1351.523193359375 882.8984375 1336.814697265625 885.565185546875 1322.101196289063 C 886.7355346679688 1315.62451171875 894.8263549804688 1291.049560546875 909.612548828125 1249.060668945313 C 920.59228515625 1217.881225585938 931.3742065429688 1188.18212890625 931.4818115234375 1187.885864257813 L 932.1994018554688 1185.909912109375 L 934.3016357421875 1185.909912109375 L 1118.642211914063 1185.909912109375 L 1120.393676757813 1185.909912109375 L 1121.254638671875 1187.435180664063 C 1121.472900390625 1187.821655273438 1126.681762695313 1197.089233398438 1133.865966796875 1213.35302734375 C 1135.505004882813 1217.069458007813 1141.042602539063 1219.48974609375 1142.8623046875 1220.28515625 C 1143.1826171875 1220.425170898438 1143.414184570313 1220.5263671875 1143.606811523438 1220.623779296875 L 1143.637084960938 1220.639038085938 L 1143.666870117188 1220.655029296875 C 1147.083129882813 1222.481201171875 1153.342529296875 1227.7587890625 1162.005859375 1235.063354492188 C 1163.369262695313 1236.213012695313 1164.779174804688 1237.401733398438 1166.2216796875 1238.613403320313 C 1171.160522460938 1242.761840820313 1176.558715820313 1248.6845703125 1182.266479492188 1256.217041015625 C 1187.593505859375 1263.245971679688 1193.034912109375 1271.621826171875 1197.588500976563 1279.80126953125 C 1201.858764648438 1287.471801757813 1204.97998046875 1294.326782226563 1206.152099609375 1298.6083984375 C 1206.682495117188 1300.546020507813 1206.439331054688 1302.447265625 1205.44873046875 1304.106689453125 C 1204.113525390625 1306.343383789063 1201.482177734375 1308.088012695313 1197.167602539063 1309.596801757813 C 1193.81982421875 1310.767578125 1189.8896484375 1311.676391601563 1185.728637695313 1312.638671875 C 1180.517333984375 1313.843872070313 1175.128784179688 1315.089965820313 1171.40478515625 1316.810424804688 C 1166.7998046875 1318.937866210938 1167.110717773438 1320.642944335938 1167.243530273438 1321.37109375 C 1172.98291015625 1352.674194335938 1175.067626953125 1383.338623046875 1173.439331054688 1412.509643554688 C 1172.923583984375 1421.741821289063 1171.182861328125 1431.790893554688 1168.265625 1442.3779296875 C 1165.713134765625 1451.640991210938 1162.316162109375 1461.25537109375 1157.880615234375 1471.7705078125 C 1149.83251953125 1490.849365234375 1139.984497070313 1508.87646484375 1132.071533203125 1523.361450195313 C 1127.768432617188 1531.23828125 1124.05224609375 1538.041015625 1121.343627929688 1543.657348632813 C 1118.85595703125 1548.815795898438 1117.438110351563 1552.585327148438 1117.119873046875 1554.883056640625 C 1117.428588867188 1555.568969726563 1117.66552734375 1556.131469726563 1117.839111328125 1556.589721679688 C 1118.135864257813 1557.372924804688 1118.688110351563 1558.830810546875 1117.796508789063 1560.2275390625 C 1117.234008789063 1561.109008789063 1116.274169921875 1561.635498046875 1115.228515625 1561.63623046875 L 1115.228515625 1561.63623046875 Z" stroke="none" fill="#51efde"/>
        </g>
      </g>
      <path id="Path_27152" data-name="Path 27152" d="M1205.39,2196.16a93.771,93.771,0,0,1,10.953,2.328c3.547.91,6.951,2.069,10.379,3.133s6.83,2.129,10.219,3.177c3.376,1.089,6.755,2.046,10.089,3.2l.106.036a4.561,4.561,0,0,1-2.413,8.775,71.735,71.735,0,0,1-10.811-3.193,109.684,109.684,0,0,1-10.221-4.537,86.61,86.61,0,0,1-9.652-5.591A49.331,49.331,0,0,1,1205.39,2196.16Z" transform="translate(17230.369 4970.114)" fill="#4d4d4f"/>
      <path id="Path_27153" data-name="Path 27153" d="M1547.5,2196.16a49.789,49.789,0,0,1-8.638,7.337,86.546,86.546,0,0,1-9.652,5.59,109.69,109.69,0,0,1-10.221,4.538,71.883,71.883,0,0,1-10.808,3.192,4.561,4.561,0,0,1-2.416-8.775l.106-.036c3.322-1.156,6.7-2.114,10.089-3.2,3.386-1.048,6.8-2.07,10.216-3.177s6.85-2.183,10.379-3.133A84.55,84.55,0,0,1,1547.5,2196.16Z" transform="translate(17020.432 4976.652)" fill="#4d4d4f"/>
      <g transform="matrix(1, 0, 0, 1, 18007.67, 6361.75)" filter="url(#Path_27156)">
        <g id="Path_27156-2" data-name="Path 27156" transform="translate(-1180.79 -863.69)" fill="#100725">
          <path d="M 1813.777709960938 1583.259155273438 C 1809.273681640625 1583.259155273438 1804.652465820313 1582.662109375 1800.04248046875 1581.484741210938 C 1796.634887695313 1580.614379882813 1793.295043945313 1579.447387695313 1790.115966796875 1578.016357421875 C 1787.509765625 1576.845947265625 1784.2138671875 1574.784301757813 1781.073852539063 1572.3603515625 C 1777.01953125 1569.23046875 1773.244262695313 1565.5205078125 1770.155883789063 1561.631469726563 C 1766.2763671875 1556.74609375 1763.386840820313 1551.515869140625 1761.567504882813 1546.08642578125 C 1759.40673828125 1539.63818359375 1758.761596679688 1532.89990234375 1759.64990234375 1526.058715820313 C 1760.537475585938 1519.208251953125 1762.660766601563 1513.151123046875 1765.9609375 1508.055908203125 C 1768.818237304688 1503.644409179688 1772.567138671875 1499.929565429688 1777.103515625 1497.014404296875 C 1780.897216796875 1494.576416015625 1785.178833007813 1492.7275390625 1789.829345703125 1491.518920898438 C 1794.584838867188 1490.283081054688 1798.538696289063 1490.023681640625 1801.018188476563 1490.023681640625 C 1802.584228515625 1490.023681640625 1804.046264648438 1490.130126953125 1805.24609375 1490.331420898438 C 1812.419555664063 1491.527954101563 1818.777587890625 1494.65771484375 1824.682495117188 1499.899169921875 C 1829.777221679688 1504.42138671875 1833.819091796875 1509.877685546875 1837.385131835938 1514.691772460938 C 1840.117431640625 1518.380249023438 1842.698120117188 1521.864135742188 1845.316284179688 1524.33447265625 C 1848.098266601563 1526.959350585938 1850.646484375 1528.181884765625 1853.335693359375 1528.181884765625 C 1854.563842773438 1528.181884765625 1855.81005859375 1527.933227539063 1857.145751953125 1527.421630859375 L 1858.189453125 1527.021850585938 L 1858.47119140625 1528.103515625 C 1858.49267578125 1528.186157226563 1859.001953125 1530.164184570313 1859.331298828125 1533.381713867188 C 1859.634033203125 1536.338500976563 1859.83349609375 1540.95068359375 1859.06494140625 1546.131225585938 C 1858.198486328125 1551.971435546875 1856.3046875 1557.328125 1853.435913085938 1562.052490234375 C 1849.849487304688 1567.959106445313 1844.728881835938 1572.877075195313 1838.216186523438 1576.670043945313 C 1830.702514648438 1581.042358398438 1822.480346679688 1583.259155273438 1813.777709960938 1583.259155273438 Z" stroke="none"/>
          <path d="M 1813.777709960938 1582.259155273438 C 1821.191040039063 1582.259155273438 1829.446655273438 1580.616088867188 1837.712890625 1575.805908203125 C 1865.62646484375 1559.54931640625 1857.50341796875 1528.35546875 1857.50341796875 1528.35546875 C 1856.02685546875 1528.921020507813 1854.646118164063 1529.181884765625 1853.335693359375 1529.181884765625 C 1838.564331054688 1529.181884765625 1832.958374023438 1495.967895507813 1805.08056640625 1491.317626953125 C 1803.980224609375 1491.133056640625 1802.603637695313 1491.023681640625 1801.018188476563 1491.023681640625 C 1788.808959960938 1491.023681640625 1764.355346679688 1497.52099609375 1760.6416015625 1526.1875 C 1756.8955078125 1555.03759765625 1781.885986328125 1573.22412109375 1790.5263671875 1577.1044921875 C 1795.466918945313 1579.328369140625 1803.87158203125 1582.259155273438 1813.777709960938 1582.259155273438 M 1813.777709960938 1584.259155273438 C 1809.190185546875 1584.259155273438 1804.48583984375 1583.651733398438 1799.795043945313 1582.45361328125 C 1796.331665039063 1581.568969726563 1792.937133789063 1580.382934570313 1789.705444335938 1578.92822265625 C 1787.031616210938 1577.727416992188 1783.662231445313 1575.621704101563 1780.462768554688 1573.15185546875 C 1776.345458984375 1569.973388671875 1772.510620117188 1566.204711914063 1769.372802734375 1562.25341796875 C 1765.420776367188 1557.276611328125 1762.475708007813 1551.944213867188 1760.619262695313 1546.404174804688 C 1758.410034179688 1539.811157226563 1757.750244140625 1532.922607421875 1758.658203125 1525.929931640625 C 1759.565063476563 1518.930541992188 1761.739624023438 1512.733764648438 1765.12158203125 1507.51220703125 C 1768.056640625 1502.980712890625 1771.906127929688 1499.165649414063 1776.562866210938 1496.173095703125 C 1780.445922851563 1493.677856445313 1784.82470703125 1491.786376953125 1789.577758789063 1490.551147460938 C 1794.435546875 1489.288696289063 1798.480346679688 1489.023681640625 1801.018188476563 1489.023681640625 C 1802.661987304688 1489.023681640625 1804.14013671875 1489.1318359375 1805.411499023438 1489.34521484375 C 1821.890014648438 1492.093994140625 1830.92724609375 1504.293823242188 1838.188720703125 1514.096557617188 C 1840.893798828125 1517.748291015625 1843.448852539063 1521.197631835938 1846.002563476563 1523.607177734375 C 1848.58740234375 1526.046020507813 1850.91748046875 1527.181884765625 1853.335693359375 1527.181884765625 C 1854.439331054688 1527.181884765625 1855.568603515625 1526.954833984375 1856.7880859375 1526.48779296875 L 1858.875610351563 1525.688232421875 L 1859.438842773438 1527.851440429688 C 1859.526000976563 1528.18603515625 1861.555053710938 1536.16064453125 1860.054077148438 1546.277954101563 C 1859.16796875 1552.250732421875 1857.228881835938 1557.732666015625 1854.290771484375 1562.571533203125 C 1850.616821289063 1568.622192382813 1845.377807617188 1573.656372070313 1838.719360351563 1577.5341796875 C 1831.05078125 1581.996704101563 1822.659301757813 1584.259155273438 1813.777709960938 1584.259155273438 Z" stroke="none" fill="#51efde"/>
        </g>
      </g>
      <g id="Group_73531" data-name="Group 73531" transform="translate(18246.609 6751.894)" opacity="0.5">
        <path id="Path_26915" data-name="Path 26915" d="M168.466,748.968s161.581-42.874,187.6-51.644S474.008,656.009,511.2,646.955l156.518-38.063a20.815,20.815,0,0,1,22.3,8.6,42.429,42.429,0,0,1,3.333,6.128c-.029-.119-.049-.225-.079-.351a49.565,49.565,0,0,0-6.624-15.905,20.826,20.826,0,0,0-22.3-8.6L507.83,636.826c-37.2,9.047-129.126,41.61-155.146,50.363s-187.6,51.644-187.6,51.644a27.808,27.808,0,0,0,.135,12.854,28.511,28.511,0,0,0,2.831,7.207,27.376,27.376,0,0,1,.412-9.926Z" transform="translate(-164.4 -598.163)" fill="#fff"/>
      </g>
      <g id="Group_73526" data-name="Group 73526" transform="translate(18606.625 6892.981)" opacity="0.3">
        <path id="Path_26897" data-name="Path 26897" d="M1764.568,1451.315s125.011,2.608,157.047-104.225c21.052-70.14-8.144-111.349-43.2-122.5,23.613,18.987,39.255,62.719,22.858,117.372-24,80.007-101.682,92-138.407,96.3Z" transform="translate(-1762.87 -1224.59)" fill="#000072"/>
      </g>
      <g id="Group_73527" data-name="Group 73527" transform="translate(18655.244 6920.668)" opacity="0.3">
        <path id="Path_26900" data-name="Path 26900" d="M1978.75,1399.709a16.892,16.892,0,0,0,9.234,4.6c17.324,1.833,25.076-9.009,25.984-28.113.153-3.275,1.577-15.935,12.521-15.754a21.929,21.929,0,0,1,4.991.66c16.725,4.2,25.241,28.115,24.611,55.356l4.193-1.89s-1.628-55.874-33.371-65.214c-32.86-9.667-31.757,21.171-36,37.288C1988.347,1396.324,1982.788,1399.067,1978.75,1399.709Z" transform="translate(-1978.75 -1347.52)" fill="#000072"/>
      </g>
      <g id="Group_73529" data-name="Group 73529" transform="translate(18605.797 7092.852)" opacity="0.3">
        <path id="Path_26907" data-name="Path 26907" d="M1795.077,2128.213q-15.014,3.879-29.36,6.829c-1.045.225-2.081.432-3.117.64q1.7-6.729,3.117-14.153,13.5-2.783,27.594-6.378Z" transform="translate(-1761.834 -2114.445)" fill="#6b184e"/>
        <path id="Path_26908" data-name="Path 26908" d="M1759.2,2133.984l.225-.867c1.153-4.565,2.2-9.315,3.108-14.119l.07-.369.37-.077c9.11-1.878,18.387-4.022,27.57-6.374l.613-.158,1.917,14.189-.484.126c-9.831,2.538-19.719,4.838-29.387,6.833l-.268.056c-.955.2-1.9.394-2.851.586Zm4.365-14.414c-.838,4.4-1.791,8.748-2.836,12.95l1.969-.405.27-.057c9.491-1.959,19.194-4.212,28.851-6.7l-1.615-11.937c-8.876,2.263-17.833,4.333-26.639,6.153Z" transform="translate(-1759.2 -2112.02)" fill="#000072"/>
      </g>
      <path id="Path_26911" data-name="Path 26911" d="M50.211,1209.056a27.867,27.867,0,0,0,5.784,11.487v.018c-1.779,7.6-6.881,13.64-13.964,15.365-10.8,2.624-22.1-5.764-25.252-18.734s3.038-25.6,13.827-28.225c7.086-1.723,14.39,1.3,19.462,7.234A27.817,27.817,0,0,0,50.211,1209.056Z" transform="translate(18197.221 5696.364)" fill="#a553ff"/>
      <path id="Path_26912" data-name="Path 26912" d="M693.341,623.242a49.9,49.9,0,0,1,1.417,17.182A20.838,20.838,0,0,1,678.888,658.3L522.37,696.368c-37.189,9.045-133.806,22.329-160.941,26.5s-190.36,40.277-190.36,40.277a28.426,28.426,0,0,1-5.919-24.324s161.581-42.874,187.6-51.644S470.692,645.854,507.884,636.8L664.4,598.737a20.822,20.822,0,0,1,22.3,8.6A49.625,49.625,0,0,1,693.341,623.242Z" transform="translate(18082.146 6153.751)" fill="#272727"/>
      <g id="Group_73530" data-name="Group 73530" transform="translate(18212.053 6882.6)" opacity="0.5">
        <path id="Path_26913" data-name="Path 26913" d="M176.183,1304.723a29.248,29.248,0,0,0,1.471,4.435,24.5,24.5,0,0,0,.939-3.07v-.018a27.021,27.021,0,0,1-2.953-4.279A28.863,28.863,0,0,0,176.183,1304.723Z" transform="translate(-138.553 -1274.021)" fill="#fff"/>
        <path id="Path_26914" data-name="Path 26914" d="M29,1189.109a18.513,18.513,0,0,1,15.4,3.453,26.8,26.8,0,0,1,.676-6.354c-5.056-5.937-12.36-8.95-19.455-7.234-10.788,2.626-16.975,15.266-13.824,28.219a28.576,28.576,0,0,0,2.845,7.245C12.987,1202.544,19.014,1191.54,29,1189.109Z" transform="translate(-10.971 -1178.496)" fill="#fff"/>
      </g>
      <g id="Group_73532" data-name="Group 73532" transform="translate(18213.275 6764.937)" opacity="0.3">
        <path id="Path_26916" data-name="Path 26916" d="M56.346,1293.371c-1.784,7.6-6.883,13.64-13.964,15.36-10.793,2.631-22.09-5.757-25.243-18.73a29.367,29.367,0,0,1-.739-4.595c5.045,7.432,13.261,11.486,21.216,9.55,6.162-1.5,10.811-6.27,13.1-12.486a27.768,27.768,0,0,0,5.631,10.883Z" transform="translate(-16.4 -1141.389)" fill="#1a1818"/>
        <path id="Path_26917" data-name="Path 26917" d="M694.976,685.313A20.819,20.819,0,0,1,679.1,703.187L522.588,741.25c-37.189,9.045-133.811,22.324-160.946,26.5-9.959,1.531-38.247,7.363-70.246,14.171-54.711,11.64-120.114,26.108-120.114,26.108a27.768,27.768,0,0,1-5.631-10.883c-.054-.2-.108-.4-.153-.595a28.834,28.834,0,0,1-.739-4.622,26.47,26.47,0,0,0,1.757,2.315s163.216-36.117,190.36-40.27,123.748-17.459,160.937-26.5L674.345,689.4A20.842,20.842,0,0,0,690.21,671.52a48.483,48.483,0,0,0-1.027-15.45,54.249,54.249,0,0,1,4.387,12.045A50.288,50.288,0,0,1,694.976,685.313Z" transform="translate(-131.346 -656.07)" fill="#1a1818"/>
      </g>
      <g id="Group_73533" data-name="Group 73533" transform="translate(18245.969 6898.731)" opacity="0.3">
        <path id="Path_26918" data-name="Path 26918" d="M166.517,1261.625v.018a24.833,24.833,0,0,1-.865,2.883c-.054-.2-.108-.4-.153-.595a28.829,28.829,0,0,1-.739-4.622A26.48,26.48,0,0,0,166.517,1261.625Z" transform="translate(-164.037 -1257.24)" fill="#6b184e"/>
        <path id="Path_26919" data-name="Path 26919" d="M163.084,1259.251l-.462-1.7c-.056-.2-.113-.41-.16-.617a29.371,29.371,0,0,1-.752-4.7l-.16-2.113,1.189,1.752a25.988,25.988,0,0,0,1.718,2.268l.135.158-.016.354a25.352,25.352,0,0,1-.885,2.948Zm-.011-5.02c.054.349.115.7.182,1.05.056-.207.11-.417.162-.626Z" transform="translate(-161.55 -1250.12)" fill="#000072"/>
      </g>
      <path id="Path_26920" data-name="Path 26920" d="M25.713,1227.641c-11.081,0-21.622-8.962-24.775-21.959-3.6-14.865,3.779-29.484,16.484-32.574,8.108-1.971,16.944,1.245,23.054,8.394l1.182,1.385-.414,1.775a24.842,24.842,0,0,0,5.155,21.187l.527.619.45,1.656-.2.9c-2.144,9.16-8.514,16.074-16.626,18.045a20.317,20.317,0,0,1-4.836.572Zm-3.4-47.91a13.489,13.489,0,0,0-3.182.378c-8.842,2.153-13.86,12.858-11.182,23.874s12.047,18.23,20.9,16.081c5.072-1.234,9.045-5.315,10.863-11.061a32.18,32.18,0,0,1-5.856-24.058A16.482,16.482,0,0,0,22.317,1179.731Z" transform="translate(18209.563 5708.72)" fill="#f5f5f5"/>
      <path id="Path_26921" data-name="Path 26921" d="M157.324,754.734l-1.405-1.655a32.018,32.018,0,0,1-6.682-27.489l.491-2.108,2.095-.556c1.615-.428,161.761-42.941,187.369-51.576,4.982-1.676,12.218-4.171,21.381-7.327,38.836-13.383,103.829-35.781,134.056-43.131l156.518-38.063a24.481,24.481,0,0,1,26.162,10.1,53.961,53.961,0,0,1,7.131,17.054h0a53.789,53.789,0,0,1,1.5,18.423,24.493,24.493,0,0,1-18.6,20.993l-156.52,38.063c-30.221,7.349-98.25,17.3-138.9,23.252-9.586,1.4-17.153,2.511-22.347,3.311-26.712,4.092-188.5,39.865-190.128,40.232Zm-1.45-25.428a25.056,25.056,0,0,0,4.243,17.432c20.453-4.518,162.822-35.917,188.362-39.827,5.216-.8,12.8-1.912,22.4-3.318,40.522-5.93,108.344-15.856,138.239-23.124l156.518-38.063a17.261,17.261,0,0,0,13.14-14.77,51.856,51.856,0,0,0-7.471-30.714,17.26,17.26,0,0,0-18.453-7.083L496.337,627.9c-29.9,7.27-94.7,29.6-133.417,42.941-9.178,3.153-16.426,5.66-21.43,7.345C317.008,686.435,176.116,723.93,155.873,729.306Z" transform="translate(18094.553 6166.155)" fill="#f5f5f5"/>
      <g transform="matrix(1, 0, 0, 1, 18007.67, 6361.75)" filter="url(#head)">
        <path id="head-2" data-name="head" d="M928.79,212.746c2.354,12.441,8.872,24.57,8.457,28.6C936.4,249.512,918.073,240,918.073,240s-1.045,2.568,2.669,9.829c2.761,5.405,5.18,9.347,4.088,12.27-1.16,3.115-6.453,3.8-12.628,3.153-4.336-.45-8,.144-12.732,5.36a39.392,39.392,0,0,0-2.9,3.6.04.04,0,0,0-.032.018h0c-14.16,16.732-33.529,29.074-56.437,37.561,0,0-127.394,35.5-198.268-14.189a109.469,109.469,0,0,1-28.011-29.3,14.065,14.065,0,0,0-5.532-.239c-6.162.761-11.468.178-12.691-2.928-1.142-2.9.824-7.241,3.232-12.838a49.3,49.3,0,0,0,2.977-8.608c.072-.324-.2-.579-.45-.45-3.153,1.626-17.66,8.651-18.559,1.394-.489-4.036,5.82-16.277,7.935-28.77,3.448-20.374,6.209-34.718,7.953-43.39.041-.225.092-.466.144-.709s.092-.45.135-.676.092-.45.135-.658q.791-3.784,1.786-7.511c3.043-11.486,7.453-22.914,13.1-35.847-8.516-14.385-74.058-101.1-55.108-125.782,10.811-14.083,115.763,35.659,132.258,41.814a154.86,154.86,0,0,1,60.836-15.595q6.872-.378,13.446-.18a1.824,1.824,0,0,1,.333,0c16.484.432,31.1,4.937,45.214,9.867a138.18,138.18,0,0,1,17.209,7.414c16.565-5.973,119.665-57.5,130.343-43.321,18.651,24.775-43.2,112.413-51.991,127,2.227,4.712,4.2,9.363,5.955,14.061a145.328,145.328,0,0,1,5.279,17.178s.02.1.07.315C918.425,162.32,922.51,179.458,928.79,212.746Z" transform="translate(-251.05 238.8)" fill="#100725" stroke="#51efde" stroke-width="2"/>
      </g>
      <path id="Path_26927" data-name="Path 26927" d="M1138.73,936.188c-.029,21.372,22.322,33.034,49.475,33.261,26.953.225,48.061-11.068,48.09-32.432.029-22.137-22.8-40.48-48.649-40.7C1160.7,896.087,1138.764,912.479,1138.73,936.188Z" transform="translate(17327.322 5922.727)" fill="#4d4d4f"/>
      <g id="Group_73536" data-name="Group 73536" transform="translate(18507.299 6825.647)" opacity="0.5">
        <path id="Path_26932" data-name="Path 26932" d="M1339.634,930.276c0,1.241-3.43,2.667-7.644,2.646s-7.624-1.478-7.619-2.719,3.428-2.086,7.642-2.065S1339.641,929.035,1339.634,930.276Z" transform="translate(-1323.807 -927.573)" fill="#fff"/>
        <path id="Path_26933" data-name="Path 26933" d="M1330.14,931.542h-.09c-3.876-.018-8.189-1.372-8.18-3.284.011-1.966,4.471-2.676,8.207-2.626,3.779.018,8.192.737,8.182,2.7h0c0,.881-.932,1.7-2.612,2.324A16.4,16.4,0,0,1,1330.14,931.542Zm-.225-4.784c-4.543,0-6.921.975-6.926,1.507,0,.628,2.734,2.131,7.059,2.151a16.882,16.882,0,0,0,5.2-.815c1.351-.5,1.874-1.047,1.874-1.27h0c0-.538-2.421-1.55-7.061-1.577Z" transform="translate(-1321.87 -925.629)" fill="#000072"/>
      </g>
      <g transform="matrix(1, 0, 0, 1, 18007.67, 6361.75)" filter="url(#Path_26943)">
        <path id="Path_26943-2" data-name="Path 26943" d="M383.136,1327.288c-84.941,12.477-117.466-75.043-117.466-75.043l83.959-18.335s26.91,29.18,54.029,36.667" transform="translate(-3.92 -700.58)" fill="#100725" stroke="#51efde" stroke-width="2"/>
      </g>
      <g id="Group_73542" data-name="Group 73542" transform="translate(18269.418 6909.152)" opacity="0.3">
        <path id="Path_26945" data-name="Path 26945" d="M383.148,1375.7h0c-84.946,12.478-117.468-75.045-117.468-75.045l19.5-4.261c8.831,18.187,36.108,63.808,89.074,68.444A9.869,9.869,0,0,1,383.148,1375.7Z" transform="translate(-265.68 -1296.39)" fill="#000072"/>
      </g>
      <g transform="matrix(1, 0, 0, 1, 18007.67, 6361.75)" filter="url(#Path_26968)">
        <g id="Path_26968-2" data-name="Path 26968" transform="translate(-3.93 -596.36)" fill="#100725">
          <path d="M 291.5177917480469 1153.793334960938 C 285.8905334472656 1153.793334960938 281.2611694335938 1152.526489257813 277.7583923339844 1150.027954101563 C 272.7232971191406 1146.435791015625 268.7389831542969 1141.375366210938 266.5393371582031 1135.77880859375 C 265.4035339355469 1132.889038085938 264.7798461914063 1129.953735351563 264.6856079101563 1127.054809570313 C 264.5855102539063 1123.975219726563 265.0877075195313 1121.002319335938 266.1782836914063 1118.21875 C 268.2733459472656 1112.867553710938 273.6358337402344 1107.833374023438 281.2778930664063 1104.043823242188 C 288.5279235839844 1100.448608398438 297.1138610839844 1098.38671875 304.8341979980469 1098.38671875 C 310.2398681640625 1098.38671875 314.9781188964844 1099.351928710938 318.9173278808594 1101.255737304688 C 323.3319396972656 1103.38916015625 326.532958984375 1106.613891601563 328.4314270019531 1110.840209960938 C 329.4725341796875 1113.1572265625 331.4751586914063 1118.604858398438 332.3766784667969 1124.3251953125 C 332.8666076660156 1127.43408203125 332.9696350097656 1130.211303710938 332.6828918457031 1132.579956054688 C 332.3312683105469 1135.484619140625 331.3877258300781 1137.799072265625 329.8784790039063 1139.458862304688 C 327.4272766113281 1142.154541015625 321.4479064941406 1145.716796875 314.6453247070313 1148.534057617188 C 306.4563598632813 1151.925537109375 298.2428283691406 1153.793334960938 291.5177917480469 1153.793334960938 Z" stroke="none"/>
          <path d="M 304.8341674804688 1099.38671875 C 289.2782897949219 1099.38671875 271.3328857421875 1107.795776367188 267.109375 1118.58349609375 C 262.8120727539063 1129.552001953125 268.6251831054688 1142.28369140625 278.339111328125 1149.2138671875 C 281.9208068847656 1151.768676757813 286.5280151367188 1152.793334960938 291.5177917480469 1152.793334960938 C 306.4240112304688 1152.793334960938 324.724365234375 1143.640625 329.1386108398438 1138.7861328125 C 335.0304565429688 1132.306396484375 329.7872314453125 1116.29736328125 327.5192260742188 1111.25 C 323.7312622070313 1102.817260742188 314.7701416015625 1099.38671875 304.8341674804688 1099.38671875 M 304.8341674804688 1097.38671875 C 310.3917846679688 1097.38671875 315.2764282226563 1098.385498046875 319.3524780273438 1100.355346679688 C 321.5779724121094 1101.430908203125 323.5381164550781 1102.796752929688 325.178466796875 1104.4150390625 C 326.9218139648438 1106.134887695313 328.3231811523438 1108.158813476563 329.3435974121094 1110.430541992188 C 330.6619567871094 1113.364379882813 332.5061645507813 1118.723266601563 333.3644714355469 1124.169555664063 C 333.8688049316406 1127.36962890625 333.9735107421875 1130.23974609375 333.6756286621094 1132.700073242188 C 333.2985534667969 1135.81494140625 332.2699279785156 1138.315185546875 330.6183471679688 1140.131591796875 C 328.07568359375 1142.927856445313 321.9561157226563 1146.588623046875 315.0279541015625 1149.4580078125 C 311.1754455566406 1151.053466796875 307.3075561523438 1152.3232421875 303.5317993164063 1153.23193359375 C 299.2262878417969 1154.26806640625 295.1842041015625 1154.793334960938 291.5177917480469 1154.793334960938 C 285.6781311035156 1154.793334960938 280.8534240722656 1153.463989257813 277.1777038574219 1150.842041015625 C 271.98681640625 1147.138793945313 267.8782348632813 1141.919189453125 265.608642578125 1136.144653320313 C 264.430908203125 1133.148193359375 263.7840881347656 1130.100830078125 263.6861267089844 1127.087280273438 C 263.5816040039063 1123.871215820313 264.1068115234375 1120.7646484375 265.2471923828125 1117.853881835938 C 267.4329833984375 1112.27099609375 272.9684143066406 1107.048095703125 280.8336181640625 1103.147827148438 C 284.4725341796875 1101.343383789063 288.3971557617188 1099.9228515625 292.4984741210938 1098.92578125 C 296.6990966796875 1097.904541015625 300.8494262695313 1097.38671875 304.8341674804688 1097.38671875 Z" stroke="none" fill="#51efde"/>
        </g>
      </g>
      <path id="Path_26969" data-name="Path 26969" d="M289.58,1151.4c-5.119,0-9.865-1.058-13.57-3.7-9.2-6.563-16.079-19.421-11.428-31.306,4.054-10.372,20.734-19.144,37.162-19.536,12.047-.32,20.626,4.036,24.284,12.187h0c2.324,5.18,7.6,21.464,1.522,28.153C322.992,1142.2,304.661,1151.4,289.58,1151.4Zm13.227-53.428c-.358,0-.7,0-1.032.011-15.748.385-32.3,9.009-36.144,18.824-4.441,11.342,2.187,23.664,11.036,29.973,14.164,10.1,44.748-4.5,50.056-10.347,5.669-6.234.532-21.921-1.716-26.926h0C320.564,1099.619,309.609,1097.971,302.807,1097.971Z" transform="translate(18005.748 5767.371)" fill="#000072"/>
      <g id="Group_73550" data-name="Group 73550" transform="translate(18269.416 6885.747)" opacity="0.3">
        <path id="Path_26970" data-name="Path 26970" d="M329.135,1210.9c-5.892,6.486-36.523,20.621-50.8,10.432-9.189-6.558-14.9-18.315-11.838-28.865a30.755,30.755,0,0,0,11.838,16.766c14.279,10.189,44.91-3.946,50.8-10.423a9.495,9.495,0,0,0,1.991-3.658C332.244,1201.02,332.343,1207.371,329.135,1210.9Z" transform="translate(-265.663 -1192.47)" fill="#000072"/>
      </g>
      <path id="Path_26972" data-name="Path 26972" d="M1257.632,1054.048a68.548,68.548,0,0,1,14.377-4.831,88.514,88.514,0,0,1,15.675-2.092,68.53,68.53,0,0,1,16.214,1.155,51.088,51.088,0,0,1,7.711,2.234,32.811,32.811,0,0,1,6.684,3.559l-.231-.1.2.119a1.45,1.45,0,0,1,.6,2.126,2.744,2.744,0,0,1-2.7.906l-.249-.045-.231-.1c-2.292-.579-4.493-1.126-6.745-1.518s-4.512-.679-6.8-.887a115.365,115.365,0,0,0-13.925-.259c-4.705.182-9.459.583-14.253,1.1s-9.672,1.167-14.5,1.752l-.145.018a2.579,2.579,0,0,1-2.573-1.073,1.5,1.5,0,0,1,.889-2.067Z" transform="translate(17227.928 5805.946)" fill="#da7392"/>
      <path id="Path_26973" data-name="Path 26973" d="M962.085,678.19a5.333,5.333,0,0,1-1.549,3.743,5.246,5.246,0,0,1-2.059,1.273,5.1,5.1,0,0,1-1.694.284,1.98,1.98,0,0,0-1.978,1.971v29.308a45.221,45.221,0,0,1-45.218,45.225H870.9a45.23,45.23,0,0,1-45.219-45.225v-.851a26.03,26.03,0,0,0-1.937-9.881c-8.234-20.189-37.453-20.189-45.689,0a26.033,26.033,0,0,0-1.937,9.881v.851a45.222,45.222,0,0,1-45.225,45.225H692.216c-1.531,0-3.041-.081-4.531-.225a44.47,44.47,0,0,1-9.167-1.89A45.225,45.225,0,0,1,647,714.768V685.46a1.964,1.964,0,0,0-.568-1.394,1.987,1.987,0,0,0-1.4-.577,5.024,5.024,0,0,1-1.694-.284,5.293,5.293,0,0,1,1.263-10.293c10.115-.827,34.5-2.7,59.216-4.077,10.277-.574,20.6-1.061,30-1.338,3.646-.113,7.155-.187,10.462-.225,5.2-.072,9.91-.041,13.91.1,2.8.1,5.568.225,8.243.365,2.928.146,5.761.315,8.469.5a396.637,396.637,0,0,0,51.272.031c5.3-.349,11.194-.664,17.459-.9,11.525-.421,29.162.162,47.342,1.086h0c9.509.5,19.144,1.088,28.133,1.671h.018q5.12.338,9.91.676c8.365.574,15.788,1.142,21.471,1.577h0c2.633.2,4.894.387,6.7.534A5.293,5.293,0,0,1,962.085,678.19Z" transform="translate(17713.938 6100.226)" fill="#1a1818"/>
      <path id="Path_26974" data-name="Path 26974" d="M1558.82,763.741l54.68-89.414c-9.009-.588-18.631-1.178-28.137-1.667h0L1535.98,753.4Z" transform="translate(17019.543 6096.013)" fill="url(#linear-gradient)"/>
      <path id="Path_26975" data-name="Path 26975" d="M1758.018,684.677l-53.583,87.613H1682l54.556-89.189C1744.917,683.679,1752.338,684.24,1758.018,684.677Z" transform="translate(16906.41 6087.924)" fill="url(#linear-gradient)"/>
      <path id="Path_26976" data-name="Path 26976" d="M795.951,668.44l-55.277,90.38a45.27,45.27,0,0,1-20.734-13.788l46.018-75.254C776.23,669.208,786.559,668.717,795.951,668.44Z" transform="translate(17651.791 6099.283)" fill="url(#linear-gradient)"/>
      <path id="Path_26977" data-name="Path 26977" d="M931.394,667.734,874.966,760H857.192c-1.534,0-3.043-.081-4.531-.225l56.581-92.5c5.207-.072,9.926-.045,13.912.1C925.953,667.466,928.718,667.592,931.394,667.734Z" transform="translate(17548.963 6100.22)" fill="url(#linear-gradient)"/>
      <path id="Path_26980" data-name="Path 26980" d="M738.48,757.477l-.419-.133a45.781,45.781,0,0,1-21-13.964l-.266-.309,46.4-75.844.3-.018c11.727-.651,21.543-1.09,30.009-1.338l1.038-.031-.543.887ZM718.2,742.961a44.631,44.631,0,0,0,19.793,13.173l54.5-89.115c-8.144.25-17.532.676-28.642,1.288Z" transform="translate(17654.225 6101.296)" fill="none"/>
      <path id="Path_26982" data-name="Path 26982" d="M897.151,751.175H858.478a48.881,48.881,0,0,1-48.826-48.827V701.5a22.421,22.421,0,0,0-1.667-8.525,20.675,20.675,0,0,0-19.513-12.9c-6.9,0-15.628,3.378-19.507,12.9A22.521,22.521,0,0,0,767.3,701.5v.849a48.883,48.883,0,0,1-48.829,48.827h-38.68a48.882,48.882,0,0,1-48.829-48.827V674.522a8.9,8.9,0,0,1,.9-17.628c19.473-1.577,85.234-6.595,114.007-5.554,5.405.2,11.061.486,16.82.86a392.563,392.563,0,0,0,50.8.034c5.919-.385,11.829-.676,17.567-.9,28.786-1.045,94.536,3.986,114.007,5.554a8.9,8.9,0,0,1,.923,17.631v27.831A48.9,48.9,0,0,1,897.151,751.175ZM788.469,672.867a27.723,27.723,0,0,1,26.189,17.385,29.609,29.609,0,0,1,2.2,11.248v.849a41.667,41.667,0,0,0,41.619,41.619h38.673a41.668,41.668,0,0,0,41.622-41.619V673.043a5.583,5.583,0,0,1,5.579-5.579,1.7,1.7,0,0,0,.137-3.385c-19.369-1.559-84.779-6.559-113.164-5.534-5.667.2-11.507.5-17.356.883a399.788,399.788,0,0,1-51.736-.034c-5.691-.372-11.279-.658-16.613-.849-28.378-1.027-93.795,3.975-113.167,5.534a1.7,1.7,0,0,0,.14,3.385,5.534,5.534,0,0,1,3.944,1.635,5.617,5.617,0,0,1,1.637,3.944v29.306A41.668,41.668,0,0,0,679.8,743.968h38.68A41.668,41.668,0,0,0,760.1,702.349V701.5a29.648,29.648,0,0,1,2.2-11.246A27.7,27.7,0,0,1,788.469,672.867Z" transform="translate(17726.363 6112.646)" fill="#4d4d4f"/>
      <path id="Path_26993" data-name="Path 26993" d="M360.1,1232.685c.608,1.705,1.331,3.455,2.095,5.131s1.6,3.327,2.493,4.917a50.614,50.614,0,0,0,2.9,4.529,30.493,30.493,0,0,0,3.356,3.829,3.622,3.622,0,0,1-4.993,5.243,3.769,3.769,0,0,1-.45-.509l-.013-.023a41.613,41.613,0,0,1-5.39-11.054q-.926-2.824-1.606-5.671c-.45-1.908-.836-3.784-1.126-5.757a1.408,1.408,0,0,1,2.716-.676Z" transform="translate(17932.717 5662.866)" fill="#51efde"/>
      <path id="Path_26994" data-name="Path 26994" d="M473.8,1199.27a56.355,56.355,0,0,1,2.9,5.027c.878,1.709,1.7,3.455,2.439,5.241a70.866,70.866,0,0,1,3.619,11.137,3.622,3.622,0,0,1-7.047,1.676,3.832,3.832,0,0,1-.095-.709,64.839,64.839,0,0,0-1.257-10.617c-.349-1.77-.786-3.529-1.284-5.275a53.238,53.238,0,0,0-1.727-5.124l-.025-.065a1.405,1.405,0,0,1,2.477-1.291Z" transform="translate(17844.486 5688.49)" fill="#51efde"/>
      <path id="Path_27124" data-name="Path 27124" d="M65.38,345.757a49.58,49.58,0,0,0,2.024-7.328c3.141-16.889-1.512-37.57,1.186-36.012l.3.163.186.116h0l.861.488h0l.651.372h.3l.326.163.372.209h.14c.582.349,1.186.675,1.791,1h0l.349.186.465.256h0l1.884,1.024h0l2.885,1.559a85.307,85.307,0,0,1-13.725,37.8Z" transform="translate(18641.813 6590.77)" fill="#51efde"/>
      <g id="Group_73581" data-name="Group 73581" transform="translate(18470.02 6703.476) rotate(2)">
        <path id="Path_26867" data-name="Path 26867" d="M2.273,41.788a.5.5,0,0,0,.958,0c2.031-6.569,1.526-13.62,1.612-20.43C4.924,14.749,7.058,7.09,4.97.768A1.09,1.09,0,0,0,3,.516C-.676,5.484.076,12.455.041,18.4.007,26.063-.108,34.376,2.273,41.788Z" transform="translate(52.703 0)" fill="#51efde"/>
        <path id="Path_26868" data-name="Path 26868" d="M1.48,25.3a64.4,64.4,0,0,0,4.343-11.8C7.1,9.08,8.645,5.219,7.636.612,7.452-.2,6.46-.133,6.047.406,3.3,3.969,2.6,8.019,1.457,12.3.252,16.843-.436,20.52.309,25.15a.66.66,0,0,0,1.17.155Z" transform="translate(65.137 11.951)" fill="#51efde"/>
        <path id="Path_26869" data-name="Path 26869" d="M.9,26.544c3.873-3.362,6.684-7.688,9.833-11.715C14.15,10.468,17.2,6.378,19.514,1.3A.872.872,0,0,0,18.149.245C11.046,6.774,1.563,16.119,0,26.022a.574.574,0,0,0,.9.522Z" transform="translate(76.706 8.406)" fill="#51efde"/>
        <path id="Path_26870" data-name="Path 26870" d="M6.1,26.12c.3.281.97.224,1.038-.275.6-4.395-.906-9.019-1.48-13.373C5.125,8.393,4.483,3.912,2.1.47,1.66-.167.449-.219.283.7-.451,4.841.4,9,1.029,13.1,1.694,17.452,2.716,23.045,6.1,26.12Z" transform="translate(34.797 13.006)" fill="#51efde"/>
        <path id="Path_26871" data-name="Path 26871" d="M12.854,16.161c4.182,4.245,8.64,10.7,14.125,13.2.281.126.729,0,.688-.39C27.031,23.131,21.517,18.2,17.8,14.05,13.055,8.743,7.473,3.333,1.11.091A.752.752,0,0,0,.089,1.107C3.159,7.027,8.219,11.433,12.854,16.161Z" transform="translate(0 7.98)" fill="#51efde"/>
      </g>
      <path id="Polygon_3" data-name="Polygon 3" d="M4.949,2.5a1,1,0,0,1,1.873,0l4.442,11.845a1,1,0,0,1-.936,1.351H1.443a1,1,0,0,1-.936-1.351Z" transform="matrix(-0.966, 0.259, -0.259, -0.966, 18503.502, 6870.359)" fill="#fff"/>
      <path id="Polygon_4" data-name="Polygon 4" d="M4.949,2.5a1,1,0,0,1,1.873,0l4.442,11.845a1,1,0,0,1-.936,1.351H1.443a1,1,0,0,1-.936-1.351Z" transform="translate(18537.77 6872.366) rotate(-159)" fill="#fff"/>
      <path id="Path_27125" data-name="Path 27125" d="M1.924,17.915C7.533,12.091,19.843,5.192,28.534.695c5.555-2.867,3.584,4.068,3.584,4.068L19.467,23.381S-7.269,27.43,1.924,17.915Z" transform="matrix(0.848, 0.53, -0.53, 0.848, 18507.547, 6809.857)" fill="#da7392" fill-rule="evenodd"/>
      <g id="feet" transform="translate(18335.588 7156.096)">
        <g transform="matrix(1, 0, 0, 1, -327.92, -794.34)" filter="url(#Path_26884)">
          <path id="Path_26884-2" data-name="Path 26884" d="M1488.579,2191.248c-4.153,2.662-25.6,6.348-58.888-.958-40.408-8.87-55.569-21.219-61.692-24.7-9.009-5.126-9.514-15.486-9.667-25.847-.423-29.369-1.351-57.027-2.153-77.1-.207-5-.4-9.531-.577-13.5-.514-11.424-.883-18.207-.883-18.207l30.748-7.559,78.244-19.843c-.679,10.4-21.178,62.615-23.757,69.626-12.216,33.045-27.838,48.153-27.838,48.153,22.985,18.905,9.8,17.939,32.173,30.036C1490.952,2154.794,1512.911,2174.646,1488.579,2191.248Z" transform="translate(-822.27 -1209.2)" fill="#100725" stroke="#51efde" stroke-width="2"/>
        </g>
        <g transform="matrix(1, 0, 0, 1, -327.92, -794.34)" filter="url(#Path_27121)">
          <path id="Path_27121-2" data-name="Path 27121" d="M1364.566,2189.633c40.652,4.008,26.548,7.306,59.833,0,40.409-8.87,55.571-21.219,61.694-24.7,9.009-5.126,9.514-15.487,9.667-25.847.423-29.369,1.351-57.027,2.153-77.1.207-5,.4-9.531.576-13.5.514-11.424.883-18.208.883-18.208l-30.749-7.558-82.133-17.047c.679,10.4,18.353,45.2,19.494,49.686,1.832,7.243,35.99,65.3,35.99,65.3-22.986,18.905-9.8,17.939-32.174,30.036C1363.136,2154.136,1340.234,2173.031,1364.566,2189.633Z" transform="translate(-1026.8 -1199.39)" fill="#100725" stroke="#51efde" stroke-width="2"/>
        </g>
        <path id="Path_27122" data-name="Path 27122" d="M288.932,349.68l21.216,6.56c-22.24,7.235-60.485,8.514-74.908-.279,7.956.558,15.377,1.024,21.449,1.279A59.182,59.182,0,0,0,288.932,349.68Z" transform="translate(-171.634 -273.668)" fill="#4d4d4f" fill-rule="evenodd"/>
        <path id="Path_27123" data-name="Path 27123" d="M256.456,349.68l-21.216,6.56c22.24,7.235,60.485,8.515,74.909-.279-7.956.558-15.377,1.024-21.449,1.279A59.182,59.182,0,0,1,256.456,349.68Z" transform="translate(-25.602 -273.668)" fill="#4d4d4f" fill-rule="evenodd"/>
        <g id="Group_73584" data-name="Group 73584" transform="translate(318.938 172.756)">
          <path id="Path_27129" data-name="Path 27129" d="M1697.6,2564a7.694,7.694,0,0,1,3.9,1.774,12.249,12.249,0,0,1,2.875,3.453,15.753,15.753,0,0,1,1.7,4.33,16.067,16.067,0,0,1,.365,2.316,18.476,18.476,0,0,1,.011,2.323,2.219,2.219,0,0,1-2.01,2.194,2.175,2.175,0,0,1-2.231-1.933l-.048-.323c-.09-.612-.1-1.222-.159-1.828-.1-.591-.092-1.2-.227-1.783-.046-.3-.079-.594-.133-.889s-.14-.577-.192-.873a7.257,7.257,0,0,0-.22-.871c-.09-.285-.151-.586-.259-.866a25.166,25.166,0,0,0-1.425-3.422C1699,2566.445,1698.36,2565.286,1697.6,2564Z" transform="translate(-1697.6 -2562.631)" fill="#51efde"/>
          <path id="Path_27130" data-name="Path 27130" d="M1815.2,2539.53a6.951,6.951,0,0,1,3.559,1.509,11.088,11.088,0,0,1,2.717,3.131,14.24,14.24,0,0,1,1.67,4.06,14.567,14.567,0,0,1,.365,2.2,7.79,7.79,0,0,1,.047,1.112c0,.369,0,.74-.02,1.107a2.01,2.01,0,0,1-1.77,2,1.943,1.943,0,0,1-1.962-1.76l-.043-.293c-.083-.57-.089-1.143-.151-1.7-.09-.552-.1-1.123-.229-1.662a16.9,16.9,0,0,0-.828-3.245,22.22,22.22,0,0,0-1.431-3.157C1816.572,2541.759,1815.929,2540.713,1815.2,2539.53Z" transform="translate(-1801.312 -2539.53)" fill="#51efde"/>
        </g>
        <g id="Group_73585" data-name="Group 73585" transform="translate(5.854 179.295)">
          <path id="Path_27129-2" data-name="Path 27129" d="M1706.484,2564a7.694,7.694,0,0,0-3.9,1.774,12.246,12.246,0,0,0-2.875,3.453,15.753,15.753,0,0,0-1.7,4.33,16.034,16.034,0,0,0-.365,2.316,18.522,18.522,0,0,0-.011,2.323,2.219,2.219,0,0,0,2.01,2.194,2.175,2.175,0,0,0,2.231-1.933l.048-.323c.09-.612.1-1.222.159-1.828.1-.591.092-1.2.227-1.783.046-.3.079-.594.133-.889s.14-.577.192-.873a7.258,7.258,0,0,1,.22-.871c.09-.285.151-.586.259-.866a25.2,25.2,0,0,1,1.425-3.422C1705.083,2566.445,1705.724,2565.286,1706.484,2564Z" transform="translate(-1684.234 -2562.631)" fill="#51efde"/>
          <path id="Path_27130-2" data-name="Path 27130" d="M1823.562,2539.53a6.95,6.95,0,0,0-3.559,1.509,11.084,11.084,0,0,0-2.717,3.131,14.24,14.24,0,0,0-1.67,4.06,14.567,14.567,0,0,0-.365,2.2,7.79,7.79,0,0,0-.047,1.112c0,.369,0,.74.02,1.107a2.011,2.011,0,0,0,1.77,2,1.943,1.943,0,0,0,1.962-1.76l.043-.293c.084-.57.089-1.143.151-1.7.09-.552.1-1.123.229-1.662a16.878,16.878,0,0,1,.828-3.245,22.193,22.193,0,0,1,1.431-3.157C1822.19,2541.759,1822.833,2540.713,1823.562,2539.53Z" transform="translate(-1815.2 -2539.53)" fill="#51efde"/>
        </g>
      </g>
      <path id="Path_27138" data-name="Path 27138" d="M91.253,83.1C49.685,41.643,4.31,40.154.143,17.553c-4.565-24.728,101.676-20.135,113.638-5.8,2.652,3.189-3.19,5.975-9.968,27.045C98.131,56.909,92.708,84.635,91.253,83.1Z" transform="translate(18329.5 6608.39) rotate(24)" fill="#4d4d4f" fill-rule="evenodd"/>
      <path id="Path_27137" data-name="Path 27137" d="M90.523,73.486C49.288,36.823,4.275,35.507.142,15.521c-4.529-21.866,100.863-17.8,112.73-5.133,2.63,2.82-3.164,5.283-9.889,23.915C97.346,50.322,91.967,74.839,90.523,73.486Z" transform="translate(18713.863 6620.433) rotate(123)" fill="#4d4d4f" fill-rule="evenodd"/>
      <path id="Path_27155" data-name="Path 27155" d="M113.348,279.716c4.96,8.411,23.707,17.731,24.317,24.169.56,5.618-10.022,11.082-20.578,14.262C106.1,321.472,108.388,271.305,113.348,279.716Z" transform="translate(18253.051 6835.304)" fill="#4d4d4f" fill-rule="evenodd"/>
      <path id="Path_27154" data-name="Path 27154" d="M-10.1,6.661,6.844,12.878l265.82-6.218-2.976,11.68L223.169,65.419s11.095-14.528-14.885-7.067c-8.106,2.328-8.863-13.831-40.927,3.918-14.921,8.394-57.823,8.3-77,0-22.605-3.194-38.128-4.675-54.466-10.833C13.232,42.9,3.072,39.745-3.082,31.311-10.519,21.126-10.1,6.661-10.1,6.661Z" transform="translate(18375.721 7146.894)" fill="#100725"/>
      <path id="Path_27151" data-name="Path 27151" d="M158.8,289.772c-.936-26.266,8.77-67.9,34.637-71.156,46.1-5.8,56.152,31.231,59.124,42.289,2.936,11.224,7.993,34.954,5.609,67.32-1.864,25.308.018,47.635-18.606,80.757-9.459,11.165-21.828,9.909-35.183,11.391C137.3,427.815,159.637,312.978,158.8,289.772Z" transform="translate(18302.414 6794.882)" fill="#4d4d4f" fill-rule="evenodd"/>
      <path id="Path_27157" data-name="Path 27157" d="M1763.17,1579.55a13.033,13.033,0,0,0,.259,1.505c.108.543.259,1.1.38,1.653.284,1.11.6,2.23.957,3.343a67.942,67.942,0,0,0,2.507,6.633,70.841,70.841,0,0,0,3.223,6.452c1.172,2.129,2.5,4.173,3.881,6.209-1.932-1.513-3.857-3.086-5.671-4.8a74.177,74.177,0,0,1-5.264-5.4,72.855,72.855,0,0,1-4.768-6c-.755-1.035-1.469-2.134-2.17-3.244-.347-.564-.691-1.125-1.035-1.715a20.112,20.112,0,0,1-1-1.915l-.225-.491a4.675,4.675,0,1,1,8.5-3.881A4.74,4.74,0,0,1,1763.17,1579.55Z" transform="translate(16836.926 5438.376)" fill="#51efde"/>
      <path id="Path_27158" data-name="Path 27158" d="M1798.038,1523.357c.825,2.238,1.933,4.7,3.055,7.013s2.38,4.656,3.71,6.907,2.771,4.47,4.31,6.625a69.316,69.316,0,0,0,5.042,6.209,69.917,69.917,0,0,1-6.68-4.62c-2.139-1.682-4.235-3.461-6.224-5.355s-3.935-3.855-5.8-5.906-3.622-4.111-5.417-6.511h0a4.6,4.6,0,0,1,7.383-5.5A4.8,4.8,0,0,1,1798.038,1523.357Z" transform="translate(16810.723 5478.928)" fill="#51efde"/>
      <path id="Path_27159" data-name="Path 27159" d="M1862.083,1484.918a64.536,64.536,0,0,0,2.621,6.268c.993,2.106,2.07,4.193,3.231,6.242a91.22,91.22,0,0,0,7.942,11.866,93.5,93.5,0,0,1-11.5-9.021q-2.732-2.489-5.3-5.2a73.364,73.364,0,0,1-5.009-5.8l-.039-.054a4.62,4.62,0,1,1,7.34-5.612,4.71,4.71,0,0,1,.708,1.31Z" transform="translate(16763.309 5507.521)" fill="#51efde"/>
    </g>
    <g id="Group_73506" data-name="Group 73506" transform="translate(16704.467 7455.227)">
      <path id="Path_26655" data-name="Path 26655" d="M85.706,119.034c3.51,2.552,3.51,6.528,0,9.08a10.868,10.868,0,0,1-6.119,1.826,11.727,11.727,0,0,1-6.471-1.826L33.8,99.288c-.422,0-.563-.336-.7-.625h-.422a2.285,2.285,0,0,1-.422-.817.6.6,0,0,1-.422-.384V95.637a4.037,4.037,0,0,1,0-.625v-2.69h0a4.987,4.987,0,0,1,.7-.913,1.878,1.878,0,0,1,.844-.721L72.694,61.862a11.719,11.719,0,0,1,12.59,0c3.51,2.552,3.51,6.528,0,9.08L52.157,94.964Z" transform="translate(-31.818 -60.028)" fill="#e3dede"/>
      <path id="Path_26656" data-name="Path 26656" d="M45.05,122.182,79.373,63.431a6.76,6.76,0,0,1,4.172-2.968,10.885,10.885,0,0,1,6.026.04c3.881,1.3,5.608,4.432,3.939,7.152l-34.323,58.8c-1.142,1.976-3.921,3.285-7.033,3.312a9.936,9.936,0,0,1-2.813-.384C45.315,128.154,43.422,124.978,45.05,122.182Z" transform="translate(44.491 -59.853)" fill="#e3dede"/>
      <path id="Path_26657" data-name="Path 26657" d="M108.7,98.517a11.127,11.127,0,0,1-.985.72L68.4,128.055a11.312,11.312,0,0,1-6.33,1.825,11.011,11.011,0,0,1-6.26-1.825c-3.51-2.551-3.51-6.526,0-9.077L88.936,94.963,55.809,70.949c-3.51-2.551-3.51-6.526,0-9.077a11.723,11.723,0,0,1,12.59,0l39.317,28.817a4.1,4.1,0,0,1,.985.721h0a5.405,5.405,0,0,1,.7.913h0a4.955,4.955,0,0,0,.422.913v2.834h0a4.955,4.955,0,0,0-.422.913s0,0,0,.288Z" transform="translate(97.037 -59.967)" fill="#e3dede"/>
    </g>
    <g id="Group_73507" data-name="Group 73507" transform="translate(17280.119 7198.165)" opacity="0.53">
      <path id="Path_26655-2" data-name="Path 26655" d="M117.595,153.952c5.588,4.062,5.588,10.392,0,14.454a17.3,17.3,0,0,1-9.74,2.906,18.667,18.667,0,0,1-10.3-2.906L34.972,122.521c-.672,0-.9-.535-1.12-.994h-.672a3.636,3.636,0,0,1-.672-1.3.961.961,0,0,1-.672-.612v-2.906a6.425,6.425,0,0,1,0-.994v-4.283h0a7.939,7.939,0,0,1,1.12-1.453,2.99,2.99,0,0,1,1.343-1.147L96.883,62.948a18.655,18.655,0,0,1,20.04,0c5.588,4.062,5.588,10.392,0,14.454L64.192,115.638Z" transform="translate(-31.818 -60.028)" fill="#e3dede"/>
      <path id="Path_26656-2" data-name="Path 26656" d="M45.395,158.945l54.634-93.518A10.761,10.761,0,0,1,106.67,60.7a17.327,17.327,0,0,1,9.592.063c6.177,2.063,8.926,7.055,6.27,11.384L67.9,165.745c-1.818,3.145-6.242,5.228-11.2,5.272a15.814,15.814,0,0,1-4.478-.611C45.816,168.451,42.8,163.4,45.395,158.945Z" transform="translate(97.134 -59.733)" fill="#e3dede"/>
      <path id="Path_26657-2" data-name="Path 26657" d="M141.557,121.288a17.721,17.721,0,0,1-1.567,1.147L77.406,168.3a18.006,18.006,0,0,1-10.076,2.905,17.526,17.526,0,0,1-9.964-2.9c-5.588-4.061-5.588-10.388,0-14.449L110.1,115.631,57.367,77.406c-5.588-4.061-5.588-10.388,0-14.449a18.66,18.66,0,0,1,20.04,0l62.583,45.87a6.532,6.532,0,0,1,1.567,1.147h0a8.606,8.606,0,0,1,1.119,1.453h0a7.882,7.882,0,0,0,.672,1.453v4.51h0a7.882,7.882,0,0,0-.672,1.453s0,0,0,.459Z" transform="translate(185.928 -59.925)" fill="#e3dede"/>
    </g>
    <g id="Group_73508" data-name="Group 73508" transform="translate(16752.377 7100.754)" opacity="0.53">
      <path id="Path_26655-3" data-name="Path 26655" d="M93.983,128.1c4.05,2.944,4.05,7.531,0,10.475a12.538,12.538,0,0,1-7.059,2.106,13.528,13.528,0,0,1-7.465-2.106L34.1,105.319c-.487,0-.649-.388-.811-.72h-.487a2.636,2.636,0,0,1-.487-.942.7.7,0,0,1-.487-.443v-2.106a4.657,4.657,0,0,1,0-.72v-3.1h0a5.754,5.754,0,0,1,.811-1.053,2.167,2.167,0,0,1,.974-.831L78.973,62.144a13.52,13.52,0,0,1,14.524,0c4.05,2.944,4.05,7.531,0,10.475L55.281,100.331Z" transform="translate(-31.818 -60.028)" fill="#e3dede"/>
      <path id="Path_26656-3" data-name="Path 26656" d="M45.139,131.724,84.734,63.949a7.8,7.8,0,0,1,4.813-3.424,12.557,12.557,0,0,1,6.952.046c4.477,1.5,6.469,5.113,4.544,8.25L61.448,136.652c-1.317,2.279-4.523,3.789-8.114,3.821a11.462,11.462,0,0,1-3.246-.443C45.445,138.613,43.262,134.95,45.139,131.724Z" transform="translate(58.156 -59.822)" fill="#e3dede"/>
      <path id="Path_26657-3" data-name="Path 26657" d="M117.228,104.428a12.854,12.854,0,0,1-1.136.831L70.736,138.5a13.05,13.05,0,0,1-7.3,2.105,12.7,12.7,0,0,1-7.221-2.105c-4.05-2.943-4.05-7.529,0-10.472l38.216-27.7-38.216-27.7c-4.05-2.943-4.05-7.529,0-10.472a13.523,13.523,0,0,1,14.524,0L116.092,95.4a4.733,4.733,0,0,1,1.136.831h0a6.235,6.235,0,0,1,.811,1.053h0a5.716,5.716,0,0,0,.487,1.053V101.6h0a5.714,5.714,0,0,0-.487,1.053s0,0,0,.332Z" transform="translate(120.11 -59.956)" fill="#e3dede"/>
    </g>
    <rect id="Rectangle_146353" data-name="Rectangle 146353" width="216.785" height="7.284" transform="translate(16660.086 7891.976)" fill="#ebebeb"/>
    <rect id="Rectangle_146354" data-name="Rectangle 146354" width="18.894" height="7.284" transform="translate(16646.314 7911.457)" fill="#ebebeb"/>
    <rect id="Rectangle_146355" data-name="Rectangle 146355" width="142.265" height="7.284" transform="translate(16678.514 7911.457)" fill="#c9c9c9"/>
    <rect id="Rectangle_146356" data-name="Rectangle 146356" width="95.33" height="7.284" transform="translate(16678.514 7930.937)" fill="#1e1e1e"/>
    <rect id="Rectangle_146357" data-name="Rectangle 146357" width="18.894" height="7.284" transform="translate(16646.314 7930.937)" fill="#ebebeb"/>
    <g id="Group_73511" data-name="Group 73511" transform="translate(17419.855 7518.201)">
      <rect id="Rectangle_146281" data-name="Rectangle 146281" width="18.982" height="7.318" fill="#ebebeb"/>
      <rect id="Rectangle_146282" data-name="Rectangle 146282" width="217.794" height="7.318" transform="translate(32.832)" fill="#ebebeb"/>
      <rect id="Rectangle_146286" data-name="Rectangle 146286" width="18.982" height="7.318" transform="translate(18.996 19.572)" fill="#ebebeb"/>
      <rect id="Rectangle_146287" data-name="Rectangle 146287" width="142.927" height="7.318" transform="translate(51.342 19.572)" fill="#c9c9c9"/>
      <rect id="Rectangle_146290" data-name="Rectangle 146290" width="95.773" height="7.318" transform="translate(51.342 39.142)" fill="#1e1e1e"/>
      <rect id="Rectangle_146297" data-name="Rectangle 146297" width="18.982" height="7.318" transform="translate(18.996 39.142)" fill="#ebebeb"/>
    </g>
    <g id="Group_73514" data-name="Group 73514" transform="translate(16635.672 7750.473)">
      <rect id="Rectangle_146283" data-name="Rectangle 146283" width="28.763" height="5.836" transform="translate(209.179 0)" fill="#1e1e1e"/>
      <rect id="Rectangle_146284" data-name="Rectangle 146284" width="28.763" height="5.836" transform="translate(274.96 78.06)" fill="#ebebeb"/>
      <rect id="Rectangle_146285" data-name="Rectangle 146285" width="49.716" height="5.836" transform="translate(244.196 0)" fill="#c9c9c9"/>
      <rect id="Rectangle_146288" data-name="Rectangle 146288" width="66.744" height="5.836" transform="translate(201.391 78.06)" fill="#c9c9c9"/>
      <rect id="Rectangle_146289" data-name="Rectangle 146289" width="108.88" height="5.836" transform="translate(26.182 62.442)" fill="#c9c9c9"/>
      <rect id="Rectangle_146291" data-name="Rectangle 146291" width="29.138" height="5.836" transform="translate(228.409 46.834)" fill="#c9c9c9"/>
      <rect id="Rectangle_146292" data-name="Rectangle 146292" width="121.972" height="5.836" transform="translate(125.806 31.215)" fill="#c9c9c9"/>
      <rect id="Rectangle_146293" data-name="Rectangle 146293" width="145.599" height="5.836" transform="translate(26.182 78.06)" fill="#1e1e1e"/>
      <rect id="Rectangle_146294" data-name="Rectangle 146294" width="78.907" height="5.836" transform="translate(240.988 15.607)" fill="#1e1e1e"/>
      <rect id="Rectangle_146295" data-name="Rectangle 146295" width="72.643" height="5.836" transform="translate(162.082 15.607)" fill="#ebebeb"/>
      <rect id="Rectangle_146296" data-name="Rectangle 146296" width="49.027" height="5.836" transform="translate(253.509 31.215)" fill="#ebebeb"/>
      <g id="Group_73509" data-name="Group 73509" transform="translate(0 0)">
        <rect id="Rectangle_146281-2" data-name="Rectangle 146281" width="15.138" height="5.836" fill="#ebebeb"/>
        <rect id="Rectangle_146282-2" data-name="Rectangle 146282" width="173.693" height="5.836" transform="translate(26.184)" fill="#ebebeb"/>
        <rect id="Rectangle_146286-2" data-name="Rectangle 146286" width="15.138" height="5.836" transform="translate(15.148 15.608)" fill="#ebebeb"/>
        <rect id="Rectangle_146287-2" data-name="Rectangle 146287" width="113.986" height="5.836" transform="translate(40.946 15.608)" fill="#c9c9c9"/>
        <rect id="Rectangle_146290-2" data-name="Rectangle 146290" width="76.38" height="5.836" transform="translate(40.946 31.216)" fill="#1e1e1e"/>
        <rect id="Rectangle_146297-2" data-name="Rectangle 146297" width="15.138" height="5.836" transform="translate(15.148 31.216)" fill="#ebebeb"/>
      </g>
      <rect id="Rectangle_146298" data-name="Rectangle 146298" width="15.138" height="5.836" transform="translate(0 46.834)" fill="#c9c9c9"/>
      <rect id="Rectangle_146299" data-name="Rectangle 146299" width="89.493" height="5.836" transform="translate(26.182 46.834)" fill="#ebebeb"/>
      <rect id="Rectangle_146300" data-name="Rectangle 146300" width="89.493" height="5.836" transform="translate(40.946 93.67)" fill="#ebebeb"/>
      <rect id="Rectangle_146301" data-name="Rectangle 146301" width="68.039" height="5.836" transform="translate(207.809 109.278)" fill="#1e1e1e"/>
      <rect id="Rectangle_146302" data-name="Rectangle 146302" width="89.744" height="5.836" transform="translate(137.694 93.67)" fill="#1e1e1e"/>
      <rect id="Rectangle_146303" data-name="Rectangle 146303" width="78.113" height="5.836" transform="translate(121.866 109.278)" fill="#ebebeb"/>
      <rect id="Rectangle_146304" data-name="Rectangle 146304" width="25.912" height="5.836" transform="translate(40.946 109.278)" fill="#c9c9c9"/>
      <rect id="Rectangle_146305" data-name="Rectangle 146305" width="96.718" height="5.836" transform="translate(141.215 62.442)" fill="#ebebeb"/>
      <rect id="Rectangle_146306" data-name="Rectangle 146306" width="61.545" height="5.836" transform="translate(244.196 62.442)" fill="#1e1e1e"/>
      <rect id="Rectangle_146307" data-name="Rectangle 146307" width="96.603" height="5.836" transform="translate(124.771 46.834)" fill="#1e1e1e"/>
      <rect id="Rectangle_146308" data-name="Rectangle 146308" width="15.138" height="5.836" transform="translate(0 62.442)" fill="#ebebeb"/>
      <rect id="Rectangle_146309" data-name="Rectangle 146309" width="15.138" height="5.836" transform="translate(0 78.06)" fill="#ebebeb"/>
      <rect id="Rectangle_146310" data-name="Rectangle 146310" width="15.138" height="5.836" transform="translate(15.148 93.67)" fill="#c9c9c9"/>
      <rect id="Rectangle_146311" data-name="Rectangle 146311" width="15.138" height="5.836" transform="translate(15.148 109.278)" fill="#ebebeb"/>
      <rect id="Rectangle_146312" data-name="Rectangle 146312" width="15.138" height="5.836" transform="translate(0 122.359)" fill="#ebebeb"/>
      <rect id="Rectangle_146313" data-name="Rectangle 146313" width="173.693" height="5.836" transform="translate(26.182 122.359)" fill="#ebebeb"/>
    </g>
  </g>
</svg>
