<svg xmlns="http://www.w3.org/2000/svg" xmlns:xlink="http://www.w3.org/1999/xlink" width="618.508" height="751.122" viewBox="0 0 618.508 751.122">
  <defs>
    <filter id="Path_27005" x="0" y="266.134" width="292.541" height="341.872" filterUnits="userSpaceOnUse">
      <feOffset dy="3" input="SourceAlpha"/>
      <feGaussianBlur stdDeviation="3" result="blur"/>
      <feFlood flood-color="#51efde"/>
      <feComposite operator="in" in2="blur"/>
      <feComposite in="SourceGraphic"/>
    </filter>
    <filter id="Path_27018" x="184.096" y="337.826" width="389.037" height="413.296" filterUnits="userSpaceOnUse">
      <feOffset dy="3" input="SourceAlpha"/>
      <feGaussianBlur stdDeviation="3" result="blur-2"/>
      <feFlood flood-color="#51efde"/>
      <feComposite operator="in" in2="blur-2"/>
      <feComposite in="SourceGraphic"/>
    </filter>
    <filter id="Path_27037" x="142.775" y="12.896" width="475.732" height="401.316" filterUnits="userSpaceOnUse">
      <feOffset dy="3" input="SourceAlpha"/>
      <feGaussianBlur stdDeviation="3" result="blur-3"/>
      <feFlood flood-color="#51efde"/>
      <feComposite operator="in" in2="blur-3"/>
      <feComposite in="SourceGraphic"/>
    </filter>
    <filter id="Path_27082" x="455.012" y="417.709" width="121.258" height="114.085" filterUnits="userSpaceOnUse">
      <feOffset dy="3" input="SourceAlpha"/>
      <feGaussianBlur stdDeviation="3" result="blur-4"/>
      <feFlood flood-color="#51efde"/>
      <feComposite operator="in" in2="blur-4"/>
      <feComposite in="SourceGraphic"/>
    </filter>
    <filter id="hand" x="183.658" y="417.709" width="121.258" height="114.085" filterUnits="userSpaceOnUse">
      <feOffset dy="3" input="SourceAlpha"/>
      <feGaussianBlur stdDeviation="3" result="blur-5"/>
      <feFlood flood-color="#51efde"/>
      <feComposite operator="in" in2="blur-5"/>
      <feComposite in="SourceGraphic"/>
    </filter>
    <radialGradient id="radial-gradient" cx="0.5" cy="0.5" r="0.5" gradientUnits="objectBoundingBox">
      <stop offset="0" stop-color="#fff"/>
      <stop offset="0.01" stop-color="#fff"/>
      <stop offset="0.21" stop-color="#0cf"/>
      <stop offset="0.47" stop-color="#f0f0ea"/>
      <stop offset="0.76" stop-color="#0cf"/>
      <stop offset="1" stop-color="#0cf"/>
    </radialGradient>
    <radialGradient id="radial-gradient-2" cx="0.5" cy="0.5" r="0.5" gradientTransform="translate(0)" gradientUnits="objectBoundingBox">
      <stop offset="0" stop-color="#05a374"/>
      <stop offset="0.01" stop-color="#fff"/>
      <stop offset="0.21" stop-color="#51efde"/>
      <stop offset="0.47" stop-color="#f0f0ea"/>
      <stop offset="0.76" stop-color="#51efde"/>
      <stop offset="1" stop-color="#51efde"/>
    </radialGradient>
  </defs>
  <g id="cat_smile" data-name="cat smile" transform="translate(-18128.734 -7200.38)">
    <path id="Path_27001" data-name="Path 27001" d="M287.661,1221.022s-70.841,28.353-132.9-13.515c-61.446-41.437-35.907-127.78-24.651-158.2,12.765-34.521,6.757-84.58-28.536-78.786-35.547,5.836-1.251,60.284-38.3,72.548-16.254,5.384-50.623-11.293-45.054-67.783,7.509-76.138,113.4-89.906,151.7-15.567s-27.353,123.673-15.165,180.03c10.3,47.623,53.279,64.754,119.445,41.487" transform="translate(18122.113 6563.981)" fill="#fff"/>
    <path id="Path_27002" data-name="Path 27002" d="M230.581,1229.2c-23.591,0-51.7-5.107-78.071-22.891-60.449-40.769-37.542-124.762-24.889-158.979,9.465-25.588,7.865-55.493-3.721-69.543-5.945-7.207-14.053-10.019-24.095-8.374-17.084,2.807-17.541,17.382-18.016,32.813-.522,16.413-1.044,33.382-20.17,39.714-7.945,2.629-18.554-.044-27.022-6.82-8.643-6.914-22.588-24.116-18.888-61.647,3.264-33.1,25.779-57.571,58.749-63.866,31.458-6.005,72.77,6.528,94.163,48.064,22.523,43.73,9.509,78.285-3.073,111.7-8.771,23.286-17.055,45.278-12.034,68.491,4.3,19.891,14.178,34.281,29.353,42.764,21.285,11.9,52.143,11.293,89.238-1.757l.433,1.232c-37.456,13.178-68.684,13.755-90.309,1.663-15.518-8.674-25.607-23.354-29.993-43.628-5.1-23.588,3.248-45.756,12.089-69.227,12.483-33.16,25.393-67.425,3.133-110.643-21.074-40.936-61.77-53.3-92.745-47.378-32.377,6.183-54.5,30.215-57.7,62.712-3.64,36.918,9.969,53.751,18.4,60.5,8.133,6.507,18.259,9.1,25.8,6.6,18.254-6.045,18.773-22.552,19.275-38.513s.977-31.072,19.121-34.061c10.392-1.7,19.142,1.347,25.314,8.831,13.51,16.384,12.113,48.72,3.937,70.827-12.533,33.928-35.286,117.189,24.393,157.447,61.065,41.184,131.6,13.731,132.307,13.449l.486,1.211C285.636,1220.056,262.146,1229.2,230.581,1229.2Z" transform="translate(18123.975 6565.717)" fill="#390075"/>
    <path id="Path_27003" data-name="Path 27003" d="M287.661,1221.022s-70.841,28.353-132.9-13.515c-61.446-41.437-35.907-127.78-24.651-158.2,12.765-34.521,6.757-84.58-28.536-78.786-35.547,5.836-1.251,60.284-38.3,72.548-16.254,5.384-50.623-11.293-45.054-67.783,7.509-76.138,113.4-89.906,151.7-15.567s-27.353,123.673-15.165,180.03c10.3,47.623,53.279,64.754,119.445,41.487" transform="translate(18122.113 6563.981)" fill="#fff"/>
    <path id="Path_27004" data-name="Path 27004" d="M230.581,1229.2c-23.591,0-51.7-5.107-78.071-22.891-60.449-40.769-37.542-124.762-24.889-158.979,9.465-25.588,7.865-55.493-3.721-69.543-5.945-7.207-14.053-10.019-24.095-8.374-17.084,2.807-17.541,17.382-18.016,32.813-.522,16.413-1.044,33.382-20.17,39.714-7.945,2.629-18.554-.044-27.022-6.82-8.643-6.914-22.588-24.116-18.888-61.647,3.264-33.1,25.779-57.571,58.749-63.866,31.458-6.005,72.77,6.528,94.163,48.064,22.523,43.73,9.509,78.285-3.073,111.7-8.771,23.286-17.055,45.278-12.034,68.491,4.3,19.891,14.178,34.281,29.353,42.764,21.285,11.9,52.143,11.293,89.238-1.757l.433,1.232c-37.456,13.178-68.684,13.755-90.309,1.663-15.518-8.674-25.607-23.354-29.993-43.628-5.1-23.588,3.248-45.756,12.089-69.227,12.483-33.16,25.393-67.425,3.133-110.643-21.074-40.936-61.77-53.3-92.745-47.378-32.377,6.183-54.5,30.215-57.7,62.712-3.64,36.918,9.969,53.751,18.4,60.5,8.133,6.507,18.259,9.1,25.8,6.6,18.254-6.045,18.773-22.552,19.275-38.513s.977-31.072,19.121-34.061c10.392-1.7,19.142,1.347,25.314,8.831,13.51,16.384,12.113,48.72,3.937,70.827-12.533,33.928-35.286,117.189,24.393,157.447,61.065,41.184,131.6,13.731,132.307,13.449l.486,1.211C285.636,1220.056,262.146,1229.2,230.581,1229.2Z" transform="translate(18123.975 6565.717)" fill="#390075"/>
    <g transform="matrix(1, 0, 0, 1, 18128.73, 7200.38)" filter="url(#Path_27005)">
      <g id="Path_27005-2" data-name="Path 27005" transform="translate(-6.63 -636.38)" fill="#100725">
        <path d="M 232.4909362792969 1231.383056640625 C 219.3109741210938 1231.383056640625 206.5193786621094 1229.763427734375 194.4714813232422 1226.569091796875 C 187.5514678955078 1224.734252929688 180.7744750976563 1222.348388671875 174.3287048339844 1219.477416992188 C 167.3509674072266 1216.369506835938 160.5803833007813 1212.612548828125 154.2050628662109 1208.310791015625 C 146.7398834228516 1203.275146484375 140.2207946777344 1197.337646484375 134.8290252685547 1190.663208007813 C 129.8302459716797 1184.475219726563 125.6803817749023 1177.505615234375 122.4947052001953 1169.94775390625 C 119.5742950439453 1163.019409179688 117.395881652832 1155.435180664063 116.0198822021484 1147.40576171875 C 114.7748413085938 1140.140747070313 114.1586151123047 1132.348388671875 114.1882934570313 1124.245239257813 C 114.23779296875 1110.72900390625 116.0630645751953 1096.10400390625 119.6134262084961 1080.7763671875 C 122.0681991577148 1070.178833007813 125.2879257202148 1059.4619140625 129.1832885742188 1048.923461914063 C 137.3290252685547 1026.885864257813 137.3256530761719 1000.71044921875 129.1751556396484 985.26953125 C 125.338249206543 978.0006713867188 119.9736099243164 973.4588012695313 113.2302017211914 971.7700805664063 C 111.2615661621094 971.2757568359375 109.1631088256836 971.0252685546875 106.9925689697266 971.0252685546875 C 105.3102035522461 971.0252685546875 103.5485229492188 971.1759643554688 101.756477355957 971.4732055664063 C 94.10447692871094 972.7291259765625 89.35684204101563 976.31591796875 86.81383514404297 982.7611694335938 C 84.49756622314453 988.6317749023438 84.26402282714844 996.0730590820313 84.01674652099609 1003.951232910156 C 83.7637939453125 1012.009887695313 83.50229644775391 1020.342834472656 80.91570281982422 1027.497314453125 C 79.49765777587891 1031.419799804688 77.52902221679688 1034.615478515625 74.89743041992188 1037.26708984375 C 73.46620178222656 1038.709106445313 71.81815338134766 1039.995483398438 69.9990234375 1041.090454101563 C 68.09711456298828 1042.235229492188 65.94515991210938 1043.208862304688 63.60292816162109 1043.984252929688 C 61.58520126342773 1044.65283203125 59.34688568115234 1044.991943359375 56.9504280090332 1044.991943359375 C 52.77406692504883 1044.992065429688 48.31679153442383 1043.948974609375 44.06052017211914 1041.975708007813 C 39.33733749389648 1039.785888671875 35.03888320922852 1036.575073242188 31.2846565246582 1032.432373046875 C 25.93442916870117 1026.528564453125 21.97679328918457 1019.04248046875 19.52165603637695 1010.182250976563 C 16.71188354492188 1000.042175292969 15.94238376617432 988.2586669921875 17.23447418212891 975.1589965820313 C 18.05147552490234 966.88525390625 20.05297470092773 959.0772094726563 23.18342971801758 951.951904296875 C 26.16547584533691 945.164306640625 30.18102073669434 938.9684448242188 35.11856460571289 933.5364379882813 C 44.51447677612305 923.1995849609375 57.12483978271484 915.7601928710938 71.58642578125 912.0225830078125 C 78.03083801269531 910.3558349609375 84.87374877929688 909.5106811523438 91.9249267578125 909.5106811523438 C 93.06552124023438 909.5106811523438 94.22074890136719 909.5338134765625 95.3585205078125 909.5794067382813 C 110.2839279174805 910.1690673828125 124.8967056274414 914.6680297851563 137.6165161132813 922.5899658203125 C 144.3519287109375 926.7847290039063 150.5351104736328 931.9235229492188 155.9942932128906 937.8634643554688 C 161.7443389892578 944.1199340820313 166.7266540527344 951.3076782226563 170.8028869628906 959.2271728515625 C 173.5464324951172 964.5535888671875 175.8546142578125 969.9541015625 177.6631622314453 975.2784423828125 C 179.3841552734375 980.3450317382813 180.7078857421875 985.5056762695313 181.59765625 990.6171264648438 C 183.2346038818359 1000.021362304688 183.4916534423828 1009.435180664063 182.3835144042969 1019.396606445313 C 180.3379821777344 1037.784057617188 173.9376983642578 1054.779907226563 167.7481079101563 1071.216186523438 C 158.9984741210938 1094.450561523438 150.7340698242188 1116.396484375 155.7287445068359 1139.505981445313 C 162.8466186523438 1172.391967773438 186.1477508544922 1190.503295898438 221.3397521972656 1190.503295898438 C 236.8691101074219 1190.503295898438 254.5428771972656 1187.057250976563 273.8702087402344 1180.260986328125 L 274.8247985839844 1179.92529296875 L 275.149169921875 1180.8837890625 L 288.6143493652344 1220.676147460938 L 288.9178771972656 1221.573120117188 L 288.0387573242188 1221.925048828125 C 287.7966003417969 1222.02197265625 281.9962463378906 1224.325805664063 272.2094421386719 1226.662475585938 C 266.469970703125 1228.032958984375 260.554931640625 1229.124755859375 254.628662109375 1229.907836914063 C 247.2199249267578 1230.88671875 239.7716979980469 1231.383056640625 232.4909362792969 1231.383056640625 Z" stroke="none"/>
        <path d="M 232.4909057617188 1230.383056640625 C 264.2194519042969 1230.383056640625 287.6671142578125 1220.996704101563 287.6671142578125 1220.996704101563 L 274.2019348144531 1181.204345703125 C 254.4213562011719 1188.160034179688 236.7221221923828 1191.503295898438 221.3397369384766 1191.503295898438 C 185.2674713134766 1191.503295898438 161.9762268066406 1173.097778320313 154.7513427734375 1139.71728515625 C 142.5707550048828 1083.360107421875 208.2048797607422 1034.024169921875 169.9137420654297 959.684814453125 C 153.283935546875 927.3756103515625 123.8729782104492 911.7066650390625 95.31847381591797 910.57861328125 C 94.18511199951172 910.533203125 93.05368041992188 910.5106811523438 91.9249267578125 910.5106811523438 C 84.95317077636719 910.5106811523438 78.10548400878906 911.3694458007813 71.83665466308594 912.99072265625 C 44.05115509033203 920.1719970703125 21.54952049255371 941.63623046875 18.22965621948242 975.2572021484375 C 13.3075647354126 1025.158447265625 39.55038833618164 1043.9921875 56.95043182373047 1043.991943359375 C 59.2479133605957 1043.991943359375 61.39162063598633 1043.66357421875 63.28865814208984 1043.034912109375 C 100.3447494506836 1030.768310546875 66.03806304931641 976.3223876953125 101.5928421020508 970.4866943359375 C 103.4745635986328 970.174560546875 105.2741622924805 970.0252075195313 106.9925689697266 970.0252075195313 C 109.2990951538086 970.0252075195313 111.4591217041016 970.2943725585938 113.4731140136719 970.800048828125 C 138.0901947021484 976.96484375 141.2886962890625 1019.0576171875 130.1212463378906 1049.270141601563 C 118.8727951049805 1079.702026367188 93.33406829833984 1166.04443359375 154.7643890380859 1207.481811523438 C 181.1249084472656 1225.268432617188 209.0639801025391 1230.383056640625 232.4909057617188 1230.383056640625 M 232.4909362792969 1232.383056640625 C 219.2245178222656 1232.383056640625 206.3466949462891 1230.752197265625 194.2151641845703 1227.53564453125 C 187.2438354492188 1225.687255859375 180.4161529541016 1223.283447265625 173.9218444824219 1220.390869140625 C 166.8910217285156 1217.259399414063 160.0691528320313 1213.473876953125 153.645751953125 1209.139770507813 C 146.0981140136719 1204.048461914063 139.5054779052734 1198.04345703125 134.0511169433594 1191.29150390625 C 128.9934692382813 1185.03076171875 124.795295715332 1177.980224609375 121.5732040405273 1170.336181640625 C 118.6231536865234 1163.337524414063 116.4231567382813 1155.679443359375 115.0342483520508 1147.57470703125 C 113.7794723510742 1140.252807617188 113.1583862304688 1132.40234375 113.1882934570313 1124.241577148438 C 113.2380676269531 1110.650756835938 115.072021484375 1095.951049804688 118.6392440795898 1080.550659179688 C 121.1034774780273 1069.912231445313 124.3353805541992 1059.154663085938 128.2453002929688 1048.576782226563 C 136.2999267578125 1026.78564453125 136.3186187744141 1000.944763183594 128.2907867431641 985.736328125 C 124.592155456543 978.7294921875 119.4433364868164 974.35693359375 112.9872512817383 972.7401733398438 C 111.0975189208984 972.265625 109.0810241699219 972.0252685546875 106.9925689697266 972.0252685546875 C 105.3648376464844 972.0252685546875 103.658203125 972.1714477539063 101.9201126098633 972.459716796875 C 94.64847564697266 973.6532592773438 90.14497375488281 977.0430297851563 87.7440185546875 983.1282348632813 C 85.49160766601563 988.8370361328125 85.26070404052734 996.19384765625 85.01625061035156 1003.982604980469 C 84.76088714599609 1012.119384765625 84.49679565429688 1020.533203125 81.85615539550781 1027.83740234375 C 78.77275085449219 1036.3662109375 72.90488433837891 1041.958374023438 63.91715621948242 1044.93359375 C 61.79806518554688 1045.6357421875 59.45392990112305 1045.991943359375 56.95047378540039 1045.991943359375 C 52.62979125976563 1045.992065429688 48.02706527709961 1044.9169921875 43.63988494873047 1042.882934570313 C 38.79452133178711 1040.636474609375 34.38833999633789 1037.346313476563 30.54365730285645 1033.103881835938 C 25.08770179748535 1027.083374023438 21.05515670776367 1019.461303710938 18.55797576904297 1010.449279785156 C 15.71515655517578 1000.190002441406 14.93506622314453 988.2836303710938 16.23929405212402 975.0608520507813 C 17.06670188903809 966.6819458007813 19.09497451782227 958.7716674804688 22.26788330078125 951.5496215820313 C 25.29351997375488 944.662841796875 29.36815643310547 938.3760375976563 34.37856674194336 932.8638305664063 C 43.90579223632813 922.3824462890625 56.68556594848633 914.8408813476563 71.33620452880859 911.0543823242188 C 77.86215972900391 909.3665771484375 84.78933715820313 908.5106811523438 91.9249267578125 908.5106811523438 C 93.07861328125 908.5106811523438 94.24729156494141 908.5341186523438 95.39852142333984 908.5802001953125 C 110.4964294433594 909.1766967773438 125.2783355712891 913.7276611328125 138.1451568603516 921.7410888671875 C 144.9572448730469 925.983642578125 151.2102508544922 931.1803588867188 156.7305603027344 937.186767578125 C 162.5411071777344 943.509033203125 167.5748901367188 950.7705688476563 171.6920166015625 958.76953125 C 174.4579772949219 964.1394653320313 176.7856597900391 969.5858154296875 178.6100158691406 974.9568481445313 C 180.3476104736328 980.0722045898438 181.6842498779297 985.2833862304688 182.5828399658203 990.4456787109375 C 184.2362518310547 999.9443969726563 184.4961547851563 1009.450439453125 183.3773803710938 1019.507202148438 C 181.3180236816406 1038.019165039063 174.8952484130859 1055.07470703125 168.6839294433594 1071.568603515625 C 159.9877014160156 1094.661254882813 151.7737426757813 1116.47314453125 156.7062072753906 1139.294799804688 C 163.8155212402344 1172.141235351563 186.1654815673828 1189.503295898438 221.3397521972656 1189.503295898438 C 236.7558441162109 1189.503295898438 254.3180236816406 1186.076293945313 273.5384826660156 1179.317626953125 L 275.4476928710938 1178.646240234375 L 276.0963745117188 1180.563232421875 L 289.5615539550781 1220.355590820313 L 290.1686706542969 1222.149658203125 L 288.4103698730469 1222.853515625 C 288.1654663085938 1222.951416015625 282.2989807128906 1225.281616210938 272.4417114257813 1227.635131835938 C 266.6689147949219 1229.013549804688 260.7198486328125 1230.111694335938 254.7596588134766 1230.899169921875 C 247.3076629638672 1231.8837890625 239.8153381347656 1232.383056640625 232.4909362792969 1232.383056640625 Z" stroke="none" fill="#51efde"/>
      </g>
    </g>
    <path id="Path_27006" data-name="Path 27006" d="M230.582,1229.063c-23.591,0-51.7-5.11-78.055-22.9-60.441-40.766-37.542-124.759-24.891-158.979,8.175-22.126,8.165-48.419-.031-63.939-3.883-7.355-9.321-11.956-16.165-13.669a28.511,28.511,0,0,0-11.617-.305c-17.087,2.807-17.544,17.382-18.016,32.811-.522,16.413-1.044,33.382-20.176,39.714-7.94,2.635-18.539-.039-27.009-6.807-8.656-6.914-22.607-24.116-18.9-61.652,2.021-20.479,11.173-37.6,26.46-49.493,14.05-10.935,32.241-16.549,51.307-15.776,31.75,1.253,59.843,19.742,75.146,49.459,22.526,43.735,9.515,78.29-3.071,111.709-8.768,23.283-17.05,45.276-12.032,68.485,4.306,19.891,14.183,34.281,29.359,42.764,21.291,11.9,52.145,11.293,89.235-1.755l.621-.219,13.875,40.994-.572.23C285.641,1219.912,262.152,1229.063,230.582,1229.063ZM105.118,967.533a27.193,27.193,0,0,1,6.64.783c7.217,1.807,12.938,6.627,17,14.327,8.355,15.823,8.395,42.56.1,65.015-12.533,33.944-35.275,117.192,24.4,157.447,58.143,39.223,124.84,16.215,131.73,13.669L271.931,1180.2c-37.174,12.946-68.175,13.449-89.679,1.438-15.518-8.674-25.609-23.35-30-43.625-5.1-23.586,3.248-45.754,12.087-69.222,12.486-33.161,25.393-67.431,3.133-110.652-15.087-29.307-42.764-47.529-74.039-48.764-34.7-1.4-72.089,20.178-76.415,64.089-3.642,36.928,9.969,53.759,18.408,60.506,8.128,6.5,18.249,9.089,25.784,6.59,18.262-6.047,18.779-22.554,19.28-38.516s.977-31.072,19.121-34.059a33.928,33.928,0,0,1,5.507-.454Z" transform="translate(18123.969 6565.858)" fill="#390075"/>
    <g id="Group_73559" data-name="Group 73559" transform="translate(18139.732 7509.168)" opacity="0.3">
      <path id="Path_27009" data-name="Path 27009" d="M287.667,1319.062s-70.841,28.361-132.9-13.515c-61.43-41.437-35.892-127.78-24.643-158.212,11.167-30.213,7.969-72.305-16.648-78.47a28.988,28.988,0,0,0-11.88-.313c-35.555,5.836-1.248,60.281-38.3,72.548-16.264,5.389-50.631-11.287-45.059-67.778a72.9,72.9,0,0,1,9.541-30.092,77.793,77.793,0,0,0-1.475,9.348c-5.572,56.493,20.912,68.76,34.753,58.683,22.233-16.188,4.468-61.067,48.6-63.448,33.7-1.828,47.26,51.733,37.369,83.047-9.773,30.928-45.628,112.51,15.8,153.95,45.485,30.685,95.68,23.661,119.255,17.7Z" transform="translate(-17.625 -1043.23)" fill="#390075"/>
    </g>
    <path id="Path_27010" data-name="Path 27010" d="M456.635,579.511a3.956,3.956,0,0,0-5.259-2.846c-9.476,3.541-33.978,10.324-64.566.619-34.4-10.919-66.733,7.2-61.566,10.4h0s21.915,7.985,28.494,20.212c4.063,7.546,5.222,18.238,5.41,26.816a3.953,3.953,0,0,0,7.024,2.4c6.032-7.507,15.666-16.074,28.983-17.507,31.374-3.381,50.1-8.452,62.5-31.118a3.943,3.943,0,0,0,.376-2.739Z" transform="translate(17895.213 6812.781)" fill="#bfc9ff"/>
    <g id="Group_73560" data-name="Group 73560" transform="translate(18219.914 7386.607)" opacity="0.35">
      <path id="Path_27011" data-name="Path 27011" d="M457.652,588.5a61.335,61.335,0,0,1-4.927,7.669,3.794,3.794,0,0,0,.078-2l-1.384-6.24a3.966,3.966,0,0,0-5.264-2.851c-9.47,3.551-33.972,10.332-64.566.621-21.755-6.906-42.672-2.206-53.809,3.011-1.567-.666-2.527-1.01-2.527-1.01-5.17-3.206,27.171-21.319,61.569-10.4,30.594,9.7,55.093,2.919,64.566-.619a3.956,3.956,0,0,1,5.253,2.849l1.379,6.23A3.893,3.893,0,0,1,457.652,588.5Z" transform="translate(-324.707 -573.836)" fill="#fff"/>
    </g>
    <g id="Group_73561" data-name="Group 73561" transform="translate(18219.914 7391.115)" opacity="0.3">
      <path id="Path_27012" data-name="Path 27012" d="M457.654,601.257c-12.389,22.667-31.111,27.735-62.5,31.124-13.29,1.426-22.93,9.992-28.964,17.494a3.951,3.951,0,0,1-7.032-2.4c-.183-8.575-1.355-19.267-5.413-26.818-3.287-6.115-10.413-11.173-16.711-14.69a91.207,91.207,0,0,0-11.778-5.515c-1.306-.807-.225-2.554,2.653-4.546a21.4,21.4,0,0,1,29.625,5.582c.11.159.219.319.326.481.037.052.07.107.107.164a31.367,31.367,0,0,0,35.993,12.724,27.234,27.234,0,0,1,5.308-1.167c26.985-2.906,44.615-7.068,56.921-22.593a3.654,3.654,0,0,1,.473,1.183l1.379,6.23A3.892,3.892,0,0,1,457.654,601.257Z" transform="translate(-324.71 -591.1)" fill="#390075"/>
    </g>
    <path id="Path_27013" data-name="Path 27013" d="M350.153,630.307a8.7,8.7,0,0,1-2.8-.467,8.473,8.473,0,0,1-5.82-7.917c-.225-10.687-1.906-19.238-4.862-24.734-4.418-8.2-18.434-15.22-26.022-18.071l-1.081-.407-.444-.493a5.672,5.672,0,0,1-1.444-6.9c3.917-8.515,36.108-21.259,67.519-11.293,29.348,9.308,52.832,2.721,61.566-.543a8.551,8.551,0,0,1,11.356,6.159l1.384,6.235a8.528,8.528,0,0,1-.83,5.938c-14.188,25.951-37.3,30.382-66.044,33.482-11.927,1.285-20.659,9.308-25.883,15.813A8.442,8.442,0,0,1,350.153,630.307Zm-30.8-57.509c7.632,3.486,20.251,10.423,25.424,20.035,3.522,6.543,5.509,15.666,5.911,27.176,6.423-7.572,16.742-16.322,30.959-17.854,31.651-3.413,47.7-8.355,58.832-28.523l-1.175-5.3c-10.123,3.669-35.536,10.389-66.885.444C349.271,561.435,327.727,568.1,319.356,572.8Zm121.177,1.044Z" transform="translate(17908.219 6825.667)" fill="#390075"/>
    <path id="Path_27014" data-name="Path 27014" d="M476.075,304.081a4.353,4.353,0,0,0-2.308-6.157c-10.418-3.9-35.649-15.946-54.031-46.069-20.677-33.886-60.577-42.176-58.605-35.8h0c0,.016,12.423,22.437,9.063,37.338-2.073,9.2-8.817,18.909-14.854,26.158a4.347,4.347,0,0,0,4.094,7.066c10.418-1.88,24.6-2.029,36.675,6.379,28.484,19.826,47.686,29.134,74.318,19.259a4.33,4.33,0,0,0,2.287-2Z" transform="translate(17873.328 7078.595)" fill="#bfc9ff"/>
    <g id="Group_73562" data-name="Group 73562" transform="translate(18234.387 7292.675)" opacity="0.35">
      <path id="Path_27015" data-name="Path 27015" d="M489.507,312.258a67.153,67.153,0,0,1-9.632,2.812,4.157,4.157,0,0,0,1.509-1.6l3.358-6.175a4.36,4.36,0,0,0-2.311-6.162c-10.418-3.885-35.641-15.938-54.023-46.072-13.071-21.429-33.821-32.62-46.829-36.325-.825-1.689-1.368-2.663-1.368-2.663-1.969-6.384,37.928,1.911,58.6,35.79,18.392,30.121,43.6,42.174,54.031,46.07a4.347,4.347,0,0,1,2.313,6.162l-3.35,6.165A4.287,4.287,0,0,1,489.507,312.258Z" transform="translate(-380.141 -214.09)" fill="#fff"/>
    </g>
    <g id="Group_73563" data-name="Group 73563" transform="translate(18227.633 7292.69)" opacity="0.3">
      <path id="Path_27016" data-name="Path 27016" d="M470.388,312.3c-26.633,9.878-45.837.577-74.332-19.254-12.058-8.408-26.238-8.254-36.659-6.381a4.336,4.336,0,0,1-4.1-7.05c6.034-7.248,12.776-16.972,14.857-26.165,1.684-7.444-.58-16.781-3.269-24.244a100.121,100.121,0,0,0-5.8-13.079c-.493-1.6,1.655-2.279,5.483-1.856a23.542,23.542,0,0,1,20.559,26.006c-.023.211-.05.423-.076.634a1.553,1.553,0,0,1-.029.214,34.511,34.511,0,0,0,20.7,36.521,29.767,29.767,0,0,1,5.246,2.872c24.492,17.055,42.124,26.325,63.532,22.311a4.1,4.1,0,0,1-.462,1.321l-3.35,6.165A4.287,4.287,0,0,1,470.388,312.3Z" transform="translate(-354.266 -214.148)" fill="#390075"/>
    </g>
    <path id="Path_27017" data-name="Path 27017" d="M436.962,307.86c-19.969,0-37.192-10.583-56.454-23.993-10.953-7.63-24.118-7.272-33.233-5.627a8.945,8.945,0,0,1-8.442-14.533c7.572-9.086,12.379-17.463,13.9-24.225,2.282-10.123-4.332-26.186-8.6-34.087l-.658-1.219.052-.752a5.816,5.816,0,0,1,3.551-6.024c9.277-4.178,44.845,8.423,63.6,39.166,17.713,29.019,42.072,40.547,51.733,44.156a8.953,8.953,0,0,1,4.742,12.658l-3.355,6.173a8.927,8.927,0,0,1-4.726,4.118A63.236,63.236,0,0,1,436.962,307.86Zm-79.23-39.785c8.909,0,18.964,1.93,28.032,8.246,28.928,20.144,45.915,27.646,69.976,18.771l3.18-5.854c-10.705-4.05-37.04-16.669-56.091-47.887-14.39-23.58-38.148-33.385-48.088-35.265,3.8,8.191,9.645,23.5,6.956,35.419-1.828,8.152-7.011,17.424-15.374,27.565A68.088,68.088,0,0,1,357.732,268.076ZM463.1,291.184ZM459.062,288.99Z" transform="translate(17886.299 7091.493)" fill="#390075"/>
    <g transform="matrix(1, 0, 0, 1, 18128.73, 7200.38)" filter="url(#Path_27018)">
      <g id="Path_27018-2" data-name="Path 27018" transform="translate(-655.12 -842.08)" fill="#100725">
        <path d="M 965.0617065429688 1579.705322265625 C 951.0457763671875 1579.705322265625 939.0556030273438 1578.214477539063 929.4243774414063 1575.274047851563 C 924.9481201171875 1573.907470703125 920.9793701171875 1572.220092773438 917.6282958984375 1570.258666992188 C 914.3851318359375 1568.360229492188 911.685546875 1566.185913085938 909.6047973632813 1563.796020507813 C 905.5787353515625 1559.171875 903.8670654296875 1553.730712890625 904.6548461914063 1548.060791015625 C 905.228515625 1543.917358398438 907.6369018554688 1540.020874023438 911.81298828125 1536.480224609375 C 914.111328125 1534.527709960938 916.97314453125 1532.662719726563 920.3177490234375 1530.93798828125 C 922.968017578125 1529.571411132813 925.9299926757813 1528.286743164063 929.121337890625 1527.119995117188 C 932.1002197265625 1526.030883789063 934.6994018554688 1525.254150390625 936.4663696289063 1524.768676757813 C 935.2584228515625 1523.361328125 933.444580078125 1521.174926757813 931.2102661132813 1518.259155273438 C 927.431396484375 1513.32763671875 921.6968383789063 1505.29736328125 915.8367309570313 1495.046142578125 C 909.2489624023438 1483.522216796875 903.8460083007813 1471.594116210938 899.7778930664063 1459.593017578125 C 894.6876220703125 1444.576904296875 891.684326171875 1429.40283203125 890.851318359375 1414.492431640625 C 889.9991455078125 1399.271484375 890.1561279296875 1383.486328125 891.3176879882813 1367.575561523438 C 892.3671264648438 1353.201538085938 894.2590942382813 1338.410400390625 896.9411010742188 1323.613159179688 C 897.4296875 1320.909545898438 897.0823974609375 1318.89501953125 895.87939453125 1317.455200195313 C 893.3070068359375 1314.376342773438 886.8570556640625 1313.9814453125 881.5253295898438 1313.9814453125 C 878.8963012695313 1313.9814453125 876.0776977539063 1314.092407226563 873.3519287109375 1314.19970703125 C 870.6185913085938 1314.307250976563 867.7922973632813 1314.41845703125 865.1452026367188 1314.41845703125 C 865.1429443359375 1314.41845703125 865.1405639648438 1314.41845703125 865.1383056640625 1314.41845703125 C 864.437255859375 1314.418579101563 863.788818359375 1314.411010742188 863.1559448242188 1314.3955078125 C 860.1398315429688 1314.322998046875 857.7118530273438 1314.025146484375 855.7337646484375 1313.485107421875 C 853.17919921875 1312.78759765625 851.3599243164063 1311.693725585938 850.1719970703125 1310.140747070313 C 849.64453125 1309.45361328125 849.58251953125 1308.499389648438 849.9573974609375 1306.850708007813 C 850.1879272460938 1305.837280273438 850.5872802734375 1304.539916992188 851.1783447265625 1302.884643554688 C 852.2297973632813 1299.939819335938 853.6818237304688 1296.450317382813 854.8485717773438 1293.646484375 C 855.671875 1291.66796875 856.3828735351563 1289.959350585938 856.65234375 1289.159057617188 C 857.3965454101563 1286.948364257813 863.3433837890625 1275.793823242188 870.8267822265625 1264.202270507813 C 877.7318115234375 1253.506469726563 887.9684448242188 1239.267211914063 897.5227661132813 1232.172119140625 C 904.8588256835938 1226.724243164063 909.6092529296875 1223.05859375 912.92578125 1220.286376953125 C 917.5944213867188 1216.383911132813 918.6612548828125 1214.839233398438 918.8816528320313 1214.265869140625 C 919.5479736328125 1212.527221679688 920.329345703125 1211.273071289063 921.27001953125 1210.43310546875 C 922.1990966796875 1209.603393554688 923.28369140625 1209.1826171875 924.4935913085938 1209.1826171875 C 925.9640502929688 1209.1826171875 927.3702392578125 1209.809692382813 928.61083984375 1210.362915039063 C 929.5406494140625 1210.777587890625 930.502197265625 1211.206420898438 931.1719970703125 1211.206420898438 C 931.4374389648438 1211.206420898438 931.9898681640625 1211.206420898438 932.6324462890625 1209.793579101563 C 938.8284912109375 1196.144653320313 943.2777709960938 1188.249389648438 943.3219604492188 1188.171264648438 L 943.7527465820313 1187.409912109375 L 944.6275024414063 1187.409912109375 L 1130.68359375 1187.409912109375 L 1131.559326171875 1187.409912109375 L 1131.989868164063 1188.172485351563 C 1132.04345703125 1188.267456054688 1137.430786132813 1197.8515625 1144.6513671875 1214.197875976563 C 1146.545654296875 1218.492797851563 1152.545288085938 1221.115356445313 1154.516845703125 1221.97705078125 C 1154.817504882813 1222.108520507813 1155.03466796875 1222.203369140625 1155.190795898438 1222.282470703125 L 1155.205810546875 1222.2900390625 L 1155.220825195313 1222.297973632813 C 1158.526977539063 1224.065063476563 1165.11865234375 1229.622924804688 1173.4638671875 1236.659423828125 C 1174.841186523438 1237.820556640625 1176.265258789063 1239.021362304688 1177.723022460938 1240.245849609375 C 1182.620727539063 1244.359741210938 1187.990112304688 1250.25439453125 1193.68212890625 1257.76611328125 C 1199.016723632813 1264.805297851563 1204.46728515625 1273.195190429688 1209.029541015625 1281.390258789063 C 1213.282348632813 1289.029418945313 1216.382080078125 1295.824340820313 1217.5341796875 1300.03271484375 C 1217.963134765625 1301.599609375 1217.77880859375 1303.067626953125 1216.986083984375 1304.3955078125 C 1215.832275390625 1306.328247070313 1213.43310546875 1307.879638671875 1209.435424804688 1309.277587890625 C 1206.135375976563 1310.431762695313 1202.2080078125 1311.339965820313 1198.050170898438 1312.301513671875 C 1192.71484375 1313.535278320313 1187.197998046875 1314.81103515625 1183.296264648438 1316.613647460938 C 1181.353881835938 1317.510986328125 1179.947143554688 1318.483764648438 1179.114990234375 1319.5048828125 C 1178.281005859375 1320.528442382813 1178.0009765625 1321.600219726563 1178.234008789063 1322.8779296875 C 1184.00537109375 1354.353881835938 1186.101928710938 1385.182373046875 1184.465209960938 1414.50537109375 C 1183.632202148438 1429.415893554688 1180.628662109375 1444.589965820313 1175.538208007813 1459.606079101563 C 1171.4697265625 1471.607299804688 1166.066528320313 1483.535400390625 1159.478271484375 1495.059326171875 C 1153.617797851563 1505.310424804688 1147.8828125 1513.3408203125 1144.103759765625 1518.272216796875 C 1141.869873046875 1521.187377929688 1140.05615234375 1523.37353515625 1138.84814453125 1524.780883789063 C 1140.613403320313 1525.264892578125 1143.208618164063 1526.039184570313 1146.183837890625 1527.124877929688 C 1149.373779296875 1528.288940429688 1152.335571289063 1529.57080078125 1154.986938476563 1530.934936523438 C 1158.332763671875 1532.656372070313 1161.197631835938 1534.518188476563 1163.502319335938 1536.468872070313 C 1167.683959960938 1540.003784179688 1170.09716796875 1543.900512695313 1170.674438476563 1548.049926757813 C 1171.457275390625 1553.726318359375 1169.740234375 1559.17041015625 1165.709350585938 1563.795288085938 C 1163.62744140625 1566.183959960938 1160.927612304688 1568.357177734375 1157.684814453125 1570.254272460938 C 1154.334106445313 1572.214721679688 1150.366088867188 1573.901123046875 1145.891235351563 1575.266723632813 C 1136.263061523438 1578.204956054688 1124.276733398438 1579.69482421875 1110.26513671875 1579.69482421875 C 1092.272338867188 1579.69482421875 1076.855224609375 1575.805908203125 1065.680541992188 1568.448608398438 C 1060.723510742188 1565.184936523438 1056.787109375 1561.3662109375 1053.980712890625 1557.098388671875 C 1052.637939453125 1555.056396484375 1051.574951171875 1552.93017578125 1050.821411132813 1550.778442382813 C 1050.073852539063 1548.644287109375 1049.628173828125 1546.479125976563 1049.496948242188 1544.34326171875 C 1049.076171875 1537.500244140625 1050.663940429688 1528.140869140625 1052.502319335938 1517.303588867188 C 1054.970092773438 1502.755493164063 1057.755249023438 1486.338256835938 1056.838256835938 1470.255981445313 C 1050.5869140625 1471.910888671875 1044.150512695313 1472.748901367188 1037.67724609375 1472.748901367188 L 1037.664306640625 1472.748901367188 C 1031.185668945313 1472.748901367188 1024.743896484375 1471.910522460938 1018.488525390625 1470.2548828125 C 1018.373596191406 1472.319213867188 1018.315490722656 1474.463012695313 1018.315490722656 1476.651123046875 C 1018.315490722656 1490.725219726563 1020.710693359375 1504.859619140625 1022.823974609375 1517.330078125 C 1024.658813476563 1528.157836914063 1026.243530273438 1537.509033203125 1025.829711914063 1544.352172851563 C 1025.69873046875 1546.4892578125 1025.25341796875 1548.654418945313 1024.506103515625 1550.788818359375 C 1023.752685546875 1552.9404296875 1022.689880371094 1555.066772460938 1021.347106933594 1557.10888671875 C 1018.540893554688 1561.376586914063 1014.6044921875 1565.1953125 1009.647094726563 1568.459106445313 C 998.47216796875 1575.81640625 983.0547485351563 1579.705322265625 965.0617065429688 1579.705322265625 Z" stroke="none"/>
        <path d="M 965.0617065429688 1578.205322265625 C 1003.705261230469 1578.205322265625 1023.356140136719 1560.189086914063 1024.33251953125 1544.261596679688 C 1025.20458984375 1529.838134765625 1016.815490722656 1503.072387695313 1016.815490722656 1476.651123046875 C 1016.815490722656 1473.857177734375 1016.906799316406 1471.076416015625 1017.110900878906 1468.315185546875 C 1023.787048339844 1470.260986328125 1030.705810546875 1471.248901367188 1037.66455078125 1471.248901367188 C 1037.668823242188 1471.248901367188 1037.672973632813 1471.248901367188 1037.67724609375 1471.248901367188 C 1044.627075195313 1471.248901367188 1051.541748046875 1470.261596679688 1058.213623046875 1468.316650390625 C 1060.385986328125 1497.299194335938 1050.014892578125 1528.323852539063 1050.994140625 1544.251220703125 C 1051.97314453125 1560.178588867188 1071.62158203125 1578.19482421875 1110.26513671875 1578.19482421875 C 1153.971435546875 1578.19482421875 1171.30126953125 1563.57568359375 1169.188720703125 1548.256591796875 C 1168.611572265625 1544.107666015625 1166.02685546875 1540.567138671875 1162.533203125 1537.61376953125 C 1152.8095703125 1529.3837890625 1136.098876953125 1525.626586914063 1136.098876953125 1525.626586914063 C 1136.098876953125 1525.626586914063 1179.3486328125 1479.196899414063 1182.967529296875 1414.421752929688 C 1184.760986328125 1382.290161132813 1181.923095703125 1351.315063476563 1176.75830078125 1323.14697265625 C 1174.228271484375 1309.270629882813 1219.36474609375 1312.400390625 1216.08740234375 1300.4287109375 C 1213.8486328125 1292.250732421875 1203.877197265625 1273.7021484375 1192.486572265625 1258.671997070313 C 1187.23779296875 1251.745239257813 1181.905029296875 1245.717529296875 1176.75830078125 1241.394409179688 C 1166.63427734375 1232.890625 1158.2138671875 1225.5986328125 1154.513671875 1223.620849609375 C 1153.46875 1223.09228515625 1145.681396484375 1220.25048828125 1143.279296875 1214.803955078125 C 1136.0048828125 1198.335815429688 1130.68359375 1188.909912109375 1130.68359375 1188.909912109375 L 944.6275024414063 1188.909912109375 C 944.6275024414063 1188.909912109375 940.2384643554688 1196.66748046875 933.9978637695313 1210.41455078125 C 933.2123413085938 1212.1416015625 932.2445068359375 1212.706420898438 931.1720581054688 1212.706420898438 C 929.1424560546875 1212.706420898438 926.7391967773438 1210.6826171875 924.4935302734375 1210.6826171875 C 922.9598388671875 1210.6826171875 921.4994506835938 1211.626708984375 920.2817993164063 1214.803955078125 C 919.2528686523438 1217.48095703125 911.5481567382813 1223.625 898.4170532226563 1233.376342773438 C 880.7200317382813 1246.518432617188 859.3482055664063 1285.852294921875 858.0739135742188 1289.6376953125 C 857.0065307617188 1292.807983398438 850.1420288085938 1307.651611328125 851.3633422851563 1309.229370117188 C 853.4478149414063 1311.954223632813 858.0438842773438 1312.772094726563 863.1924438476563 1312.89599609375 C 863.833251953125 1312.91162109375 864.48388671875 1312.918579101563 865.1452026367188 1312.918579101563 C 870.394287109375 1312.91845703125 876.2223510742188 1312.4814453125 881.5253295898438 1312.4814453125 C 891.8429565429688 1312.4814453125 900.1779174804688 1314.1357421875 898.4170532226563 1323.880737304688 C 893.3489379882813 1351.842651367188 890.5656127929688 1382.5537109375 892.3489379882813 1414.408813476563 C 895.9678344726563 1479.183715820313 939.2147827148438 1525.613525390625 939.2147827148438 1525.613525390625 C 939.2147827148438 1525.613525390625 922.4832153320313 1529.3837890625 912.7830200195313 1537.624389648438 C 909.2998657226563 1540.577514648438 906.7150268554688 1544.1181640625 906.1405639648438 1548.267211914063 C 904.0125122070313 1563.583618164063 921.3551635742188 1578.205322265625 965.0617065429688 1578.205322265625 M 965.0617065429688 1581.205322265625 C 950.897216796875 1581.205322265625 938.7597045898438 1579.692504882813 928.9863891601563 1576.708740234375 C 924.3985595703125 1575.30810546875 920.322265625 1573.573486328125 916.8705444335938 1571.55322265625 C 913.4866333007813 1569.572387695313 910.6614379882813 1567.293823242188 908.4734497070313 1564.781005859375 C 904.154052734375 1559.819946289063 902.3198852539063 1553.966796875 903.1691284179688 1547.854370117188 C 903.7948608398438 1543.3349609375 906.3767700195313 1539.122680664063 910.8429565429688 1535.336181640625 C 913.22705078125 1533.310791015625 916.184326171875 1531.3818359375 919.6302490234375 1529.604858398438 C 922.336181640625 1528.20947265625 925.3561401367188 1526.8994140625 928.6063232421875 1525.711181640625 C 930.54443359375 1525.002563476563 932.3275146484375 1524.42333984375 933.8324584960938 1523.968505859375 C 932.7732543945313 1522.687622070313 931.4844970703125 1521.083129882813 930.0195922851563 1519.171508789063 C 926.2127685546875 1514.203369140625 920.43603515625 1506.1142578125 914.5344848632813 1495.790649414063 C 907.8990478515625 1484.183349609375 902.4562377929688 1472.166625976563 898.3572387695313 1460.074584960938 C 893.2234497070313 1444.929931640625 890.1942138671875 1429.6220703125 889.3536376953125 1414.576171875 C 888.4979248046875 1399.291259765625 888.6553955078125 1383.441040039063 889.8216552734375 1367.466430664063 C 890.8749389648438 1353.039428710938 892.7737426757813 1338.195068359375 895.4651489257813 1323.345703125 C 896.0663452148438 1320.018432617188 895.0592651367188 1318.81298828125 894.7283325195313 1318.416870117188 C 893.8956909179688 1317.42041015625 892.356689453125 1316.668701171875 890.1539306640625 1316.182739257813 C 887.9852905273438 1315.704345703125 885.2435913085938 1315.4814453125 881.5253295898438 1315.4814453125 C 878.9259033203125 1315.4814453125 876.1224365234375 1315.591796875 873.4111938476563 1315.698486328125 C 870.663330078125 1315.806640625 867.8218383789063 1315.91845703125 865.1452026367188 1315.91845703125 L 865.1380615234375 1315.91845703125 C 864.4360961914063 1315.91845703125 863.7568969726563 1315.91064453125 863.1194458007813 1315.895141601563 C 859.9808349609375 1315.819580078125 857.4354248046875 1315.504516601563 855.3387451171875 1314.93212890625 C 852.4987182617188 1314.15673828125 850.361328125 1312.853637695313 848.9855346679688 1311.058471679688 C 847.9493408203125 1309.713012695313 848.1558227539063 1308.008544921875 848.4947509765625 1306.51806640625 C 848.7386474609375 1305.44580078125 849.1543579101563 1304.09228515625 849.765625 1302.380249023438 C 850.8301391601563 1299.399047851563 852.2903442382813 1295.889892578125 853.4637451171875 1293.070190429688 C 854.242431640625 1291.198852539063 854.9779663085938 1289.431274414063 855.2307739257813 1288.680419921875 C 855.7408447265625 1287.1650390625 857.9277954101563 1283.017211914063 859.80419921875 1279.640747070313 C 861.86376953125 1275.934814453125 865.229248046875 1270.107055664063 869.5665893554688 1263.388671875 C 874.00390625 1256.515258789063 878.3524780273438 1250.427978515625 882.4915161132813 1245.2958984375 C 887.601318359375 1238.960083007813 892.357666015625 1234.139404296875 896.6284790039063 1230.967895507813 C 903.822998046875 1225.625122070313 908.4982299804688 1222.021118164063 911.7876586914063 1219.282470703125 C 913.5846557617188 1217.786254882813 914.9962768554688 1216.520263671875 915.9832153320313 1215.519653320313 C 917.203125 1214.282836914063 917.4616088867188 1213.768432617188 917.4854125976563 1213.717651367188 C 918.2379760742188 1211.757080078125 919.1495361328125 1210.315551757813 920.2709350585938 1209.314208984375 C 921.4661865234375 1208.246826171875 922.9263305664063 1207.6826171875 924.4935913085938 1207.6826171875 C 926.283447265625 1207.6826171875 927.844482421875 1208.378784179688 929.2217407226563 1208.993041992188 C 929.7684936523438 1209.23681640625 930.5550537109375 1209.587646484375 930.9886474609375 1209.68212890625 C 931.0570678710938 1209.583251953125 931.1535034179688 1209.422241210938 931.26708984375 1209.172485351563 C 937.4902954101563 1195.463745117188 941.8345947265625 1187.754150390625 942.0164794921875 1187.4326171875 L 942.8779907226563 1185.909912109375 L 944.6275024414063 1185.909912109375 L 1130.68359375 1185.909912109375 L 1132.43505859375 1185.909912109375 L 1133.296020507813 1187.43505859375 C 1133.516357421875 1187.8251953125 1138.773071289063 1197.177856445313 1146.023559570313 1213.591796875 C 1147.68212890625 1217.3525390625 1153.278564453125 1219.798828125 1155.117553710938 1220.602661132813 C 1155.440673828125 1220.743896484375 1155.674072265625 1220.845825195313 1155.867919921875 1220.943969726563 L 1155.898071289063 1220.959106445313 L 1155.927856445313 1220.97509765625 C 1159.373168945313 1222.816650390625 1165.689208984375 1228.141967773438 1174.430786132813 1235.512573242188 C 1175.8076171875 1236.673461914063 1177.231201171875 1237.873657226563 1178.687866210938 1239.097290039063 C 1183.671142578125 1243.283081054688 1189.1181640625 1249.259399414063 1194.877685546875 1256.860107421875 C 1200.25341796875 1263.953491210938 1205.744750976563 1272.406127929688 1210.340087890625 1280.660766601563 C 1214.64892578125 1288.400634765625 1217.798461914063 1295.317016601563 1218.98095703125 1299.636596679688 C 1219.514282226563 1301.584716796875 1219.269775390625 1303.496215820313 1218.274047851563 1305.164306640625 C 1216.929931640625 1307.416015625 1214.27880859375 1309.172973632813 1209.930541992188 1310.693603515625 C 1206.553100585938 1311.874633789063 1202.587036132813 1312.791870117188 1198.388061523438 1313.762817382813 C 1193.126953125 1314.979614257813 1187.686645507813 1316.237670898438 1183.925415039063 1317.975341796875 C 1179.258056640625 1320.131591796875 1179.574462890625 1321.867553710938 1179.709716796875 1322.60888671875 C 1185.502075195313 1354.199951171875 1187.606201171875 1385.1474609375 1185.962890625 1414.588989257813 C 1185.122314453125 1429.635009765625 1182.0927734375 1444.942993164063 1176.958740234375 1460.087768554688 C 1172.859497070313 1472.179809570313 1167.416381835938 1484.196411132813 1160.780517578125 1495.803833007813 C 1154.878662109375 1506.12744140625 1149.1015625 1514.216552734375 1145.29443359375 1519.1845703125 C 1143.829956054688 1521.095703125 1142.541870117188 1522.699096679688 1141.48291015625 1523.979736328125 C 1142.985107421875 1524.43310546875 1144.763793945313 1525.009887695313 1146.698120117188 1525.715698242188 C 1149.946655273438 1526.901245117188 1152.96630859375 1528.20849609375 1155.673217773438 1529.601196289063 C 1159.119873046875 1531.37451171875 1162.080078125 1533.299926757813 1164.471313476563 1535.323852539063 C 1168.943115234375 1539.104125976563 1171.530395507813 1543.316650390625 1172.16015625 1547.84326171875 C 1173.004150390625 1553.963623046875 1171.164428710938 1559.8193359375 1166.840209960938 1564.78076171875 C 1164.651123046875 1567.292358398438 1161.82568359375 1569.569580078125 1158.442260742188 1571.549072265625 C 1154.990966796875 1573.568237304688 1150.915405273438 1575.3017578125 1146.328979492188 1576.701416015625 C 1136.558837890625 1579.682983398438 1124.425170898438 1581.19482421875 1110.26513671875 1581.19482421875 C 1091.978271484375 1581.19482421875 1076.276000976563 1577.220458984375 1064.855712890625 1569.701416015625 C 1059.727172851563 1566.324829101563 1055.646606445313 1562.361938476563 1052.727416992188 1557.922607421875 C 1051.317260742188 1555.7783203125 1050.19970703125 1553.54150390625 1049.405639648438 1551.274291992188 C 1048.612548828125 1549.009887695313 1048.139526367188 1546.708862304688 1047.999755859375 1544.435302734375 C 1047.568481445313 1537.419799804688 1049.169555664063 1527.981323242188 1051.0234375 1517.052612304688 C 1053.384399414063 1503.134155273438 1056.03759765625 1487.494384765625 1055.428344726563 1472.15771484375 C 1049.617309570313 1473.546508789063 1043.66259765625 1474.248901367188 1037.67724609375 1474.248901367188 L 1037.66455078125 1474.248901367188 C 1031.674072265625 1474.248901367188 1025.715454101563 1473.54638671875 1019.900634765625 1472.157104492188 C 1019.843994140625 1473.624877929688 1019.815490722656 1475.126708984375 1019.815490722656 1476.651123046875 C 1019.815490722656 1490.598999023438 1022.199523925781 1504.667236328125 1024.302978515625 1517.079467773438 C 1026.153198242188 1527.998168945313 1027.751220703125 1537.427856445313 1027.327026367188 1544.442626953125 C 1027.1875 1546.718872070313 1026.714721679688 1549.019897460938 1025.921875 1551.284545898438 C 1025.1279296875 1553.5517578125 1024.010498046875 1555.78857421875 1022.600402832031 1557.932983398438 C 1019.681396484375 1562.372314453125 1015.600769042969 1566.335327148438 1010.471984863281 1569.7119140625 C 999.0513916015625 1577.23095703125 983.3487548828125 1581.205322265625 965.0617065429688 1581.205322265625 Z" stroke="none" fill="#51efde"/>
      </g>
    </g>
    <g id="Group_73565" data-name="Group 73565" transform="translate(18510.613 7828.882)" opacity="0.3">
      <path id="Path_27021" data-name="Path 27021" d="M1439.461,2270.16v.013c-.127,0-.255,0-.381-.013C1439.207,2270.167,1439.334,2270.167,1439.461,2270.16Z" transform="translate(-1438.811 -2269.515)" fill="#6b184e"/>
      <path id="Path_27022" data-name="Path 27022" d="M1439.342,2269h-.653a4.088,4.088,0,0,1-.436-.016l.057-.637h0l.06-.658a.968.968,0,0,0,.172,0h.8Z" transform="translate(-1438.05 -2267.689)" fill="#390075"/>
    </g>
    <g id="Group_73566" data-name="Group 73566" transform="translate(18509.473 7828.825)" opacity="0.3">
      <path id="Path_27023" data-name="Path 27023" d="M1436.937,2270.13c-.261.013-.5.013-.757.013v-.024A5.228,5.228,0,0,0,1436.937,2270.13Z" transform="translate(-1435.527 -2269.428)" fill="#6b184e"/>
      <path id="Path_27024" data-name="Path 27024" d="M1434.333,2268.838h-.653v-1.368l.71.042a5.406,5.406,0,0,0,.648,0h.023l.06,1.306h0C1434.852,2268.838,1434.591,2268.838,1434.333,2268.838Z" transform="translate(-1433.68 -2267.47)" fill="#390075"/>
    </g>
    <path id="Path_27026" data-name="Path 27026" d="M1205.39,2196.16a94.64,94.64,0,0,1,11.055,2.35c3.58.919,7.016,2.088,10.476,3.162s6.893,2.149,10.314,3.206c3.407,1.1,6.817,2.065,10.183,3.233l.107.037a4.6,4.6,0,0,1-2.436,8.857,72.421,72.421,0,0,1-10.912-3.223,110.732,110.732,0,0,1-10.316-4.58,87.4,87.4,0,0,1-9.742-5.643A49.784,49.784,0,0,1,1205.39,2196.16Z" transform="translate(17244.477 5614.045)" fill="#4d4d4f"/>
    <path id="Path_27027" data-name="Path 27027" d="M1547.919,2196.16a50.246,50.246,0,0,1-8.719,7.405,87.328,87.328,0,0,1-9.742,5.642,110.671,110.671,0,0,1-10.316,4.58,72.571,72.571,0,0,1-10.909,3.222,4.6,4.6,0,0,1-2.439-8.857l.107-.036c3.353-1.167,6.765-2.133,10.183-3.232,3.418-1.058,6.865-2.089,10.311-3.207s6.914-2.2,10.476-3.162A85.362,85.362,0,0,1,1547.919,2196.16Z" transform="translate(17024.791 5614.045)" fill="#4d4d4f"/>
    <path id="Path_27028" data-name="Path 27028" d="M725.72,1635.33s44.649,34.495,96.8,10.883" transform="translate(17598.9 6028.439)" fill="#fff"/>
    <path id="Path_27029" data-name="Path 27029" d="M783.787,1653.569c-34.2,0-59.253-18.956-59.587-19.215l.783-1.044c.444.345,44.949,33.975,96.129,10.8l.538,1.191A91.04,91.04,0,0,1,783.787,1653.569Z" transform="translate(17600.025 6029.932)" fill="#390075"/>
    <path id="Path_27032" data-name="Path 27032" d="M1862.227,1635.33s-44.649,34.495-96.8,10.883" transform="translate(16830.666 6028.439)" fill="#fff"/>
    <path id="Path_27033" data-name="Path 27033" d="M1802.275,1653.6a91.045,91.045,0,0,1-37.88-8.254l.539-1.19c51.211,23.184,95.685-10.46,96.129-10.8l.8,1.044C1861.527,1634.643,1836.461,1653.6,1802.275,1653.6Z" transform="translate(16831.43 6029.902)" fill="#390075"/>
    <g transform="matrix(1, 0, 0, 1, 18128.73, 7200.38)" filter="url(#Path_27037)">
      <path id="Path_27037-2" data-name="Path 27037" d="M1061.077,245.673c2.512,14.144,9.75,27.993,9.235,32.57-1.073,9.256-21.742-1.778-21.742-1.778s-1.225,2.9,2.9,11.186c3.065,6.165,5.757,10.674,4.481,13.977-1.36,3.514-7.371,4.23-14.374,3.418-4.911-.572-9.076.06-14.51,5.917a42.641,42.641,0,0,0-3.342,4.039.042.042,0,0,1-.034,0h0c-16.28,18.8-36.1,36.1-62.344,48.386-24.351,11.395-131.623,48.8-226.94-25.194-12.141-9.426-23.037-20.285-31.4-33.607a16.058,16.058,0,0,0-6.267-.347c-7.011.783-13.019.063-14.361-3.475-1.253-3.3,1.031-8.193,3.838-14.525a55.409,55.409,0,0,0,3.491-9.729c.078-.36-.222-.658-.522-.522-3.6,1.807-20.144,9.585-21.069,1.339-.522-4.582,6.8-18.392,9.368-32.536,4.185-23.05,7.486-39.294,9.583-49.083.047-.261.107-.522.178-.8s.1-.522.154-.765.117-.5.167-.742c.627-2.854,1.334-5.676,2.123-8.491,3.6-13.011,8.75-25.91,15.324-40.508C695.545,127.969,623.99,32.2,645.808,4.455c12.46-15.846,129.209,38.487,147.847,45.686A175.782,175.782,0,0,1,862.88,33.232q7.789-.332,15.254-.021a1.427,1.427,0,0,1,.381,0c16.726.624,31.722,4.938,46.122,9.977,1.692.6,3.371,1.2,5.05,1.807a156.5,156.5,0,0,1,19.442,8.624c18.867-6.58,132.418-65.4,144.347-49.164,20.841,28.34-46.378,128.681-56.538,145.12,2.46,5.371,4.642,10.669,6.575,16.027a165.513,165.513,0,0,1,5.765,19.565s.016.115.073.352c.426,1.849,2.475,10.893,5.729,27.62C1056.758,221.876,1058.792,232.693,1061.077,245.673Z" transform="translate(-488.93 18.24)" fill="#100725" stroke="#51efde" stroke-width="2"/>
    </g>
    <path id="Path_27041" data-name="Path 27041" d="M1096.973,544.894a1914.233,1914.233,0,0,0-366.422.149c.355-1.713.689-3.3,1-4.734q.067-.392.172-.783c.07-.261.115-.522.159-.77s.115-.494.162-.736c.632-2.872,1.345-5.676,2.125-8.491a246.242,246.242,0,0,1,11.183-31.072,1914.807,1914.807,0,0,1,337.92-.034h.013c1.7,3.94,3.264,7.859,4.7,11.812a169.159,169.159,0,0,1,5.768,19.562,3.382,3.382,0,0,0,.07.355C1094.111,531.449,1095.216,536.3,1096.973,544.894Z" transform="translate(17595.33 6874)" fill="#a553ff"/>
    <g id="Group_73569" data-name="Group 73569" transform="translate(18325.885 7364.965)" opacity="0.35">
      <path id="Path_27042" data-name="Path 27042" d="M1096.985,544.876c-1.185-.115-2.368-.23-3.553-.332-.379-1.723-.632-2.851-.757-3.394a2.882,2.882,0,0,1-.068-.355,168.641,168.641,0,0,0-5.771-19.562c-.016-.039-.029-.078-.042-.118A18.677,18.677,0,0,0,1070,508.875c-45.589-1.961-208.388-8.22-296.039-1.828a45.749,45.749,0,0,0-40.834,33.137c-.034.117-.065.232-.1.35-.4,1.447-.783,2.906-1.149,4.366-.439.047-.885.081-1.324.128.358-1.713.689-3.3,1-4.736q.07-.394.172-.783c.058-.261.115-.522.162-.77s.115-.5.162-.736c.632-2.872,1.345-5.677,2.125-8.494a246.414,246.414,0,0,1,11.183-31.072,1914.814,1914.814,0,0,1,337.92-.034h0c1.7,3.943,3.264,7.862,4.7,11.815a168.606,168.606,0,0,1,5.771,19.559,2.918,2.918,0,0,0,.068.358C1094.134,531.419,1095.225,536.281,1096.985,544.876Z" transform="translate(-730.56 -490.95)" fill="#fff"/>
    </g>
    <g id="Group_73570" data-name="Group 73570" transform="translate(18325.885 7392.16)" opacity="0.3">
      <path id="Path_27043" data-name="Path 27043" d="M1096.985,621.834a1914.263,1914.263,0,0,0-366.425.152c.358-1.713.689-3.3,1-4.737q.07-.394.172-.783c.057-.261.115-.522.162-.77s.115-.5.162-.736c.632-2.872,1.345-5.677,2.125-8.494.261-.966.54-1.93.838-2.909a1912.723,1912.723,0,0,1,357.942-.125c.277,1.091.54,2.182.783,3.284a2.921,2.921,0,0,0,.068.358C1094.134,608.376,1095.225,613.238,1096.985,621.834Z" transform="translate(-730.56 -595.102)" fill="#390075"/>
    </g>
    <path id="Path_27044" data-name="Path 27044" d="M708.45,537.217l1.269-6.11q.529-2.538.99-4.7c.06-.326.131-.653.214-.979.042-.193.083-.4.12-.577s.073-.358.123-.564l.06-.279c.624-2.82,1.337-5.674,2.183-8.731a252.022,252.022,0,0,1,11.374-31.641l1.081-2.533,2.744-.243a1924.438,1924.438,0,0,1,338.529-.052h2.828l1.209,2.776c1.8,4.165,3.365,8.115,4.794,12.076a172.108,172.108,0,0,1,5.924,20.09l.123.522v.016c.368,1.611,1.452,6.418,3.133,14.674l1.245,6.089-6.188-.593a1914.591,1914.591,0,0,0-365.548.149Zm11.765-11.267c-.031.151-.065.3-.1.452l-.037.164c-.021.1-.042.206-.06.308a1923.6,1923.6,0,0,1,354.859-.141c-1.019-4.828-1.658-7.64-1.872-8.562-.052-.225-.091-.41-.115-.553a162.757,162.757,0,0,0-5.569-18.839c-1.073-2.979-2.232-5.958-3.517-9.037a1915.8,1915.8,0,0,0-331.619.034,235.187,235.187,0,0,0-9.922,27.964C721.471,520.621,720.8,523.308,720.215,525.95Z" transform="translate(17611.66 6887)" fill="#390075"/>
    <path id="Path_27062" data-name="Path 27062" d="M1848.01,1547.9a3.611,3.611,0,0,1-.379.073l-.261.042-.5.078-1,.149-1.995.285-3.984.556-7.966,1.091a2.313,2.313,0,1,1-.629-4.582,2.563,2.563,0,0,1,.486-.016h.023l15.865,1.256.245.018a.524.524,0,1,1,.086,1.044Z" transform="translate(16783.514 6094.762)" fill="#390075"/>
    <path id="Path_27067" data-name="Path 27067" d="M1839.976,1512.782l-13.1,6.46a2.316,2.316,0,1,1-2.055-4.152,2.482,2.482,0,0,1,.522-.183l14.3-3.193a.559.559,0,0,1,.371,1.044Z" transform="translate(16787.732 6119.788)" fill="#390075"/>
    <path id="Path_27075" data-name="Path 27075" d="M959.693,1546.846l15.865-1.256h0a2.313,2.313,0,0,1,.363,4.611,2.391,2.391,0,0,1-.494-.015l-7.951-1.1-3.984-.556-1.992-.285-1-.149-.5-.079-.261-.042a3.592,3.592,0,0,1-.379-.073.524.524,0,0,1,.086-1.044Z" transform="translate(17426.621 6094.75)" fill="#390075"/>
    <path id="Path_27080" data-name="Path 27080" d="M974.756,1511.75l14.3,3.2a2.316,2.316,0,0,1-1.008,4.52,2.623,2.623,0,0,1-.522-.185l-13.1-6.46-.039-.018a.561.561,0,0,1,.371-1.045Z" transform="translate(17415.377 6119.751)" fill="#390075"/>
    <g transform="matrix(1, 0, 0, 1, 18128.73, 7200.38)" filter="url(#Path_27082)">
      <g id="Path_27082-2" data-name="Path 27082" transform="translate(-1294.25 -1065.31)" fill="#100725">
        <path d="M 1814.275756835938 1584.108276367188 C 1809.731201171875 1584.108276367188 1805.06787109375 1583.505737304688 1800.415405273438 1582.317504882813 C 1796.975830078125 1581.43896484375 1793.605346679688 1580.261352539063 1790.3974609375 1578.8173828125 C 1787.767822265625 1577.636352539063 1784.44189453125 1575.555908203125 1781.273193359375 1573.109741210938 C 1777.181762695313 1569.951293945313 1773.371826171875 1566.207397460938 1770.255249023438 1562.282836914063 C 1766.34033203125 1557.352661132813 1763.42431640625 1552.074829101563 1761.58837890625 1546.595947265625 C 1759.408081054688 1540.088989257813 1758.757080078125 1533.289428710938 1759.653442382813 1526.385986328125 C 1760.549072265625 1519.47314453125 1762.691650390625 1513.360961914063 1766.021850585938 1508.219482421875 C 1768.904907226563 1503.76806640625 1772.687866210938 1500.01953125 1777.265380859375 1497.078002929688 C 1781.093627929688 1494.617797851563 1785.414184570313 1492.752075195313 1790.10693359375 1491.532592773438 C 1794.90576171875 1490.285400390625 1798.895629882813 1490.023681640625 1801.397583007813 1490.023681640625 C 1802.977661132813 1490.023681640625 1804.452758789063 1490.130981445313 1805.663208007813 1490.334106445313 C 1812.901611328125 1491.54150390625 1819.317260742188 1494.699584960938 1825.27587890625 1499.988647460938 C 1830.417236328125 1504.552368164063 1834.496459960938 1510.05908203125 1838.095336914063 1514.917602539063 C 1840.853271484375 1518.640625 1843.458251953125 1522.157348632813 1846.101440429688 1524.651245117188 C 1848.9111328125 1527.30224609375 1851.484985351563 1528.536987304688 1854.201782226563 1528.536987304688 C 1855.442504882813 1528.536987304688 1856.701416015625 1528.285766601563 1858.050659179688 1527.76904296875 L 1859.094360351563 1527.369262695313 L 1859.376098632813 1528.450927734375 C 1859.397827148438 1528.534301757813 1859.91162109375 1530.530029296875 1860.244018554688 1533.77685546875 C 1860.549438476563 1536.760620117188 1860.750732421875 1541.414916992188 1859.975219726563 1546.642700195313 C 1859.100952148438 1552.536010742188 1857.189819335938 1557.94140625 1854.295166015625 1562.708740234375 C 1850.676147460938 1568.6689453125 1845.508911132813 1573.631713867188 1838.93701171875 1577.459106445313 C 1831.354858398438 1581.871215820313 1823.057739257813 1584.108276367188 1814.275756835938 1584.108276367188 Z" stroke="none"/>
        <path d="M 1814.275756835938 1583.108276367188 C 1821.758911132813 1583.108276367188 1830.08935546875 1581.450561523438 1838.433715820313 1576.594970703125 C 1866.607055664063 1560.187133789063 1858.408325195313 1528.702880859375 1858.408325195313 1528.702880859375 C 1856.91796875 1529.273681640625 1855.5244140625 1529.536987304688 1854.201782226563 1529.536987304688 C 1839.29296875 1529.536987304688 1833.634887695313 1496.013793945313 1805.497680664063 1491.3203125 C 1804.387084960938 1491.134033203125 1802.997802734375 1491.023681640625 1801.397583007813 1491.023681640625 C 1789.07470703125 1491.023681640625 1764.3935546875 1497.58154296875 1760.645141601563 1526.514770507813 C 1756.864135742188 1555.63330078125 1782.087280273438 1573.989013671875 1790.807983398438 1577.905517578125 C 1795.794067382813 1580.150024414063 1804.278930664063 1583.108276367188 1814.275756835938 1583.108276367188 M 1814.275756835938 1585.108276367188 C 1809.647705078125 1585.108276367188 1804.901123046875 1584.495239257813 1800.167846679688 1583.286376953125 C 1796.672607421875 1582.393676757813 1793.247314453125 1581.196899414063 1789.987060546875 1579.729248046875 C 1787.28955078125 1578.517822265625 1783.890258789063 1576.393432617188 1780.662109375 1573.9013671875 C 1776.507690429688 1570.694213867188 1772.638305664063 1566.8916015625 1769.47216796875 1562.904663085938 C 1765.484741210938 1557.88330078125 1762.51318359375 1552.503173828125 1760.640258789063 1546.913696289063 C 1758.411376953125 1540.261962890625 1757.745727539063 1533.312133789063 1758.661743164063 1526.257202148438 C 1759.57666015625 1519.195434570313 1761.770629882813 1512.943603515625 1765.182495117188 1507.67578125 C 1768.143432617188 1503.104370117188 1772.02685546875 1499.255737304688 1776.724731445313 1496.236694335938 C 1780.642211914063 1493.71923828125 1785.06005859375 1491.810913085938 1789.85546875 1490.564697265625 C 1794.756591796875 1489.291015625 1798.837280273438 1489.023681640625 1801.397583007813 1489.023681640625 C 1803.055541992188 1489.023681640625 1804.54638671875 1489.132690429688 1805.82861328125 1489.347900390625 C 1822.453125 1492.120971679688 1831.571899414063 1504.431030273438 1838.89892578125 1514.322265625 C 1841.629638671875 1518.0087890625 1844.208984375 1521.490844726563 1846.787719726563 1523.923950195313 C 1849.400146484375 1526.388916015625 1851.756103515625 1527.536987304688 1854.201782226563 1527.536987304688 C 1855.317993164063 1527.536987304688 1856.4599609375 1527.307373046875 1857.692993164063 1526.835205078125 L 1859.780517578125 1526.03564453125 L 1860.34375 1528.198852539063 C 1860.431640625 1528.536376953125 1862.478759765625 1536.581665039063 1860.96435546875 1546.789428710938 C 1860.070434570313 1552.815307617188 1858.114135742188 1558.345947265625 1855.14990234375 1563.227783203125 C 1851.443359375 1569.332153320313 1846.157958984375 1574.410888671875 1839.440185546875 1578.3232421875 C 1831.703002929688 1582.825561523438 1823.236694335938 1585.108276367188 1814.275756835938 1585.108276367188 Z" stroke="none" fill="#51efde"/>
      </g>
    </g>
    <path id="Path_27083" data-name="Path 27083" d="M1812.439,1581.8a59.268,59.268,0,0,1-23.776-5.222h0c-9.139-4.112-34.372-22.507-30.549-52.069,1.543-11.906,6.689-21.178,15.29-27.562,10.705-7.935,24-9.248,30.317-8.191,16.089,2.682,25.027,14.75,32.21,24.448,6.7,9.039,11.99,16.188,20.366,12.969l.679-.261.186.7c.083.321,8,32.155-20.278,48.62A47.958,47.958,0,0,1,1812.439,1581.8Zm-23.239-6.407c9.449,4.251,28.118,9.731,47.03-1.28,25.105-14.622,20.789-41.777,19.826-46.477-8.9,2.909-14.593-4.789-21.166-13.661-7.05-9.509-15.8-21.343-31.374-23.938-5.872-.979-19.027.311-29.322,7.951-8.308,6.165-13.28,15.144-14.776,26.682-3.729,28.779,20.87,46.7,29.782,50.712Z" transform="translate(16836.359 6136.978)" fill="#390075"/>
    <path id="Path_27086" data-name="Path 27086" d="M65.4,32.138a4.925,4.925,0,0,1-1.5-.235l-3.859-1.235L3.333,9.621A4.945,4.945,0,1,1,6.77.349l56.6,21.009L66.9,22.483a4.945,4.945,0,0,1-1.5,9.661Z" transform="matrix(0.906, -0.423, 0.423, 0.906, 18398.289, 7426.227)" fill="#4d4d4f"/>
    <ellipse id="Ellipse_11668" data-name="Ellipse 11668" cx="22.967" cy="13.644" rx="22.967" ry="13.644" transform="translate(18415.109 7486) rotate(-79.22)" fill="#7b7b00"/>
    <g id="code" transform="translate(18389.684 7611.689)">
      <g id="Group_73586" data-name="Group 73586">
        <path id="Path_26655" data-name="Path 26655" d="M53.034,94.037a3.821,3.821,0,0,1,0,5.233,3.406,3.406,0,0,1-2.409,1.052,3.628,3.628,0,0,1-2.548-1.052L32.6,82.656c-.166,0-.222-.194-.277-.36h-.166a1.606,1.606,0,0,1-.166-.471.3.3,0,0,1-.166-.222V80.552a3.4,3.4,0,0,1,0-.36V78.641h0a3.017,3.017,0,0,1,.277-.526.914.914,0,0,1,.332-.415L47.911,61.085a3.434,3.434,0,0,1,4.957,0,3.821,3.821,0,0,1,0,5.233L39.826,80.164Z" transform="translate(-31.818 -60.028)" fill="#51efde" stroke="#51efde" stroke-width="1"/>
        <path id="Path_26656" data-name="Path 26656" d="M44.7,95.9,58.21,62a2.991,2.991,0,0,1,4.015-1.689,3.212,3.212,0,0,1,1.551,4.126L50.262,98.361a3.018,3.018,0,0,1-2.769,1.911,2.77,2.77,0,0,1-1.108-.222A3.24,3.24,0,0,1,44.7,95.9Z" transform="translate(-9.444 -59.977)" fill="#51efde" stroke="#51efde" stroke-width="1"/>
        <path id="Path_26657" data-name="Path 26657" d="M75.035,82.223a4.96,4.96,0,0,1-.388.415L59.169,99.253a3.517,3.517,0,0,1-2.492,1.052,3.434,3.434,0,0,1-2.464-1.052,3.821,3.821,0,0,1,0-5.233L67.254,80.174,54.212,66.329a3.821,3.821,0,0,1,0-5.233,3.434,3.434,0,0,1,4.957,0L74.648,77.71a1.828,1.828,0,0,1,.388.415h0a3.272,3.272,0,0,1,.277.526h0a3.6,3.6,0,0,0,.166.526v1.634h0a3.6,3.6,0,0,0-.166.526V81.5Z" transform="translate(5.963 -60.01)" fill="#51efde" stroke="#51efde" stroke-width="1"/>
      </g>
    </g>
    <g id="code-2" data-name="code" transform="translate(18562.598 7597.169)">
      <g id="Group_73586-2" data-name="Group 73586">
        <path id="Path_26655-2" data-name="Path 26655" d="M53.034,94.037a3.821,3.821,0,0,1,0,5.233,3.406,3.406,0,0,1-2.409,1.052,3.628,3.628,0,0,1-2.548-1.052L32.6,82.656c-.166,0-.222-.194-.277-.36h-.166a1.606,1.606,0,0,1-.166-.471.3.3,0,0,1-.166-.222V80.552a3.4,3.4,0,0,1,0-.36V78.641h0a3.017,3.017,0,0,1,.277-.526.914.914,0,0,1,.332-.415L47.911,61.085a3.434,3.434,0,0,1,4.957,0,3.821,3.821,0,0,1,0,5.233L39.826,80.164Z" transform="translate(-31.818 -60.028)" fill="#51efde" stroke="#51efde" stroke-width="1"/>
        <path id="Path_26656-2" data-name="Path 26656" d="M44.7,95.9,58.21,62a2.991,2.991,0,0,1,4.015-1.689,3.212,3.212,0,0,1,1.551,4.126L50.262,98.361a3.018,3.018,0,0,1-2.769,1.911,2.77,2.77,0,0,1-1.108-.222A3.24,3.24,0,0,1,44.7,95.9Z" transform="translate(-9.444 -59.977)" fill="#51efde" stroke="#51efde" stroke-width="1"/>
        <path id="Path_26657-2" data-name="Path 26657" d="M75.035,82.223a4.96,4.96,0,0,1-.388.415L59.169,99.253a3.517,3.517,0,0,1-2.492,1.052,3.434,3.434,0,0,1-2.464-1.052,3.821,3.821,0,0,1,0-5.233L67.254,80.174,54.212,66.329a3.821,3.821,0,0,1,0-5.233,3.434,3.434,0,0,1,4.957,0L74.648,77.71a1.828,1.828,0,0,1,.388.415h0a3.272,3.272,0,0,1,.277.526h0a3.6,3.6,0,0,0,.166.526v1.634h0a3.6,3.6,0,0,0-.166.526V81.5Z" transform="translate(5.963 -60.01)" fill="#51efde" stroke="#51efde" stroke-width="1"/>
      </g>
    </g>
    <g transform="matrix(1, 0, 0, 1, 18128.73, 7200.38)" filter="url(#hand)">
      <g id="hand-2" data-name="hand" transform="translate(-526.36 -1065.31)" fill="#100725">
        <path d="M 766.2568359375 1584.108276367188 C 757.473388671875 1584.108276367188 749.177978515625 1581.871215820313 741.6010131835938 1577.459106445313 C 735.0289916992188 1573.631713867188 729.8617553710938 1568.6689453125 726.2427978515625 1562.708740234375 C 723.3480834960938 1557.94140625 721.43701171875 1552.536010742188 720.562744140625 1546.642700195313 C 719.7871704101563 1541.414916992188 719.988525390625 1536.760620117188 720.2940063476563 1533.77685546875 C 720.6264038085938 1530.530029296875 721.1401977539063 1528.534301757813 721.1619262695313 1528.450927734375 L 721.443603515625 1527.369262695313 L 722.4873046875 1527.76904296875 C 723.8364868164063 1528.285766601563 725.0949096679688 1528.536987304688 726.3343505859375 1528.536987304688 C 726.3348999023438 1528.536987304688 726.3353881835938 1528.536987304688 726.3359375 1528.536987304688 C 729.0526733398438 1528.536499023438 731.6266479492188 1527.301513671875 734.4362182617188 1524.650390625 C 737.079345703125 1522.156494140625 739.6842041015625 1518.640014648438 742.4420166015625 1514.917114257813 C 746.041015625 1510.058715820313 750.1201782226563 1504.552124023438 755.2616577148438 1499.988525390625 C 761.2202758789063 1494.699584960938 767.635986328125 1491.54150390625 774.87548828125 1490.333984375 C 776.0850830078125 1490.130981445313 777.56005859375 1490.023681640625 779.1401977539063 1490.023681640625 C 781.6422119140625 1490.023681640625 785.632080078125 1490.285400390625 790.4310302734375 1491.532592773438 C 795.123779296875 1492.752075195313 799.4443359375 1494.617797851563 803.2726440429688 1497.078002929688 C 807.8501586914063 1500.01953125 811.6329956054688 1503.76806640625 814.51611328125 1508.219482421875 C 817.8462524414063 1513.360961914063 819.9888916015625 1519.47314453125 820.884521484375 1526.386352539063 C 821.7808227539063 1533.289428710938 821.1297607421875 1540.088989257813 818.9494018554688 1546.595947265625 C 817.113525390625 1552.074829101563 814.1975708007813 1557.352661132813 810.2825927734375 1562.28271484375 C 807.1660766601563 1566.207397460938 803.3561401367188 1569.951293945313 799.2647705078125 1573.109741210938 C 796.0961303710938 1575.555908203125 792.7701416015625 1577.636352539063 790.1395874023438 1578.817749023438 C 786.9332275390625 1580.261108398438 783.56201171875 1581.438720703125 780.1203002929688 1582.317504882813 C 775.4664306640625 1583.505737304688 770.8021240234375 1584.108276367188 766.2568359375 1584.108276367188 Z" stroke="none"/>
        <path d="M 766.2568359375 1583.108276367188 C 776.2548828125 1583.108276367188 784.743896484375 1580.150024414063 789.7299194335938 1577.905517578125 C 798.4508056640625 1573.989013671875 823.673583984375 1555.63330078125 819.892822265625 1526.514770507813 C 816.1444702148438 1497.58154296875 791.4632568359375 1491.023681640625 779.1401977539063 1491.023681640625 C 777.5399780273438 1491.023681640625 776.1506958007813 1491.134033203125 775.0400390625 1491.3203125 C 746.9031372070313 1496.013793945313 741.2449340820313 1529.534301757813 726.3361206054688 1529.536987304688 C 725.0135498046875 1529.537231445313 723.6199951171875 1529.273681640625 722.129638671875 1528.702880859375 C 722.129638671875 1528.702880859375 713.9308471679688 1560.187133789063 742.1041870117188 1576.594970703125 C 750.4429931640625 1581.450561523438 758.772705078125 1583.108276367188 766.2568359375 1583.108276367188 M 766.2569580078125 1585.108276367188 C 766.2568969726563 1585.108276367188 766.2568969726563 1585.108276367188 766.2568969726563 1585.108276367188 C 766.2569580078125 1585.108276367188 766.2569580078125 1585.108276367188 766.2569580078125 1585.108276367188 L 766.2567138671875 1585.108276367188 C 757.2943115234375 1585.108276367188 748.82958984375 1582.825439453125 741.0977783203125 1578.323364257813 C 734.3800048828125 1574.410888671875 729.094482421875 1569.332153320313 725.3880004882813 1563.227783203125 C 722.4237670898438 1558.345947265625 720.467529296875 1552.815307617188 719.5735473632813 1546.789428710938 C 718.0592041015625 1536.581665039063 720.1063232421875 1528.536376953125 720.1942138671875 1528.198852539063 L 720.7575073242188 1526.03564453125 L 722.844970703125 1526.835205078125 C 724.0779418945313 1527.307495117188 725.2192993164063 1527.536987304688 726.3342895507813 1527.536987304688 C 728.781494140625 1527.536499023438 731.137451171875 1526.38818359375 733.7499389648438 1523.923095703125 C 736.32861328125 1521.489990234375 738.9078369140625 1518.008178710938 741.6384887695313 1514.321899414063 C 748.965576171875 1504.430786132813 758.0844116210938 1492.12109375 774.7109985351563 1489.347534179688 C 775.9913940429688 1489.132690429688 777.482177734375 1489.023681640625 779.1401977539063 1489.023681640625 C 781.7005004882813 1489.023681640625 785.7813720703125 1489.291015625 790.6824951171875 1490.564697265625 C 795.4779663085938 1491.810913085938 799.895751953125 1493.71923828125 803.813232421875 1496.236694335938 C 808.5111694335938 1499.255737304688 812.39453125 1503.104370117188 815.35546875 1507.67578125 C 818.7673950195313 1512.943603515625 820.9613037109375 1519.195434570313 821.8762817382813 1526.2578125 C 822.7921752929688 1533.312133789063 822.1265258789063 1540.261962890625 819.8976440429688 1546.913696289063 C 818.024658203125 1552.503173828125 815.05322265625 1557.88330078125 811.0657348632813 1562.904663085938 C 807.899658203125 1566.8916015625 804.0302734375 1570.694213867188 799.8757934570313 1573.9013671875 C 796.647705078125 1576.393432617188 793.2483520507813 1578.517822265625 790.5492553710938 1579.72998046875 C 787.29150390625 1581.196411132813 783.8653564453125 1582.393310546875 780.3675537109375 1583.286376953125 C 775.6327514648438 1584.495239257813 770.88525390625 1585.108276367188 766.2568969726563 1585.108276367188 L 766.2569580078125 1585.108276367188 Z" stroke="none" fill="#51efde"/>
      </g>
    </g>
    <path id="Path_27089" data-name="Path 27089" d="M764.509,1581.828a47.947,47.947,0,0,1-24.447-6.559c-28.275-16.465-20.366-48.3-20.277-48.62l.183-.7.681.261c8.379,3.206,13.664-3.917,20.366-12.969,7.183-9.7,16.121-21.766,32.21-24.447,6.319-1.044,19.62.261,30.317,8.191,8.617,6.384,13.747,15.666,15.29,27.562,3.831,29.56-21.411,47.957-30.549,52.07h0A59.223,59.223,0,0,1,764.509,1581.828Zm-43.6-54.153c-.963,4.7-5.28,31.855,19.828,46.477,18.912,11.013,37.584,5.53,47.03,1.279,8.912-4.01,33.51-21.933,29.782-50.712-1.493-11.541-6.468-20.518-14.776-26.68-10.3-7.64-23.445-8.932-29.322-7.953-15.57,2.6-24.333,14.429-31.375,23.936-6.583,8.872-12.288,16.572-21.181,13.661Z" transform="translate(17604.086 6136.948)" fill="#390075"/>
    <path id="Path_27092" data-name="Path 27092" d="M1763.257,1579.592a13.221,13.221,0,0,0,.261,1.52c.11.548.261,1.112.384,1.668.287,1.12.6,2.251.966,3.374a68.546,68.546,0,0,0,2.53,6.695,71.438,71.438,0,0,0,3.253,6.512c1.183,2.149,2.522,4.212,3.917,6.266-1.95-1.527-3.893-3.115-5.723-4.844a74.808,74.808,0,0,1-5.313-5.449,73.562,73.562,0,0,1-4.812-6.058c-.762-1.044-1.483-2.154-2.191-3.274-.35-.569-.7-1.136-1.044-1.731a20.244,20.244,0,0,1-1.01-1.932l-.227-.5a4.718,4.718,0,1,1,8.582-3.917A4.777,4.777,0,0,1,1763.257,1579.592Z" transform="translate(16839.275 6072.965)" fill="#51efde"/>
    <path id="Path_27093" data-name="Path 27093" d="M1798.121,1523.385c.833,2.259,1.951,4.742,3.084,7.079s2.4,4.7,3.744,6.971,2.8,4.512,4.35,6.687a69.98,69.98,0,0,0,5.089,6.267,70.51,70.51,0,0,1-6.742-4.663c-2.159-1.7-4.274-3.494-6.282-5.4s-3.971-3.891-5.851-5.961-3.656-4.149-5.468-6.572h0a4.646,4.646,0,0,1,7.452-5.551A4.849,4.849,0,0,1,1798.121,1523.385Z" transform="translate(16813.156 6113.386)" fill="#51efde"/>
    <path id="Path_27094" data-name="Path 27094" d="M1862.167,1484.947a65.15,65.15,0,0,0,2.645,6.327c1,2.125,2.089,4.232,3.261,6.3a92.106,92.106,0,0,0,8.016,11.977,94.367,94.367,0,0,1-11.606-9.1q-2.757-2.512-5.344-5.253a74.018,74.018,0,0,1-5.055-5.849l-.039-.055a4.663,4.663,0,1,1,7.408-5.664A4.754,4.754,0,0,1,1862.167,1484.947Z" transform="translate(16765.896 6141.886)" fill="#51efde"/>
    <path id="Path_27095" data-name="Path 27095" d="M1046.644,1582.645c-.363.783-.668,1.321-1.013,1.932s-.681,1.162-1.031,1.731c-.7,1.12-1.428,2.217-2.191,3.274a73.949,73.949,0,0,1-4.81,6.058,75.46,75.46,0,0,1-5.313,5.449c-1.828,1.729-3.776,3.316-5.726,4.844,1.4-2.057,2.739-4.12,3.917-6.267a72.783,72.783,0,0,0,3.253-6.512,68.489,68.489,0,0,0,2.527-6.695c.366-1.123.679-2.253.966-3.374.136-.556.261-1.12.384-1.668a12.7,12.7,0,0,0,.261-1.52,4.718,4.718,0,1,1,9.011,2.238Z" transform="translate(17376.613 6072.662)" fill="#51efde"/>
    <path id="Path_27096" data-name="Path 27096" d="M998.43,1527.706c-1.8,2.423-3.572,4.473-5.465,6.572s-3.836,4.057-5.854,5.961-4.12,3.708-6.282,5.4a70.5,70.5,0,0,1-6.739,4.663,69.468,69.468,0,0,0,5.086-6.267c1.567-2.175,3.021-4.392,4.353-6.687s2.59-4.611,3.744-6.971,2.251-4.82,3.084-7.079a4.645,4.645,0,1,1,8.094,4.366Z" transform="translate(17415.381 6113.461)" fill="#51efde"/>
    <path id="Path_27097" data-name="Path 27097" d="M940.734,1489.345a73.415,73.415,0,0,1-5.052,5.849q-2.593,2.736-5.347,5.254a94.544,94.544,0,0,1-11.6,9.1,91.823,91.823,0,0,0,8.013-11.977c1.175-2.068,2.261-4.178,3.264-6.3a66.511,66.511,0,0,0,2.653-6.327,4.663,4.663,0,0,1,8.823,3.024,4.737,4.737,0,0,1-.695,1.305Z" transform="translate(17456.285 6141.885)" fill="#51efde"/>
    <path id="Path_27098" data-name="Path 27098" d="M1117.585,2564a82.581,82.581,0,0,0-4.178,7.227,51.6,51.6,0,0,0-3.055,6.844c-.232.559-.363,1.162-.554,1.731a13.731,13.731,0,0,0-.473,1.741c-.115.593-.261,1.172-.412,1.747s-.188,1.188-.285,1.778c-.293,1.157-.274,2.384-.488,3.567-.123,1.2-.149,2.423-.339,3.656l-.1.647a4.574,4.574,0,0,1-9.092-.522,34.077,34.077,0,0,1,.023-4.645,29.619,29.619,0,0,1,.783-4.632,30.326,30.326,0,0,1,3.656-8.661,25,25,0,0,1,6.165-6.906A16.608,16.608,0,0,1,1117.585,2564Z" transform="translate(17323.426 5342.25)" fill="#51efde"/>
    <path id="Path_27099" data-name="Path 27099" d="M996.21,2539.53c-1.783,2.559-3.342,4.82-4.7,7.152a45.349,45.349,0,0,0-3.488,6.831,33.27,33.27,0,0,0-2.013,7.021c-.318,1.167-.342,2.4-.559,3.6-.154,1.209-.164,2.449-.371,3.681l-.1.632a4.577,4.577,0,0,1-9.087-.523c-.042-.8-.057-1.6-.05-2.4a15.448,15.448,0,0,1,.112-2.4,28.4,28.4,0,0,1,.893-4.771,29.006,29.006,0,0,1,4.078-8.773,25.06,25.06,0,0,1,6.619-6.773A18.012,18.012,0,0,1,996.21,2539.53Z" transform="translate(17414.096 5360.331)" fill="#51efde"/>
    <path id="Path_27100" data-name="Path 27100" d="M1697.6,2564a17.069,17.069,0,0,1,8.355,3.548,25,25,0,0,1,6.165,6.906,30.49,30.49,0,0,1,4.439,13.293,34.414,34.414,0,0,1,.024,4.645,4.575,4.575,0,0,1-9.092.522l-.1-.647c-.193-1.222-.217-2.444-.342-3.656-.211-1.183-.2-2.41-.486-3.567-.1-.59-.17-1.188-.284-1.778s-.3-1.154-.413-1.747a13.7,13.7,0,0,0-.473-1.741c-.193-.57-.324-1.173-.554-1.731a48.45,48.45,0,0,0-3.055-6.844C1700.605,2568.891,1699.229,2566.572,1697.6,2564Z" transform="translate(16880.785 5342.25)" fill="#51efde"/>
    <path id="Path_27101" data-name="Path 27101" d="M1815.2,2539.53a18.073,18.073,0,0,1,8.669,3.266,25.072,25.072,0,0,1,6.616,6.773,29.011,29.011,0,0,1,4.068,8.784,28.393,28.393,0,0,1,.89,4.77,15.111,15.111,0,0,1,.115,2.405c0,.8,0,1.6-.05,2.4a4.58,4.58,0,0,1-9.089.522l-.1-.635c-.2-1.233-.217-2.473-.368-3.682-.219-1.2-.24-2.428-.559-3.6a33.282,33.282,0,0,0-2.016-7.021,45.57,45.57,0,0,0-3.486-6.831C1818.542,2544.353,1816.976,2542.089,1815.2,2539.53Z" transform="translate(16793.889 5360.331)" fill="#51efde"/>
    <path id="Path_27102" data-name="Path 27102" d="M4.958,32.105a4.945,4.945,0,0,1-1.5-9.661l3.528-1.125L63.586.31a4.945,4.945,0,1,1,3.439,9.273L10.1,30.706,6.467,31.865A4.941,4.941,0,0,1,4.958,32.105Z" transform="matrix(0.946, 0.326, -0.326, 0.946, 18553.24, 7399.326)" fill="#4d4d4f"/>
    <path id="Path_27140" data-name="Path 27140" d="M289.432,349.68l21.414,6.621c-22.447,7.3-61.048,8.594-75.605-.282,8.03.563,15.52,1.033,21.648,1.291A59.732,59.732,0,0,0,289.432,349.68Z" transform="translate(18171.441 7500.573)" fill="#4d4d4f" fill-rule="evenodd"/>
    <path id="Path_27139" data-name="Path 27139" d="M256.654,349.68,235.24,356.3c22.447,7.3,61.048,8.594,75.606-.282-8.03.563-15.52,1.033-21.649,1.291A59.732,59.732,0,0,1,256.654,349.68Z" transform="translate(18302.676 7500.573)" fill="#4d4d4f" fill-rule="evenodd"/>
    <path id="Path_27126" data-name="Path 27126" d="M1145.123,933.573c-.049,21.571,28.268,46.577,74.065,46.806,45.458.227,90.576-38.244,90.625-59.808.049-22.343-47.036-24.032-90.625-24.25C1173.736,896.085,1147.433,911.326,1145.123,933.573Z" transform="translate(17291.693 6587.187)" fill="#4d4d4f"/>
    <g id="Group_73582" data-name="Group 73582" transform="translate(18462.006 7327.199) rotate(2)">
      <path id="Path_26867" data-name="Path 26867" d="M2.294,42.177a.5.5,0,0,0,.967,0c2.05-6.63,1.54-13.747,1.627-20.62.081-6.671,2.235-14.4.127-20.782A1.1,1.1,0,0,0,3.03.52C-.682,5.535.077,12.57.042,18.569.007,26.306-.109,34.7,2.294,42.177Z" transform="translate(53.193 0)" fill="#51efde"/>
      <path id="Path_26868" data-name="Path 26868" d="M1.494,25.54A65,65,0,0,0,5.877,13.635C7.162,9.165,8.726,5.268,7.707.618,7.521-.2,6.52-.135,6.1.41c-2.774,3.6-3.474,7.684-4.632,12.01C.254,17-.44,20.711.312,25.384a.666.666,0,0,0,1.181.156Z" transform="translate(65.743 12.062)" fill="#51efde"/>
      <path id="Path_26869" data-name="Path 26869" d="M.912,26.791C4.82,23.4,7.657,19.032,10.836,14.967c3.445-4.4,6.52-8.529,8.859-13.654A.88.88,0,0,0,18.318.247C11.149,6.837,1.577,16.269,0,26.264a.579.579,0,0,0,.909.527Z" transform="translate(77.42 8.484)" fill="#51efde"/>
      <path id="Path_26870" data-name="Path 26870" d="M6.157,26.363c.307.284.979.226,1.048-.278.608-4.436-.915-9.1-1.494-13.5C5.173,8.471,4.524,3.948,2.121.474,1.676-.169.454-.221.286.711c-.741,4.175.122,8.373.753,12.507C1.71,17.614,2.741,23.26,6.157,26.363Z" transform="translate(35.121 13.127)" fill="#51efde"/>
      <path id="Path_26871" data-name="Path 26871" d="M12.974,16.311C17.2,20.6,21.694,27.11,27.23,29.629c.284.127.735,0,.695-.394-.643-5.889-6.207-10.869-9.96-15.055C13.177,8.824,7.542,3.364,1.121.092A.759.759,0,0,0,.09,1.117C3.188,7.093,8.3,11.54,12.974,16.311Z" transform="translate(0 8.054)" fill="#51efde"/>
    </g>
    <path id="Path_27128" data-name="Path 27128" d="M1.942,18.082C7.6,12.2,20.028,5.241,28.8.7c5.607-2.894,3.617,4.106,3.617,4.106L19.648,23.6S-7.336,27.686,1.942,18.082Z" transform="matrix(0.848, 0.53, -0.53, 0.848, 18503.842, 7474.364)" fill="#da7392" fill-rule="evenodd"/>
    <path id="Path_27135" data-name="Path 27135" d="M107.471,83.877C58.516,42.03,5.076,40.528.168,17.716-5.209-7.242,119.915-2.606,134,11.858c3.123,3.219-3.757,6.03-11.74,27.3C115.572,57.439,109.185,85.422,107.471,83.877Z" transform="translate(18295.1 7227.331) rotate(24)" fill="#4d4d4f" fill-rule="evenodd"/>
    <path id="Path_27136" data-name="Path 27136" d="M107.471,74.169c-48.955-37-102.4-38.332-107.3-58.5C-5.209-6.4,119.915-2.3,134,10.485c3.123,2.846-3.757,5.332-11.74,24.138C115.572,50.791,109.185,75.536,107.471,74.169Z" transform="translate(18734.518 7240.806) rotate(123)" fill="#4d4d4f" fill-rule="evenodd"/>
    <path id="Path_27141" data-name="Path 27141" d="M158.681,279.125c-.758-22.37,7.105-57.826,28.061-60.6,37.349-4.944,45.491,26.6,47.9,36.015,5.322,21.386,2.488,51.708-.506,65.588-3.287,15.9-9.508,36.481-18.011,50.954-41.437,5.252-36.649-.9-44.92,0C168.678,371.68,159.36,298.889,158.681,279.125Z" transform="translate(18320.32 7457.247)" fill="#4d4d4f" fill-rule="evenodd"/>
    <path id="Path_27142" data-name="Path 27142" d="M111.038,279.725c2.181,8.489,10.424,17.9,10.693,24.394.246,5.671-4.407,11.185-9.049,14.395C107.85,321.87,108.857,271.236,111.038,279.725Z" transform="translate(18255.914 7462.911)" fill="#4d4d4f" fill-rule="evenodd"/>
    <path id="Path_27143" data-name="Path 27143" d="M0,39.721a42.067,42.067,0,0,0,2.043-6.7C5.213,17.568.517-1.35,3.24.076l.305.149.188.106h0L4.6.778h0l.657.341h.305l.329.149.376.191H6.41c.587.319,1.2.617,1.808.915h0l.352.17.47.234h0l1.9.936h0l2.911,1.426A73.584,73.584,0,0,1,0,39.721Z" transform="translate(18316.951 7751.713) rotate(-13)" fill="#51efde"/>
    <ellipse id="Ellipse_11672" data-name="Ellipse 11672" cx="29.658" cy="29.659" rx="29.658" ry="29.659" transform="translate(18409.543 7430.117)" fill="url(#radial-gradient)"/>
    <path id="Path_27144" data-name="Path 27144" d="M38.675,40.1a14.176,14.176,0,0,0-7.447,2.156,7.023,7.023,0,0,1,1.96,5,7.186,7.186,0,0,1-7.153,7.186,6.532,6.532,0,0,1-1.764-.261v.261A14.339,14.339,0,1,0,38.577,40.1Z" transform="translate(18400.199 7406.923)"/>
    <ellipse id="Ellipse_11673" data-name="Ellipse 11673" cx="29.658" cy="29.659" rx="29.658" ry="29.659" transform="translate(18536.279 7426.157)" fill="url(#radial-gradient-2)"/>
    <path id="Path_27145" data-name="Path 27145" d="M62.687,40.1a14.274,14.274,0,0,0-7.48,2.156,7.023,7.023,0,0,1,2.058,5,7.186,7.186,0,0,1-7.153,7.186,6.174,6.174,0,0,1-1.731-.261v.261A14.339,14.339,0,1,0,62.719,40.1Z" transform="translate(18500.318 7405.603)"/>
    <path id="Path_27146" data-name="Path 27146" d="M.03,88.681c-.8-3.733,14.417-3.088,28.607-7,13.619-3.216,47.3-26.952,56.062-39.255C99.515,21.554,111.232-4.72,113.3.727c3.311,8.641-30.524,79.949-45.5,91.571S1.509,95.467.03,88.681Z" transform="matrix(0.819, 0.574, -0.574, 0.819, 18498.057, 7446.405)" fill="#ff7a94" fill-rule="evenodd"/>
    <path id="Path_27147" data-name="Path 27147" d="M4.11.856a1.32,1.32,0,0,1,2.472,0l2.942,12.3h0L2.312,9.941,0,8.709Z" transform="translate(18474.621 7540.214) rotate(9)" fill="#fff"/>
    <path id="Path_27148" data-name="Path 27148" d="M4.52,10.058a1.32,1.32,0,0,0,2.472,0L9.3,0,0,2.113Z" transform="translate(18522.555 7556.21) rotate(171)" fill="#fff"/>
    <path id="Polygon_9" data-name="Polygon 9" d="M5.28,0l5.28,10.56H0Z" transform="translate(18475.498 7541.329) rotate(-159)" fill="#fff"/>
    <path id="Path_27149" data-name="Path 27149" d="M6.006,0l5.813,11.4L0,11.194Z" transform="translate(18536.664 7542.826) rotate(172)" fill="#fff"/>
  </g>
</svg>
