<svg xmlns="http://www.w3.org/2000/svg" xmlns:xlink="http://www.w3.org/1999/xlink" width="352.268" height="545.691" viewBox="0 0 352.268 545.691">
  <defs>
    <filter id="Path_26838" x="192.043" y="127.163" width="160.225" height="136.999" filterUnits="userSpaceOnUse">
      <feOffset dy="3" input="SourceAlpha"/>
      <feGaussianBlur stdDeviation="3" result="blur"/>
      <feFlood flood-color="#51efde"/>
      <feComposite operator="in" in2="blur"/>
      <feComposite in="SourceGraphic"/>
    </filter>
    <filter id="Path_26840" x="105.561" y="0" width="52.162" height="65.426" filterUnits="userSpaceOnUse">
      <feOffset dy="3" input="SourceAlpha"/>
      <feGaussianBlur stdDeviation="3" result="blur-2"/>
      <feFlood flood-color="#51efde"/>
      <feComposite operator="in" in2="blur-2"/>
      <feComposite in="SourceGraphic"/>
    </filter>
    <filter id="Path_26841" x="197.953" y="0.143" width="55.918" height="62.903" filterUnits="userSpaceOnUse">
      <feOffset dy="3" input="SourceAlpha"/>
      <feGaussianBlur stdDeviation="3" result="blur-3"/>
      <feFlood flood-color="#51efde"/>
      <feComposite operator="in" in2="blur-3"/>
      <feComposite in="SourceGraphic"/>
    </filter>
    <filter id="Path_26842" x="98.344" y="115.772" width="168.295" height="158.092" filterUnits="userSpaceOnUse">
      <feOffset dy="3" input="SourceAlpha"/>
      <feGaussianBlur stdDeviation="3" result="blur-4"/>
      <feFlood flood-color="#51efde"/>
      <feComposite operator="in" in2="blur-4"/>
      <feComposite in="SourceGraphic"/>
    </filter>
    <filter id="Path_26845" x="198.041" y="172.512" width="74.26" height="112.324" filterUnits="userSpaceOnUse">
      <feOffset dy="3" input="SourceAlpha"/>
      <feGaussianBlur stdDeviation="3" result="blur-5"/>
      <feFlood flood-color="#51efde"/>
      <feComposite operator="in" in2="blur-5"/>
      <feComposite in="SourceGraphic"/>
    </filter>
    <filter id="Path_26847" x="92.26" y="10.994" width="174.752" height="161.397" filterUnits="userSpaceOnUse">
      <feOffset dy="3" input="SourceAlpha"/>
      <feGaussianBlur stdDeviation="3" result="blur-6"/>
      <feFlood flood-color="#51efde"/>
      <feComposite operator="in" in2="blur-6"/>
      <feComposite in="SourceGraphic"/>
    </filter>
    <radialGradient id="radial-gradient" cx="0.5" cy="0.5" r="0.5" gradientUnits="objectBoundingBox">
      <stop offset="0" stop-color="#fff"/>
      <stop offset="0.01" stop-color="#fff"/>
      <stop offset="0.21" stop-color="#0cf"/>
      <stop offset="0.47" stop-color="#f0f0ea"/>
      <stop offset="0.76" stop-color="#0cf"/>
      <stop offset="1" stop-color="#0cf"/>
    </radialGradient>
    <radialGradient id="radial-gradient-2" cx="0.5" cy="0.5" r="0.5" gradientTransform="translate(0)" gradientUnits="objectBoundingBox">
      <stop offset="0" stop-color="#05a374"/>
      <stop offset="0.01" stop-color="#fff"/>
      <stop offset="0.21" stop-color="#51efde"/>
      <stop offset="0.47" stop-color="#f0f0ea"/>
      <stop offset="0.76" stop-color="#51efde"/>
      <stop offset="1" stop-color="#51efde"/>
    </radialGradient>
    <linearGradient id="linear-gradient" x1="1.107" y1="0.65" x2="0.465" y2="1.26" gradientUnits="objectBoundingBox">
      <stop offset="0" stop-color="#f5f5f5" stop-opacity="0"/>
      <stop offset="1" stop-color="#f5f5f5"/>
    </linearGradient>
    <filter id="Path_26850" x="172.176" y="167.603" width="77.588" height="117.524" filterUnits="userSpaceOnUse">
      <feOffset dy="3" input="SourceAlpha"/>
      <feGaussianBlur stdDeviation="3" result="blur-7"/>
      <feFlood flood-color="#51efde"/>
      <feComposite operator="in" in2="blur-7"/>
      <feComposite in="SourceGraphic"/>
    </filter>
    <linearGradient id="linear-gradient-2" x1="-0.314" y1="0.642" x2="0.535" y2="1.26" xlink:href="#linear-gradient"/>
    <filter id="Path_26864" x="110.469" y="169.895" width="74.004" height="112.735" filterUnits="userSpaceOnUse">
      <feOffset dy="3" input="SourceAlpha"/>
      <feGaussianBlur stdDeviation="3" result="blur-8"/>
      <feFlood flood-color="#51efde"/>
      <feComposite operator="in" in2="blur-8"/>
      <feComposite in="SourceGraphic"/>
    </filter>
    <filter id="Path_26851" x="86.725" y="172.512" width="74.316" height="112.23" filterUnits="userSpaceOnUse">
      <feOffset dy="3" input="SourceAlpha"/>
      <feGaussianBlur stdDeviation="3" result="blur-9"/>
      <feFlood flood-color="#51efde"/>
      <feComposite operator="in" in2="blur-9"/>
      <feComposite in="SourceGraphic"/>
    </filter>
    <clipPath id="clip-path">
      <path id="Path_26859" data-name="Path 26859" d="M22.452,92.37l31.5,73.622c-6.528,3.292-8.81,9.913-3.965,14.964C36.349,186.4,17.869,185,16.148,177.963c-1.983-8.1,7.482-9.352,7.482-9.352C-19,123.12,5.8,101.03,22.452,92.37Z" transform="translate(0.007 -92.37)" fill="none"/>
    </clipPath>
    <linearGradient id="linear-gradient-3" x1="0.024" y1="1.815" x2="0.609" y2="0.198" gradientUnits="objectBoundingBox">
      <stop offset="0.01" stop-color="#fff"/>
      <stop offset="0.06" stop-color="#fff" stop-opacity="0.902"/>
      <stop offset="0.21" stop-color="#fff" stop-opacity="0.671"/>
      <stop offset="0.36" stop-color="#fff" stop-opacity="0.459"/>
      <stop offset="0.5" stop-color="#fff" stop-opacity="0.302"/>
      <stop offset="0.64" stop-color="#fff" stop-opacity="0.169"/>
      <stop offset="0.77" stop-color="#fff" stop-opacity="0.071"/>
      <stop offset="0.89" stop-color="#fff" stop-opacity="0.02"/>
      <stop offset="0.99" stop-color="#fff" stop-opacity="0"/>
    </linearGradient>
    <linearGradient id="linear-gradient-4" x1="-0.003" y1="0.498" x2="0.999" y2="0.498" gradientUnits="objectBoundingBox">
      <stop offset="0" stop-color="#4ddbff"/>
      <stop offset="0.465" stop-color="#51efde"/>
      <stop offset="1" stop-color="#4ddbff"/>
    </linearGradient>
    <filter id="Path_26878" x="107.186" y="264.824" width="129.943" height="280.867" filterUnits="userSpaceOnUse">
      <feOffset dy="3" input="SourceAlpha"/>
      <feGaussianBlur stdDeviation="3" result="blur-10"/>
      <feFlood flood-color="#a0a0a0"/>
      <feComposite operator="in" in2="blur-10"/>
      <feComposite in="SourceGraphic"/>
    </filter>
    <filter id="Path_26879" x="47.895" y="381.678" width="78.291" height="162.619" filterUnits="userSpaceOnUse">
      <feOffset dy="3" input="SourceAlpha"/>
      <feGaussianBlur stdDeviation="3" result="blur-11"/>
      <feFlood flood-color="#a0a0a0"/>
      <feComposite operator="in" in2="blur-11"/>
      <feComposite in="SourceGraphic"/>
    </filter>
    <filter id="Path_26880" x="0" y="329.45" width="66.895" height="216.242" filterUnits="userSpaceOnUse">
      <feOffset dy="3" input="SourceAlpha"/>
      <feGaussianBlur stdDeviation="3" result="blur-12"/>
      <feFlood flood-color="#a0a0a0"/>
      <feComposite operator="in" in2="blur-12"/>
      <feComposite in="SourceGraphic"/>
    </filter>
    <filter id="Path_26881" x="217.127" y="276.252" width="76.744" height="268.651" filterUnits="userSpaceOnUse">
      <feOffset dy="3" input="SourceAlpha"/>
      <feGaussianBlur stdDeviation="3" result="blur-13"/>
      <feFlood flood-color="#a0a0a0"/>
      <feComposite operator="in" in2="blur-13"/>
      <feComposite in="SourceGraphic"/>
    </filter>
  </defs>
  <g id="get_an_interview" data-name="get an interview" transform="translate(-16939.479 -4272.883)">
    <g id="Group_73520" data-name="Group 73520" transform="translate(17036.203 4280)">
      <g id="Group_73503" data-name="Group 73503" transform="translate(0)">
        <g transform="matrix(1, 0, 0, 1, -96.72, -7.12)" filter="url(#Path_26838)">
          <path id="Path_26838-2" data-name="Path 26838" d="M137.017,184.907c-59.425,0-78.8-35.539-79.626-37.091a10.288,10.288,0,0,1,18.162-9.652c.767,1.347,16.591,28.394,67.73,26.037,29.217-1.365,32.4-28.169,32.658-36.343.673-19.752-8.754-37.578-20.575-38.943-10.044-1.141-17.171.168-19.584,3.629a10.1,10.1,0,0,0-.505,8.548,10.289,10.289,0,0,1-17.713,10.475c-3.442-5.761-6.285-19.023.8-30.021,4.826-7.482,15.562-15.787,39.28-13.093,25.457,2.918,39.729,32.845,38.812,60.079-1.1,32.714-21.641,54.767-52.373,56.114C141.768,184.851,139.355,184.907,137.017,184.907Z" transform="translate(145.76 66.25)" fill="#100725" stroke="#51efde" stroke-width="2"/>
        </g>
        <g transform="matrix(1, 0, 0, 1, -96.72, -7.12)" filter="url(#Path_26840)">
          <path id="Path_26840-2" data-name="Path 26840" d="M13.848,44.928S3.878,17.694,16.335.13c0,0,18.087,11.859,24.952,22.446S13.848,44.928,13.848,44.928Z" transform="translate(105.5 7.23)" fill="#100725" stroke="#51efde" stroke-linecap="round" stroke-width="2"/>
        </g>
        <g transform="matrix(1, 0, 0, 1, -96.72, -7.12)" filter="url(#Path_26841)">
          <path id="Path_26841-2" data-name="Path 26841" d="M59.76,22.654S84.319-2.766,90.436.245s6.36,32.958,0,42.31Z" transform="translate(148.76 7.12)" fill="#100725" stroke="#51efde" stroke-linecap="round" stroke-width="2"/>
        </g>
        <g transform="matrix(1, 0, 0, 1, -96.72, -7.12)" filter="url(#Path_26842)">
          <path id="Path_26842-2" data-name="Path 26842" d="M21.557,61.83S.608,113.511,7.678,167.306c3.4,25.775,72.144,35.127,99.64,32.022s47.753-26.822,47.154-63.371S128.828,61.83,128.828,61.83Z" transform="translate(102.15 60.94)" fill="#100725" stroke="#4ddbff" stroke-linecap="round" stroke-width="2"/>
        </g>
        <g transform="matrix(1, 0, 0, 1, -96.72, -7.12)" filter="url(#Path_26845)">
          <path id="Path_26845-2" data-name="Path 26845" d="M91.159,92.37l-31.5,73.622c6.509,3.292,8.81,9.913,3.965,14.964,13.636,5.443,32.116,4.04,33.837-2.993,1.983-8.1-7.482-9.352-7.482-9.352C132.608,123.12,107.806,101.03,91.159,92.37Z" transform="translate(148.67 87.53)" fill="#100725" stroke="#51efde" stroke-linecap="round" stroke-width="2"/>
        </g>
        <g transform="matrix(1, 0, 0, 1, -96.72, -7.12)" filter="url(#Path_26847)">
          <path id="Path_26847-2" data-name="Path 26847" d="M156.972,73.267c0,37.073-12.925,73.21-77.157,73.21-67.861-.056-76.6-36.194-76.6-73.21S37.637,6.08,80.1,6.08,156.972,36.138,156.972,73.267Z" transform="translate(99.54 12.41)" fill="#100725" stroke="#51efde" stroke-width="3"/>
        </g>
        <g id="Group_73496" data-name="Group 73496" transform="translate(6.036 11.377)">
          <g id="Group_73495" data-name="Group 73495" opacity="0.41">
            <path id="Path_26848" data-name="Path 26848" d="M156.972,73.267c0,37.073-12.925,73.21-77.157,73.21-67.861-.056-76.6-36.194-76.6-73.21S37.637,6.08,80.1,6.08,156.972,36.138,156.972,73.267Z" transform="translate(-3.22 -6.08)" fill="#100725" stroke="#4ddbff" stroke-width="1"/>
          </g>
        </g>
        <circle id="Ellipse_11657" data-name="Ellipse 11657" cx="24.335" cy="24.335" r="24.335" transform="translate(13.809 101.263) rotate(-76.64)" fill="#292841"/>
        <circle id="Ellipse_11658" data-name="Ellipse 11658" cx="24.335" cy="24.335" r="24.335" transform="translate(80.629 101.276) rotate(-76.64)" fill="#292841"/>
        <circle id="Ellipse_11659" data-name="Ellipse 11659" cx="16.984" cy="16.984" r="16.984" transform="translate(33.082 64.573)" fill="url(#radial-gradient)"/>
        <path id="Path_26849" data-name="Path 26849" d="M32.519,40.1a8.118,8.118,0,0,0-4.265,1.235A4.021,4.021,0,0,1,29.376,44.2a4.115,4.115,0,0,1-4.1,4.115,3.741,3.741,0,0,1-1.01-.15v.15A8.211,8.211,0,1,0,32.463,40.1Z" transform="translate(21.139 34.91)"/>
        <circle id="Ellipse_11660" data-name="Ellipse 11660" cx="16.984" cy="16.984" r="16.984" transform="translate(86.26 64.573)" fill="url(#radial-gradient-2)"/>
        <g transform="matrix(1, 0, 0, 1, -96.72, -7.12)" filter="url(#Path_26850)">
          <path id="Path_26850-2" data-name="Path 26850" d="M81.067,105.642s-26.026,58.825-31.226,77.943,14.271,21.527,24.184,17.19,8.23-12.312.281-15.9l31.88-75.7" transform="translate(133.27 69.28)" stroke="#51efde" stroke-linecap="round" stroke-width="2" fill="url(#linear-gradient)"/>
        </g>
        <g transform="matrix(1, 0, 0, 1, -96.72, -7.12)" filter="url(#Path_26864)">
          <path id="Path_26864-2" data-name="Path 26864" d="M98.237,131.937s18.984,49.665,24.184,71.1-14.271,24.137-24.184,19.273-8.23-13.8-.281-17.826L69.642,131.937" transform="translate(51.12 45.25)" stroke="#51efde" stroke-linecap="round" stroke-width="2" fill="url(#linear-gradient-2)"/>
        </g>
        <g transform="matrix(1, 0, 0, 1, -96.72, -7.12)" filter="url(#Path_26851)">
          <path id="Path_26851-2" data-name="Path 26851" d="M23.7,168.517s-9.539,1.253-7.482,9.352c1.721,7.033,20.2,8.436,33.837,2.993-4.845-4.957-2.563-11.578,3.965-14.964L22.444,92.37C5.8,101.03-19.005,123.12,23.7,168.517Z" transform="translate(96.74 87.53)" fill="#100725" stroke="#51efde" stroke-linecap="round" stroke-width="2"/>
        </g>
        <path id="Path_26856" data-name="Path 26856" d="M56.573,40.1a8.174,8.174,0,0,0-4.283,1.235A4.021,4.021,0,0,1,53.468,44.2a4.115,4.115,0,0,1-4.1,4.115,3.535,3.535,0,0,1-.991-.15v.15A8.211,8.211,0,1,0,56.591,40.1Z" transform="translate(42.126 34.911)"/>
        <path id="Path_26866" data-name="Path 26866" d="M277.206,603.966c-6.663,6.588-21.6,5.654-32.105,6.155-8.591.408-24.254,1.276-27.06-6.155-.209.146.257,6.185.5,6.155.824,3.006,4.2,5.4,6.561,5.213-.015,1-.115-7.129,0-6.159.206,1.822.632,7.441.972,9.179.268,1.456,1.467,2.279,1.862.49a77.908,77.908,0,0,0,1.136-8.724c.022-.25-.045,5.429,0,4.944,5.343-.344,10.694-.573,16.023-.924,6.255-.406,12.535.015,19.032,0l.72,0c0,.289-.006-5.492,0-4.965.023,2.331.274,6.529.473,8.988.1,1.246,1.056,1.736,1.449.771.942-2.307,1.351-7.432,1.562-10.583.013-.191-.024,6.117,0,5.691,2.813-.123,4.6-1.678,6.167-3.922C274.751,610.089,277.462,604,277.206,603.966Z" transform="translate(-171.033 -484.563)" fill="#100725" stroke="#51efde" stroke-width="1"/>
        <path id="Path_26862" data-name="Path 26862" d="M51.963,139.879c0,4.788-5.48,8.679-12.252,8.679s-12.252-3.891-12.252-8.679,5.48-8.679,12.252-8.679S51.963,135.072,51.963,139.879Z" transform="translate(23.916 114.21)" opacity="0.4" fill="url(#linear-gradient-3)"/>
        <g id="Path_26853" data-name="Path 26853" transform="translate(25.938 47.903)" fill="#292841" stroke-linecap="round" opacity="0.86">
          <path d="M 38.51345443725586 75.37384796142578 C 36.78173446655273 75.37384796142578 35.05115127563477 74.96219635009766 33.50882339477539 74.18341064453125 C 31.91622352600098 73.37924194335938 30.52477264404297 72.1796875 29.48488235473633 70.71446228027344 C 27.77516174316406 68.30542755126953 27.10597229003906 65.37481689453125 27.6005916595459 62.46245956420898 C 28.09521293640137 59.55010986328125 29.69441223144531 57.00471878051758 32.10360336303711 55.29518890380859 C 33.98520278930664 53.96002960205078 36.19484329223633 53.25429916381836 38.4936637878418 53.25429916381836 C 40.22574234008789 53.25429916381836 41.95654296875 53.66603088378906 43.49894332885742 54.44498062133789 C 45.09161376953125 55.24930953979492 46.48311233520508 56.44916915893555 47.52304077148438 57.91482925415039 C 49.23215103149414 60.32365036010742 49.90105438232422 63.25386047363281 49.40652084350586 66.16568756103516 C 48.91199111938477 69.07752227783203 47.31319427490234 71.62261962890625 44.90464401245117 73.3321533203125 C 43.02282333374023 74.66783905029297 40.81278228759766 75.37384796142578 38.51345443725586 75.37384796142578 Z" stroke="none"/>
          <path d="M 38.51345443725586 74.87384796142578 C 40.70850372314453 74.87384796142578 42.81846237182617 74.19975280761719 44.61524200439453 72.92440795898438 C 46.91489410400391 71.29218292236328 48.44140243530273 68.86215209960938 48.91357421875 66.08197021484375 C 49.3857536315918 63.30178833007813 48.74709320068359 60.50407028198242 47.11525344848633 58.20415878295898 C 46.12226104736328 56.80464172363281 44.7938232421875 55.6590690612793 43.27355194091797 54.89128875732422 C 41.80069351196289 54.14746856689453 40.14783096313477 53.75429916381836 38.4936637878418 53.75429916381836 C 36.29911422729492 53.75429916381836 34.18952178955078 54.42813873291016 32.39295196533203 55.70296096801758 C 30.09268188476563 57.33520126342773 28.56579208374023 59.76551055908203 28.09353256225586 62.54618072509766 C 27.62128257751465 65.32685852050781 28.26021194458008 68.12496948242188 29.89262199401855 70.42507934570313 C 30.88559341430664 71.82418823242188 32.21398162841797 72.96945953369141 33.73419189453125 73.73708343505859 C 35.20698165893555 74.48075866699219 36.85962295532227 74.87384796142578 38.51345443725586 74.87384796142578 M 38.51345443725586 75.87384796142578 C 34.89470291137695 75.87384796142578 31.33096122741699 74.17954254150391 29.07713317871094 71.00383758544922 C 25.38223266601563 65.79765319824219 26.60771179199219 58.5819206237793 31.81425285339355 54.88742065429688 C 33.84423828125 53.44696044921875 36.18059921264648 52.75430297851563 38.49365615844727 52.75430297851563 C 42.11315155029297 52.75430297851563 45.67694091796875 54.44887924194336 47.93082427978516 57.6254997253418 C 51.62441253662109 62.83123016357422 50.39919281005859 70.04540252685547 45.19404220581055 73.73988342285156 L 45.19405364990234 73.73989868164063 C 43.16360855102539 75.18106079101563 40.82722473144531 75.87384796142578 38.51345443725586 75.87384796142578 Z" stroke="none" fill="#51efde"/>
        </g>
        <g id="Path_26854" data-name="Path 26854" transform="translate(35.524 47.907)" fill="#292841" stroke-linecap="round" opacity="0.86">
          <path d="M 52.19266510009766 75.37856292724609 C 52.19245529174805 75.37856292724609 52.1923713684082 75.37856292724609 52.19215774536133 75.37856292724609 C 49.88785934448242 75.37845611572266 47.6740608215332 74.66979217529297 45.79010009765625 73.32919311523438 C 43.38420104980469 71.61720275878906 41.78857040405273 69.07086181640625 41.29714965820313 66.15923309326172 C 40.80572891235352 63.24761581420898 41.47723007202148 60.31864547729492 43.18796920776367 57.9118766784668 C 44.22816848754883 56.44845581054688 45.61923980712891 55.25052642822266 47.21078872680664 54.44760513305664 C 48.75207901000977 53.67003631591797 50.48143005371094 53.259033203125 52.21186828613281 53.259033203125 C 54.51456069946289 53.259033203125 56.72723007202148 53.96689605712891 58.61066818237305 55.30609512329102 C 61.01839828491211 57.01809310913086 62.61516952514648 59.56524658203125 63.10684967041016 62.47834396362305 C 63.59851837158203 65.39143371582031 62.92620086669922 68.32154846191406 61.21374130249023 70.72892761230469 C 60.17340850830078 72.19141387939453 58.78252029418945 73.38855743408203 57.19144058227539 74.19091796875 C 55.65074920654297 74.96787261962891 53.92212295532227 75.37856292724609 52.19266510009766 75.37856292724609 Z" stroke="none"/>
          <path d="M 52.1926383972168 74.87856292724609 C 53.84439849853516 74.87856292724609 55.49517059326172 74.48635864257813 56.96649932861328 73.74434661865234 C 58.48519897460938 72.97844696044922 59.81298065185547 71.83550262451172 60.80630111694336 70.43909454345703 C 62.44134140014648 68.14057159423828 63.08325958251953 65.34293365478516 62.61381912231445 62.56155395507813 C 62.14437866210938 59.78016662597656 60.61980056762695 57.34817504882813 58.32091903686523 55.71358489990234 C 56.52259826660156 54.43490600585938 54.41011810302734 53.759033203125 52.21186828613281 53.759033203125 C 50.55926895141602 53.759033203125 48.90779876708984 54.15150451660156 47.43600082397461 54.89401626586914 C 45.91677856445313 55.66044616699219 44.58876037597656 56.80417633056641 43.59550094604492 58.20155334472656 C 41.96212005615234 60.49950408935547 41.32096862792969 63.29604339599609 41.79018020629883 66.07602691650391 C 42.25938034057617 68.85600280761719 43.78285980224609 71.28721618652344 46.07999038696289 72.92181396484375 C 47.87881088256836 74.20182800292969 49.99237060546875 74.87846374511719 52.19242858886719 74.87856292724609 L 52.1926383972168 74.87856292724609 M 52.19213104248047 75.87856292724609 C 49.87393569946289 75.87845611572266 47.53289794921875 75.18301391601563 45.50020980834961 73.73658752441406 C 40.30078125 70.03676605224609 39.08332824707031 62.82350540161133 42.78042984008789 57.62219619750977 C 45.03494262695313 54.45040893554688 48.59584808349609 52.75902938842773 52.21186828613281 52.75902938842773 C 54.52864074707031 52.75902938842773 56.86847305297852 53.45381546020508 58.90040969848633 54.89860534667969 C 64.10379791259766 58.59842300415039 65.32199859619141 65.81613159179688 61.62117004394531 71.01874542236328 C 59.36642837524414 74.18846893310547 55.80666351318359 75.87873077392578 52.19213104248047 75.87856292724609 Z" stroke="none" fill="#51efde"/>
        </g>
        <g id="Group_73499" data-name="Group 73499" transform="translate(47.566 38.384)">
          <path id="Path_26867" data-name="Path 26867" d="M350.2,292.314a.288.288,0,0,0,.554,0c1.174-3.8.882-7.872.932-11.808.046-3.82,1.28-8.247.073-11.9a.63.63,0,0,0-1.137-.146c-2.125,2.872-1.691,6.9-1.711,10.336C348.892,283.225,348.825,288.03,350.2,292.314Z" transform="translate(-318.427 -268.161)" fill="#4ddbff"/>
          <path id="Path_26868" data-name="Path 26868" d="M371.416,303.618a37.221,37.221,0,0,0,2.51-6.818c.736-2.56,1.631-4.792,1.048-7.454-.106-.471-.68-.431-.919-.119-1.588,2.059-1.99,4.4-2.653,6.877a16.634,16.634,0,0,0-.663,7.424.381.381,0,0,0,.676.09Z" transform="translate(-332.913 -282.085)" fill="#4ddbff"/>
          <path id="Path_26869" data-name="Path 26869" d="M391.248,298.155c2.238-1.943,3.863-4.443,5.683-6.771A38.4,38.4,0,0,0,402,283.565a.5.5,0,0,0-.789-.61c-4.105,3.773-9.586,9.175-10.488,14.9a.332.332,0,0,0,.521.3Z" transform="translate(-346.392 -277.955)" fill="#4ddbff"/>
          <path id="Path_26870" data-name="Path 26870" d="M321.2,305.928c.176.162.56.129.6-.159.348-2.54-.524-5.213-.855-7.729-.308-2.358-.68-4.947-2.056-6.937-.255-.368-.955-.4-1.051.136-.424,2.391.07,4.795.431,7.162C318.656,300.918,319.246,304.151,321.2,305.928Z" transform="translate(-297.565 -283.314)" fill="#4ddbff"/>
          <path id="Path_26871" data-name="Path 26871" d="M264.454,291.412c2.417,2.454,4.994,6.184,8.164,7.627.162.073.421,0,.4-.225-.368-3.372-3.555-6.224-5.7-8.621-2.742-3.067-5.969-6.194-9.646-8.068a.434.434,0,0,0-.59.587C258.85,286.133,261.775,288.679,264.454,291.412Z" transform="translate(-257.025 -277.459)" fill="#4ddbff"/>
        </g>
        <path id="Path_26855" data-name="Path 26855" d="M38.923,52.31h10.1a2.245,2.245,0,0,1,1.7,3.741c-2.02,2.338-4.714,4.9-6.752,4.9s-4.732-2.581-6.715-4.919a2.245,2.245,0,0,1,1.665-3.722Z" transform="translate(31.962 46.295)" fill="url(#linear-gradient-4)"/>
      </g>
    </g>
    <g id="Group_73521" data-name="Group 73521" transform="translate(16949.479 4544.708)">
      <g transform="matrix(1, 0, 0, 1, -10, -271.82)" filter="url(#Path_26878)">
        <path id="Path_26878-2" data-name="Path 26878" d="M733.133,52.079V64.295H663.778V52.079H643.287V312.946H753.23V52.079Z" transform="translate(-526.1 219.75)" fill="none" stroke="#a0a0a0" stroke-width="2"/>
      </g>
      <g transform="matrix(1, 0, 0, 1, -10, -271.82)" filter="url(#Path_26879)">
        <g id="Path_26879-2" data-name="Path 26879" transform="translate(-474.21 120.04)" fill="none">
          <path d="M578.79,303.5V267.639H544.113V303.5h-13v108.76H591.4V303.5Z" stroke="none"/>
          <path d="M 546.1127319335938 269.6390075683594 L 546.1127319335938 303.4980163574219 L 546.1127319335938 305.4980163574219 L 544.1127319335938 305.4980163574219 L 533.1090087890625 305.4980163574219 L 533.1090087890625 410.2584533691406 L 589.3995971679688 410.2584533691406 L 589.3995971679688 305.4980163574219 L 578.7898559570313 305.4980163574219 L 576.7898559570313 305.4980163574219 L 576.7898559570313 303.4980163574219 L 576.7898559570313 269.6390075683594 L 546.1127319335938 269.6390075683594 M 544.1127319335938 267.6390075683594 L 578.7898559570313 267.6390075683594 L 578.7898559570313 303.4980163574219 L 591.3995971679688 303.4980163574219 L 591.3995971679688 412.2584533691406 L 531.1090087890625 412.2584533691406 L 531.1090087890625 303.4980163574219 L 544.1127319335938 303.4980163574219 L 544.1127319335938 267.6390075683594 Z" stroke="none" fill="#a0a0a0"/>
        </g>
      </g>
      <rect id="Rectangle_146379" data-name="Rectangle 146379" width="46.893" height="50.834" transform="translate(53.593 210.033)" fill="none" stroke="#a0a0a0" stroke-width="2"/>
      <rect id="Rectangle_146380" data-name="Rectangle 146380" width="7.487" height="50.834" transform="translate(53.593 210.033)" opacity="0.1"/>
      <rect id="Rectangle_146381" data-name="Rectangle 146381" width="15.368" height="260.867" transform="translate(107.184)" fill="#a0a0a0" opacity="0.19"/>
      <g transform="matrix(1, 0, 0, 1, -10, -271.82)" filter="url(#Path_26880)">
        <path id="Path_26880-2" data-name="Path 26880" d="M472.625,182.175v-9.852H462.379v9.852H443.858v186.39h46.893V182.175Z" transform="translate(-433.86 164.13)" fill="none" stroke="#a0a0a0" stroke-width="2"/>
      </g>
      <rect id="Rectangle_146382" data-name="Rectangle 146382" width="5.517" height="9.851" transform="translate(18.522 64.626)" fill="#a0a0a0" opacity="0.19"/>
      <rect id="Rectangle_146383" data-name="Rectangle 146383" width="5.517" height="186.39" transform="translate(0.001 74.477)" fill="#a0a0a0" opacity="0.19"/>
      <rect id="Rectangle_146384" data-name="Rectangle 146384" width="15.368" height="160.382" transform="translate(197.031 100.485)" opacity="0.1"/>
      <rect id="Rectangle_146385" data-name="Rectangle 146385" width="14.186" height="34.283" transform="translate(32.707 74.477)" fill="#a0a0a0" opacity="0.19"/>
      <rect id="Rectangle_146386" data-name="Rectangle 146386" width="22.067" height="9.457" transform="translate(124.129 33.101)" fill="none" stroke="#a0a0a0" stroke-width="1"/>
      <rect id="Rectangle_146387" data-name="Rectangle 146387" width="22.067" height="9.457" transform="translate(124.265 54.115)" fill="none" stroke="#a0a0a0" stroke-width="1"/>
      <rect id="Rectangle_146388" data-name="Rectangle 146388" width="22.067" height="9.457" transform="translate(157.586 54.115)" fill="none" stroke="#a0a0a0" stroke-width="1"/>
      <rect id="Rectangle_146389" data-name="Rectangle 146389" width="22.067" height="9.457" transform="translate(190.908 54.115)" fill="none" stroke="#a0a0a0" stroke-width="1"/>
      <rect id="Rectangle_146390" data-name="Rectangle 146390" width="22.067" height="9.457" transform="translate(124.265 74.538)" fill="none" stroke="#a0a0a0" stroke-width="1"/>
      <rect id="Rectangle_146391" data-name="Rectangle 146391" width="22.067" height="9.457" transform="translate(157.586 74.538)" fill="none" stroke="#a0a0a0" stroke-width="1"/>
      <rect id="Rectangle_146392" data-name="Rectangle 146392" width="22.067" height="9.457" transform="translate(190.908 74.538)" fill="none" stroke="#a0a0a0" stroke-width="1"/>
      <rect id="Rectangle_146393" data-name="Rectangle 146393" width="22.067" height="9.457" transform="translate(124.265 94.962)" fill="none" stroke="#a0a0a0" stroke-width="1"/>
      <rect id="Rectangle_146394" data-name="Rectangle 146394" width="22.067" height="9.457" transform="translate(157.586 94.962)" fill="none" stroke="#a0a0a0" stroke-width="1"/>
      <rect id="Rectangle_146395" data-name="Rectangle 146395" width="22.067" height="9.457" transform="translate(190.908 94.962)" fill="none" stroke="#a0a0a0" stroke-width="1"/>
      <rect id="Rectangle_146396" data-name="Rectangle 146396" width="22.067" height="9.457" transform="translate(124.265 115.385)" fill="none" stroke="#a0a0a0" stroke-width="1"/>
      <rect id="Rectangle_146397" data-name="Rectangle 146397" width="22.067" height="9.457" transform="translate(157.586 115.385)" fill="none" stroke="#a0a0a0" stroke-width="1"/>
      <rect id="Rectangle_146398" data-name="Rectangle 146398" width="22.067" height="9.457" transform="translate(190.908 115.385)" fill="none" stroke="#a0a0a0" stroke-width="1"/>
      <rect id="Rectangle_146399" data-name="Rectangle 146399" width="22.067" height="9.457" transform="translate(124.265 135.808)" fill="none" stroke="#a0a0a0" stroke-width="1"/>
      <rect id="Rectangle_146400" data-name="Rectangle 146400" width="22.067" height="9.457" transform="translate(157.586 135.808)" fill="none" stroke="#a0a0a0" stroke-width="1"/>
      <rect id="Rectangle_146401" data-name="Rectangle 146401" width="22.067" height="9.457" transform="translate(190.908 135.808)" fill="none" stroke="#a0a0a0" stroke-width="1"/>
      <rect id="Rectangle_146402" data-name="Rectangle 146402" width="22.067" height="9.457" transform="translate(124.265 156.232)" fill="none" stroke="#a0a0a0" stroke-width="1"/>
      <rect id="Rectangle_146403" data-name="Rectangle 146403" width="22.067" height="9.457" transform="translate(157.586 156.232)" fill="none" stroke="#a0a0a0" stroke-width="1"/>
      <rect id="Rectangle_146404" data-name="Rectangle 146404" width="22.067" height="9.457" transform="translate(190.908 156.232)" fill="none" stroke="#a0a0a0" stroke-width="1"/>
      <rect id="Rectangle_146405" data-name="Rectangle 146405" width="22.067" height="9.457" transform="translate(124.265 176.655)" fill="none" stroke="#a0a0a0" stroke-width="1"/>
      <rect id="Rectangle_146406" data-name="Rectangle 146406" width="22.067" height="9.457" transform="translate(157.586 176.655)" fill="none" stroke="#a0a0a0" stroke-width="1"/>
      <rect id="Rectangle_146407" data-name="Rectangle 146407" width="22.067" height="9.457" transform="translate(190.908 176.655)" fill="none" stroke="#a0a0a0" stroke-width="1"/>
      <rect id="Rectangle_146408" data-name="Rectangle 146408" width="22.067" height="9.457" transform="translate(157.586 197.078)" fill="none" stroke="#a0a0a0" stroke-width="1"/>
      <rect id="Rectangle_146409" data-name="Rectangle 146409" width="22.067" height="9.457" transform="translate(190.908 197.078)" fill="none" stroke="#a0a0a0" stroke-width="1"/>
      <rect id="Rectangle_146410" data-name="Rectangle 146410" width="22.067" height="9.457" transform="translate(124.265 217.502)" fill="none" stroke="#a0a0a0" stroke-width="1"/>
      <rect id="Rectangle_146411" data-name="Rectangle 146411" width="22.067" height="9.457" transform="translate(157.586 217.502)" fill="none" stroke="#a0a0a0" stroke-width="1"/>
      <rect id="Rectangle_146412" data-name="Rectangle 146412" width="22.067" height="9.457" transform="translate(190.908 217.502)" fill="none" stroke="#a0a0a0" stroke-width="1"/>
      <rect id="Rectangle_146413" data-name="Rectangle 146413" width="22.067" height="9.457" transform="translate(124.265 237.925)" fill="none" stroke="#a0a0a0" stroke-width="1"/>
      <rect id="Rectangle_146414" data-name="Rectangle 146414" width="22.067" height="9.457" transform="translate(157.586 237.925)" fill="none" stroke="#a0a0a0" stroke-width="1"/>
      <rect id="Rectangle_146415" data-name="Rectangle 146415" width="22.067" height="9.457" transform="translate(190.908 237.925)" fill="none" stroke="#a0a0a0" stroke-width="1"/>
      <rect id="Rectangle_146416" data-name="Rectangle 146416" width="22.067" height="9.457" transform="translate(124.129 198.606)" fill="none" stroke="#a0a0a0" stroke-width="1"/>
      <rect id="Rectangle_146417" data-name="Rectangle 146417" width="22.067" height="9.457" transform="translate(12.611 117.035)" fill="none" stroke="#a0a0a0" stroke-width="1"/>
      <rect id="Rectangle_146418" data-name="Rectangle 146418" width="22.067" height="9.457" transform="translate(12.611 137.459)" fill="none" stroke="#a0a0a0" stroke-width="1"/>
      <rect id="Rectangle_146419" data-name="Rectangle 146419" width="22.067" height="9.457" transform="translate(12.611 157.882)" fill="none" stroke="#a0a0a0" stroke-width="1"/>
      <rect id="Rectangle_146420" data-name="Rectangle 146420" width="22.067" height="9.457" transform="translate(12.611 178.305)" fill="none" stroke="#a0a0a0" stroke-width="1"/>
      <rect id="Rectangle_146421" data-name="Rectangle 146421" width="22.067" height="9.457" transform="translate(12.611 198.729)" fill="none" stroke="#a0a0a0" stroke-width="1"/>
      <rect id="Rectangle_146422" data-name="Rectangle 146422" width="22.067" height="9.457" transform="translate(12.611 219.152)" fill="none" stroke="#a0a0a0" stroke-width="1"/>
      <rect id="Rectangle_146423" data-name="Rectangle 146423" width="22.067" height="9.457" transform="translate(12.611 239.575)" fill="none" stroke="#a0a0a0" stroke-width="1"/>
      <rect id="Rectangle_146424" data-name="Rectangle 146424" width="31.035" height="13.301" transform="translate(61.666 215.551)" fill="none" stroke="#a0a0a0" stroke-width="1"/>
      <rect id="Rectangle_146425" data-name="Rectangle 146425" width="31.035" height="13.301" transform="translate(61.666 244.274)" fill="none" stroke="#a0a0a0" stroke-width="1"/>
      <rect id="Rectangle_146426" data-name="Rectangle 146426" width="37.83" height="15.762" transform="translate(58.321 159.988)" fill="none" stroke="#a0a0a0" stroke-width="1"/>
      <rect id="Rectangle_146427" data-name="Rectangle 146427" width="37.83" height="15.762" transform="translate(58.321 186.861)" fill="none" stroke="#a0a0a0" stroke-width="1"/>
      <g transform="matrix(1, 0, 0, 1, -10, -271.82)" filter="url(#Path_26881)">
        <path id="Path_26881-2" data-name="Path 26881" d="M875.039,73.342V94.227h-27.19V321.993h56.745V73.342Z" transform="translate(-620.72 209.91)" fill="none" stroke="#a0a0a0" stroke-width="2"/>
      </g>
      <rect id="Rectangle_146428" data-name="Rectangle 146428" width="37.83" height="15.762" transform="translate(226.368 50.44)" fill="none" stroke="#a0a0a0" stroke-width="1"/>
      <rect id="Rectangle_146429" data-name="Rectangle 146429" width="37.83" height="15.762" transform="translate(226.368 83.935)" fill="none" stroke="#a0a0a0" stroke-width="1"/>
      <rect id="Rectangle_146430" data-name="Rectangle 146430" width="37.83" height="15.762" transform="translate(226.368 117.429)" fill="none" stroke="#a0a0a0" stroke-width="1"/>
      <rect id="Rectangle_146431" data-name="Rectangle 146431" width="37.83" height="15.762" transform="translate(226.368 150.925)" fill="none" stroke="#a0a0a0" stroke-width="1"/>
      <rect id="Rectangle_146432" data-name="Rectangle 146432" width="37.83" height="15.762" transform="translate(226.368 184.419)" fill="none" stroke="#a0a0a0" stroke-width="1"/>
      <rect id="Rectangle_146433" data-name="Rectangle 146433" width="37.83" height="15.762" transform="translate(226.368 217.915)" fill="none" stroke="#a0a0a0" stroke-width="1"/>
    </g>
  </g>
</svg>
