<svg xmlns="http://www.w3.org/2000/svg" xmlns:xlink="http://www.w3.org/1999/xlink" width="609.537" height="807.961" viewBox="0 0 609.537 807.961">
  <defs>
    <filter id="Path_26896" x="0" y="254.834" width="279.996" height="297.51" filterUnits="userSpaceOnUse">
      <feOffset dy="3" input="SourceAlpha"/>
      <feGaussianBlur stdDeviation="3" result="blur"/>
      <feFlood flood-color="#51efde"/>
      <feComposite operator="in" in2="blur"/>
      <feComposite in="SourceGraphic"/>
    </filter>
    <filter id="Path_27150" x="178.773" y="322.857" width="345.453" height="414.395" filterUnits="userSpaceOnUse">
      <feOffset dy="3" input="SourceAlpha"/>
      <feGaussianBlur stdDeviation="3" result="blur-2"/>
      <feFlood flood-color="#51efde"/>
      <feComposite operator="in" in2="blur-2"/>
      <feComposite in="SourceGraphic"/>
    </filter>
    <filter id="head" x="146.17" y="12.056" width="426.529" height="345.229" filterUnits="userSpaceOnUse">
      <feOffset dy="3" input="SourceAlpha"/>
      <feGaussianBlur stdDeviation="3" result="blur-3"/>
      <feFlood flood-color="#51efde"/>
      <feComposite operator="in" in2="blur-3"/>
      <feComposite in="SourceGraphic"/>
    </filter>
    <linearGradient id="linear-gradient" x1="0.351" y1="-1.228" x2="0.556" y2="1.043" gradientUnits="objectBoundingBox">
      <stop offset="0" stop-color="#1a1818"/>
      <stop offset="1" stop-color="#4d4d4f"/>
    </linearGradient>
    <filter id="Subtraction_7" x="389.035" y="697.619" width="162.162" height="91.327" filterUnits="userSpaceOnUse">
      <feOffset dy="3" input="SourceAlpha"/>
      <feGaussianBlur stdDeviation="3" result="blur-4"/>
      <feFlood flood-color="#51efde"/>
      <feComposite operator="in" in2="blur-4"/>
      <feComposite in="SourceGraphic"/>
    </filter>
    <filter id="Path_27156" x="178.291" y="400.706" width="120.342" height="113.235" filterUnits="userSpaceOnUse">
      <feOffset dy="3" input="SourceAlpha"/>
      <feGaussianBlur stdDeviation="3" result="blur-5"/>
      <feFlood flood-color="#51efde"/>
      <feComposite operator="in" in2="blur-5"/>
      <feComposite in="SourceGraphic"/>
    </filter>
    <filter id="Subtraction_8" x="174.045" y="708.618" width="162.166" height="91.327" filterUnits="userSpaceOnUse">
      <feOffset dy="3" input="SourceAlpha"/>
      <feGaussianBlur stdDeviation="3" result="blur-6"/>
      <feFlood flood-color="#51efde"/>
      <feComposite operator="in" in2="blur-6"/>
      <feComposite in="SourceGraphic"/>
    </filter>
  </defs>
  <g id="get_an_interview_cat" data-name="get an interview cat" transform="translate(-16991.354 -8717.381)">
    <g transform="matrix(1, 0, 0, 1, 16991.35, 8717.38)" filter="url(#Path_26896)">
      <path id="Path_26896-2" data-name="Path 26896" d="M2009.79,1488.181s-193.738,3.148-243.385-125.8c-34.772-90.222,18.9-140.782,77.75-150.058,39.721-6.252,81.8,6.326,100.678,38.207,16.6,28.087,6.391,50.438-7.762,60.393a29.633,29.633,0,0,1-14.311,5.556c-26.848,2.213-38.863-10.874-40.269-33.931-.238-3.953-2.443-19.233-19.4-19.015a43.161,43.161,0,0,0-7.735.8c-25.92,5.067-39.117,33.934-38.14,66.814a123.756,123.756,0,0,0,11.487,48.244c19.784,42.372,114.357,68.031,186.327,77.4Z" transform="translate(-1745.19 -948.86)" fill="#100725" stroke="#51efde" stroke-width="2"/>
    </g>
    <g transform="matrix(1, 0, 0, 1, 16991.35, 8717.38)" filter="url(#Path_27150)">
      <g id="Path_27150-2" data-name="Path 27150" transform="translate(-691.2 -857.05)" fill="#100725">
        <path d="M 1094.279174804688 1580.804443359375 C 1092.663818359375 1580.804443359375 1091.089477539063 1580.510375976563 1089.599975585938 1579.930541992188 C 1087.800537109375 1579.22998046875 1086.106811523438 1578.1044921875 1084.566040039063 1576.58544921875 C 1080.894897460938 1572.966186523438 1078.00048828125 1567.022094726563 1075.963256835938 1558.918579101563 C 1074.3232421875 1552.394653320313 1073.580078125 1542.826782226563 1072.793334960938 1532.697143554688 C 1071.87353515625 1520.854736328125 1070.922485351563 1508.609252929688 1068.48779296875 1499.104614257813 C 1067.217163085938 1494.144165039063 1065.619506835938 1490.350952148438 1063.739501953125 1487.830322265625 C 1061.740600585938 1485.150390625 1059.411010742188 1483.834350585938 1056.617431640625 1483.806884765625 C 1056.552612304688 1483.80615234375 1056.489379882813 1483.805908203125 1056.425048828125 1483.805908203125 C 1050.143676757813 1483.805908203125 1046.07958984375 1486.810546875 1043.634887695313 1493.261840820313 C 1041.396606445313 1499.168212890625 1040.8974609375 1507.110961914063 1040.457153320313 1514.11865234375 C 1040.291381835938 1516.755493164063 1040.134887695313 1519.24609375 1039.898559570313 1521.578491210938 C 1039.093139648438 1529.527099609375 1038.50830078125 1536.804321289063 1037.942626953125 1543.842041015625 C 1036.922607421875 1556.5341796875 1036.041748046875 1567.495483398438 1034.196411132813 1578.56640625 L 1033.987548828125 1579.819580078125 L 1032.717041015625 1579.81982421875 L 1032.71142578125 1579.81982421875 C 1026.342163085938 1579.81982421875 979.7124633789063 1578.0087890625 965.111328125 1576.286010742188 C 964.6622314453125 1576.233154296875 963.6300659179688 1576.169921875 961.2638549804688 1576.169921875 C 957.9547729492188 1576.169921875 953.9915161132813 1576.29443359375 953.9518432617188 1576.295654296875 L 952.8621215820313 1576.330200195313 L 952.492919921875 1575.304321289063 C 952.404296875 1575.05810546875 943.5277709960938 1550.314208984375 934.3304443359375 1518.047241210938 C 928.9270629882813 1499.090454101563 924.4700317382813 1481.279174804688 921.083251953125 1465.108276367188 C 916.8434448242188 1444.864501953125 914.2769165039063 1427.139526367188 913.454833984375 1412.42578125 C 911.8330688476563 1383.373291015625 913.9103393554688 1352.828002929688 919.6289672851563 1321.638549804688 C 919.8587036132813 1320.37841796875 919.582275390625 1319.320068359375 918.7586669921875 1318.309448242188 C 917.9354858398438 1317.29931640625 916.5433349609375 1316.336791992188 914.620849609375 1315.448608398438 C 910.7564697265625 1313.663330078125 905.2911987304688 1312.3994140625 900.005859375 1311.17724609375 C 895.885986328125 1310.224365234375 891.9945068359375 1309.324462890625 888.7241821289063 1308.180786132813 C 884.7601318359375 1306.794555664063 882.380615234375 1305.255615234375 881.2357788085938 1303.337768554688 C 880.4483642578125 1302.018676757813 880.26513671875 1300.560668945313 880.6912231445313 1299.00439453125 C 881.8328247070313 1294.833862304688 884.9044799804688 1288.1005859375 889.1185913085938 1280.53076171875 C 893.6390380859375 1272.410766601563 899.0396118164063 1264.09765625 904.3255004882813 1257.122680664063 C 909.9656372070313 1249.679565429688 915.2862548828125 1243.838500976563 920.1395874023438 1239.761840820313 C 921.5831909179688 1238.549194335938 922.9935913085938 1237.359985351563 924.3575439453125 1236.2099609375 C 932.6275024414063 1229.237182617188 939.1596069335938 1223.7294921875 942.4366455078125 1221.977783203125 L 942.4515991210938 1221.969848632813 L 942.4667358398438 1221.962158203125 C 942.6217651367188 1221.8837890625 942.8370361328125 1221.789672851563 943.1349487304688 1221.659423828125 C 945.087158203125 1220.80615234375 951.0279541015625 1218.209594726563 952.9022216796875 1213.959838867188 C 960.056884765625 1197.762939453125 965.3949584960938 1188.266479492188 965.447998046875 1188.172485351563 L 965.8785400390625 1187.409912109375 L 966.7542724609375 1187.409912109375 L 1151.094848632813 1187.409912109375 L 1152.14599609375 1187.409912109375 L 1152.504760742188 1188.397827148438 C 1152.6123046875 1188.694091796875 1163.391723632813 1218.38623046875 1174.369018554688 1249.558837890625 C 1189.128784179688 1291.472534179688 1197.198974609375 1315.969482421875 1198.35546875 1322.369384765625 C 1201.0126953125 1337.02978515625 1202.88720703125 1351.68505859375 1203.927001953125 1365.927124023438 C 1205.077880859375 1381.691650390625 1205.2333984375 1397.331909179688 1204.38916015625 1412.413330078125 C 1203.565185546875 1427.161376953125 1200.6767578125 1443.376953125 1195.80419921875 1460.609497070313 C 1191.912841796875 1474.372314453125 1186.753295898438 1488.814697265625 1180.468994140625 1503.535400390625 C 1174.880249023438 1516.626586914063 1169.416748046875 1527.522094726563 1165.817504882813 1534.357055664063 C 1161.91259765625 1541.7724609375 1159.2890625 1546.158203125 1159.263061523438 1546.201538085938 L 1159.072998046875 1546.5185546875 L 1158.757568359375 1546.710815429688 C 1158.621948242188 1546.79345703125 1145.041381835938 1555.07177734375 1131.124267578125 1563.243408203125 C 1122.943603515625 1568.046997070313 1116.246459960938 1571.875732421875 1111.218994140625 1574.62353515625 C 1108.218994140625 1576.26318359375 1105.781494140625 1577.534545898438 1103.97412109375 1578.402221679688 C 1101.10498046875 1579.77978515625 1100.184204101563 1579.9697265625 1099.616577148438 1579.9697265625 C 1099.4853515625 1579.9697265625 1099.36083984375 1579.958129882813 1099.243408203125 1579.9365234375 C 1098.273193359375 1580.257568359375 1096.484619140625 1580.804443359375 1094.279174804688 1580.804443359375 Z" stroke="none"/>
        <path d="M 1094.279174804688 1579.304443359375 C 1096.794921875 1579.304443359375 1098.712768554688 1578.508911132813 1099.361328125 1578.31982421875 C 1099.368774414063 1578.4208984375 1099.456298828125 1578.4697265625 1099.616577148438 1578.4697265625 C 1103.798583984375 1578.4697265625 1157.9765625 1545.43017578125 1157.9765625 1545.43017578125 C 1157.9765625 1545.43017578125 1199.305908203125 1476.507080078125 1202.891479492188 1412.329467773438 C 1204.658325195313 1380.768188476563 1201.900634765625 1350.340209960938 1196.87939453125 1322.636108398438 C 1194.125 1307.393432617188 1151.094848632813 1188.909912109375 1151.094848632813 1188.909912109375 L 966.7542724609375 1188.909912109375 C 966.7542724609375 1188.909912109375 961.4820556640625 1198.248901367188 954.274658203125 1214.565063476563 C 951.894775390625 1219.96142578125 944.1790771484375 1222.776977539063 943.143798828125 1223.300659179688 C 939.4779052734375 1225.26025390625 931.135009765625 1232.484985351563 921.1043701171875 1240.910400390625 C 916.0050048828125 1245.193725585938 910.7215576171875 1251.165649414063 905.5210571289063 1258.028686523438 C 894.235595703125 1272.920166015625 884.35595703125 1291.297729492188 882.137939453125 1299.400390625 C 878.890869140625 1311.26171875 923.6109619140625 1308.160766601563 921.1043701171875 1321.909057617188 C 915.9873046875 1349.817626953125 913.1754760742188 1380.506958007813 914.9525146484375 1412.342163085938 C 918.5380859375 1476.520263671875 953.904296875 1574.79638671875 953.904296875 1574.79638671875 C 953.904296875 1574.79638671875 957.8912963867188 1574.669921875 961.2638549804688 1574.669921875 C 962.950439453125 1574.669921875 964.48291015625 1574.701538085938 965.287109375 1574.79638671875 C 979.9559326171875 1576.527099609375 1026.65966796875 1578.31982421875 1032.711547851563 1578.31982421875 C 1032.71337890625 1578.31982421875 1032.714965820313 1578.31982421875 1032.716796875 1578.31982421875 C 1035.57958984375 1561.144897460938 1036.158447265625 1543.607666015625 1038.40625 1521.42724609375 C 1039.944091796875 1506.246459960938 1038.185180664063 1482.305908203125 1056.424926757813 1482.305908203125 C 1056.494262695313 1482.305908203125 1056.562377929688 1482.306274414063 1056.632202148438 1482.306884765625 C 1076.345825195313 1482.500854492188 1072.087768554688 1537.349853515625 1077.41796875 1558.552856445313 C 1081.835083007813 1576.122436523438 1089.250122070313 1579.304443359375 1094.279174804688 1579.304443359375 M 1094.279296875 1582.304443359375 C 1092.476928710938 1582.304443359375 1090.719482421875 1581.975952148438 1089.055786132813 1581.328369140625 C 1087.06494140625 1580.55322265625 1085.200073242188 1579.31689453125 1083.512939453125 1577.653564453125 C 1081.656127929688 1575.822998046875 1079.9794921875 1573.435424804688 1078.529541015625 1570.55712890625 C 1076.957275390625 1567.435913085938 1075.604370117188 1563.643188476563 1074.508544921875 1559.284301757813 C 1072.837524414063 1552.637329101563 1072.089599609375 1543.008056640625 1071.2978515625 1532.813354492188 C 1070.383056640625 1521.034790039063 1069.437133789063 1508.855346679688 1067.03466796875 1499.476806640625 C 1063.422119140625 1485.373901367188 1058.289306640625 1485.323364257813 1056.602661132813 1485.306762695313 C 1056.542846679688 1485.30615234375 1056.484497070313 1485.305908203125 1056.424926757813 1485.305908203125 C 1044.678466796875 1485.305908203125 1043.017822265625 1497.286865234375 1041.9541015625 1514.212646484375 C 1041.787475585938 1516.8642578125 1041.630126953125 1519.36865234375 1041.390991210938 1521.729614257813 C 1040.587036132813 1529.662841796875 1040.002807617188 1536.93212890625 1039.437866210938 1543.962280273438 C 1038.4150390625 1556.6884765625 1037.531860351563 1567.67919921875 1035.676025390625 1578.813110351563 L 1035.258178710938 1581.31982421875 L 1032.716796875 1581.31982421875 L 1032.711547851563 1581.31982421875 C 1026.327392578125 1581.31982421875 979.5794067382813 1579.50341796875 964.9356079101563 1577.775756835938 C 964.6005859375 1577.736206054688 963.6779174804688 1577.669921875 961.2637939453125 1577.669921875 C 957.9796752929688 1577.669921875 954.038818359375 1577.793701171875 953.9993896484375 1577.794799804688 L 951.8199462890625 1577.864013671875 L 951.0814819335938 1575.812255859375 C 950.9927368164063 1575.565551757813 942.0989990234375 1550.773681640625 932.887939453125 1518.458374023438 C 927.4747924804688 1499.467529296875 923.0091552734375 1481.621337890625 919.6150512695313 1465.415771484375 C 915.3599243164063 1445.098510742188 912.7833862304688 1427.298217773438 911.9572143554688 1412.509521484375 C 910.3287963867188 1383.338134765625 912.4136352539063 1352.673828125 918.1536254882813 1321.368041992188 C 918.2858276367188 1320.642822265625 918.5966796875 1318.937744140625 913.9917602539063 1316.810302734375 C 910.2677612304688 1315.08984375 904.8790893554688 1313.84375 899.6678466796875 1312.638549804688 C 895.5068969726563 1311.67626953125 891.57666015625 1310.767456054688 888.2289428710938 1309.5966796875 C 883.9143676757813 1308.087768554688 881.2828979492188 1306.34326171875 879.94775390625 1304.106567382813 C 878.9572143554688 1302.447143554688 878.7139892578125 1300.5458984375 879.244384765625 1298.608276367188 C 880.4164428710938 1294.326538085938 883.537841796875 1287.4716796875 887.8080444335938 1279.801147460938 C 892.3616333007813 1271.621704101563 897.8031005859375 1263.245849609375 903.1300659179688 1256.216674804688 C 908.8375244140625 1248.684692382813 914.23583984375 1242.761962890625 919.1748657226563 1238.61328125 C 920.617431640625 1237.401489257813 922.0274047851563 1236.212646484375 923.390869140625 1235.063110351563 C 932.0540771484375 1227.758666992188 938.3133544921875 1222.481079101563 941.7295532226563 1220.654907226563 L 941.7594604492188 1220.638916015625 L 941.7896728515625 1220.623657226563 C 941.9823608398438 1220.526245117188 942.2138671875 1220.425048828125 942.5343627929688 1220.284912109375 C 944.35400390625 1219.489624023438 949.8914794921875 1217.069213867188 951.52978515625 1213.3544921875 C 958.7147216796875 1197.089111328125 963.923583984375 1187.821655273438 964.141845703125 1187.43505859375 L 965.0028686523438 1185.909912109375 L 966.7542724609375 1185.909912109375 L 1151.094848632813 1185.909912109375 L 1153.197021484375 1185.909912109375 L 1153.914672851563 1187.885864257813 C 1154.022338867188 1188.18212890625 1164.80419921875 1217.881225585938 1175.783935546875 1249.060546875 C 1190.570190429688 1291.049438476563 1198.660888671875 1315.624389648438 1199.831665039063 1322.102661132813 C 1202.498046875 1336.814575195313 1204.37939453125 1351.523071289063 1205.422973632813 1365.81787109375 C 1206.57861328125 1381.646484375 1206.734619140625 1397.351684570313 1205.886840820313 1412.497192382813 C 1205.056762695313 1427.354736328125 1202.150024414063 1443.679443359375 1197.247680664063 1461.017700195313 C 1193.3388671875 1474.841796875 1188.157836914063 1489.344970703125 1181.848510742188 1504.124267578125 C 1176.240112304688 1517.261840820313 1170.756958007813 1528.196411132813 1167.144775390625 1535.055908203125 C 1163.220458984375 1542.508178710938 1160.656616210938 1546.794189453125 1160.549438476563 1546.972900390625 L 1160.16943359375 1547.606689453125 L 1159.538452148438 1547.991455078125 C 1159.40283203125 1548.07421875 1145.8115234375 1556.359008789063 1131.8837890625 1564.536987304688 C 1123.68994140625 1569.34814453125 1116.979248046875 1573.184692382813 1111.938354492188 1575.939697265625 C 1102.581909179688 1581.053588867188 1100.822387695313 1581.4697265625 1099.61669921875 1581.4697265625 C 1099.543334960938 1581.4697265625 1099.470825195313 1581.467651367188 1099.398803710938 1581.46337890625 C 1098.300048828125 1581.813720703125 1096.493896484375 1582.304443359375 1094.279296875 1582.304443359375 Z" stroke="none" fill="#51efde"/>
      </g>
    </g>
    <path id="Path_27152" data-name="Path 27152" d="M1250.194,2196.16a93.771,93.771,0,0,0-10.953,2.328c-3.547.91-6.951,2.069-10.379,3.133s-6.83,2.129-10.219,3.177c-3.376,1.089-6.755,2.046-10.089,3.2l-.106.036a4.561,4.561,0,0,0,2.413,8.775,71.735,71.735,0,0,0,10.811-3.193,109.684,109.684,0,0,0,10.221-4.537,86.61,86.61,0,0,0,9.652-5.591A49.331,49.331,0,0,0,1250.194,2196.16Z" transform="translate(16180.184 7107.113)" fill="#4d4d4f"/>
    <path id="Path_27153" data-name="Path 27153" d="M1502.7,2196.16a49.789,49.789,0,0,0,8.638,7.337,86.546,86.546,0,0,0,9.652,5.59,109.69,109.69,0,0,0,10.221,4.538,71.883,71.883,0,0,0,10.808,3.192,4.561,4.561,0,0,0,2.416-8.775l-.106-.036c-3.322-1.156-6.7-2.114-10.089-3.2-3.386-1.048-6.8-2.07-10.216-3.177s-6.85-2.183-10.379-3.133A84.55,84.55,0,0,0,1502.7,2196.16Z" transform="translate(15795.498 7113.652)" fill="#4d4d4f"/>
    <g id="Group_73529" data-name="Group 73529" transform="translate(17226.469 9229.852)" opacity="0.3">
      <path id="Path_26907" data-name="Path 26907" d="M1762.6,2128.213q15.014,3.879,29.36,6.829c1.045.225,2.081.432,3.117.64q-1.7-6.729-3.117-14.153-13.5-2.783-27.594-6.378Z" transform="translate(-1761.972 -2114.445)" fill="#6b184e"/>
      <path id="Path_26908" data-name="Path 26908" d="M1793.071,2133.984l-.225-.867c-1.153-4.565-2.2-9.315-3.108-14.119l-.07-.369-.37-.077c-9.11-1.878-18.387-4.022-27.57-6.374l-.613-.158-1.917,14.189.484.126c9.831,2.538,19.719,4.838,29.387,6.833l.268.056c.955.2,1.9.394,2.851.586Zm-4.365-14.414c.838,4.4,1.791,8.748,2.836,12.95l-1.969-.405-.27-.057c-9.491-1.959-19.194-4.212-28.851-6.7l1.615-11.937c8.876,2.263,17.833,4.333,26.639,6.153Z" transform="translate(-1759.2 -2112.02)" fill="#000072"/>
    </g>
    <g transform="matrix(1, 0, 0, 1, 16991.35, 8717.38)" filter="url(#head)">
      <path id="head-2" data-name="head" d="M588.661,212.746c-2.354,12.441-8.872,24.57-8.457,28.6.849,8.162,19.173-1.351,19.173-1.351s1.045,2.568-2.669,9.829c-2.761,5.405-5.18,9.347-4.088,12.27,1.16,3.115,6.453,3.8,12.628,3.153,4.336-.45,8,.144,12.732,5.36a39.392,39.392,0,0,1,2.9,3.6.04.04,0,0,1,.032.018h0c14.16,16.732,33.529,29.074,56.437,37.561,0,0,127.394,35.5,198.268-14.189a109.469,109.469,0,0,0,28.011-29.3,14.065,14.065,0,0,1,5.532-.239c6.162.761,11.468.178,12.691-2.928,1.142-2.9-.824-7.241-3.232-12.838a49.305,49.305,0,0,1-2.977-8.608c-.072-.324.2-.579.45-.45,3.153,1.626,17.66,8.651,18.559,1.394.489-4.036-5.82-16.277-7.935-28.77-3.448-20.374-6.209-34.718-7.953-43.39-.041-.225-.092-.466-.144-.709s-.092-.45-.135-.676-.092-.45-.135-.658q-.791-3.784-1.786-7.511c-3.043-11.486-7.453-22.914-13.1-35.847,8.516-14.385,74.058-101.1,55.108-125.782C947.766-12.791,842.814,36.951,826.318,43.106a154.86,154.86,0,0,0-60.836-15.595q-6.872-.378-13.446-.18a1.824,1.824,0,0,0-.333,0c-16.484.432-31.1,4.937-45.214,9.867a138.18,138.18,0,0,0-17.209,7.414c-16.565-5.973-119.665-57.5-130.343-43.321-18.651,24.775,43.2,112.413,51.991,127-2.227,4.712-4.2,9.363-5.955,14.061a145.327,145.327,0,0,0-5.279,17.178s-.02.1-.07.315C599.026,162.32,594.94,179.457,588.661,212.746Z" transform="translate(-399.29 20.17)" fill="#100725" stroke="#51efde" stroke-width="2"/>
    </g>
    <path id="Path_26927" data-name="Path 26927" d="M1236.3,936.188c.029,21.372-22.322,33.034-49.475,33.261-26.953.225-48.061-11.068-48.09-32.432-.029-22.137,22.8-40.48,48.649-40.7C1214.327,896.087,1236.261,912.479,1236.3,936.188Z" transform="translate(16163.789 8059.727)" fill="#4d4d4f"/>
    <g id="Group_73536" data-name="Group 73536" transform="translate(17342.449 8962.647)" opacity="0.5">
      <path id="Path_26932" data-name="Path 26932" d="M1324.37,930.276c0,1.241,3.43,2.667,7.644,2.646s7.624-1.478,7.619-2.719-3.428-2.086-7.642-2.065S1324.363,929.035,1324.37,930.276Z" transform="translate(-1323.807 -927.573)" fill="#fff"/>
      <path id="Path_26933" data-name="Path 26933" d="M1329.989,931.542h.09c3.876-.018,8.189-1.372,8.18-3.284-.011-1.966-4.471-2.676-8.207-2.626-3.779.018-8.192.737-8.182,2.7h0c0,.881.932,1.7,2.612,2.324A16.4,16.4,0,0,0,1329.989,931.542Zm.225-4.784c4.543,0,6.921.975,6.926,1.507,0,.628-2.734,2.131-7.059,2.151a16.882,16.882,0,0,1-5.2-.815c-1.351-.5-1.874-1.047-1.874-1.27h0c0-.538,2.421-1.55,7.061-1.577Z" transform="translate(-1321.87 -925.629)" fill="#000072"/>
    </g>
    <path id="Path_26972" data-name="Path 26972" d="M1318.064,1054.048a68.548,68.548,0,0,0-14.377-4.831,88.514,88.514,0,0,0-15.675-2.092,68.53,68.53,0,0,0-16.214,1.155,51.088,51.088,0,0,0-7.711,2.234,32.811,32.811,0,0,0-6.684,3.559l.231-.1-.2.119a1.45,1.45,0,0,0-.6,2.126,2.744,2.744,0,0,0,2.7.906l.249-.045.231-.1c2.292-.579,4.493-1.126,6.745-1.518s4.512-.679,6.8-.887a115.365,115.365,0,0,1,13.925-.259c4.705.182,9.459.583,14.253,1.1s9.672,1.167,14.5,1.752l.145.018a2.579,2.579,0,0,0,2.573-1.073,1.5,1.5,0,0,0-.889-2.067Z" transform="translate(16062.514 7942.946)" fill="#da7392"/>
    <path id="Path_26973" data-name="Path 26973" d="M639.727,678.19a5.333,5.333,0,0,0,1.549,3.743,5.246,5.246,0,0,0,2.059,1.273,5.1,5.1,0,0,0,1.694.284,1.98,1.98,0,0,1,1.978,1.971v29.308a45.221,45.221,0,0,0,45.218,45.225h38.687a45.23,45.23,0,0,0,45.219-45.225v-.851a26.03,26.03,0,0,1,1.937-9.881c8.234-20.189,37.453-20.189,45.689,0a26.033,26.033,0,0,1,1.937,9.881v.851a45.222,45.222,0,0,0,45.225,45.225H909.6c1.531,0,3.041-.081,4.531-.225a44.47,44.47,0,0,0,9.167-1.89,45.225,45.225,0,0,0,31.522-43.11V685.46a1.964,1.964,0,0,1,.568-1.394,1.987,1.987,0,0,1,1.4-.577,5.024,5.024,0,0,0,1.694-.284,5.293,5.293,0,0,0-1.263-10.293c-10.115-.827-34.5-2.7-59.216-4.077-10.277-.574-20.6-1.061-30-1.338-3.646-.113-7.155-.187-10.462-.225-5.2-.072-9.91-.041-13.91.1-2.8.1-5.568.225-8.243.365-2.928.146-5.761.315-8.469.5a396.637,396.637,0,0,1-51.272.031c-5.3-.349-11.194-.664-17.459-.9-11.525-.421-29.162.162-47.342,1.086h0c-9.509.5-19.144,1.088-28.133,1.671h-.018q-5.12.338-9.91.676c-8.365.574-15.788,1.142-21.471,1.577h0c-2.633.2-4.894.387-6.7.534A5.293,5.293,0,0,0,639.727,678.19Z" transform="translate(16550.387 8237.226)" fill="#1a1818"/>
    <path id="Path_26974" data-name="Path 26974" d="M1590.66,763.741l-54.68-89.414c9.009-.588,18.631-1.178,28.137-1.667h0L1613.5,753.4Z" transform="translate(15697.113 8233.013)" fill="url(#linear-gradient)"/>
    <path id="Path_26975" data-name="Path 26975" d="M1682,684.677l53.583,87.612h22.435L1703.462,683.1C1695.1,683.679,1687.68,684.24,1682,684.677Z" transform="translate(15519.709 8224.924)" fill="url(#linear-gradient)"/>
    <path id="Path_26976" data-name="Path 26976" d="M719.94,668.44l55.277,90.38a45.27,45.27,0,0,0,20.734-13.788l-46.018-75.254C739.661,669.208,729.332,668.717,719.94,668.44Z" transform="translate(16698.455 8236.282)" fill="url(#linear-gradient)"/>
    <path id="Path_26977" data-name="Path 26977" d="M852.66,667.734,909.088,760h17.775c1.534,0,3.043-.081,4.531-.225l-56.581-92.5c-5.207-.072-9.926-.045-13.912.1C858.1,667.466,855.336,667.592,852.66,667.734Z" transform="translate(16533.119 8237.22)" fill="url(#linear-gradient)"/>
    <path id="Path_26980" data-name="Path 26980" d="M772.861,757.477l.419-.133a45.781,45.781,0,0,0,21-13.964l.266-.309-46.4-75.844-.3-.018c-11.727-.651-21.543-1.09-30.009-1.338l-1.038-.031.543.887Zm20.284-14.516a44.631,44.631,0,0,1-19.793,13.173l-54.5-89.115c8.144.25,17.532.676,28.642,1.288Z" transform="translate(16700.57 8238.296)" fill="none"/>
    <path id="Path_26982" data-name="Path 26982" d="M679.8,751.175h38.673A48.881,48.881,0,0,0,767.3,702.349V701.5a22.42,22.42,0,0,1,1.667-8.525,20.675,20.675,0,0,1,19.513-12.9c6.9,0,15.628,3.378,19.507,12.9a22.52,22.52,0,0,1,1.662,8.525v.849a48.883,48.883,0,0,0,48.829,48.827h38.68a48.882,48.882,0,0,0,48.829-48.827V674.522a8.9,8.9,0,0,0-.9-17.628c-19.473-1.577-85.234-6.595-114.007-5.554-5.405.2-11.061.486-16.82.86a392.563,392.563,0,0,1-50.8.034c-5.919-.385-11.829-.676-17.567-.9-28.786-1.045-94.536,3.986-114.007,5.554a8.9,8.9,0,0,0-.923,17.631v27.831A48.9,48.9,0,0,0,679.8,751.175Zm108.682-78.308A27.723,27.723,0,0,0,762.3,690.252a29.609,29.609,0,0,0-2.2,11.248v.849a41.667,41.667,0,0,1-41.619,41.619H679.8a41.668,41.668,0,0,1-41.622-41.619V673.043a5.583,5.583,0,0,0-5.579-5.579,1.7,1.7,0,0,1-.137-3.385c19.369-1.559,84.779-6.559,113.164-5.534,5.667.2,11.507.5,17.356.883a399.788,399.788,0,0,0,51.736-.034c5.691-.372,11.279-.658,16.613-.849,28.378-1.027,93.795,3.975,113.167,5.534a1.7,1.7,0,0,1-.14,3.385,5.534,5.534,0,0,0-3.944,1.635,5.617,5.617,0,0,0-1.637,3.944v29.306a41.668,41.668,0,0,1-41.622,41.619h-38.68a41.668,41.668,0,0,1-41.622-41.619V701.5a29.648,29.648,0,0,0-2.2-11.245A27.7,27.7,0,0,0,788.485,672.867Z" transform="translate(16562.82 8249.646)" fill="#4d4d4f"/>
    <path id="Path_27124" data-name="Path 27124" d="M79.105,345.757a49.58,49.58,0,0,1-2.024-7.328c-3.141-16.889,1.512-37.57-1.186-36.012l-.3.163-.186.116h0l-.861.488h0l-.651.372h-.3l-.326.163-.372.209h-.14c-.582.349-1.186.675-1.791,1h0l-.349.186-.465.256h0L68.265,306.4h0l-2.885,1.559a85.307,85.307,0,0,0,13.725,37.8Z" transform="translate(17348.471 8992.442) rotate(68)" fill="#51efde"/>
    <g id="Group_73581" data-name="Group 73581" transform="matrix(-0.999, 0.035, -0.035, -0.999, 17397.588, 8882.598)">
      <path id="Path_26867" data-name="Path 26867" d="M2.273.359a.5.5,0,0,1,.958,0c2.031,6.569,1.526,13.62,1.612,20.43.08,6.609,2.215,14.268.126,20.59A1.09,1.09,0,0,1,3,41.632C-.676,36.663.076,29.693.041,23.749.007,16.084-.108,7.771,2.273.359Z" transform="translate(52.703 0)" fill="#51efde"/>
      <path id="Path_26868" data-name="Path 26868" d="M1.48.29a64.4,64.4,0,0,1,4.343,11.8c1.274,4.429,2.823,8.29,1.813,12.9-.184.815-1.176.746-1.589.207C3.3,21.626,2.6,17.576,1.457,13.29.252,8.752-.436,5.075.309.445A.66.66,0,0,1,1.48.29Z" transform="translate(65.137 4.601)" fill="#51efde"/>
      <path id="Path_26869" data-name="Path 26869" d="M.9.1c3.873,3.362,6.684,7.688,9.833,11.715,3.414,4.36,6.46,8.451,8.778,13.528A.872.872,0,0,1,18.149,26.4C11.046,19.874,1.563,10.528,0,.626A.574.574,0,0,1,.9.1Z" transform="translate(76.706 7.094)" fill="#51efde"/>
      <path id="Path_26870" data-name="Path 26870" d="M6.1.168c.3-.281.97-.224,1.038.275.6,4.395-.906,9.019-1.48,13.373-.534,4.079-1.176,8.56-3.557,12-.442.637-1.652.688-1.819-.235-.734-4.136.12-8.3.746-12.392C1.694,8.837,2.716,3.243,6.1.168Z" transform="translate(34.797 2.853)" fill="#51efde"/>
      <path id="Path_26871" data-name="Path 26871" d="M12.854,13.243C17.037,9,21.494,2.543,26.979.047c.281-.126.729,0,.688.39-.637,5.835-6.15,10.769-9.868,14.916C13.055,20.661,7.473,26.071,1.11,29.312A.752.752,0,0,1,.089,28.3C3.159,22.376,8.219,17.97,12.854,13.243Z" transform="translate(0 4.764)" fill="#51efde"/>
    </g>
    <path id="Polygon_3" data-name="Polygon 3" d="M4.949,2.5a1,1,0,0,1,1.873,0l4.442,11.845a1,1,0,0,1-.936,1.351H1.443a1,1,0,0,1-.936-1.351Z" transform="matrix(-0.966, -0.259, 0.259, -0.966, 17374.004, 9010.405)" fill="#fff"/>
    <path id="Polygon_4" data-name="Polygon 4" d="M4.949,2.5a1,1,0,0,1,1.873,0l4.442,11.845a1,1,0,0,1-.936,1.351H1.443a1,1,0,0,1-.936-1.351Z" transform="translate(17339.355 9005.148) rotate(159)" fill="#fff"/>
    <path id="Path_27125" data-name="Path 27125" d="M1.924,6.322c5.609,5.824,17.919,12.723,26.61,17.221,5.555,2.867,3.584-4.068,3.584-4.068L19.467.856S-7.269-3.194,1.924,6.322Z" transform="matrix(-0.848, 0.53, -0.53, -0.848, 17371.434, 8967.411)" fill="#da7392" fill-rule="evenodd"/>
    <path id="Path_27122" data-name="Path 27122" d="M256.456,349.68l-21.216,6.56c22.24,7.235,60.485,8.514,74.908-.279-7.956.558-15.377,1.024-21.449,1.279A59.182,59.182,0,0,1,256.456,349.68Z" transform="translate(17154.795 8991.428)" fill="#4d4d4f" fill-rule="evenodd"/>
    <path id="Path_27123" data-name="Path 27123" d="M288.932,349.68l21.216,6.56c-22.24,7.235-60.485,8.515-74.909-.279,7.956.558,15.377,1.024,21.449,1.279A59.182,59.182,0,0,0,288.932,349.68Z" transform="translate(17008.762 8991.428)" fill="#4d4d4f" fill-rule="evenodd"/>
    <g transform="matrix(1, 0, 0, 1, 16991.35, 8717.38)" filter="url(#Subtraction_7)">
      <path id="Subtraction_7-2" data-name="Subtraction 7" d="M324.427,216.327c-4.874,0-10.219-1.112-24.958-4.329-35.066-7.654-51.2-17.882-58.958-22.8-1.2-.763-2.245-1.423-3.089-1.9a16.154,16.154,0,0,1-5.32-4.744,19.734,19.734,0,0,1-2.881-6.217c-1.267-4.483-1.442-9.6-1.521-14.886-.078-5.35-.176-10.886-.292-16.454h56.75c8.783,7.472,11.4,11.52,13.507,14.772,2.648,4.091,4.4,6.794,16.488,13.294,14.807,1.084,27.81,3.757,37.6,7.731a45.54,45.54,0,0,1,11.472,6.429,17.1,17.1,0,0,1,5.756,7.513,10.281,10.281,0,0,1-.119,7.033,18.606,18.606,0,0,1-5.294,7.19,1.951,1.951,0,0,1-1.715,1.554c-.037,0-.075,0-.112,0h-.051c-.642.495-1.331.992-2.047,1.479-12.487,1.224-19.706,2.361-24.977,3.192A64.643,64.643,0,0,1,324.427,216.327Z" transform="translate(171.65 559.62)" fill="#100725" stroke="#51efde" stroke-width="2"/>
    </g>
    <path id="Path_27138" data-name="Path 27138" d="M91.253.061C49.685,41.522,4.31,43.01.143,65.612c-4.565,24.728,101.676,20.135,113.638,5.8,2.652-3.189-3.19-5.975-9.968-27.045C98.131,26.256,92.708-1.47,91.253.061Z" transform="matrix(-0.914, 0.407, -0.407, -0.914, 17570.463, 8821.365)" fill="#4d4d4f" fill-rule="evenodd"/>
    <path id="Path_27137" data-name="Path 27137" d="M90.523.054C49.288,36.716,4.275,38.032.142,58.018c-4.529,21.866,100.863,17.8,112.73,5.133,2.63-2.82-3.164-5.283-9.889-23.915C97.346,23.217,91.967-1.3,90.523.054Z" transform="matrix(0.545, 0.839, -0.839, 0.545, 17213.949, 8717.381)" fill="#4d4d4f" fill-rule="evenodd"/>
    <path id="Path_27155" data-name="Path 27155" d="M133.563,279.716c-4.96,8.411-23.707,17.731-24.317,24.169-.56,5.618,10.022,11.082,20.578,14.262C140.813,321.472,138.523,271.305,133.563,279.716Z" transform="translate(17366.174 8972.304)" fill="#4d4d4f" fill-rule="evenodd"/>
    <path id="Path_27154" data-name="Path 27154" d="M272.659,6.661l-16.944,6.218L-10.1,6.661l2.976,11.68L39.391,65.419S28.3,50.89,54.276,58.352C62.382,60.68,63.139,44.521,95.2,62.27c14.921,8.394,57.823,8.3,77,0,22.605-3.194,38.128-4.675,54.466-10.833,22.656-8.54,32.816-11.692,38.969-20.126C273.078,21.126,272.659,6.661,272.659,6.661Z" transform="translate(17227.857 9283.894)" fill="#100725"/>
    <g id="Group_73533" data-name="Group 73533" transform="translate(17045.375 9047.159)" opacity="0.3">
      <path id="Path_26918" data-name="Path 26918" d="M166.882,1262.106v.022a30,30,0,0,1-1.044,3.482c-.065-.239-.131-.479-.185-.718a34.819,34.819,0,0,1-.892-5.581A32.015,32.015,0,0,0,166.882,1262.106Z" transform="translate(-163.887 -1256.811)" fill="#6b184e"/>
      <path id="Path_26919" data-name="Path 26919" d="M163.4,1261.146l-.558-2.051c-.068-.248-.136-.495-.193-.745a35.464,35.464,0,0,1-.908-5.679l-.193-2.551,1.436,2.116a31.357,31.357,0,0,0,2.075,2.739l.163.19-.019.427a30.612,30.612,0,0,1-1.069,3.56Zm-.014-6.063c.065.422.139.846.22,1.268.068-.25.133-.5.2-.756Z" transform="translate(-161.55 -1250.12)" fill="#000072"/>
    </g>
    <path id="Path_26938" data-name="Path 26938" d="M515.192,1355.612c-4.308,67.573-53.582,90.05-79.726,142.947-9.857,19.921-35.946,25.023-52.81,10.553a138.347,138.347,0,0,0-12.055-9.335c-26.133-17.734-47.848-14.687-80.378-26.655-.631-.228-1.24-.511-1.85-.794a28.4,28.4,0,0,1-16.8-25.567,29.566,29.566,0,0,1,17.734-28.08c32.41-14.252,76.375-36.284,97.144-58.641,5.3-5.712,9.1-11.423,10.8-17.026,10.466-34.456,42.376-84.621,58.641-87.167a38.675,38.675,0,0,1,37.73,16.08,120.05,120.05,0,0,1,17.614,38.71c.577,2.219,1.11,4.5,1.578,6.865A146.208,146.208,0,0,1,515.192,1355.612Z" transform="translate(16803.732 7795.651)" fill="#5f5272"/>
    <g id="Group_73538" data-name="Group 73538" transform="translate(17259.602 9113.86)" opacity="0.3">
      <path id="Path_26939" data-name="Path 26939" d="M1006.118,1474.4c-5.712,4.7-16.9,11.1-38.459,16.668-15.58,4.025-16.635,12.6-16.635,12.6s-6.147-16.178,4-19.083c12.511-3.59,29.266-4.994,36.784-10.238a88.24,88.24,0,0,1,12.729-6.8C1005.117,1469.758,1005.65,1472.043,1006.118,1474.4Z" transform="translate(-949.179 -1467.55)" fill="#fff"/>
    </g>
    <g id="Group_73539" data-name="Group 73539" transform="translate(17075.287 9169.562)" opacity="0.3">
      <path id="Path_26940" data-name="Path 26940" d="M412.775,1645.63s-16.2,33.792-84.817,58.162c-31.736,11.271-48.958,20.192-56.422,29.516a29.566,29.566,0,0,1,17.734-28.08c32.41-14.252,76.375-36.284,97.144-58.641Z" transform="translate(-271.527 -1645.63)" fill="#000072"/>
    </g>
    <path id="Path_26942" data-name="Path 26942" d="M393.25,1510.087a38.376,38.376,0,0,1-25.079-9.334l-.007-.006a132.757,132.757,0,0,0-11.663-9.038c-15.231-10.336-28.951-13.3-44.824-16.727-10.143-2.19-21.64-4.67-34.608-9.441-.688-.25-1.36-.544-2.034-.859l-.125-.057a32.854,32.854,0,0,1-19.352-30.523,33.77,33.77,0,0,1,20.339-31.08c62.054-27.289,99.548-53.193,105.532-72.94,9.944-32.717,6.577-41.738,0-56.2-1.118-2.457,53.276-22.947,69.217-25.482,15.775-2.508,25.348-4.205,34.62,8.981,11.774,16.749,25.257,45.422,22.616,86.835-2.8,43.992-23.62,68.971-45.659,95.417-12.321,14.785-25.064,30.074-34.51,49.181a37.95,37.95,0,0,1-26.636,20.481A39.039,39.039,0,0,1,393.25,1510.087Zm-19.417-15.941a29.78,29.78,0,0,0,25.5,6.62,29.321,29.321,0,0,0,20.573-15.811c9.9-20.032,22.978-35.723,35.631-50.9,21.1-25.322,41.035-49.23,43.66-90.4,2.478-38.895-10.08-65.672-21.052-81.276A33.863,33.863,0,0,0,445.39,1248.4c-16.047,2.551-15.756,15.74-41.008,8.981,7.409,17.318-4.57,42.169-14.617,75.233-8.655,28.474-64.791,58.339-110.36,78.379a25.153,25.153,0,0,0-15.136,23.168,23.94,23.94,0,0,0,14.255,22.543l.131.06c.471.215.938.435,1.42.612,12.4,4.558,23.1,6.868,33.455,9.1,16.064,3.468,31.235,6.743,47.87,18.036a140.932,140.932,0,0,1,12.444,9.637Z" transform="translate(16815.387 7807.321)" fill="#100725"/>
    <g id="Group_73591" data-name="Group 73591" transform="translate(17133.816 9047.852)">
      <path id="Path_26943" data-name="Path 26943" d="M407.526,1235.381C336.85,1225,279.268,1273.25,267.17,1324.314c-5.411,22.84-11.887,53.886,20.074,71.848s107.77,0,107.77,0l-27.951-48.014s15.727-25.97,48.477-35.011" transform="translate(-259.791 -1229.446)" fill="#5f5272"/>
      <g id="Group_73542" data-name="Group 73542" transform="translate(5.881 4.463)" opacity="0.3">
        <path id="Path_26945" data-name="Path 26945" d="M407.539,1297.86h0c-102.584-15.068-141.859,90.627-141.859,90.627l23.543,5.146c10.665-21.963,43.605-77.057,107.569-82.655A11.918,11.918,0,0,0,407.539,1297.86Z" transform="translate(-265.68 -1296.39)" fill="#000072"/>
      </g>
    </g>
    <path id="Path_26947" data-name="Path 26947" d="M932.757,1609.632a4.352,4.352,0,0,1-4.151-5.665c19.064-60.21,9.7-94.712,4.1-115.324-2.837-10.453-4.714-17.358-1.178-22.785,2.279-3.5,6.256-5.508,12.928-6.528,33.727-5.113,40.2-16.523,40.254-16.64a4.3,4.3,0,0,1,5.744-2.07,4.406,4.406,0,0,1,2.1,5.831c-.732,1.583-8.247,15.637-46.807,21.487-3.775.571-6.174,1.493-6.938,2.665-1.406,2.157.3,8.456,2.285,15.751,5.464,20.127,15.634,57.583-4.2,120.233A4.352,4.352,0,0,1,932.757,1609.632Z" transform="translate(16325.549 7658.656)" fill="#000072"/>
    <path id="Path_26948" data-name="Path 26948" d="M587.035,1814.081c-9.482,6.147-29.258,17.135-60.945,26.383a7.594,7.594,0,0,0-5.021,9.792l3.46,9.969a7.6,7.6,0,0,0,8.9,4.928c10.091-2.377,31.785-9.014,67.021-27.117a7.616,7.616,0,0,0,3.245-10.4l-5.842-10.779a7.6,7.6,0,0,0-10.82-2.774Z" transform="translate(16622.4 7406.067)" fill="#fff"/>
    <path id="Path_26949" data-name="Path 26949" d="M529.871,1864.214a8.26,8.26,0,0,1-7.8-5.589l-3.462-9.993a8.282,8.282,0,0,1,5.483-10.665c31.953-9.31,51.787-20.467,60.765-26.288h0a8.145,8.145,0,0,1,6.528-1.069,8.32,8.32,0,0,1,5.249,4.08l5.834,10.793a8.3,8.3,0,0,1-3.522,11.336c-35.495,18.223-57.322,24.854-67.182,27.174A8.3,8.3,0,0,1,529.871,1864.214Zm55.723-51.406c-9.044,5.862-29.008,17.092-61.127,26.454a6.8,6.8,0,0,0-4.181,3.457,6.894,6.894,0,0,0-.392,5.47l3.462,9.99a6.892,6.892,0,0,0,8.1,4.491c9.792-2.307,31.5-8.892,66.863-27.061a6.946,6.946,0,0,0,2.951-9.481l-5.842-10.779a6.979,6.979,0,0,0-4.393-3.422,6.835,6.835,0,0,0-5.44.9Z" transform="translate(16624.217 7407.886)" fill="#000072"/>
    <g id="Group_73543" data-name="Group 73543" transform="translate(17143.049 9235.507)" opacity="0.3">
      <path id="Path_26950" data-name="Path 26950" d="M600.466,1879.764c-35.239,18.1-56.933,24.751-67.018,27.112a7.6,7.6,0,0,1-8.91-4.937l-3.46-9.987a7.616,7.616,0,0,1,5.026-9.791c1.24-.359,2.47-.729,3.677-1.088l3.079,8.9a7.6,7.6,0,0,0,8.9,4.918c9.628-2.263,29.843-8.432,62.318-24.729A7.616,7.616,0,0,1,600.466,1879.764Z" transform="translate(-520.659 -1870.16)" fill="#000072"/>
    </g>
    <path id="Path_26951" data-name="Path 26951" d="M520.054,1858.118a11.918,11.918,0,0,1-11.258-8.062l-3.462-9.993a12.033,12.033,0,0,1,.677-9.424,11.8,11.8,0,0,1,7.238-5.967c31.5-9.18,50.987-20.127,59.8-25.839h0a11.967,11.967,0,0,1,17,4.352l5.834,10.776a11.968,11.968,0,0,1-5.075,16.355c-35.837,18.414-57.994,25.121-68,27.471A12.122,12.122,0,0,1,520.054,1858.118Zm57.727-51.985c-9.21,5.984-29.525,17.408-62.1,26.9a3.166,3.166,0,0,0-1.945,1.6,3.264,3.264,0,0,0-.185,2.581l3.462,9.99a3.237,3.237,0,0,0,3.792,2.119c9.628-2.268,31.007-8.761,66.028-26.753a3.263,3.263,0,0,0,1.632-1.958,3.225,3.225,0,0,0-.245-2.508l-5.842-10.779a3.235,3.235,0,0,0-2.07-1.61,3.158,3.158,0,0,0-2.546.416Z" transform="translate(16634.025 7417.591)" fill="#000072"/>
    <path id="Path_26953" data-name="Path 26953" d="M1637.047,1507.927l-69.118,11.7c-28.461,4.809-54.017-19.268-52.287-49.535,1.36-23.87.37-56.378-5.668-100.223-9.2-66.768,9.019-88.157,21.183-106.348,8.627-12.914,23.456-19.648,38.263-17.168,16.809,2.807,42.681,4.471,69.455-3.96a2.692,2.692,0,0,1,3.144,3.753c-3.786,8.747-7.05,26.057-9.128,46.662-1.512,15.068-2.383,31.91-2.35,48.458.1,49.263,15.83,94.271,29.32,123.842a28.814,28.814,0,0,1,1.588,4.33A30.633,30.633,0,0,1,1637.047,1507.927Z" transform="translate(15903.984 7802.758)" fill="#5f5272"/>
    <g id="Group_73545" data-name="Group 73545" transform="translate(17413.09 9100.436)" opacity="0.3">
      <path id="Path_26954" data-name="Path 26954" d="M1517.19,1446s2.475,11.3,25.94,18.3,28.45,1.847,26.111,13.738-7.733,18.544-7.733,18.544,2.247-16.8-3.577-19.039-32.984-3.294-43.282-17.921C1511,1454.432,1517.19,1446,1517.19,1446Z" transform="translate(-1513.498 -1446)" fill="#fff"/>
    </g>
    <path id="Path_26957" data-name="Path 26957" d="M1802.949,1806.344c3.248,11.151,12.8,40.6,27.906,59.857a4.64,4.64,0,0,1-2.464,7.374l-19.632,5.094a4.6,4.6,0,0,1-4.034-.838c-5.636-4.512-22.086-21.065-28.464-64.391a4.665,4.665,0,0,1,3.3-5.168l17.633-5.094a4.646,4.646,0,0,1,5.75,3.166Z" transform="translate(15708.336 7414.131)" fill="#fff"/>
    <path id="Path_26958" data-name="Path 26958" d="M1805.771,1877.679a5.253,5.253,0,0,1-3.283-1.14c-6.528-5.231-22.409-22.015-28.711-64.821a5.366,5.366,0,0,1,3.789-5.924l17.63-5.094a5.334,5.334,0,0,1,6.593,3.631c3.375,11.584,12.849,40.581,27.789,59.628a5.317,5.317,0,0,1-2.829,8.451l-19.632,5.1A5.412,5.412,0,0,1,1805.771,1877.679Zm-9.1-75.828a3.908,3.908,0,0,0-1.088.155l-17.63,5.094a4,4,0,0,0-2.821,4.417c6.405,43.518,23.214,59.957,28.213,63.958a3.923,3.923,0,0,0,3.438.713l19.632-5.094a3.884,3.884,0,0,0,2.75-2.551,3.984,3.984,0,0,0-.65-3.743c-15.087-19.238-24.623-48.431-28.015-60.088h0A3.973,3.973,0,0,0,1796.671,1801.852Z" transform="translate(15710.148 7415.944)" fill="#000072"/>
    <path id="Path_26960" data-name="Path 26960" d="M1865.877,1445.126c15.424,30.463-15.737,39.664-15.737,39.664l25.339,58.706c55.456-6.033,81.477-33.526,66.909-80.112-16.752-53.617-65.822-108.285-65.822-108.285Z" transform="translate(15654.514 7720.612)" fill="#5f5272"/>
    <g id="Group_73548" data-name="Group 73548" transform="translate(17515.902 9147.241)" opacity="0.3">
      <path id="Path_26961" data-name="Path 26961" d="M1916.285,1734.589l-10.085-23.358c53.756-9.422,78.061-39.6,62.83-88.4-.544-1.751-1.121-3.492-1.73-5.244a214.838,214.838,0,0,1,15.917,36.893C1997.763,1701.069,1971.738,1728.562,1916.285,1734.589Z" transform="translate(-1906.2 -1617.59)" fill="#000072"/>
    </g>
    <g id="Group_73592" data-name="Group 73592" transform="translate(17253.514 9158.894) rotate(99)" opacity="0.3">
      <path id="Path_26961-2" data-name="Path 26961" d="M1909.306,1730.839l1.648-21.2c53.756-9.422,73.307-38.012,58.076-86.807-.544-1.751-1.121-3.492-1.73-5.244,6.375,11.891,3.307,32.989,7.2,45.468C1989.047,1709.644,1964.759,1724.812,1909.306,1730.839Z" transform="translate(-1906.2 -1617.59)" fill="#000072"/>
    </g>
    <path id="Path_26963" data-name="Path 26963" d="M1802.949,1806.344c3.248,11.151,12.8,40.6,27.906,59.857a4.64,4.64,0,0,1-2.464,7.374l-19.632,5.094a4.6,4.6,0,0,1-4.034-.838c-5.636-4.512-22.086-21.065-28.464-64.391a4.665,4.665,0,0,1,3.3-5.168l17.633-5.094a4.646,4.646,0,0,1,5.75,3.166Z" transform="translate(15708.336 7414.131)" fill="#fff"/>
    <path id="Path_26964" data-name="Path 26964" d="M1805.771,1877.679a5.253,5.253,0,0,1-3.283-1.14c-6.528-5.231-22.409-22.015-28.711-64.821a5.366,5.366,0,0,1,3.789-5.924l17.63-5.094a5.334,5.334,0,0,1,6.593,3.631c3.375,11.584,12.849,40.581,27.789,59.628a5.317,5.317,0,0,1-2.829,8.451l-19.632,5.1A5.412,5.412,0,0,1,1805.771,1877.679Zm-9.1-75.828a3.908,3.908,0,0,0-1.088.155l-17.63,5.094a4,4,0,0,0-2.821,4.417c6.405,43.518,23.214,59.957,28.213,63.958a3.923,3.923,0,0,0,3.438.713l19.632-5.094a3.884,3.884,0,0,0,2.75-2.551,3.984,3.984,0,0,0-.65-3.743c-15.087-19.238-24.623-48.431-28.015-60.088h0A3.973,3.973,0,0,0,1796.671,1801.852Z" transform="translate(15710.148 7415.944)" fill="#000072"/>
    <g id="Group_73549" data-name="Group 73549" transform="translate(17484.547 9222.549)" opacity="0.3">
      <path id="Path_26965" data-name="Path 26965" d="M1828.4,1887.176l-19.638,5.092a4.624,4.624,0,0,1-4.036-.838c-5.635-4.515-22.085-21.074-28.461-64.4a4.67,4.67,0,0,1,3.308-5.168l.685-.2c7.257,35.859,21.542,50.155,26.72,54.289a4.578,4.578,0,0,0,4.026.849l14.959-3.884c1.567,2.394,3.2,4.7,4.9,6.876a4.643,4.643,0,0,1-2.459,7.376Z" transform="translate(-1776.212 -1821.67)" fill="#000072"/>
    </g>
    <path id="Path_26966" data-name="Path 26966" d="M1795.947,1871.5a8.942,8.942,0,0,1-5.584-1.942c-6.87-5.5-23.557-23.056-30.049-67.154a9.052,9.052,0,0,1,6.4-9.99l17.633-5.095a9.019,9.019,0,0,1,11.152,6.131h0c3.318,11.378,12.607,39.847,27.153,58.391a8.976,8.976,0,0,1-4.795,14.271l-19.635,5.094A8.995,8.995,0,0,1,1795.947,1871.5Zm-9.1-75.823a.283.283,0,0,0-.081,0l-17.63,5.1a.316.316,0,0,0-.21.356c6.212,42.191,22.143,57.836,26.878,61.628a.273.273,0,0,0,.22.024l19.621-5.1a.235.235,0,0,0,.193-.171.293.293,0,0,0-.06-.3c-15.482-19.738-25.2-49.462-28.662-61.326h0A.291.291,0,0,0,1786.846,1795.679Z" transform="translate(15719.979 7425.738)" fill="#000072"/>
    <path id="Path_26967" data-name="Path 26967" d="M1516.474,1615.093a4.736,4.736,0,0,1-.544-.033,4.352,4.352,0,0,1-3.772-4.863c6.169-48.784,25.162-85.187,37.73-109.277,6.93-13.284,13.48-25.839,11.437-29.851-.756-1.49-3.52-2.2-5.712-2.529-38.533-5.845-46.1-19.689-46.842-21.248a4.351,4.351,0,1,1,7.818-3.824c.247.419,7.071,11.424,40.33,16.469,6.2.941,10.183,3.294,12.16,7.194,4.08,8.018-1.784,19.235-11.481,37.807-12.28,23.538-30.838,59.109-36.811,106.348A4.352,4.352,0,0,1,1516.474,1615.093Z" transform="translate(15903.357 7658.057)" fill="#000072"/>
    <path id="Path_27169" data-name="Path 27169" d="M751.463,2520.755c-62.443-7.219-67.361-30.987-67.361-30.987-1.064-9,2.086-31.9,4.05-44.7a8.7,8.7,0,0,1,10.268-7.229c9.005,1.749,23.007,4.27,32.731,5.086a2.07,2.07,0,0,0,2.032-2.992c-2.062-4.047-4.656-11.151-1.539-17.269,5.85-11.461,39.136-6.906,41.821,0,2.623,6.747-21.162,2.515-22,69.6-.012.94,138.355,13.318,50.68,28.485C778.1,2522.975,751.461,2520.336,751.463,2520.755Z" transform="translate(16681.557 6992.687)" fill="#fff"/>
    <path id="Subtraction_6" data-name="Subtraction 6" d="M98.28,105.166h-.007c-8.715,0-18.111-.5-27.929-1.486-1.553-.14-3.139-.315-4.672-.484l-.545-.06c-14.246-1.647-26.524-4.2-36.492-7.6-7.975-2.715-14.5-5.97-19.387-9.674a27.63,27.63,0,0,1-7.677-8.321,10.728,10.728,0,0,1-1.36-3.536C-.844,64.983,2.3,42.131,4.271,29.312a8.751,8.751,0,0,1,3.589-5.8,8.708,8.708,0,0,1,6.674-1.431c7.9,1.541,22.652,4.251,32.731,5.087.065.006.132.009.2.009a2.059,2.059,0,0,0,1.831-3,27.723,27.723,0,0,1-2.708-7.858A14.866,14.866,0,0,1,47.76,6.9c1.413-2.766,4.168-4.168,8.191-4.168,4.708,0,10.979,1.978,17.2,5.426,5.643,3.126,9.916,6.757,10.885,9.251.848,2.182-.39,4.514-1.588,6.769s-2.448,4.612-1.662,6.868c.639,1.833,2.549,3.423,5.84,4.861a1.946,1.946,0,0,0,.7.087c.144,0,.31-.006.493-.016C73.88,43.2,65.557,55.463,65.557,68.782c0,4.991,5.241,9.18,15.156,12.116,8.8,2.6,20.638,4.039,33.343,4.039a142.047,142.047,0,0,0,24.885-2.062c7.919-1.44,14.23-3.579,18.25-6.186a24.636,24.636,0,0,1-.912,8.933,18.312,18.312,0,0,1-6.643,8.7,41.882,41.882,0,0,1-12.544,6.091,96.344,96.344,0,0,1-17.45,3.583A179.974,179.974,0,0,1,98.28,105.166Z" transform="translate(17371.443 9400.218)" fill="#5f5272"/>
    <path id="Path_27168" data-name="Path 27168" d="M792.152,2483.467a1.521,1.521,0,0,0,1.061-.452c11.97-11.491,25.991-12.936,46.886-4.839a1.709,1.709,0,0,0,2.182-1.433,2.312,2.312,0,0,0-1.149-2.723c-22.1-8.568-37.069-6.908-50.044,5.546a2.514,2.514,0,0,0-.587,2.425A1.822,1.822,0,0,0,792.152,2483.467Z" transform="translate(16613.441 6968.663)" fill="#000072"/>
    <path id="Path_27167" data-name="Path 27167" d="M749.55,2510.007a1.2,1.2,0,0,0,.9-.457c9.97-11.407,22.841-13.224,41.745-5.889.789.306,1.6-.388,1.8-1.55a2.4,2.4,0,0,0-1.053-2.658c-19.878-7.718-33.544-5.662-44.309,6.662a2.855,2.855,0,0,0-.489,2.424C748.358,2509.417,748.92,2510.007,749.55,2510.007Z" transform="translate(16652.385 6934.339)" fill="#000072"/>
    <path id="Path_27165" data-name="Path 27165" d="M741.859,2446.722c34.616,0-21.724-52.266-16.82-66.931,1.91-5.7,19.625-7.768,29.027-11.538,1.674-.671,5.182-15.041,5.182-15.041-3.177-8.16-10.278-8.97-14.26-9.174-8.8-.446-24.248.155-28.853,9.174-2.519,4.934-5.932,2.692-3.5,9.166-8.9-1.012-16.695,5.337-25.02,3.735a13.056,13.056,0,0,0-15.4,10.842c-2.448,15.944-5.135,36.844-4.08,45.868.288,2.568,4.692,25.532,68.727,32.932C749.125,2457.169,731.605,2446.722,741.859,2446.722ZM723.9,2384.975c-.781,2.334,9.82,16.561,11.585,20.675,8.231,19.195,28.822,41.91-10.441,37.373-56.468-6.528-48.215-21.017-48.237-21.213-.734-6.218.734-22.083,4.026-43.551a4.353,4.353,0,0,1,5.135-3.618c9.792,1.9,23.495,4.336,33.2,5.149a6.42,6.42,0,0,0,5.877-2.809C726.343,2375.048,725.266,2380.881,723.9,2384.975Z" transform="translate(16699.197 7051.918)" fill="#100725"/>
    <g id="Group_73553" data-name="Group 73553" transform="translate(17247.996 9163.147)" opacity="0.3">
      <path id="Path_26995" data-name="Path 26995" d="M921.331,1618.85s-14.821,2.66-14.821,12.887,22.643,59.506,2.464,114.573c0,0,23.72-45.033,19.357-74.689S921.331,1618.85,921.331,1618.85Z" transform="translate(-906.51 -1618.85)" fill="#000072"/>
    </g>
    <g id="Group_73554" data-name="Group 73554" transform="translate(17419.625 9163.337)" opacity="0.3">
      <path id="Path_26996" data-name="Path 26996" d="M1580.081,1618.85s17.791,12.24,17.791,22.461-40.763,43.129-60.352,108.679c0,0,1.488-45.917,19.814-81.069A477.813,477.813,0,0,0,1580.081,1618.85Z" transform="translate(-1537.52 -1618.85)" fill="#000072"/>
    </g>
    <g id="Group_73555" data-name="Group 73555" transform="translate(17413.043 9179.977)" opacity="0.3">
      <path id="Path_26997" data-name="Path 26997" d="M1557.478,1678.46s-18,23.865-31.847,20.872-12.259-16.714-12.259-16.714l6.147,56.636-1.12,34.418,17-40.913Z" transform="translate(-1513.318 -1678.46)" fill="#000072"/>
    </g>
    <g id="Group_73556" data-name="Group 73556" transform="translate(17260.703 9171.226)" opacity="0.3">
      <path id="Path_26998" data-name="Path 26998" d="M956.807,1675.474s4.917,28.989,17.505,21.626c20.829-12.188,36.781-47.87,36.781-47.87s-26.927,88.378-57.863,100.266C953.23,1749.485,963.625,1690.36,956.807,1675.474Z" transform="translate(-953.23 -1649.23)" fill="#000072"/>
    </g>
    <g id="tors">
      <g transform="matrix(1, 0, 0, 1, 16991.35, 8717.38)" filter="url(#Path_27156)">
        <g id="Path_27156-2" data-name="Path 27156" transform="translate(-1570.97 -1082.32)" fill="#100725">
          <path d="M 1805.087280273438 1583.259155273438 C 1805.087036132813 1583.259155273438 1805.08740234375 1583.259155273438 1805.087158203125 1583.259155273438 C 1796.384399414063 1583.259155273438 1788.162231445313 1581.042358398438 1780.64892578125 1576.670288085938 C 1774.135864257813 1572.877075195313 1769.015258789063 1567.959106445313 1765.428833007813 1562.052490234375 C 1762.56005859375 1557.328125 1760.666259765625 1551.971435546875 1759.7998046875 1546.131225585938 C 1759.03125 1540.95068359375 1759.230712890625 1536.338500976563 1759.533447265625 1533.381713867188 C 1759.86279296875 1530.164184570313 1760.3720703125 1528.186157226563 1760.3935546875 1528.103515625 L 1760.67529296875 1527.021850585938 L 1761.718994140625 1527.421630859375 C 1763.054565429688 1527.933227539063 1764.300415039063 1528.181884765625 1765.527221679688 1528.181884765625 C 1765.52783203125 1528.181884765625 1765.5283203125 1528.181884765625 1765.52880859375 1528.181884765625 C 1768.218017578125 1528.181396484375 1770.766235351563 1526.958618164063 1773.548095703125 1524.333740234375 C 1776.166259765625 1521.86328125 1778.746826171875 1518.379638671875 1781.47900390625 1514.691528320313 C 1785.045043945313 1509.87744140625 1789.087036132813 1504.421264648438 1794.181762695313 1499.899047851563 C 1800.086791992188 1494.65771484375 1806.445068359375 1491.528076171875 1813.61962890625 1490.331298828125 C 1814.818481445313 1490.130126953125 1816.280517578125 1490.023681640625 1817.846557617188 1490.023681640625 C 1820.326049804688 1490.023681640625 1824.279907226563 1490.283081054688 1829.035400390625 1491.518920898438 C 1833.685913085938 1492.7275390625 1837.967529296875 1494.576416015625 1841.76123046875 1497.014404296875 C 1846.297607421875 1499.929565429688 1850.046508789063 1503.644409179688 1852.90380859375 1508.055908203125 C 1856.203979492188 1513.151123046875 1858.327270507813 1519.208251953125 1859.21484375 1526.05908203125 C 1860.103149414063 1532.89990234375 1859.4580078125 1539.63818359375 1857.297241210938 1546.08642578125 C 1855.477905273438 1551.515869140625 1852.58837890625 1556.74609375 1848.708862304688 1561.631469726563 C 1845.62060546875 1565.5205078125 1841.84521484375 1569.23046875 1837.790893554688 1572.3603515625 C 1834.65087890625 1574.784301757813 1831.35498046875 1576.845947265625 1828.748046875 1578.016723632813 C 1825.570068359375 1579.447265625 1822.230224609375 1580.614135742188 1818.821899414063 1581.484619140625 C 1814.2119140625 1582.661987304688 1809.590454101563 1583.259155273438 1805.087280273438 1583.259155273438 Z" stroke="none"/>
          <path d="M 1805.087158203125 1582.259155273438 C 1814.991821289063 1582.259155273438 1823.398315429688 1579.328125 1828.33837890625 1577.1044921875 C 1836.978759765625 1573.22412109375 1861.96923828125 1555.03759765625 1858.22314453125 1526.1875 C 1854.509399414063 1497.52099609375 1830.055786132813 1491.023681640625 1817.846557617188 1491.023681640625 C 1816.261108398438 1491.023681640625 1814.884521484375 1491.133056640625 1813.7841796875 1491.317626953125 C 1785.906372070313 1495.967895507813 1780.300415039063 1529.17919921875 1765.529052734375 1529.181884765625 C 1764.218627929688 1529.18212890625 1762.837890625 1528.921020507813 1761.361328125 1528.35546875 C 1761.361328125 1528.35546875 1753.23828125 1559.54931640625 1781.15185546875 1575.805908203125 C 1789.419189453125 1580.61669921875 1797.672973632813 1582.259155273438 1805.087158203125 1582.259155273438 M 1805.087280273438 1584.259155273438 C 1805.087158203125 1584.259155273438 1805.087158203125 1584.259155273438 1805.087158203125 1584.259155273438 C 1805.087280273438 1584.259155273438 1805.087280273438 1584.259155273438 1805.087280273438 1584.259155273438 L 1805.087036132813 1584.259155273438 C 1796.205444335938 1584.259155273438 1787.81396484375 1581.996704101563 1780.14599609375 1577.534545898438 C 1773.486938476563 1573.656372070313 1768.247924804688 1568.622192382813 1764.573974609375 1562.571533203125 C 1761.635864257813 1557.732666015625 1759.69677734375 1552.250732421875 1758.810668945313 1546.277954101563 C 1757.309692382813 1536.16064453125 1759.338745117188 1528.18603515625 1759.425903320313 1527.851440429688 L 1759.989135742188 1525.688232421875 L 1762.07666015625 1526.48779296875 C 1763.296142578125 1526.954833984375 1764.424926757813 1527.181884765625 1765.52734375 1527.181884765625 C 1767.946899414063 1527.181518554688 1770.276977539063 1526.045288085938 1772.86181640625 1523.6064453125 C 1775.41552734375 1521.196899414063 1777.970458984375 1517.747802734375 1780.675415039063 1514.09619140625 C 1787.93701171875 1504.293701171875 1796.974243164063 1492.093994140625 1813.455078125 1489.344848632813 C 1814.724609375 1489.1318359375 1816.202758789063 1489.023681640625 1817.846557617188 1489.023681640625 C 1820.384399414063 1489.023681640625 1824.42919921875 1489.288696289063 1829.286987304688 1490.551147460938 C 1834.0400390625 1491.786376953125 1838.418823242188 1493.677856445313 1842.301879882813 1496.173095703125 C 1846.958740234375 1499.165649414063 1850.80810546875 1502.980712890625 1853.7431640625 1507.51220703125 C 1857.125122070313 1512.733764648438 1859.299682617188 1518.930541992188 1860.20654296875 1525.930541992188 C 1861.114501953125 1532.922607421875 1860.454711914063 1539.811157226563 1858.245483398438 1546.404174804688 C 1856.389038085938 1551.944213867188 1853.443969726563 1557.276611328125 1849.491943359375 1562.25341796875 C 1846.354125976563 1566.204711914063 1842.519287109375 1569.973388671875 1838.401977539063 1573.15185546875 C 1835.202514648438 1575.621704101563 1831.833129882813 1577.727416992188 1829.15771484375 1578.928955078125 C 1825.928344726563 1580.382568359375 1822.533569335938 1581.568603515625 1819.069213867188 1582.453369140625 C 1814.3779296875 1583.651611328125 1809.673706054688 1584.259155273438 1805.087158203125 1584.259155273438 L 1805.087280273438 1584.259155273438 Z" stroke="none" fill="#51efde"/>
        </g>
      </g>
      <path id="Path_27151" data-name="Path 27151" d="M255.873,289.772c.936-26.266-8.77-67.9-34.637-71.155-46.1-5.8-56.152,31.231-59.124,42.289-2.936,11.224-7.993,34.954-5.609,67.32,1.864,25.308-.018,47.635,18.606,80.757,9.459,11.165,21.828,9.909,35.183,11.391C277.376,427.815,255.035,312.978,255.873,289.772Z" transform="translate(17149.051 8931.882)" fill="#4d4d4f" fill-rule="evenodd" opacity="0.95"/>
    </g>
    <path id="Path_27157" data-name="Path 27157" d="M1764.982,1579.55a13.033,13.033,0,0,1-.259,1.505c-.108.543-.259,1.1-.38,1.653-.284,1.11-.6,2.23-.957,3.343a67.942,67.942,0,0,1-2.507,6.633,70.841,70.841,0,0,1-3.223,6.452c-1.172,2.129-2.5,4.173-3.881,6.209,1.932-1.513,3.857-3.086,5.671-4.8a74.177,74.177,0,0,0,5.264-5.4,72.855,72.855,0,0,0,4.768-6c.755-1.035,1.469-2.134,2.17-3.244.347-.564.691-1.125,1.035-1.715a20.123,20.123,0,0,0,1-1.914l.225-.491a4.675,4.675,0,1,0-8.5-3.881A4.74,4.74,0,0,0,1764.982,1579.55Z" transform="translate(15501.059 7575.376)" fill="#51efde"/>
    <path id="Path_27158" data-name="Path 27158" d="M1805.242,1523.357c-.825,2.238-1.933,4.7-3.055,7.013s-2.38,4.656-3.71,6.907-2.771,4.47-4.31,6.625a69.316,69.316,0,0,1-5.042,6.209,69.917,69.917,0,0,0,6.68-4.62c2.139-1.682,4.235-3.461,6.224-5.355s3.935-3.855,5.8-5.906,3.622-4.111,5.417-6.511h0a4.6,4.6,0,1,0-7.383-5.5A4.8,4.8,0,0,0,1805.242,1523.357Z" transform="translate(15452.135 7615.928)" fill="#51efde"/>
    <path id="Path_27159" data-name="Path 27159" d="M1866.879,1484.918a64.536,64.536,0,0,1-2.621,6.268c-.993,2.106-2.07,4.193-3.231,6.242a91.22,91.22,0,0,1-7.942,11.866,93.5,93.5,0,0,0,11.5-9.021q2.732-2.489,5.3-5.2a73.364,73.364,0,0,0,5.009-5.8l.039-.054a4.62,4.62,0,1,0-7.34-5.612,4.71,4.71,0,0,0-.708,1.31Z" transform="translate(15373.865 7644.521)" fill="#51efde"/>
    <g id="Group_73594" data-name="Group 73594" transform="translate(17504.525 9466.852)">
      <path id="Path_27129" data-name="Path 27129" d="M1697.6,2564a7.694,7.694,0,0,1,3.9,1.774,12.249,12.249,0,0,1,2.875,3.453,15.753,15.753,0,0,1,1.7,4.33,16.067,16.067,0,0,1,.365,2.316,18.476,18.476,0,0,1,.011,2.323,2.219,2.219,0,0,1-2.01,2.194,2.175,2.175,0,0,1-2.231-1.933l-.048-.323c-.09-.612-.1-1.222-.159-1.828-.1-.591-.092-1.2-.227-1.783-.046-.3-.079-.594-.133-.889s-.14-.577-.192-.873a7.257,7.257,0,0,0-.22-.871c-.09-.285-.151-.586-.259-.866a25.166,25.166,0,0,0-1.425-3.422C1699,2566.445,1698.36,2565.286,1697.6,2564Z" transform="translate(-1697.6 -2562.631)" fill="#51efde"/>
      <path id="Path_27130" data-name="Path 27130" d="M1815.2,2539.53a6.951,6.951,0,0,1,3.559,1.509,11.088,11.088,0,0,1,2.717,3.131,14.24,14.24,0,0,1,1.67,4.06,14.567,14.567,0,0,1,.365,2.2,7.79,7.79,0,0,1,.047,1.112c0,.369,0,.74-.02,1.107a2.01,2.01,0,0,1-1.77,2,1.943,1.943,0,0,1-1.962-1.76l-.043-.293c-.083-.57-.089-1.143-.151-1.7-.09-.552-.1-1.123-.229-1.662a16.9,16.9,0,0,0-.828-3.245,22.22,22.22,0,0,0-1.431-3.157C1816.572,2541.759,1815.929,2540.713,1815.2,2539.53Z" transform="translate(-1801.312 -2539.53)" fill="#51efde"/>
    </g>
    <g transform="matrix(1, 0, 0, 1, 16991.35, 8717.38)" filter="url(#Subtraction_8)">
      <path id="Subtraction_8-2" data-name="Subtraction 8" d="M257.752,71.327H201c.115-5.519.214-11.054.292-16.454.079-5.285.254-10.4,1.521-14.886A19.734,19.734,0,0,1,205.7,33.77a16.155,16.155,0,0,1,5.32-4.744c.844-.476,1.882-1.135,3.085-1.9C221.86,22.212,238,11.983,273.065,4.33,287.806,1.113,293.151,0,298.024,0a64.606,64.606,0,0,1,10.239,1.137c5.271.831,12.49,1.968,24.98,3.192.724.491,1.412.988,2.046,1.478h.055c.036,0,.073,0,.11,0a1.95,1.95,0,0,1,1.716,1.555,18.606,18.606,0,0,1,5.293,7.19,10.28,10.28,0,0,1,.118,7.032,17.1,17.1,0,0,1-5.756,7.513,45.542,45.542,0,0,1-11.473,6.429c-9.794,3.974-22.8,6.647-37.6,7.73-12.091,6.5-13.84,9.2-16.488,13.294-2.1,3.252-4.724,7.3-13.507,14.772Z" transform="translate(527.19 786.95) rotate(180)" fill="#100725" stroke="#51efde" stroke-width="2"/>
    </g>
    <path id="Path_27176" data-name="Path 27176" d="M763.672,2520.755c62.443-7.219,67.361-30.987,67.361-30.987,1.064-9-2.086-31.9-4.05-44.7a8.7,8.7,0,0,0-10.268-7.229c-9.005,1.749-23.007,4.27-32.731,5.086a2.07,2.07,0,0,1-1.895-.9c-.422-.621-18.755-15.9-18.418-16.567,2.062-4.047,22.937,3.323,19.82-2.794-5.85-11.461-39.136-6.906-41.821,0-2.623,6.747,21.162,2.515,22,69.6.012.94-138.355,13.318-50.68,28.485C737.037,2522.975,763.674,2520.335,763.672,2520.755Z" transform="translate(16511.258 7003.687)" fill="#fff"/>
    <path id="Subtraction_9" data-name="Subtraction 9" d="M55.951,102.438c-4.022,0-6.778-1.4-8.191-4.169a14.865,14.865,0,0,1-1.175-9.416,27.71,27.71,0,0,1,2.709-7.858,2.059,2.059,0,0,0-1.832-3c-.066,0-.132,0-.2.009-10.079.835-24.833,3.546-32.731,5.087A8.7,8.7,0,0,1,4.271,75.854C2.3,63.035-.844,40.183.211,31.158a10.728,10.728,0,0,1,1.36-3.536A27.63,27.63,0,0,1,9.248,19.3c4.89-3.7,11.413-6.959,19.388-9.674,9.968-3.394,22.246-5.95,36.493-7.6l.687-.076c1.486-.164,3.023-.333,4.529-.468C80.161.5,89.56,0,98.28,0a179.986,179.986,0,0,1,21.364,1.173,96.328,96.328,0,0,1,17.45,3.583,41.875,41.875,0,0,1,12.543,6.091,18.313,18.313,0,0,1,6.643,8.7,24.637,24.637,0,0,1,.912,8.934c-4.019-2.605-10.33-4.744-18.252-6.185a142.042,142.042,0,0,0-24.885-2.062c-12.707,0-24.549,1.434-33.344,4.038C70.8,27.2,65.557,31.393,65.557,36.384c0,13.318,8.323,25.582,22.264,32.806-.173-.01-.337-.016-.49-.016a1.948,1.948,0,0,0-.7.087c-3.291,1.438-5.2,3.028-5.84,4.861-.786,2.256.458,4.6,1.662,6.868s2.435,4.587,1.588,6.769c-.969,2.494-5.241,6.126-10.885,9.251-6.226,3.448-12.5,5.426-17.2,5.426h0Z" transform="translate(17336.506 9516.384) rotate(180)" fill="#5f5272"/>
    <path id="Path_27179" data-name="Path 27179" d="M685.29,2446.722c-34.616,0,27.6-57.415,22.7-72.081-1.91-5.7-25.5-2.619-34.9-6.388-1.674-.671-5.182-15.041-5.182-15.041,3.177-8.16,10.278-8.97,14.26-9.174,8.8-.446,24.248.155,28.853,9.174,2.519,4.934,5.932,2.692,3.5,9.166,8.9-1.012,16.695,5.337,25.02,3.735a13.056,13.056,0,0,1,15.4,10.842c2.448,15.944,5.135,36.843,4.08,45.868-.288,2.568-4.692,25.532-68.727,32.932C678.024,2457.169,695.544,2446.722,685.29,2446.722Zm17.964-61.747c.781,2.334-11.2,16.2-12.969,20.315-8.231,19.195-27.439,42.271,11.824,37.733,56.468-6.528,48.215-21.017,48.237-21.213.734-6.218-.734-22.083-4.026-43.551a4.353,4.353,0,0,0-5.135-3.618c-9.792,1.9-23.495,4.336-33.2,5.149a6.42,6.42,0,0,1-5.877-2.809C700.807,2375.048,701.883,2380.881,703.254,2384.975Z" transform="translate(16581.604 7062.918)" fill="#100725"/>
    <g id="Group_73598" data-name="Group 73598" transform="translate(17181.174 9477.852)">
      <path id="Path_27129-2" data-name="Path 27129" d="M1706.484,2564a7.694,7.694,0,0,0-3.9,1.774,12.249,12.249,0,0,0-2.875,3.453,15.753,15.753,0,0,0-1.7,4.33,16.067,16.067,0,0,0-.365,2.316,18.476,18.476,0,0,0-.011,2.323,2.219,2.219,0,0,0,2.01,2.194,2.175,2.175,0,0,0,2.231-1.933l.048-.323c.09-.612.1-1.222.159-1.828.1-.591.092-1.2.227-1.783.046-.3.079-.594.133-.889s.14-.577.192-.873a7.257,7.257,0,0,1,.22-.871c.09-.285.151-.586.259-.866a25.166,25.166,0,0,1,1.425-3.422C1705.082,2566.445,1705.724,2565.286,1706.484,2564Z" transform="translate(-1684.234 -2562.631)" fill="#51efde"/>
      <path id="Path_27130-2" data-name="Path 27130" d="M1823.562,2539.53a6.951,6.951,0,0,0-3.559,1.509,11.088,11.088,0,0,0-2.717,3.131,14.24,14.24,0,0,0-1.67,4.06,14.567,14.567,0,0,0-.365,2.2,7.79,7.79,0,0,0-.047,1.112c0,.369,0,.74.02,1.107a2.01,2.01,0,0,0,1.77,2,1.943,1.943,0,0,0,1.962-1.76l.043-.293c.083-.57.089-1.143.151-1.7.09-.552.1-1.123.229-1.662a16.9,16.9,0,0,1,.828-3.245,22.22,22.22,0,0,1,1.431-3.157C1822.19,2541.759,1822.833,2540.713,1823.562,2539.53Z" transform="translate(-1815.2 -2539.53)" fill="#51efde"/>
    </g>
    <g id="Group_73599" data-name="Group 73599" transform="translate(17250.85 9440.342)">
      <path id="Path_27181" data-name="Path 27181" d="M840.615,2483.467a1.521,1.521,0,0,1-1.061-.452c-11.97-11.491-25.99-12.935-46.885-4.838a1.709,1.709,0,0,1-2.182-1.433,2.312,2.312,0,0,1,1.149-2.723c22.1-8.568,37.069-6.908,50.043,5.546a2.514,2.514,0,0,1,.587,2.425A1.822,1.822,0,0,1,840.615,2483.467Z" transform="translate(-787.771 -2468.679)" fill="#000072"/>
      <path id="Path_27180" data-name="Path 27180" d="M792.575,2510.006a1.2,1.2,0,0,1-.9-.457c-9.97-11.407-22.841-13.224-41.744-5.889-.789.306-1.6-.388-1.8-1.55a2.4,2.4,0,0,1,1.053-2.658c19.878-7.718,33.544-5.663,44.309,6.661a2.854,2.854,0,0,1,.489,2.424C793.767,2509.417,793.206,2510.007,792.575,2510.006Z" transform="translate(-748.073 -2487.002)" fill="#000072"/>
    </g>
  </g>
</svg>
