<svg xmlns="http://www.w3.org/2000/svg" xmlns:xlink="http://www.w3.org/1999/xlink" width="385.063" height="387.037" viewBox="0 0 385.063 387.037">
  <defs>
    <filter id="Path_26838" x="179.551" y="168.117" width="205.513" height="174.787" filterUnits="userSpaceOnUse">
      <feOffset dy="3" input="SourceAlpha"/>
      <feGaussianBlur stdDeviation="3" result="blur"/>
      <feFlood flood-color="#51efde"/>
      <feComposite operator="in" in2="blur"/>
      <feComposite in="SourceGraphic"/>
    </filter>
    <filter id="Path_26840" x="65.135" y="0" width="62.544" height="79.895" filterUnits="userSpaceOnUse">
      <feOffset dy="3" input="SourceAlpha"/>
      <feGaussianBlur stdDeviation="3" result="blur-2"/>
      <feFlood flood-color="#51efde"/>
      <feComposite operator="in" in2="blur-2"/>
      <feComposite in="SourceGraphic"/>
    </filter>
    <filter id="Path_26841" x="187.551" y="0.061" width="67.337" height="76.651" filterUnits="userSpaceOnUse">
      <feOffset dy="3" input="SourceAlpha"/>
      <feGaussianBlur stdDeviation="3" result="blur-3"/>
      <feFlood flood-color="#51efde"/>
      <feComposite operator="in" in2="blur-3"/>
      <feComposite in="SourceGraphic"/>
    </filter>
    <filter id="Path_26842" x="55.585" y="153.048" width="216.193" height="202.694" filterUnits="userSpaceOnUse">
      <feOffset dy="3" input="SourceAlpha"/>
      <feGaussianBlur stdDeviation="3" result="blur-4"/>
      <feFlood flood-color="#51efde"/>
      <feComposite operator="in" in2="blur-4"/>
      <feComposite in="SourceGraphic"/>
    </filter>
    <filter id="Path_26845" x="187.578" y="228.237" width="91.691" height="142.02" filterUnits="userSpaceOnUse">
      <feOffset dy="3" input="SourceAlpha"/>
      <feGaussianBlur stdDeviation="3" result="blur-5"/>
      <feFlood flood-color="#51efde"/>
      <feComposite operator="in" in2="blur-5"/>
      <feComposite in="SourceGraphic"/>
    </filter>
    <filter id="Path_26847" x="47.699" y="14.589" width="224.413" height="206.744" filterUnits="userSpaceOnUse">
      <feOffset dy="3" input="SourceAlpha"/>
      <feGaussianBlur stdDeviation="3" result="blur-6"/>
      <feFlood flood-color="#51efde"/>
      <feComposite operator="in" in2="blur-6"/>
      <feComposite in="SourceGraphic"/>
    </filter>
    <radialGradient id="radial-gradient" cx="0.5" cy="0.5" r="0.5" gradientUnits="objectBoundingBox">
      <stop offset="0" stop-color="#fff"/>
      <stop offset="0.01" stop-color="#fff"/>
      <stop offset="0.21" stop-color="#0cf"/>
      <stop offset="0.47" stop-color="#f0f0ea"/>
      <stop offset="0.76" stop-color="#0cf"/>
      <stop offset="1" stop-color="#0cf"/>
    </radialGradient>
    <radialGradient id="radial-gradient-2" cx="0.5" cy="0.5" r="0.5" gradientTransform="translate(0)" gradientUnits="objectBoundingBox">
      <stop offset="0" stop-color="#05a374"/>
      <stop offset="0.01" stop-color="#fff"/>
      <stop offset="0.21" stop-color="#51efde"/>
      <stop offset="0.47" stop-color="#f0f0ea"/>
      <stop offset="0.76" stop-color="#51efde"/>
      <stop offset="1" stop-color="#51efde"/>
    </radialGradient>
    <linearGradient id="linear-gradient" x1="1.107" y1="0.65" x2="0.465" y2="1.26" gradientUnits="objectBoundingBox">
      <stop offset="0" stop-color="#f5f5f5" stop-opacity="0"/>
      <stop offset="1" stop-color="#f5f5f5"/>
    </linearGradient>
    <filter id="Path_26850" x="153.271" y="221.722" width="96.083" height="148.616" filterUnits="userSpaceOnUse">
      <feOffset dy="3" input="SourceAlpha"/>
      <feGaussianBlur stdDeviation="3" result="blur-7"/>
      <feFlood flood-color="#51efde"/>
      <feComposite operator="in" in2="blur-7"/>
      <feComposite in="SourceGraphic"/>
    </filter>
    <linearGradient id="linear-gradient-2" x1="-0.314" y1="0.642" x2="0.535" y2="1.26" xlink:href="#linear-gradient"/>
    <filter id="Path_26864" x="71.726" y="224.746" width="91.347" height="142.593" filterUnits="userSpaceOnUse">
      <feOffset dy="3" input="SourceAlpha"/>
      <feGaussianBlur stdDeviation="3" result="blur-8"/>
      <feFlood flood-color="#51efde"/>
      <feComposite operator="in" in2="blur-8"/>
      <feComposite in="SourceGraphic"/>
    </filter>
    <filter id="Path_26851" x="40.216" y="228.238" width="91.768" height="141.895" filterUnits="userSpaceOnUse">
      <feOffset dy="3" input="SourceAlpha"/>
      <feGaussianBlur stdDeviation="3" result="blur-9"/>
      <feFlood flood-color="#51efde"/>
      <feComposite operator="in" in2="blur-9"/>
      <feComposite in="SourceGraphic"/>
    </filter>
    <linearGradient id="linear-gradient-3" x1="-0.003" y1="0.498" x2="0.999" y2="0.498" gradientUnits="objectBoundingBox">
      <stop offset="0" stop-color="#180409"/>
      <stop offset="0.4" stop-color="#220206"/>
      <stop offset="1" stop-color="#140404"/>
    </linearGradient>
    <clipPath id="clip-path">
      <path id="Path_26859" data-name="Path 26859" d="M29.705,92.37l41.672,97.4c-8.636,4.355-11.655,13.115-5.246,19.8-18.04,7.2-42.489,5.345-44.766-3.959-2.623-10.715,9.9-12.373,9.9-12.373C-25.132,133.052,7.681,103.827,29.705,92.37Z" transform="translate(0.007 -92.37)" fill="none"/>
    </clipPath>
    <linearGradient id="linear-gradient-4" x1="0.024" y1="1.815" x2="0.609" y2="0.198" gradientUnits="objectBoundingBox">
      <stop offset="0.01" stop-color="#fff"/>
      <stop offset="0.06" stop-color="#fff" stop-opacity="0.902"/>
      <stop offset="0.21" stop-color="#fff" stop-opacity="0.671"/>
      <stop offset="0.36" stop-color="#fff" stop-opacity="0.459"/>
      <stop offset="0.5" stop-color="#fff" stop-opacity="0.302"/>
      <stop offset="0.64" stop-color="#fff" stop-opacity="0.169"/>
      <stop offset="0.77" stop-color="#fff" stop-opacity="0.071"/>
      <stop offset="0.89" stop-color="#fff" stop-opacity="0.02"/>
      <stop offset="0.99" stop-color="#fff" stop-opacity="0"/>
    </linearGradient>
  </defs>
  <g id="Group_73503" data-name="Group 73503" transform="translate(-12971 -3795.963)">
    <ellipse id="Ellipse_11661" data-name="Ellipse 11661" cx="166.5" cy="22" rx="166.5" ry="22" transform="translate(12971 4139)" fill="#4a4d6b"/>
    <g id="Group_73502" data-name="Group 73502">
      <g transform="matrix(1, 0, 0, 1, 12971, 3795.96)" filter="url(#Path_26838)">
        <path id="Path_26838-2" data-name="Path 26838" d="M163.083,222.688c-78.618,0-104.255-47.017-105.344-49.071a13.61,13.61,0,0,1,24.028-12.769c1.015,1.782,21.95,37.564,89.605,34.446,38.653-1.806,42.86-37.268,43.207-48.082C215.47,121.081,203,97.5,187.358,95.691c-13.289-1.51-22.717.223-25.909,4.8a13.363,13.363,0,0,0-.668,11.309,13.613,13.613,0,0,1-23.435,13.858c-4.553-7.622-8.315-25.167,1.064-39.717,6.384-9.9,20.589-20.886,51.967-17.322,33.679,3.86,52.561,43.454,51.348,79.484-1.46,43.281-28.631,72.456-69.289,74.238C169.368,222.614,166.176,222.688,163.083,222.688Z" transform="translate(133.27 107.22)" fill="#f5f5f5" stroke="#4ddbff" stroke-width="2"/>
      </g>
      <g transform="matrix(1, 0, 0, 1, 12971, 3795.96)" filter="url(#Path_26840)">
        <path id="Path_26840-2" data-name="Path 26840" d="M15.067,59.4S1.878,23.367,18.359.13c0,0,23.929,15.689,33.011,29.7S15.067,59.4,15.067,59.4Z" transform="translate(65.08 7.23)" fill="#f5f5f5" stroke="#57dcfe" stroke-linecap="round" stroke-width="2"/>
      </g>
      <g transform="matrix(1, 0, 0, 1, 12971, 3795.96)" filter="url(#Path_26841)">
        <path id="Path_26841-2" data-name="Path 26841" d="M59.76,29.971S92.252-3.659,100.343.325s8.414,43.6,0,55.976Z" transform="translate(138.35 7.04)" fill="#f5f5f5" stroke="#57dcfe" stroke-linecap="round" stroke-width="2"/>
      </g>
      <g transform="matrix(1, 0, 0, 1, 12971, 3795.96)" filter="url(#Path_26842)">
        <path id="Path_26842-2" data-name="Path 26842" d="M26.511,61.83S-1.2,130.2,8.149,201.373c4.5,34.1,95.445,46.473,131.822,42.365s63.177-35.486,62.385-83.84S168.429,61.83,168.429,61.83Z" transform="translate(59.4 98.22)" fill="#f5f5f5" stroke="#4ddbff" stroke-linecap="round" stroke-width="2"/>
      </g>
      <g transform="matrix(1, 0, 0, 1, 12971, 3795.96)" filter="url(#Path_26845)">
        <path id="Path_26845-2" data-name="Path 26845" d="M101.332,92.37,59.66,189.77c8.612,4.355,11.655,13.115,5.246,19.8,18.04,7.2,42.489,5.345,44.766-3.959,2.623-10.715-9.9-12.373-9.9-12.373C156.17,133.052,123.356,103.827,101.332,92.37Z" transform="translate(138.21 143.25)" fill="#f5f5f5" stroke="#4ddbff" stroke-linecap="round" stroke-width="2"/>
      </g>
      <g transform="matrix(1, 0, 0, 1, 12971, 3795.96)" filter="url(#Path_26847)">
        <path id="Path_26847-2" data-name="Path 26847" d="M206.632,94.968c0,49.047-17.1,96.856-102.077,96.856C14.776,191.749,3.22,143.94,3.22,94.968S48.753,6.08,104.926,6.08,206.632,45.847,206.632,94.968Z" transform="translate(54.98 16.01)" fill="#f5f5f5" stroke="#57dcfe" stroke-width="3"/>
      </g>
      <g id="Group_73496" data-name="Group 73496" transform="translate(13029.2 3818.052)">
        <g id="Group_73495" data-name="Group 73495" opacity="0.41">
          <path id="Path_26848" data-name="Path 26848" d="M206.632,94.968c0,49.047-17.1,96.856-102.077,96.856C14.776,191.749,3.22,143.94,3.22,94.968S48.753,6.08,104.926,6.08,206.632,45.847,206.632,94.968Z" transform="translate(-3.22 -6.08)" fill="#f5f5f5" stroke="#4ddbff" stroke-width="1"/>
        </g>
      </g>
      <circle id="Ellipse_11657" data-name="Ellipse 11657" cx="32.195" cy="32.195" r="32.195" transform="translate(13039.483 3936.97) rotate(-76.64)" fill="#272727"/>
      <circle id="Ellipse_11658" data-name="Ellipse 11658" cx="32.195" cy="32.195" r="32.195" transform="translate(13127.886 3936.986) rotate(-76.64)" fill="#272727"/>
      <circle id="Ellipse_11659" data-name="Ellipse 11659" cx="22.469" cy="22.469" r="22.469" transform="translate(13064.982 3888.429)" fill="url(#radial-gradient)"/>
      <path id="Path_26849" data-name="Path 26849" d="M35.183,40.1a10.74,10.74,0,0,0-5.642,1.633,5.32,5.32,0,0,1,1.485,3.786,5.444,5.444,0,0,1-5.419,5.444,4.949,4.949,0,0,1-1.336-.2v.2A10.864,10.864,0,1,0,35.109,40.1Z" transform="translate(13057.021 3862.138)"/>
      <circle id="Ellipse_11660" data-name="Ellipse 11660" cx="22.469" cy="22.469" r="22.469" transform="translate(13135.336 3888.429)" fill="url(#radial-gradient-2)"/>
      <g transform="matrix(1, 0, 0, 1, 12971, 3795.96)" filter="url(#Path_26850)">
        <path id="Path_26850-2" data-name="Path 26850" d="M91.433,105.642S57,183.466,50.121,208.759s18.88,28.48,32,22.742,10.888-16.288.371-21.033l42.177-100.153" transform="translate(114.38 123.4)" stroke="#4ddbff" stroke-linecap="round" stroke-width="2" fill="url(#linear-gradient)"/>
      </g>
      <g transform="matrix(1, 0, 0, 1, 12971, 3795.96)" filter="url(#Path_26864)">
        <path id="Path_26864-2" data-name="Path 26864" d="M107.473,131.937s25.116,65.707,32,94.065-18.88,31.933-32,25.5-10.888-18.263-.371-23.583L69.642,131.937" transform="translate(12.38 100.1)" stroke="#4ddbff" stroke-linecap="round" stroke-width="2" fill="url(#linear-gradient-2)"/>
      </g>
      <g transform="matrix(1, 0, 0, 1, 12971, 3795.96)" filter="url(#Path_26851)">
        <path id="Path_26851-2" data-name="Path 26851" d="M31.351,193.111s-12.62,1.658-9.9,12.373c2.277,9.3,26.726,11.16,44.766,3.959-6.409-6.558-3.39-15.318,5.246-19.8L29.693,92.37C7.669,103.827-25.144,133.052,31.351,193.111Z" transform="translate(50.23 143.25)" fill="#f5f5f5" stroke="#4ddbff" stroke-linecap="round" stroke-width="2"/>
      </g>
      <path id="Path_26855" data-name="Path 26855" d="M39.64,52.31H53a2.97,2.97,0,0,1,2.252,4.949c-2.673,3.093-6.236,6.483-8.933,6.483s-6.261-3.415-8.884-6.508a2.97,2.97,0,0,1,2.2-4.924Z" transform="translate(13075.354 3881.143)" fill="url(#linear-gradient-3)"/>
      <path id="Path_26856" data-name="Path 26856" d="M59.219,40.1a10.814,10.814,0,0,0-5.667,1.633,5.32,5.32,0,0,1,1.559,3.786,5.444,5.444,0,0,1-5.419,5.444,4.677,4.677,0,0,1-1.311-.2v.2A10.864,10.864,0,1,0,59.244,40.1Z" transform="translate(13092.573 3862.138)"/>
      <path id="Path_26866" data-name="Path 26866" d="M295.732,613.525c-13.855-2.723-27.979-2.079-41.874-1.416-11.365.54-25-.807-35.874,6.743-.276.193-.246,1.119.074,1.079,3.106-.381,6.222-.678,9.34-.926a29.622,29.622,0,0,0,.2,3.921c.273,2.41.636,4.775,1.086,7.075.355,1.926,1.941,3.015,2.463.649a99.048,99.048,0,0,0,1.5-12c7.069-.456,14.149-.758,21.2-1.223,8.693-.564,17.422.079,26.132,0-.042,3.743.333,7.7.626,11.323.133,1.649,1.4,2.3,1.916,1.02,1.429-3.5,1.823-8.075,2.067-12.471a77.21,77.21,0,0,0,11.143-1.2c.338-.042.6-.6.6-1.285S296.07,613.567,295.732,613.525Z" transform="translate(12866.348 3344.002)" fill="#272727"/>
      <path id="Path_26862" data-name="Path 26862" d="M59.877,142.682c0,6.335-7.251,11.482-16.209,11.482S27.46,149.017,27.46,142.682,34.711,131.2,43.669,131.2,59.877,136.322,59.877,142.682Z" transform="translate(13061.725 3996.474)" opacity="0.4" fill="url(#linear-gradient-4)"/>
      <g id="Path_26853" data-name="Path 26853" transform="translate(13066.213 3883.415)" fill="#f5f5f5" stroke-linecap="round">
        <path d="M 41.16852188110352 80.17989349365234 C 39.09942245483398 80.17989349365234 37.03177261352539 79.68807220458984 35.18907928466797 78.75759887695313 C 33.28678894042969 77.79702758789063 31.62462043762207 76.36399841308594 30.38224983215332 74.61342620849609 C 28.33975028991699 71.73544311523438 27.54030990600586 68.23432159423828 28.13120079040527 64.75502014160156 C 28.72208976745605 61.27573013305664 30.63256072998047 58.23484039306641 33.51069259643555 56.19252014160156 C 35.75856018066406 54.59741973876953 38.3981819152832 53.75429916381836 41.14419937133789 53.75429916381836 C 43.21372985839844 53.75429916381836 45.28166198730469 54.24620819091797 47.12442016601563 55.1768684387207 C 49.02679061889648 56.13763046264648 50.68902206420898 57.57102966308594 51.93143081665039 59.32210159301758 C 53.97320938110352 62.19984817504883 54.77230072021484 65.70049285888672 54.18151092529297 69.17916107177734 C 53.59073257446289 72.6578369140625 51.68072891235352 75.69838714599609 48.80337142944336 77.74072265625 C 46.55522918701172 79.33644104003906 43.91514205932617 80.17989349365234 41.16852188110352 80.17989349365234 Z" stroke="none"/>
        <path d="M 41.16852188110352 79.17989349365234 C 43.70656967163086 79.17989349365234 46.14649963378906 78.40025329589844 48.22455978393555 76.92524719238281 C 50.88413238525391 75.03751373291016 52.64955902099609 72.22709655761719 53.19562911987305 69.01172637939453 C 53.74169921875 65.79635620117188 53.00308990478516 62.56069183349609 51.11585235595703 59.90076065063477 C 49.95090103149414 58.25883865356445 48.45632171630859 56.96981048583984 46.67362213134766 56.06949996948242 C 44.96995162963867 55.20909118652344 43.05791091918945 54.75429916381836 41.14419937133789 54.75429916381836 C 38.60671234130859 54.75429916381836 36.16720199584961 55.53363037109375 34.08938980102539 57.00804901123047 C 31.42912101745605 58.89579010009766 29.66324996948242 61.70650863647461 29.11708068847656 64.92246246337891 C 28.57092094421387 68.13841247558594 29.30984115600586 71.37451934814453 31.19775009155273 74.03468322753906 C 32.34626007080078 75.65299224853516 33.88230133056641 76.97747802734375 35.63983154296875 77.86493682861328 C 37.34342956542969 78.72518920898438 39.25522232055664 79.17989349365234 41.16852188110352 79.17989349365234 M 41.16851806640625 81.17989349365234 C 36.71933364868164 81.17989349365234 32.33779144287109 79.09674072265625 29.56675148010254 75.19219207763672 C 25.02395057678223 68.79115295410156 26.5306510925293 59.91936874389648 32.93198013305664 55.37697982788086 C 35.42781448364258 53.60592651367188 38.30033493041992 52.75429534912109 41.14419937133789 52.75429534912109 C 45.59429931640625 52.75429534912109 49.97589874267578 54.8377799987793 52.74700164794922 58.74345016479492 C 57.28818893432617 65.14394378662109 55.78181076049805 74.01377868652344 49.38217926025391 78.55618286132813 L 49.3821907043457 78.55619049072266 C 46.88579940795898 80.32810211181641 44.01325225830078 81.17989349365234 41.16851806640625 81.17989349365234 Z" stroke="none" fill="#1a1818"/>
      </g>
      <g id="Path_26854" data-name="Path 26854" transform="translate(13081.143 3883.42)" fill="#f5f5f5" stroke-linecap="round">
        <path d="M 54.84327697753906 80.18460845947266 C 54.84302520751953 80.18460845947266 54.84296035766602 80.18460845947266 54.84270858764648 80.18460845947266 C 52.09013748168945 80.18447875976563 49.445556640625 79.33786010742188 47.19486618041992 77.73626708984375 C 44.3206672668457 75.69100189208984 42.41445922851563 72.64895629882813 41.82737731933594 69.1705322265625 C 41.24029922485352 65.69210052490234 42.04250717163086 62.19294738769531 44.08622741699219 59.31765747070313 C 45.3289680480957 57.56925964355469 46.99068832397461 56.13816833496094 48.89172744750977 55.1790885925293 C 50.7331657409668 54.25008010864258 52.79935836791992 53.75902938842773 54.86692810058594 53.75902938842773 C 57.61756896972656 53.75902938842773 60.26080703735352 54.60469818115234 62.5108757019043 56.20462799072266 C 65.38726043701172 58.24990081787109 67.29483795166016 61.29290008544922 67.88221740722656 64.77308654785156 C 68.46959686279297 68.25328063964844 67.66640472412109 71.75379943847656 65.62062835693359 74.62980651855469 C 64.37773132324219 76.37709808349609 62.71622848510742 77.8072509765625 60.81573867797852 78.76565551757813 C 58.97502136230469 79.69392395019531 56.90967178344727 80.18460845947266 54.84327697753906 80.18460845947266 Z" stroke="none"/>
        <path d="M 54.84330749511719 79.18460845947266 C 56.75418853759766 79.18460845947266 58.66379928588867 78.73092651367188 60.36569595336914 77.87262725830078 C 62.14655685424805 76.97450256347656 63.64040756225586 75.68843841552734 64.80575561523438 74.0501708984375 C 66.69668579101563 71.39183807373047 67.43907928466797 68.15628051757813 66.89615631103516 64.93950653076172 C 66.35324859619141 61.72274017333984 64.59004974365234 58.91005706787109 61.93137741088867 57.01959991455078 C 59.85154724121094 55.54071807861328 57.40869903564453 54.75902938842773 54.86692810058594 54.75902938842773 C 52.95503616333008 54.75902938842773 51.04460906982422 55.21300888061523 49.34215927124023 56.0718994140625 C 47.56069564819336 56.97064971923828 46.06657791137695 58.25759887695313 44.90130615234375 59.89701080322266 C 43.01227569580078 62.55466842651367 42.27078628540039 65.78897094726563 42.81342697143555 69.00411224365234 C 43.3560676574707 72.21924591064453 45.11799621582031 75.03103637695313 47.7746467590332 76.92150115966797 C 49.85505676269531 78.40191650390625 52.29916763305664 79.18448638916016 54.8430290222168 79.18460845947266 L 54.84330749511719 79.18460845947266 M 54.84266662597656 81.18460845947266 C 51.99248886108398 81.18447113037109 49.11423110961914 80.32942962646484 46.61507797241211 78.55104064941406 L 46.61506652832031 78.551025390625 C 40.22247695922852 74.0020751953125 38.72563934326172 65.13334655761719 43.27114868164063 58.73830795288086 C 46.04302978515625 54.83858108520508 50.42109298706055 52.75902938842773 54.86692428588867 52.75902938842773 C 57.71535110473633 52.75902938842773 60.59214019775391 53.6132698059082 63.09036636352539 55.3896484375 C 69.48783874511719 59.9385986328125 70.985595703125 68.81280517578125 66.43550109863281 75.20944976806641 C 63.66332244873047 79.10663604736328 59.28665924072266 81.184814453125 54.84266662597656 81.18460845947266 Z" stroke="none" fill="#1a1818"/>
      </g>
      <g id="Group_73499" data-name="Group 73499" transform="translate(12827.119 3585.62)">
        <path id="Path_26867" data-name="Path 26867" d="M350.626,300.115a.382.382,0,0,0,.733,0c1.553-5.023,1.167-10.415,1.233-15.622.061-5.054,1.693-10.91.1-15.745a.834.834,0,0,0-1.5-.193c-2.812,3.8-2.237,9.129-2.264,13.674C348.893,288.09,348.805,294.447,350.626,300.115Z" transform="translate(-51.564)" fill="#272727"/>
        <path id="Path_26868" data-name="Path 26868" d="M371.692,308.342a49.245,49.245,0,0,0,3.321-9.019c.974-3.387,2.158-6.339,1.386-9.862-.14-.623-.9-.57-1.215-.158-2.1,2.724-2.632,5.821-3.51,9.1-.921,3.47-1.448,6.282-.877,9.822a.5.5,0,0,0,.895.118Z" transform="translate(-63.729 -11.693)" fill="#272727"/>
        <path id="Path_26869" data-name="Path 26869" d="M391.416,303.11c2.961-2.571,5.111-5.878,7.519-8.958a50.8,50.8,0,0,0,6.712-10.344A.667.667,0,0,0,404.6,283c-5.431,4.992-12.683,12.139-13.876,19.71a.439.439,0,0,0,.689.4Z" transform="translate(-75.048 -8.224)" fill="#272727"/>
        <path id="Path_26870" data-name="Path 26870" d="M322.341,310.8c.232.215.741.171.794-.211.461-3.36-.693-6.9-1.132-10.226-.408-3.119-.9-6.545-2.72-9.177-.338-.487-1.263-.526-1.391.18-.562,3.163.092,6.343.57,9.476C318.972,304.176,319.753,308.453,322.341,310.8Z" transform="translate(-34.045 -12.725)" fill="#272727"/>
        <path id="Path_26871" data-name="Path 26871" d="M266.854,294.428c3.2,3.246,6.607,8.182,10.8,10.09.215.1.557,0,.526-.3-.487-4.461-4.7-8.234-7.546-11.406-3.628-4.058-7.9-8.195-12.761-10.673a.575.575,0,0,0-.781.776C259.44,287.445,263.309,290.814,266.854,294.428Z" transform="translate(0 -7.808)" fill="#272727"/>
      </g>
    </g>
  </g>
</svg>
