<svg xmlns="http://www.w3.org/2000/svg" xmlns:xlink="http://www.w3.org/1999/xlink" width="382.328" height="708.697" viewBox="0 0 382.328 708.697">
  <defs>
    <filter id="Path_26837" x="220.475" y="130.071" width="124.085" height="119.522" filterUnits="userSpaceOnUse">
      <feOffset dy="3" input="SourceAlpha"/>
      <feGaussianBlur stdDeviation="3" result="blur"/>
      <feFlood flood-color="#51efde"/>
      <feComposite operator="in" in2="blur"/>
      <feComposite in="SourceGraphic"/>
    </filter>
    <filter id="Path_26837-2" x="100.743" y="137.555" width="124.085" height="119.522" filterUnits="userSpaceOnUse">
      <feOffset dy="3" input="SourceAlpha"/>
      <feGaussianBlur stdDeviation="3" result="blur-2"/>
      <feFlood flood-color="#51efde"/>
      <feComposite operator="in" in2="blur-2"/>
      <feComposite in="SourceGraphic"/>
    </filter>
    <filter id="Path_26875" x="141.803" y="343.573" width="165.453" height="365.124" filterUnits="userSpaceOnUse">
      <feOffset dy="3" input="SourceAlpha"/>
      <feGaussianBlur stdDeviation="3" result="blur-3"/>
      <feFlood flood-color="#a0a0a0"/>
      <feComposite operator="in" in2="blur-3"/>
      <feComposite in="SourceGraphic"/>
    </filter>
    <filter id="Path_26874" x="63.039" y="497.846" width="97.764" height="209.33" filterUnits="userSpaceOnUse">
      <feOffset dy="3" input="SourceAlpha"/>
      <feGaussianBlur stdDeviation="3" result="blur-4"/>
      <feFlood flood-color="#a0a0a0"/>
      <feComposite operator="in" in2="blur-4"/>
      <feComposite in="SourceGraphic"/>
    </filter>
    <filter id="Path_26876" x="0" y="429.071" width="82.039" height="279.625" filterUnits="userSpaceOnUse">
      <feOffset dy="3" input="SourceAlpha"/>
      <feGaussianBlur stdDeviation="3" result="blur-5"/>
      <feFlood flood-color="#a0a0a0"/>
      <feComposite operator="in" in2="blur-5"/>
      <feComposite in="SourceGraphic"/>
    </filter>
    <filter id="Path_26873" x="287.256" y="358.691" width="95.072" height="348.963" filterUnits="userSpaceOnUse">
      <feOffset dy="3" input="SourceAlpha"/>
      <feGaussianBlur stdDeviation="3" result="blur-6"/>
      <feFlood flood-color="#a0a0a0"/>
      <feComposite operator="in" in2="blur-6"/>
      <feComposite in="SourceGraphic"/>
    </filter>
  </defs>
  <g id="HR-BUILDING" transform="translate(-14786.479 -6045.632)">
    <g id="HR" transform="translate(53.691 236.559)">
      <g id="Layer_2" data-name="Layer 2" transform="translate(14802.271 5809.072)">
        <g id="Layer_5_copy" data-name="Layer 5 copy" transform="translate(0 0)">
          <path id="Path_26780" data-name="Path 26780" d="M273.508,679.614c-1.318-1.695-3.974-1.695-4.69.614-2.292,7.4-.847,15.9-.4,23.553.53,8.936,1.11,17.871,1.5,26.816-4.737,1.186-9.592,2.881-13.287,5.678-1.119.847-1.644,2.966,0,3.7,6.533,2.868,14.571,1.936,21.409.581a4.9,4.9,0,0,0,4.008-6.089,5.962,5.962,0,0,0,.72-3.25C282.029,715.945,283.3,692.3,273.508,679.614Z" transform="translate(-147.297 -390.971)" fill="#51efde"/>
          <path id="Path_26781" data-name="Path 26781" d="M450.092,733.289a56.57,56.57,0,0,1-6.389-2.254,17.627,17.627,0,0,0-5.7-1.4c.318-8.474-.89-17.393-1.407-25.727-.458-7.385.305-14.694-4.44-20.672a2.731,2.731,0,0,0-3.889,0c-4.762,6-3.949,13.253-4.207,20.672-.356,10.207-.538,22.176,3.059,31.841a7.336,7.336,0,0,0,.737,1.453c.5,3.39,3.368,5.47,6.741,5.8,5.614.547,10.236-1.174,15.5-2.94a3.538,3.538,0,0,0,0-6.766Z" transform="translate(-244.285 -393.282)" fill="#51efde"/>
          <path id="Path_26782" data-name="Path 26782" d="M559.471,1.067c-8.9-5.576-17.638,12.236-19.431,17.346-15.905,45.335-44.382,82.129-56.017,94.081-9.054,9.321,42.369,52.962,53.271,30.167,8.283-17.371,28.557-52.835,33.2-108.974C571.432,22.323,570.127,7.731,559.471,1.067Z" transform="translate(-278.335 0.002)" fill="#51efde"/>
          <path id="Path_26783" data-name="Path 26783" d="M112.4,129.513C83.868,105.362,61.764,44.388,50.413,28.123,46.037,21.852,24.738,6.29,22.327,51.049,20.5,84.915,29.343,117.366,45.3,147.228c3.576,6.7,8.474,14.219,15.071,18.185C73.742,173.48,122.162,137.762,112.4,129.513Z" transform="translate(-12.733 -11.725)" fill="#51efde"/>
          <path id="Path_26784" data-name="Path 26784" d="M298.456,294.126c-19.041-34.573-60.338-46.865-96.759-51.644-42.107-5.508-89.616-.932-126.375,21.693a107.586,107.586,0,0,0-26.375,22.642c-1.3,1.424-2.585,2.877-3.813,4.394-17.427,21.481-23.468,50.123-14.406,76.345,4.945,14.283,14.075,26.557,25.223,36.777-.708,4.423-1.191,9.139.788,13.135a4.465,4.465,0,0,0,3.173,2.263c2.364,0,4.631-5.288,5.122-.042.186,2,.627,9.55,4.381,8.923,1.695-.284,2.271-1.869,3.055-3.284,1.106-2,.424-1.881,1.326.042.682,1.462,1.394,2.9,2.152,4.326s3.288,5.932,5.72,4.58c3.678-2.029,2.309-7.254,1.4-10.719,1.131.623,2.263,1.241,3.39,1.835,46.971,24.388,112.16,20.214,159.445-.932.614-.271,1.212-.58,1.818-.847a4.074,4.074,0,0,1-.068.487c-.267,2.352-1.606,10.931,3.2,10.228,3.923-.572,4.69-7.457,5.758-10.364,1.941-5.288,2.724.966,3.178,3.059.381,1.763,2.241,2.3,3.792,1.877,1.936-.534,2.542-3.75,3.012-5.313s.847-3.262,1.271-4.885c.148-.644.3-1.271.458-1.924.064-.263,2.767-7.355,4.135-2.635,1.339,4.623,4.779,2.966,7.11-.559,3.034-4.6,2.657-10.707,2.966-16.355C307.294,369.12,317.611,328.9,298.456,294.126Z" transform="translate(-15.3 -138.523)" fill="#f5f5f5"/>
          <path id="Path_26785" data-name="Path 26785" d="M86.242,257.186c5.983-4.3,11.584-8.635,18.16-12.063,6.385-3.318,13.329-5.339,19.7-8.715.424-.233.11-.813-.318-.746-13.486,2.212-29.942,9.6-37.963,21.1-.169.246.174.593.424.424Z" transform="translate(-49.434 -135.81)" fill="#231f20"/>
          <path id="Path_26786" data-name="Path 26786" d="M78.628,211.45c4.025-2.309,7.957-4.711,12.16-6.69,4.953-2.326,10.088-3.813,14.677-6.809.364-.233.258-.907-.237-.873-9.563.7-20.964,6.355-26.9,13.982-.161.208.038.53.3.386Z" transform="translate(-45.112 -113.576)" fill="#231f20"/>
          <path id="Path_26787" data-name="Path 26787" d="M69.231,166.4c3.275-1.635,6.355-3.479,9.77-4.826,3.322-1.3,6.614-1.987,9.775-3.665.352-.186.148-.648-.186-.686-6.817-.725-15.723,3.093-19.888,8.648C68.447,166.207,68.917,166.554,69.231,166.4Z" transform="translate(-39.554 -90.555)" fill="#231f20"/>
          <path id="Path_26788" data-name="Path 26788" d="M60.1,120.011c2.029-1.271,4.131-2.4,6.271-3.462,2.241-1.11,5-1.546,6.542-3.631.339-.462-.14-.958-.58-1.013-2.5-.326-5.046,1.424-7.2,2.542a11.081,11.081,0,0,0-5.457,5.152c-.11.258.131.6.424.424Z" transform="translate(-34.377 -64.468)" fill="#231f20"/>
          <path id="Path_26789" data-name="Path 26789" d="M60.134,89.739c2.6-1.631,5.889-1.72,8.58-3.084a.445.445,0,0,0,0-.771,6.308,6.308,0,0,0-4.966.178A7.96,7.96,0,0,0,59.8,89.4C59.656,89.608,59.939,89.866,60.134,89.739Z" transform="translate(-34.444 -49.242)" fill="#231f20"/>
          <path id="Path_26790" data-name="Path 26790" d="M538.484,238.089c4.5,1.741,9.194,2.873,13.732,4.529,4.944,1.809,9.66,5.453,14.829,6.292a.6.6,0,0,0,.576-.987c-5.745-7.258-20.337-10.258-29.1-10.194a.182.182,0,0,0-.051.36Z" transform="translate(-310.243 -137.003)" fill="#231f20"/>
          <path id="Path_26791" data-name="Path 26791" d="M565.7,205.066a61.862,61.862,0,0,1,13.9,3.5c4.326,1.695,8.821,5.343,13.6,5.084a.619.619,0,0,0,.424-1.042c-3.046-3.678-8.864-5.258-13.228-6.982a26.4,26.4,0,0,0-14.715-1.53c-.453.093-.479.873,0,.941Z" transform="translate(-325.808 -117.36)" fill="#231f20"/>
          <path id="Path_26792" data-name="Path 26792" d="M592.1,184.116c2.432,1.432,5.347,2.076,8.025,2.911,2.9.907,6.012,3.19,9.076,3.161a.479.479,0,0,0,.453-.6c-.665-3.042-4.258-3.983-6.877-4.771a31.476,31.476,0,0,0-10.524-1.271.309.309,0,0,0-.153.572Z" transform="translate(-341.149 -105.757)" fill="#231f20"/>
          <path id="Path_26793" data-name="Path 26793" d="M604.511,144.806a61.3,61.3,0,0,1,12.571,3.262c3.195,1.208,6.355,4.19,9.842,3.61.453-.076.542-.61.39-.958-1.436-3.271-6.258-4.423-9.406-5.661a21.778,21.778,0,0,0-13.4-.805c-.258.068-.288.508,0,.551Z" transform="translate(-348.267 -82.734)" fill="#231f20"/>
          <path id="Path_26794" data-name="Path 26794" d="M626.088,126.537c3.911.746,8.559,3.051,12.571,2.118a.424.424,0,0,0,.191-.716c-2.966-3.351-8.859-2.542-12.762-1.907a.267.267,0,0,0,0,.508Z" transform="translate(-360.714 -72.303)" fill="#231f20"/>
          <path id="Path_26795" data-name="Path 26795" d="M633.763,71.834c2.207.212,4.432.775,6.61,1.186,1.068.2,2.093.568,3.144.822a21.783,21.783,0,0,0,2.631.051c.381.047.551-.491.3-.733a8.332,8.332,0,0,0-2.6-2.178,14.473,14.473,0,0,0-3.517-.847,12.15,12.15,0,0,0-6.656,1.047.326.326,0,0,0,.085.64Z" transform="translate(-365.059 -40.349)" fill="#231f20"/>
          <path id="Path_26796" data-name="Path 26796" d="M98.85,405.594c.847-1.695,1.466-3.466,2.2-5.2.089-.216-.165-.475-.352-.271a8.825,8.825,0,0,0-2.207,5.372.195.195,0,0,0,.36.1Z" transform="translate(-56.763 -230.548)" fill="#fff"/>
          <path id="Path_26797" data-name="Path 26797" d="M576.72,541.37c-1.453,1.025-3.339,1.6-4.661,2.754a.1.1,0,0,0,.072.174c1.568.135,3.237-1.017,4.512-1.818a20.433,20.433,0,0,0,4.72-4.042c.106-.127-.03-.339-.182-.242C579.643,539.171,578.211,540.319,576.72,541.37Z" transform="translate(-329.666 -310.15)" fill="#fff"/>
          <path id="Path_26798" data-name="Path 26798" d="M190.6,419.462c11.516-16.134,13.8-37.946-1.746-56.14-14.715-17.227-40.675-26.231-62.075-16.211a49.076,49.076,0,0,0-19.939,17.194,48.99,48.99,0,0,0-8.7,43.835,43.911,43.911,0,0,0,17.5,24.375,40.437,40.437,0,0,0,31.934,10.067,52.337,52.337,0,0,0,27.608-8.474c-18.189,17.643-41.132,13.6-62.033,3.945-.157-.072-.352.131-.195.258,19.244,15.465,43.641,14.236,62.838-.644A55.549,55.549,0,0,0,190.6,419.462Zm-8.2,4.118c11.736-15.134,13.639-33.048,7.131-50.784-.042-.114.123-.165.186-.076,10.414,14.24,6.529,40.128-6.779,51.407a.386.386,0,0,1-.538-.547Zm-45.649-73.253c.284,0,.424.445.153.568-5.889,2.5-11.986,4.377-16.977,8.584a39.433,39.433,0,0,0-11.957,17.1.347.347,0,0,1-.669-.182C109.7,363.356,123.027,350.459,136.751,350.328Zm20.138,85.383c-18.935,6-47.115-4.093-52.335-24.824a.267.267,0,0,1,.483-.2c11.774,19.32,30.146,24.451,51.775,24.468a.288.288,0,0,1,.076.559Zm7.686-1.508c-.682,1.25-3.39,1.695-4.584,1.123a.453.453,0,0,1,0-.775,11.928,11.928,0,0,1,2.542-.669,2.436,2.436,0,0,1,1.962-.042.267.267,0,0,1,.08.364Z" transform="translate(-55.501 -197.632)" fill="#100725"/>
          <path id="Path_26799" data-name="Path 26799" d="M289.986,531.46c-2.665,5.25-5.563,10.207-9.72,14.444-4.423,4.517-9.868,7.008-15.338,9.927-.093.051-.03.186.072.165,11.762-2.623,21.939-13.012,25.4-24.362C290.469,531.392,290.1,531.231,289.986,531.46Z" transform="translate(-152.656 -306.219)" fill="#fff"/>
          <path id="Path_26800" data-name="Path 26800" d="M87.069,484.488c-3.39-7.2-3.974-14.6-5.186-22.329-.025-.174-.263-.106-.28.038-1.83,15.033,6.686,33.472,19.236,41.844.267.178.542-.212.33-.424C95.509,497.729,90.548,491.954,87.069,484.488Z" transform="translate(-46.888 -266.285)" fill="#fff"/>
          <path id="Path_26801" data-name="Path 26801" d="M465.3,564.12a.225.225,0,0,0,0-.424c-13.851-1.5-25.676-2.33-37.747-9.978a.11.11,0,1,0-.136.174C436.061,563.273,453.3,565.264,465.3,564.12Z" transform="translate(-246.304 -319.097)" fill="#fff"/>
          <path id="Path_26802" data-name="Path 26802" d="M470.38,344.6c-33.2-41.522-101.06-7.923-87.548,43.268a46.361,46.361,0,0,0,3.11,8.368c3.5,12.834,12.1,23.846,25.8,28.6,14.181,4.928,34.124,6.2,47.628-1.462a.233.233,0,0,0-.169-.424c-12.067,4.152-26.583,3.813-38.772.716a38.314,38.314,0,0,1-16.384-8.359,49.476,49.476,0,0,0,11.656,4.711c.127.047.246.106.377.152,19.859,7.245,40.755,3.106,55.279-12.457C488.471,389.379,485.014,362.923,470.38,344.6Zm-78.71,9.237c-.229.258-.576-.068-.445-.343,5.932-12.609,21.574-22.282,35.446-22.151a.347.347,0,0,1,.089.682c-7.245,2.267-14.592,3.72-20.981,8.118-5.589,3.86-9.664,8.694-14.109,13.711Zm53.11,63.321c-13.66,3.61-34.171,2.055-43.895-9.478-.14-.165.042-.449.25-.318,14.228,8.864,27.362,9.1,43.569,9.232a.288.288,0,0,1,.076.564Zm20.062-8.05c-.284.195-.551-.216-.347-.445,11.575-13.384,13.52-26.117,12.774-43.255a.246.246,0,0,1,.483-.068c4.207,14.9.462,34.59-12.91,43.746Z" transform="translate(-219.619 -187.831)" fill="#100725"/>
          <path id="Path_26803" data-name="Path 26803" d="M106.054,356.257a52.667,52.667,0,0,1,27.116-22.21c13.3-5.046,25.422-2.987,38.556.974.246.072.352-.258.161-.39-20.21-14.1-57.233-.678-66.041,21.545C105.821,356.287,105.995,356.35,106.054,356.257Z" transform="translate(-61.001 -189.516)" fill="#fff"/>
          <path id="Path_26804" data-name="Path 26804" d="M586.925,342.628c-.237-.11-.521.191-.3.386a56.94,56.94,0,0,1,17.244,59.707.326.326,0,0,0,.593.254C614.546,385.192,606.339,351.67,586.925,342.628Z" transform="translate(-338.033 -197.444)" fill="#fff"/>
          <path id="Path_26805" data-name="Path 26805" d="M617.579,492.517a42.28,42.28,0,0,1-2.157,4.089c-.911,1.462-2.118,2.716-3.038,4.178a.182.182,0,0,0,.25.25,13.341,13.341,0,0,0,5.317-8.359C617.986,492.466,617.689,492.292,617.579,492.517Z" transform="translate(-352.908 -283.779)" fill="#fff"/>
          <path id="Path_26806" data-name="Path 26806" d="M418.548,325.151c-.119.165.136.347.271.212,12.923-12.918,28.769-14.736,45.856-10.673a.326.326,0,0,0,.25-.6C450.558,306.28,427.942,312.059,418.548,325.151Z" transform="translate(-241.197 -178.975)" fill="#fff"/>
          <path id="Path_26807" data-name="Path 26807" d="M351.854,613.238c-23.833-2.33-48.127-1.78-72.028-1.212-19.549.462-43-.691-61.707,5.771-.475.165-.424.958.127.924,5.343-.326,10.7-.58,16.066-.792a12.805,12.805,0,0,0,.343,3.356,42.1,42.1,0,0,0,1.868,6.055c.61,1.648,3.339,2.58,4.237.555,1.453-3.313,1.932-6.745,2.585-10.27,12.16-.39,24.337-.648,36.463-1.046,14.952-.483,29.968.068,44.95,0a54.367,54.367,0,0,0,1.076,9.69,1.982,1.982,0,0,0,3.3.873c2.457-3,3.135-6.91,3.555-10.673,6.4-.14,12.791-.424,19.168-1.03a1.1,1.1,0,0,0,0-2.2Z" transform="translate(-125.519 -352.427)" fill="#fff"/>
          <path id="Path_26865" data-name="Path 26865" d="M351.854,613.238c-23.833-2.33-48.127-1.78-72.028-1.212-19.549.462-43-.691-61.707,5.771-.475.165-.424.958.127.924,5.343-.326,10.7-.58,16.066-.792a12.805,12.805,0,0,0,.343,3.356,42.1,42.1,0,0,0,1.868,6.055c.61,1.648,3.339,2.58,4.237.555,1.453-3.313,1.932-6.745,2.585-10.27,12.16-.39,24.337-.648,36.463-1.046,14.952-.483,29.968.068,44.95,0a54.367,54.367,0,0,0,1.076,9.69,1.982,1.982,0,0,0,3.3.873c2.457-3,3.135-6.91,3.555-10.673,6.4-.14,12.791-.424,19.168-1.03a1.1,1.1,0,0,0,0-2.2Z" transform="translate(-140.772 -349.038)" fill="#272727"/>
          <path id="Path_26808" data-name="Path 26808" d="M350.567,299.023a.369.369,0,0,0,.708,0c1.5-4.851,1.127-10.059,1.191-15.088.059-4.881,1.635-10.537.093-15.206a.805.805,0,0,0-1.453-.186c-2.716,3.669-2.161,8.817-2.186,13.207C348.893,287.409,348.808,293.548,350.567,299.023Z" transform="translate(-201.068 -154.542)" fill="#fff"/>
          <path id="Path_26809" data-name="Path 26809" d="M371.654,307.681a47.564,47.564,0,0,0,3.207-8.711c.941-3.271,2.085-6.122,1.339-9.525-.136-.6-.869-.551-1.174-.153-2.029,2.631-2.542,5.622-3.39,8.787a21.255,21.255,0,0,0-.847,9.487.487.487,0,0,0,.864.114Z" transform="translate(-213.559 -166.547)" fill="#fff"/>
          <path id="Path_26810" data-name="Path 26810" d="M391.393,302.416c2.86-2.483,4.936-5.677,7.262-8.652a49.063,49.063,0,0,0,6.483-9.991.644.644,0,0,0-1.008-.78c-5.245,4.822-12.249,11.724-13.4,19.037a.424.424,0,0,0,.665.386Z" transform="translate(-225.18 -162.986)" fill="#fff"/>
          <path id="Path_26811" data-name="Path 26811" d="M322.182,310.122c.225.208.716.165.767-.2.445-3.245-.669-6.66-1.093-9.876-.394-3.012-.869-6.322-2.627-8.864-.326-.47-1.22-.508-1.343.174-.542,3.055.089,6.127.551,9.152C318.928,303.72,319.682,307.851,322.182,310.122Z" transform="translate(-183.081 -167.607)" fill="#fff"/>
          <path id="Path_26812" data-name="Path 26812" d="M266.518,294.006c3.089,3.135,6.381,7.9,10.431,9.745.208.093.538,0,.508-.288-.47-4.309-4.542-7.953-7.288-11.016-3.5-3.919-7.626-7.915-12.325-10.309a.555.555,0,0,0-.754.75C259.357,287.261,263.094,290.515,266.518,294.006Z" transform="translate(-148.127 -162.558)" fill="#fff"/>
          <path id="Path_26813" data-name="Path 26813" d="M18.078,356.533c-21.087,27.892-26.663,74.4-.7,101.4.288.3.7-.081.542-.424C10.35,441.31,2.969,427.854,2.546,409.44c-.5-19.143,7.978-35.9,15.884-52.7a.2.2,0,0,0-.352-.208Z" transform="translate(-0.006 -205.414)" fill="#231f20"/>
          <path id="Path_26814" data-name="Path 26814" d="M654.662,310.55c17.668,21.185,24.485,41.967,21.994,69.486-.042.5.7.559.847.114,7.7-24.574-2.428-54.1-22.316-70.117a.369.369,0,0,0-.521.517Z" transform="translate(-377.242 -178.624)" fill="#231f20"/>
          <path id="Path_26815" data-name="Path 26815" d="M123.844,56.583c5.932,14.291,13.77,27.879,21.494,41.264,6.47,11.224,13.3,23.6,22.829,32.5a.453.453,0,0,0,.7-.547c-6.131-11.55-14.592-21.981-21.244-33.294C139.8,83.2,133.165,69.091,124.437,56.329c-.195-.284-.746-.106-.593.254Z" transform="translate(-71.359 -32.381)" fill="#231f20"/>
          <path id="Path_26816" data-name="Path 26816" d="M676.161,316.62c1.2,2.118,3.364,3.754,4.779,5.758,1.631,2.326,2.788,4.915,4.33,7.292a.369.369,0,0,0,.682-.186c-.072-3.11-1.619-5.559-3.36-8.071-1.356-1.953-3.563-4.851-6.042-5.3a.347.347,0,0,0-.39.5Z" transform="translate(-389.653 -182.172)" fill="#231f20"/>
          <path id="Path_26817" data-name="Path 26817" d="M537.491,25.715a149.288,149.288,0,0,1-18.338,41.611c-7.508,11.6-16.914,21.841-24.8,33.175-.314.453.36.911.737.568C515.475,82.3,536.724,54.526,538.05,25.774a.288.288,0,0,0-.559-.076Z" transform="translate(-284.853 -14.698)" fill="#231f20"/>
          <path id="Path_26818" data-name="Path 26818" d="M10.688,202.319c-.775,15.749,7.059,34.917,16.35,47.454.275.377,1.013.169.818-.343-2.741-7.135-6.559-13.791-9.44-20.892-3.457-8.546-4.661-17.541-7.3-26.269a.225.225,0,0,0-.424.064Z" transform="translate(-6.131 -116.495)" fill="#231f20"/>
          <path id="Path_26819" data-name="Path 26819" d="M670.533,188.778c-1.869,4.029-2.436,8.707-3.483,13.007-1.224,5.038-3.58,9.559-5.351,14.406-.136.373.364.585.614.36,6.572-5.932,9.1-19.147,8.677-27.638,0-.225-.347-.36-.458-.123Z" transform="translate(-381.33 -108.728)" fill="#231f20"/>
          <path id="Path_26820" data-name="Path 26820" d="M683.912,173.435a6.371,6.371,0,0,0,1.182-1.356,8.31,8.31,0,0,0,.559-1.936c.237-1.1.5-2.428-.369-3.3a.424.424,0,0,0-.576,0c-.775.729-.708,1.813-.847,2.8a13.694,13.694,0,0,1-.385,1.75,12.7,12.7,0,0,0-.081,1.741c-.042.275.284.547.513.3Z" transform="translate(-393.845 -96.088)" fill="#231f20"/>
          <path id="Path_26821" data-name="Path 26821" d="M44.593,601.23a6.188,6.188,0,0,0,1.695,3.779c.924,1.174,1.737,2.5,3.292,2.69a.386.386,0,0,0,.39-.386c-.157-1.3-1.008-1.9-1.907-2.8-1.093-1.089-1.957-2.406-3.1-3.436a.225.225,0,0,0-.381.157Z" transform="translate(-25.694 -346.364)" fill="#231f20"/>
          <path id="Path_26822" data-name="Path 26822" d="M294.131,220.514c8.529-1.576,16.706-3.157,25.422-3.224,7.6-.064,15.168,1.22,22.757.847a.424.424,0,0,0,.106-.8c-13.529-4.826-36.1-5.444-48.437,2.843a.182.182,0,0,0,.14.335Z" transform="translate(-169.369 -123.216)" fill="#231f20"/>
          <path id="Path_26823" data-name="Path 26823" d="M416.769,224.069a7.745,7.745,0,0,0,3.021.733c.966.089,1.928.479,2.7-.267a.445.445,0,0,0,.123-.453c-.725-1.907-4.423-1.356-5.843-.61a.347.347,0,0,0,0,.6Z" transform="translate(-240.091 -128.39)" fill="#231f20"/>
          <g id="Group_73498" data-name="Group 73498" transform="translate(108.897 113.619)">
            <path id="Path_26867" data-name="Path 26867" d="M350.567,299.023a.369.369,0,0,0,.708,0c1.5-4.851,1.127-10.059,1.191-15.088.059-4.881,1.635-10.537.093-15.206a.805.805,0,0,0-1.453-.186c-2.716,3.669-2.161,8.817-2.186,13.207C348.893,287.409,348.808,293.548,350.567,299.023Z" transform="translate(-309.966 -268.161)" fill="#272727"/>
            <path id="Path_26868" data-name="Path 26868" d="M371.654,307.681a47.564,47.564,0,0,0,3.207-8.711c.941-3.271,2.085-6.122,1.339-9.525-.136-.6-.869-.551-1.174-.153-2.029,2.631-2.542,5.622-3.39,8.787a21.255,21.255,0,0,0-.847,9.487.487.487,0,0,0,.864.114Z" transform="translate(-322.456 -280.167)" fill="#272727"/>
            <path id="Path_26869" data-name="Path 26869" d="M391.393,302.416c2.86-2.483,4.936-5.677,7.262-8.652a49.063,49.063,0,0,0,6.483-9.991.644.644,0,0,0-1.008-.78c-5.245,4.822-12.249,11.724-13.4,19.037a.424.424,0,0,0,.665.386Z" transform="translate(-334.077 -276.605)" fill="#272727"/>
            <path id="Path_26870" data-name="Path 26870" d="M322.182,310.122c.225.208.716.165.767-.2.445-3.245-.669-6.66-1.093-9.876-.394-3.012-.869-6.322-2.627-8.864-.326-.47-1.22-.508-1.343.174-.542,3.055.089,6.127.551,9.152C318.928,303.72,319.682,307.851,322.182,310.122Z" transform="translate(-291.979 -281.226)" fill="#272727"/>
            <path id="Path_26871" data-name="Path 26871" d="M266.518,294.006c3.089,3.135,6.381,7.9,10.431,9.745.208.093.538,0,.508-.288-.47-4.309-4.542-7.953-7.288-11.016-3.5-3.919-7.626-7.915-12.325-10.309a.555.555,0,0,0-.754.75C259.357,287.261,263.094,290.515,266.518,294.006Z" transform="translate(-257.025 -276.178)" fill="#272727"/>
          </g>
        </g>
      </g>
      <g id="Layer_2-2" data-name="Layer 2" transform="translate(14963.269 5946.265)">
        <g id="Layer_5_copy-2" data-name="Layer 5 copy" transform="translate(0 0)">
          <g transform="matrix(1, 0, 0, 1, -230.48, -137.19)" filter="url(#Path_26837)">
            <path id="Path_26837-3" data-name="Path 26837" d="M100.6,33.046c1.692-13.354-1.507-26.1-14.627-30.923C73.455-2.476,59.767.885,48.356,7.5,43.71,4.491,37.873,2.99,30.876,3.689,7.984,6.033-5.9,40.664,2.447,60.106a22.545,22.545,0,0,0,3.217,5.322c.73,11.518,5.849,22.659,15.423,29.506,11.434,8.175,23.891,4.186,32.98-4.617a32.592,32.592,0,0,0,15.459-2.8c5.382,3.05,12.062.8,17.295-3.588,9.329-7.774,15.638-21.666,17.014-33.561C104.6,43.78,103.535,37.86,100.6,33.046ZM69.969,82.765A13.563,13.563,0,0,1,67.654,79.6a25.47,25.47,0,0,0,8.294-3.433A18.377,18.377,0,0,1,69.969,82.765ZM52.889,86.556a27.56,27.56,0,0,1-14.95-6.4,30.128,30.128,0,0,0,10.166-.245,15.2,15.2,0,0,0,8.2,2.619,38.031,38.031,0,0,1-3.427,4.031Zm-45.377-38C7.04,41.562,10.072,34.6,13.8,28.9A30.893,30.893,0,0,1,25.542,18.06a42.651,42.651,0,0,0-7.284,15.465C13.307,36.993,9.222,44.534,7.6,49.27,7.584,49.037,7.53,48.786,7.512,48.552ZM78.556,69.226a41.8,41.8,0,0,1-4.114,3.253c-.466.317-.915.544-1.375.813a37.812,37.812,0,0,0,7.493-15.883,62.283,62.283,0,0,1-1.507,9.813C78.939,67.928,78.724,68.568,78.556,69.226ZM19.676,59.2a28.561,28.561,0,0,1-.748-6.5,27.138,27.138,0,0,0,8.546,11.877,17.241,17.241,0,0,1-3.881,3.152A24.022,24.022,0,0,1,19.676,59.2ZM52.626,16.188a24.871,24.871,0,0,1,3.349,6.082l-.173.078h0a30.971,30.971,0,0,0-5.825-5.938C50.832,16.289,51.735,16.224,52.626,16.188ZM25.716,37.31c-1.794,7.4-.879,14.777,4.228,19.5a22.432,22.432,0,0,0,0,3.169c-.155.431-.3.861-.443,1.3a21.989,21.989,0,0,1-2.739-2.488,22.725,22.725,0,0,1-4.635-7.643A20.93,20.93,0,0,1,25.716,37.31Zm11.96,2.99a8.552,8.552,0,0,1,.688-4,26.141,26.141,0,0,0,.46,2.942c-.389.383-.771.759-1.136,1.13a.359.359,0,0,0-.012-.066ZM41.7,31.694a25.476,25.476,0,0,1,7.176-4.383,24.315,24.315,0,0,0-4.623,7.421q-1.2.867-2.332,1.794a19.417,19.417,0,0,1-.221-4.832ZM66.979,58.276c-.03-.179-.078-.347-.108-.526a27.443,27.443,0,0,0,4.365-3.11,25.762,25.762,0,0,1-4.084,8.5A26.762,26.762,0,0,0,66.979,58.276ZM68.42,52.81a29.971,29.971,0,0,1,1.352-2.745A7.445,7.445,0,0,1,72.45,47.2c-.048.6-.078,1.2-.144,1.746a22.174,22.174,0,0,1-3.881,3.863Zm-1.973-4.688a23.752,23.752,0,0,0-1.908,3.433,15.7,15.7,0,0,0-1.513-2c3.588-5.334,4.461-11.6,3.51-17.8A11.093,11.093,0,0,1,68.408,33c2.8,2.326,3.881,6.16,4.1,10.166a12.414,12.414,0,0,0-6.052,4.958ZM36.408,56.96V55.95a1.017,1.017,0,0,1,.066-.257c.167-.221.341-.437.514-.652.55.341,1.118.67,1.7.969-.09.49-.167.975-.227,1.471a13,13,0,0,1-2.057-.52Zm18.186-29.3c.2.341.395.694.6,1.053q-1.794.673-3.588,1.543a16.685,16.685,0,0,1,2.99-2.607Zm8.372,12.451c-.072-.676-.2-1.34-.323-2.009a19.047,19.047,0,0,0-.6-6.632c.215-.126.431-.233.646-.353a27.557,27.557,0,0,1,.263,8.982Zm-8.5,10.968a6.638,6.638,0,0,1-3.636,2.147,20.434,20.434,0,0,1-4.425-4.712c-.066-.1-.132-.221-.2-.323a14.645,14.645,0,0,1,3.3-.861,11.039,11.039,0,0,1,6.237.873C55.335,49.162,54.929,50.131,54.468,51.076Zm3.63-14.95a40.611,40.611,0,0,1-1.423,9.054,18.15,18.15,0,0,0-8.486-1.124,43.876,43.876,0,0,1,9.443-9.646c.173.562.317,1.124.466,1.692Zm-3.457-4.084c-1.2.9-2.29,1.794-3.331,2.739a44.391,44.391,0,0,0-4.366,4.5,26.457,26.457,0,0,1,1.3-3.654,32.7,32.7,0,0,1,6.393-3.606ZM42.556,57.576l.227.066H42.55A.293.293,0,0,0,42.556,57.576Zm-1.292-11.4c-.353.191-.694.407-1.041.6a18.8,18.8,0,0,1-1.256-2.195c.317-.437.658-.891,1.035-1.352A24.281,24.281,0,0,0,41.264,46.178Zm-9.73,3.714c-.275.724-.508,1.453-.724,2.189a16.918,16.918,0,0,1-1.651-6.686,19.663,19.663,0,0,0,2.374,4.5ZM36.1,60.477l.245.1a15.08,15.08,0,0,0,1.967.449,20.793,20.793,0,0,0,.12,2.105,17.189,17.189,0,0,1-2.99.114,20.236,20.236,0,0,0,.658-2.763Zm6.279.921A14.915,14.915,0,0,0,44,61.266a.746.746,0,0,0,.078.239c-.544.245-1.088.478-1.645.67-.018-.257-.048-.52-.054-.777Zm17.7-8.3c.15-.15.323-.287.466-.437a17.5,17.5,0,0,1,1.531,3.217,13.043,13.043,0,0,1-4.862.144A12.457,12.457,0,0,0,60.077,53.1Zm1.6-26.032-.837.126c-.048-.251-.1-.5-.155-.748.293.078.6.179.873.263.042.12.084.239.12.359ZM53.631,59.2A13.671,13.671,0,0,0,62,59.711a42.733,42.733,0,0,0-.736,9.61A36.945,36.945,0,0,1,56.352,72.7,24.979,24.979,0,0,1,49.4,63.73,33.172,33.172,0,0,0,53.631,59.2ZM44.445,17.808a23.023,23.023,0,0,1,5.621,4.132c-4.832-.514-9.263,1.668-11,6.925a21.857,21.857,0,0,0-4.682,7.284c-.066.179-.084.359-.144.538a23.662,23.662,0,0,0-1.9-3.032c-.042-.054-.084-.084-.12-.138a26.315,26.315,0,0,1,.425-2.87,21.529,21.529,0,0,1,2.219-5.837,21.337,21.337,0,0,1,9.586-7Zm-19.734,18.2a19.944,19.944,0,0,0-3.929,9.233,28.292,28.292,0,0,1-.167-4.276,10.671,10.671,0,0,1,3.588-5.1,2.651,2.651,0,0,1,.5.144ZM46.048,66.259a27.892,27.892,0,0,0,6.082,8.456,29.012,29.012,0,0,1-3.11,1.017,18.257,18.257,0,0,1-5.579-8.157,17.894,17.894,0,0,0,2.607-1.316Zm19.645,7.3c5.245-5.077,9.6-12.959,11.871-21.17A38.01,38.01,0,0,1,65.86,74.6C65.783,74.231,65.741,73.884,65.693,73.555ZM59.115,21.319c-.054-.144-.1-.287-.155-.425.072.138.155.263.233.407a.3.3,0,0,0-.072,0Zm-10.77-8.761c-.49.078-.981.185-1.465.3.5-.317.993-.6,1.5-.915a5.815,5.815,0,0,1,.6.532ZM17.128,39.989c-.054.532-.066,1.076-.084,1.615a37.675,37.675,0,0,0-1.5,6.237,33.531,33.531,0,0,0,3.14,19.136C14.27,65.183,11.172,61,9.372,56.422c.8-7.009,3.223-14.155,7.972-18.09C17.254,38.87,17.182,39.468,17.128,39.989ZM39.673,68.562c.15.419.275.843.443,1.262a24.781,24.781,0,0,0,2.147,4.037A14.382,14.382,0,0,1,37.012,68.6,12.737,12.737,0,0,0,39.673,68.562Zm35.39-41.9.233-.03c.257.425.49.861.712,1.3-.281-.431-.628-.855-.945-1.274Zm-3.63-3.48a15.489,15.489,0,0,0-8.372-2.314,29.051,29.051,0,0,0-2.392-3.917,25.463,25.463,0,0,1,11.584,5.98Zm-29.9-11.177c-.49-.144-1-.239-1.5-.347a13.754,13.754,0,0,1,2.876-.676c-.449.329-.891.676-1.352,1.023Zm-4.455,3.714a30.953,30.953,0,0,0-7.649,12.14c-.425.759-.825,1.525-1.2,2.308-2.171-.9-4.132-.155-5.831,1.513a35.881,35.881,0,0,1,10.86-15.955,20.392,20.392,0,0,1,3.815-.006ZM9.282,64.131l-.227-.269V63.8C9.133,63.909,9.2,64.023,9.282,64.131Zm19.232,6.775c.084.628.179,1.25.323,1.86-.6-.425-1.232-.861-1.794-1.346a12.787,12.787,0,0,0,1.471-.514Zm3.977.963a13.1,13.1,0,0,1-.508-3.08c.155-.144.3-.293.443-.449a17.659,17.659,0,0,0,1.83,2.619,27.676,27.676,0,0,0,6.71,5.675,24.393,24.393,0,0,1-6.931-1.25,16.822,16.822,0,0,1-1.543-3.516ZM84.076,52.278a12.738,12.738,0,0,0-2.87-6.793,31.462,31.462,0,0,0-.783-4.336A19.136,19.136,0,0,0,78.628,26.3a26.594,26.594,0,0,1,8.892,1,16.834,16.834,0,0,1,8.9,5.884A57.619,57.619,0,0,1,84.082,63.479,44.917,44.917,0,0,0,84.076,52.278ZM88.561,8.025c6.578,4.306,8.133,12.965,8.145,20.332a25.757,25.757,0,0,0-8.121-4.916,24.985,24.985,0,0,0-12.851-1.2,30.612,30.612,0,0,0-19.22-9.819,21.014,21.014,0,0,0-4.078-2.709,77.347,77.347,0,0,1,8.3-3.5C69.52,3.1,80.536,2.744,88.561,7.995ZM39.889,7.953c.209.048.395.132.6.185a22.126,22.126,0,0,0-4.186,1.3,23.675,23.675,0,0,0-3.289,1.746C18.749,12.612,7.865,27.508,4.5,40.306a64.11,64.11,0,0,1,1.656-6.877C10.538,18.783,23.144,3.839,39.889,7.953ZM3.756,47.488A31.7,31.7,0,0,0,5.85,57.726c0,.245-.054.484-.072.73a21.206,21.206,0,0,1-.909-2.44,28.394,28.394,0,0,1-1.112-8.528ZM28.873,94.868C17.457,92.094,11.7,79.972,9.665,69.549c-.03-.126-.042-.269-.066-.395A15.193,15.193,0,0,0,21.93,71.947a21.529,21.529,0,0,0,8.438,6.237c.377.149.748.221,1.118.359.072.1.126.209.2.311A29.9,29.9,0,0,0,49.367,89.7c-5.89,4.545-13.079,6.961-20.506,5.167ZM57.38,86.741a45.5,45.5,0,0,0,3.492-4.832c.443-.126.879-.257,1.322-.425.562-.215,1.076-.52,1.615-.777a20.108,20.108,0,0,0,1.244,2.458,16.326,16.326,0,0,0,1.2,1.6,27.18,27.18,0,0,1-3.1,1.1,24.273,24.273,0,0,1-5.783.879Zm36.1-17.869c-3.134,5.926-7.493,11.679-13.36,15.088a8.162,8.162,0,0,1-6.285,1.1c4.216-3.14,7.057-8.324,8.719-14.011a50.228,50.228,0,0,0,3.7-3.851c5.3-6.148,10.6-16.7,13.156-27.628,2.219,9.359-1.818,21.493-5.938,29.3Z" transform="translate(230.48 137.19)" fill="#231f20" stroke="#51efde" stroke-width="2"/>
          </g>
        </g>
      </g>
      <g id="Layer_2-3" data-name="Layer 2" transform="translate(14843.537 5953.748)">
        <g id="Layer_5_copy-3" data-name="Layer 5 copy" transform="translate(0 0)">
          <g transform="matrix(1, 0, 0, 1, -110.75, -144.68)" filter="url(#Path_26837-2)">
            <path id="Path_26837-4" data-name="Path 26837" d="M100.6,33.046c1.692-13.354-1.507-26.1-14.627-30.923C73.455-2.476,59.767.885,48.356,7.5,43.71,4.491,37.873,2.99,30.876,3.689,7.984,6.033-5.9,40.664,2.447,60.106a22.545,22.545,0,0,0,3.217,5.322c.73,11.518,5.849,22.659,15.423,29.506,11.434,8.175,23.891,4.186,32.98-4.617a32.592,32.592,0,0,0,15.459-2.8c5.382,3.05,12.062.8,17.295-3.588,9.329-7.774,15.638-21.666,17.014-33.561C104.6,43.78,103.535,37.86,100.6,33.046ZM69.969,82.765A13.563,13.563,0,0,1,67.654,79.6a25.47,25.47,0,0,0,8.294-3.433A18.377,18.377,0,0,1,69.969,82.765ZM52.889,86.556a27.56,27.56,0,0,1-14.95-6.4,30.128,30.128,0,0,0,10.166-.245,15.2,15.2,0,0,0,8.2,2.619,38.031,38.031,0,0,1-3.427,4.031Zm-45.377-38C7.04,41.562,10.072,34.6,13.8,28.9A30.893,30.893,0,0,1,25.542,18.06a42.651,42.651,0,0,0-7.284,15.465C13.307,36.993,9.222,44.534,7.6,49.27,7.584,49.037,7.53,48.786,7.512,48.552ZM78.556,69.226a41.8,41.8,0,0,1-4.114,3.253c-.466.317-.915.544-1.375.813a37.812,37.812,0,0,0,7.493-15.883,62.283,62.283,0,0,1-1.507,9.813C78.939,67.928,78.724,68.568,78.556,69.226ZM19.676,59.2a28.561,28.561,0,0,1-.748-6.5,27.138,27.138,0,0,0,8.546,11.877,17.241,17.241,0,0,1-3.881,3.152A24.022,24.022,0,0,1,19.676,59.2ZM52.626,16.188a24.871,24.871,0,0,1,3.349,6.082l-.173.078h0a30.971,30.971,0,0,0-5.825-5.938C50.832,16.289,51.735,16.224,52.626,16.188ZM25.716,37.31c-1.794,7.4-.879,14.777,4.228,19.5a22.432,22.432,0,0,0,0,3.169c-.155.431-.3.861-.443,1.3a21.989,21.989,0,0,1-2.739-2.488,22.725,22.725,0,0,1-4.635-7.643A20.93,20.93,0,0,1,25.716,37.31Zm11.96,2.99a8.552,8.552,0,0,1,.688-4,26.141,26.141,0,0,0,.46,2.942c-.389.383-.771.759-1.136,1.13a.359.359,0,0,0-.012-.066ZM41.7,31.694a25.476,25.476,0,0,1,7.176-4.383,24.315,24.315,0,0,0-4.623,7.421q-1.2.867-2.332,1.794a19.417,19.417,0,0,1-.221-4.832ZM66.979,58.276c-.03-.179-.078-.347-.108-.526a27.443,27.443,0,0,0,4.365-3.11,25.762,25.762,0,0,1-4.084,8.5A26.762,26.762,0,0,0,66.979,58.276ZM68.42,52.81a29.971,29.971,0,0,1,1.352-2.745A7.445,7.445,0,0,1,72.45,47.2c-.048.6-.078,1.2-.144,1.746a22.174,22.174,0,0,1-3.881,3.863Zm-1.973-4.688a23.752,23.752,0,0,0-1.908,3.433,15.7,15.7,0,0,0-1.513-2c3.588-5.334,4.461-11.6,3.51-17.8A11.093,11.093,0,0,1,68.408,33c2.8,2.326,3.881,6.16,4.1,10.166a12.414,12.414,0,0,0-6.052,4.958ZM36.408,56.96V55.95a1.017,1.017,0,0,1,.066-.257c.167-.221.341-.437.514-.652.55.341,1.118.67,1.7.969-.09.49-.167.975-.227,1.471a13,13,0,0,1-2.057-.52Zm18.186-29.3c.2.341.395.694.6,1.053q-1.794.673-3.588,1.543a16.685,16.685,0,0,1,2.99-2.607Zm8.372,12.451c-.072-.676-.2-1.34-.323-2.009a19.047,19.047,0,0,0-.6-6.632c.215-.126.431-.233.646-.353a27.557,27.557,0,0,1,.263,8.982Zm-8.5,10.968a6.638,6.638,0,0,1-3.636,2.147,20.434,20.434,0,0,1-4.425-4.712c-.066-.1-.132-.221-.2-.323a14.645,14.645,0,0,1,3.3-.861,11.039,11.039,0,0,1,6.237.873C55.335,49.162,54.929,50.131,54.468,51.076Zm3.63-14.95a40.611,40.611,0,0,1-1.423,9.054,18.15,18.15,0,0,0-8.486-1.124,43.876,43.876,0,0,1,9.443-9.646c.173.562.317,1.124.466,1.692Zm-3.457-4.084c-1.2.9-2.29,1.794-3.331,2.739a44.391,44.391,0,0,0-4.366,4.5,26.457,26.457,0,0,1,1.3-3.654,32.7,32.7,0,0,1,6.393-3.606ZM42.556,57.576l.227.066H42.55A.293.293,0,0,0,42.556,57.576Zm-1.292-11.4c-.353.191-.694.407-1.041.6a18.8,18.8,0,0,1-1.256-2.195c.317-.437.658-.891,1.035-1.352A24.281,24.281,0,0,0,41.264,46.178Zm-9.73,3.714c-.275.724-.508,1.453-.724,2.189a16.918,16.918,0,0,1-1.651-6.686,19.663,19.663,0,0,0,2.374,4.5ZM36.1,60.477l.245.1a15.08,15.08,0,0,0,1.967.449,20.793,20.793,0,0,0,.12,2.105,17.189,17.189,0,0,1-2.99.114,20.236,20.236,0,0,0,.658-2.763Zm6.279.921A14.915,14.915,0,0,0,44,61.266a.746.746,0,0,0,.078.239c-.544.245-1.088.478-1.645.67-.018-.257-.048-.52-.054-.777Zm17.7-8.3c.15-.15.323-.287.466-.437a17.5,17.5,0,0,1,1.531,3.217,13.043,13.043,0,0,1-4.862.144A12.457,12.457,0,0,0,60.077,53.1Zm1.6-26.032-.837.126c-.048-.251-.1-.5-.155-.748.293.078.6.179.873.263.042.12.084.239.12.359ZM53.631,59.2A13.671,13.671,0,0,0,62,59.711a42.733,42.733,0,0,0-.736,9.61A36.945,36.945,0,0,1,56.352,72.7,24.979,24.979,0,0,1,49.4,63.73,33.172,33.172,0,0,0,53.631,59.2ZM44.445,17.808a23.023,23.023,0,0,1,5.621,4.132c-4.832-.514-9.263,1.668-11,6.925a21.857,21.857,0,0,0-4.682,7.284c-.066.179-.084.359-.144.538a23.662,23.662,0,0,0-1.9-3.032c-.042-.054-.084-.084-.12-.138a26.315,26.315,0,0,1,.425-2.87,21.529,21.529,0,0,1,2.219-5.837,21.337,21.337,0,0,1,9.586-7Zm-19.734,18.2a19.944,19.944,0,0,0-3.929,9.233,28.292,28.292,0,0,1-.167-4.276,10.671,10.671,0,0,1,3.588-5.1,2.651,2.651,0,0,1,.5.144ZM46.048,66.259a27.892,27.892,0,0,0,6.082,8.456,29.012,29.012,0,0,1-3.11,1.017,18.257,18.257,0,0,1-5.579-8.157,17.894,17.894,0,0,0,2.607-1.316Zm19.645,7.3c5.245-5.077,9.6-12.959,11.871-21.17A38.01,38.01,0,0,1,65.86,74.6C65.783,74.231,65.741,73.884,65.693,73.555ZM59.115,21.319c-.054-.144-.1-.287-.155-.425.072.138.155.263.233.407a.3.3,0,0,0-.072,0Zm-10.77-8.761c-.49.078-.981.185-1.465.3.5-.317.993-.6,1.5-.915a5.815,5.815,0,0,1,.6.532ZM17.128,39.989c-.054.532-.066,1.076-.084,1.615a37.675,37.675,0,0,0-1.5,6.237,33.531,33.531,0,0,0,3.14,19.136C14.27,65.183,11.172,61,9.372,56.422c.8-7.009,3.223-14.155,7.972-18.09C17.254,38.87,17.182,39.468,17.128,39.989ZM39.673,68.562c.15.419.275.843.443,1.262a24.781,24.781,0,0,0,2.147,4.037A14.382,14.382,0,0,1,37.012,68.6,12.737,12.737,0,0,0,39.673,68.562Zm35.39-41.9.233-.03c.257.425.49.861.712,1.3-.281-.431-.628-.855-.945-1.274Zm-3.63-3.48a15.489,15.489,0,0,0-8.372-2.314,29.051,29.051,0,0,0-2.392-3.917,25.463,25.463,0,0,1,11.584,5.98Zm-29.9-11.177c-.49-.144-1-.239-1.5-.347a13.754,13.754,0,0,1,2.876-.676c-.449.329-.891.676-1.352,1.023Zm-4.455,3.714a30.953,30.953,0,0,0-7.649,12.14c-.425.759-.825,1.525-1.2,2.308-2.171-.9-4.132-.155-5.831,1.513a35.881,35.881,0,0,1,10.86-15.955,20.392,20.392,0,0,1,3.815-.006ZM9.282,64.131l-.227-.269V63.8C9.133,63.909,9.2,64.023,9.282,64.131Zm19.232,6.775c.084.628.179,1.25.323,1.86-.6-.425-1.232-.861-1.794-1.346a12.787,12.787,0,0,0,1.471-.514Zm3.977.963a13.1,13.1,0,0,1-.508-3.08c.155-.144.3-.293.443-.449a17.659,17.659,0,0,0,1.83,2.619,27.676,27.676,0,0,0,6.71,5.675,24.393,24.393,0,0,1-6.931-1.25,16.822,16.822,0,0,1-1.543-3.516ZM84.076,52.278a12.738,12.738,0,0,0-2.87-6.793,31.462,31.462,0,0,0-.783-4.336A19.136,19.136,0,0,0,78.628,26.3a26.594,26.594,0,0,1,8.892,1,16.834,16.834,0,0,1,8.9,5.884A57.619,57.619,0,0,1,84.082,63.479,44.917,44.917,0,0,0,84.076,52.278ZM88.561,8.025c6.578,4.306,8.133,12.965,8.145,20.332a25.757,25.757,0,0,0-8.121-4.916,24.985,24.985,0,0,0-12.851-1.2,30.612,30.612,0,0,0-19.22-9.819,21.014,21.014,0,0,0-4.078-2.709,77.347,77.347,0,0,1,8.3-3.5C69.52,3.1,80.536,2.744,88.561,7.995ZM39.889,7.953c.209.048.395.132.6.185a22.126,22.126,0,0,0-4.186,1.3,23.675,23.675,0,0,0-3.289,1.746C18.749,12.612,7.865,27.508,4.5,40.306a64.11,64.11,0,0,1,1.656-6.877C10.538,18.783,23.144,3.839,39.889,7.953ZM3.756,47.488A31.7,31.7,0,0,0,5.85,57.726c0,.245-.054.484-.072.73a21.206,21.206,0,0,1-.909-2.44,28.394,28.394,0,0,1-1.112-8.528ZM28.873,94.868C17.457,92.094,11.7,79.972,9.665,69.549c-.03-.126-.042-.269-.066-.395A15.193,15.193,0,0,0,21.93,71.947a21.529,21.529,0,0,0,8.438,6.237c.377.149.748.221,1.118.359.072.1.126.209.2.311A29.9,29.9,0,0,0,49.367,89.7c-5.89,4.545-13.079,6.961-20.506,5.167ZM57.38,86.741a45.5,45.5,0,0,0,3.492-4.832c.443-.126.879-.257,1.322-.425.562-.215,1.076-.52,1.615-.777a20.108,20.108,0,0,0,1.244,2.458,16.326,16.326,0,0,0,1.2,1.6,27.18,27.18,0,0,1-3.1,1.1,24.273,24.273,0,0,1-5.783.879Zm36.1-17.869c-3.134,5.926-7.493,11.679-13.36,15.088a8.162,8.162,0,0,1-6.285,1.1c4.216-3.14,7.057-8.324,8.719-14.011a50.228,50.228,0,0,0,3.7-3.851c5.3-6.148,10.6-16.7,13.156-27.628,2.219,9.359-1.818,21.493-5.938,29.3Z" transform="translate(110.75 144.68)" fill="#231f20" stroke="#51efde" stroke-width="2"/>
          </g>
        </g>
      </g>
    </g>
    <g transform="matrix(1, 0, 0, 1, 14786.48, 6045.63)" filter="url(#Path_26875)">
      <path id="Path_26875-2" data-name="Path 26875" d="M762.152,52.079V68.24H670.4V52.079H643.287V397.2H788.74V52.079Z" transform="translate(-491.48 298.49)" fill="none" stroke="#a0a0a0" stroke-width="2"/>
    </g>
    <g transform="matrix(1, 0, 0, 1, 14786.48, 6045.63)" filter="url(#Path_26874)">
      <g id="Path_26874-2" data-name="Path 26874" transform="translate(-459.07 236.21)" fill="none">
        <path d="M594.19,315.08V267.639H548.313V315.08h-17.2V458.969h79.764V315.08Z" stroke="none"/>
        <path d="M 550.312744140625 269.6390075683594 L 550.312744140625 315.0800170898438 L 550.312744140625 317.0800170898438 L 548.312744140625 317.0800170898438 L 533.1090087890625 317.0800170898438 L 533.1090087890625 456.9686889648438 L 608.8726806640625 456.9686889648438 L 608.8726806640625 317.0800170898438 L 594.190185546875 317.0800170898438 L 592.190185546875 317.0800170898438 L 592.190185546875 315.0800170898438 L 592.190185546875 269.6390075683594 L 550.312744140625 269.6390075683594 M 548.312744140625 267.6390075683594 L 594.190185546875 267.6390075683594 L 594.190185546875 315.0800170898438 L 610.8726806640625 315.0800170898438 L 610.8726806640625 458.9686889648438 L 531.1090087890625 458.9686889648438 L 531.1090087890625 315.0800170898438 L 548.312744140625 315.0800170898438 L 548.312744140625 267.6390075683594 Z" stroke="none" fill="#a0a0a0"/>
      </g>
    </g>
    <rect id="Rectangle_146358" data-name="Rectangle 146358" width="62.039" height="67.252" transform="translate(14867.381 6674.076)" fill="none" stroke="#a0a0a0" stroke-width="2"/>
    <rect id="Rectangle_146359" data-name="Rectangle 146359" width="9.905" height="67.252" transform="translate(14867.381 6674.076)" opacity="0.1"/>
    <rect id="Rectangle_146360" data-name="Rectangle 146360" width="20.332" height="16.161" transform="translate(15057.147 6396.205)" opacity="0.1"/>
    <rect id="Rectangle_146361" data-name="Rectangle 146361" width="20.332" height="345.124" transform="translate(14938.282 6396.205)" fill="#a0a0a0" opacity="0.19"/>
    <g transform="matrix(1, 0, 0, 1, 14786.48, 6045.63)" filter="url(#Path_26876)">
      <path id="Path_26876-2" data-name="Path 26876" d="M481.916,185.356V172.323H468.361v13.033h-24.5V431.948H505.9V185.356Z" transform="translate(-433.86 263.75)" fill="none" stroke="#a0a0a0" stroke-width="2"/>
    </g>
    <rect id="Rectangle_146362" data-name="Rectangle 146362" width="7.299" height="13.033" transform="translate(14820.982 6481.704)" fill="#a0a0a0" opacity="0.19"/>
    <rect id="Rectangle_146363" data-name="Rectangle 146363" width="7.299" height="246.591" transform="translate(14796.479 6494.737)" fill="#a0a0a0" opacity="0.19"/>
    <rect id="Rectangle_146364" data-name="Rectangle 146364" width="20.332" height="212.183" transform="translate(15057.147 6529.145)" opacity="0.1"/>
    <rect id="Rectangle_146365" data-name="Rectangle 146365" width="18.768" height="45.356" transform="translate(14839.75 6494.737)" fill="#a0a0a0" opacity="0.19"/>
    <rect id="Rectangle_146366" data-name="Rectangle 146366" width="29.195" height="12.512" transform="translate(14960.7 6439.997)" fill="none" stroke="#a0a0a0" stroke-width="1"/>
    <rect id="Rectangle_146367" data-name="Rectangle 146367" width="29.195" height="12.512" transform="translate(14960.878 6467.798)" fill="none" stroke="#a0a0a0" stroke-width="1"/>
    <rect id="Rectangle_146367-2" data-name="Rectangle 146367" width="29.195" height="12.512" transform="translate(15004.963 6467.798)" fill="none" stroke="#a0a0a0" stroke-width="1"/>
    <rect id="Rectangle_146367-3" data-name="Rectangle 146367" width="29.195" height="12.512" transform="translate(15049.048 6467.798)" fill="none" stroke="#a0a0a0" stroke-width="1"/>
    <rect id="Rectangle_146367-4" data-name="Rectangle 146367" width="29.195" height="12.512" transform="translate(14960.878 6494.818)" fill="none" stroke="#a0a0a0" stroke-width="1"/>
    <rect id="Rectangle_146367-5" data-name="Rectangle 146367" width="29.195" height="12.512" transform="translate(15004.963 6494.818)" fill="none" stroke="#a0a0a0" stroke-width="1"/>
    <rect id="Rectangle_146367-6" data-name="Rectangle 146367" width="29.195" height="12.512" transform="translate(15049.048 6494.818)" fill="none" stroke="#a0a0a0" stroke-width="1"/>
    <rect id="Rectangle_146367-7" data-name="Rectangle 146367" width="29.195" height="12.512" transform="translate(14960.878 6521.838)" fill="none" stroke="#a0a0a0" stroke-width="1"/>
    <rect id="Rectangle_146367-8" data-name="Rectangle 146367" width="29.195" height="12.512" transform="translate(15004.963 6521.838)" fill="none" stroke="#a0a0a0" stroke-width="1"/>
    <rect id="Rectangle_146367-9" data-name="Rectangle 146367" width="29.195" height="12.512" transform="translate(15049.048 6521.838)" fill="none" stroke="#a0a0a0" stroke-width="1"/>
    <rect id="Rectangle_146367-10" data-name="Rectangle 146367" width="29.195" height="12.512" transform="translate(14960.878 6548.857)" fill="none" stroke="#a0a0a0" stroke-width="1"/>
    <rect id="Rectangle_146367-11" data-name="Rectangle 146367" width="29.195" height="12.512" transform="translate(15004.963 6548.857)" fill="none" stroke="#a0a0a0" stroke-width="1"/>
    <rect id="Rectangle_146367-12" data-name="Rectangle 146367" width="29.195" height="12.512" transform="translate(15049.048 6548.857)" fill="none" stroke="#a0a0a0" stroke-width="1"/>
    <rect id="Rectangle_146367-13" data-name="Rectangle 146367" width="29.195" height="12.512" transform="translate(14960.878 6575.877)" fill="none" stroke="#a0a0a0" stroke-width="1"/>
    <rect id="Rectangle_146367-14" data-name="Rectangle 146367" width="29.195" height="12.512" transform="translate(15004.963 6575.877)" fill="none" stroke="#a0a0a0" stroke-width="1"/>
    <rect id="Rectangle_146367-15" data-name="Rectangle 146367" width="29.195" height="12.512" transform="translate(15049.048 6575.877)" fill="none" stroke="#a0a0a0" stroke-width="1"/>
    <rect id="Rectangle_146367-16" data-name="Rectangle 146367" width="29.195" height="12.512" transform="translate(14960.878 6602.897)" fill="none" stroke="#a0a0a0" stroke-width="1"/>
    <rect id="Rectangle_146367-17" data-name="Rectangle 146367" width="29.195" height="12.512" transform="translate(15004.963 6602.897)" fill="none" stroke="#a0a0a0" stroke-width="1"/>
    <rect id="Rectangle_146367-18" data-name="Rectangle 146367" width="29.195" height="12.512" transform="translate(15049.048 6602.897)" fill="none" stroke="#a0a0a0" stroke-width="1"/>
    <rect id="Rectangle_146367-19" data-name="Rectangle 146367" width="29.195" height="12.512" transform="translate(14960.878 6629.917)" fill="none" stroke="#a0a0a0" stroke-width="1"/>
    <rect id="Rectangle_146367-20" data-name="Rectangle 146367" width="29.195" height="12.512" transform="translate(15004.963 6629.917)" fill="none" stroke="#a0a0a0" stroke-width="1"/>
    <rect id="Rectangle_146367-21" data-name="Rectangle 146367" width="29.195" height="12.512" transform="translate(15049.048 6629.917)" fill="none" stroke="#a0a0a0" stroke-width="1"/>
    <rect id="Rectangle_146367-22" data-name="Rectangle 146367" width="29.195" height="12.512" transform="translate(15004.963 6656.937)" fill="none" stroke="#a0a0a0" stroke-width="1"/>
    <rect id="Rectangle_146367-23" data-name="Rectangle 146367" width="29.195" height="12.512" transform="translate(15049.048 6656.937)" fill="none" stroke="#a0a0a0" stroke-width="1"/>
    <rect id="Rectangle_146367-24" data-name="Rectangle 146367" width="29.195" height="12.512" transform="translate(14960.878 6683.957)" fill="none" stroke="#a0a0a0" stroke-width="1"/>
    <rect id="Rectangle_146367-25" data-name="Rectangle 146367" width="29.195" height="12.512" transform="translate(15004.963 6683.957)" fill="none" stroke="#a0a0a0" stroke-width="1"/>
    <rect id="Rectangle_146367-26" data-name="Rectangle 146367" width="29.195" height="12.512" transform="translate(15049.048 6683.957)" fill="none" stroke="#a0a0a0" stroke-width="1"/>
    <rect id="Rectangle_146367-27" data-name="Rectangle 146367" width="29.195" height="12.512" transform="translate(14960.878 6710.976)" fill="none" stroke="#a0a0a0" stroke-width="1"/>
    <rect id="Rectangle_146367-28" data-name="Rectangle 146367" width="29.195" height="12.512" transform="translate(15004.963 6710.976)" fill="none" stroke="#a0a0a0" stroke-width="1"/>
    <rect id="Rectangle_146367-29" data-name="Rectangle 146367" width="29.195" height="12.512" transform="translate(15049.048 6710.976)" fill="none" stroke="#a0a0a0" stroke-width="1"/>
    <rect id="Rectangle_146368" data-name="Rectangle 146368" width="29.195" height="12.512" transform="translate(14960.7 6658.958)" fill="none" stroke="#a0a0a0" stroke-width="1"/>
    <rect id="Rectangle_146369" data-name="Rectangle 146369" width="29.195" height="12.512" transform="translate(14813.162 6551.041)" fill="none" stroke="#a0a0a0" stroke-width="1"/>
    <rect id="Rectangle_146369-2" data-name="Rectangle 146369" width="29.195" height="12.512" transform="translate(14813.162 6578.061)" fill="none" stroke="#a0a0a0" stroke-width="1"/>
    <rect id="Rectangle_146369-3" data-name="Rectangle 146369" width="29.195" height="12.512" transform="translate(14813.162 6605.081)" fill="none" stroke="#a0a0a0" stroke-width="1"/>
    <rect id="Rectangle_146369-4" data-name="Rectangle 146369" width="29.195" height="12.512" transform="translate(14813.162 6632.1)" fill="none" stroke="#a0a0a0" stroke-width="1"/>
    <rect id="Rectangle_146369-5" data-name="Rectangle 146369" width="29.195" height="12.512" transform="translate(14813.162 6659.12)" fill="none" stroke="#a0a0a0" stroke-width="1"/>
    <rect id="Rectangle_146369-6" data-name="Rectangle 146369" width="29.195" height="12.512" transform="translate(14813.162 6686.14)" fill="none" stroke="#a0a0a0" stroke-width="1"/>
    <rect id="Rectangle_146369-7" data-name="Rectangle 146369" width="29.195" height="12.512" transform="translate(14813.162 6713.16)" fill="none" stroke="#a0a0a0" stroke-width="1"/>
    <rect id="Rectangle_146370" data-name="Rectangle 146370" width="41.059" height="17.597" transform="translate(14878.063 6681.375)" fill="none" stroke="#a0a0a0" stroke-width="1"/>
    <rect id="Rectangle_146370-2" data-name="Rectangle 146370" width="41.059" height="17.597" transform="translate(14878.063 6719.375)" fill="none" stroke="#a0a0a0" stroke-width="1"/>
    <rect id="Rectangle_146371" data-name="Rectangle 146371" width="50.048" height="20.853" transform="translate(14873.637 6607.866)" fill="none" stroke="#a0a0a0" stroke-width="1"/>
    <rect id="Rectangle_146371-2" data-name="Rectangle 146371" width="50.048" height="20.853" transform="translate(14873.637 6643.419)" fill="none" stroke="#a0a0a0" stroke-width="1"/>
    <g transform="matrix(1, 0, 0, 1, 14786.48, 6045.63)" filter="url(#Path_26873)">
      <path id="Path_26873-2" data-name="Path 26873" d="M883.821,73.342v27.631H847.849V402.3h75.072V73.342Z" transform="translate(-550.59 292.35)" fill="none" stroke="#a0a0a0" stroke-width="2"/>
    </g>
    <rect id="Rectangle_146372" data-name="Rectangle 146372" width="50.048" height="20.853" transform="translate(15095.961 6462.936)" fill="none" stroke="#a0a0a0" stroke-width="1"/>
    <rect id="Rectangle_146373" data-name="Rectangle 146373" width="50.048" height="20.853" transform="translate(15095.961 6507.249)" fill="none" stroke="#a0a0a0" stroke-width="1"/>
    <rect id="Rectangle_146374" data-name="Rectangle 146374" width="50.048" height="20.853" transform="translate(15095.961 6551.562)" fill="none" stroke="#a0a0a0" stroke-width="1"/>
    <rect id="Rectangle_146375" data-name="Rectangle 146375" width="50.048" height="20.853" transform="translate(15095.961 6595.876)" fill="none" stroke="#a0a0a0" stroke-width="1"/>
    <rect id="Rectangle_146376" data-name="Rectangle 146376" width="50.048" height="20.853" transform="translate(15095.961 6640.189)" fill="none" stroke="#a0a0a0" stroke-width="1"/>
    <rect id="Rectangle_146377" data-name="Rectangle 146377" width="50.048" height="20.853" transform="translate(15095.961 6684.503)" fill="none" stroke="#a0a0a0" stroke-width="1"/>
  </g>
</svg>
