<svg xmlns="http://www.w3.org/2000/svg" xmlns:xlink="http://www.w3.org/1999/xlink" width="364.228" height="421.998" viewBox="0 0 364.228 421.998">
  <defs>
    <filter id="Path_26837" x="183.621" y="157.855" width="145.183" height="139.693" filterUnits="userSpaceOnUse">
      <feOffset dy="3" input="SourceAlpha"/>
      <feGaussianBlur stdDeviation="3" result="blur"/>
      <feFlood flood-color="#51efde"/>
      <feComposite operator="in" in2="blur"/>
      <feComposite in="SourceGraphic"/>
    </filter>
    <filter id="Path_26837-2" x="39.621" y="166.855" width="145.183" height="139.693" filterUnits="userSpaceOnUse">
      <feOffset dy="3" input="SourceAlpha"/>
      <feGaussianBlur stdDeviation="3" result="blur-2"/>
      <feFlood flood-color="#51efde"/>
      <feComposite operator="in" in2="blur-2"/>
      <feComposite in="SourceGraphic"/>
    </filter>
  </defs>
  <g id="HR" transform="translate(-14802.271 -5809.072)">
    <g id="Layer_2" data-name="Layer 2" transform="translate(14802.266 5809.074)">
      <g id="Layer_5_copy" data-name="Layer 5 copy" transform="translate(0.006 -0.002)">
        <path id="Path_26780" data-name="Path 26780" d="M277.142,679.857c-1.585-2.038-4.78-2.038-5.641.739-2.757,8.9-1.019,19.119-.484,28.327.637,10.747,1.335,21.494,1.8,32.251-5.7,1.427-11.537,3.465-15.98,6.828-1.345,1.019-1.977,3.567,0,4.449,7.858,3.45,17.524,2.329,25.749.7,4.077-.815,5.427-4.163,4.821-7.323a7.17,7.17,0,0,0,.866-3.908C287.389,723.553,288.918,695.114,277.142,679.857Z" transform="translate(-125.348 -332.71)" fill="#51efde"/>
        <path id="Path_26781" data-name="Path 26781" d="M455.406,743.6a68.038,68.038,0,0,1-7.684-2.711,21.2,21.2,0,0,0-6.859-1.687c.382-10.191-1.07-20.918-1.692-30.941-.55-8.882.367-17.672-5.34-24.862a3.285,3.285,0,0,0-4.678,0c-5.728,7.221-4.749,15.939-5.06,24.862-.428,12.276-.647,26.671,3.679,38.294a8.821,8.821,0,0,0,.887,1.748c.606,4.077,4.051,6.579,8.107,6.971,6.752.657,12.311-1.412,18.64-3.536a4.255,4.255,0,0,0,0-8.138Z" transform="translate(-207.884 -334.677)" fill="#51efde"/>
        <path id="Path_26782" data-name="Path 26782" d="M574.978,1.283C564.277-5.423,553.765,16,551.609,22.145c-19.129,54.524-53.378,98.775-67.37,113.15-10.89,11.211,50.957,63.7,64.068,36.282,9.962-20.892,34.345-63.544,39.925-131.062C589.364,26.848,587.794,9.3,574.978,1.283Z" transform="translate(-236.86 0.002)" fill="#51efde"/>
        <path id="Path_26783" data-name="Path 26783" d="M130.7,151.64C96.39,122.594,69.806,49.261,56.154,29.7c-5.264-7.542-30.88-26.258-33.78,27.573C20.174,98,30.813,137.03,50,172.945c4.3,8.061,10.191,17.1,18.125,21.871C84.212,204.518,142.445,161.561,130.7,151.64Z" transform="translate(-10.836 -9.978)" fill="#51efde"/>
        <path id="Path_26784" data-name="Path 26784" d="M353.57,305.023C330.669,263.442,281,248.659,237.2,242.911c-50.641-6.624-107.78-1.121-151.99,26.09a129.391,129.391,0,0,0-31.721,27.232c-1.564,1.712-3.108,3.46-4.586,5.284-20.959,25.835-28.225,60.282-17.325,91.82,5.947,17.178,16.928,31.94,30.335,44.231-.851,5.32-1.432,10.992.948,15.8.555,1.131,2.375,2.721,3.817,2.721,2.843,0,5.57-6.359,6.161-.051.224,2.405.754,11.486,5.269,10.732,2.038-.341,2.731-2.247,3.674-3.949,1.33-2.4.51-2.263,1.595.051.82,1.758,1.676,3.491,2.589,5.2s3.954,7.134,6.879,5.508c4.423-2.441,2.777-8.724,1.682-12.892,1.361.749,2.721,1.493,4.077,2.206,56.491,29.331,134.894,24.312,191.762-1.121.739-.326,1.457-.7,2.186-1.019a4.9,4.9,0,0,1-.082.586c-.321,2.828-1.931,13.147,3.852,12.3,4.719-.688,5.641-8.969,6.925-12.464,2.334-6.359,3.277,1.162,3.822,3.679.459,2.12,2.7,2.772,4.561,2.257,2.329-.642,3.057-4.51,3.623-6.39s1.019-3.924,1.529-5.875c.178-.775.362-1.529.55-2.313.076-.316,3.328-8.846,4.973-3.17,1.61,5.559,5.748,3.567,8.551-.673,3.648-5.534,3.2-12.877,3.567-19.669C364.2,395.217,376.607,346.848,353.57,305.023Z" transform="translate(-13.021 -117.881)" fill="#f5f5f5"/>
        <path id="Path_26785" data-name="Path 26785" d="M86.337,261.55c7.2-5.177,13.932-10.385,21.84-14.508,7.679-3.99,16.031-6.421,23.69-10.482.51-.28.132-.978-.382-.9-16.22,2.66-36.011,11.547-45.658,25.377-.2.3.209.713.51.51Z" transform="translate(-42.069 -115.572)" fill="#231f20"/>
        <path id="Path_26786" data-name="Path 26786" d="M78.7,214.363c4.841-2.777,9.57-5.666,14.625-8.046,5.957-2.8,12.133-4.586,17.652-8.189.438-.28.311-1.09-.285-1.05-11.5.846-25.214,7.644-32.348,16.816-.194.25.046.637.357.464Z" transform="translate(-38.39 -96.651)" fill="#231f20"/>
        <path id="Path_26787" data-name="Path 26787" d="M69.353,168.275c3.939-1.967,7.644-4.184,11.751-5.8,4-1.569,7.954-2.39,11.756-4.408.423-.224.178-.78-.224-.826-8.2-.871-18.91,3.72-23.919,10.4C68.41,168.046,68.976,168.464,69.353,168.275Z" transform="translate(-33.66 -77.061)" fill="#231f20"/>
        <path id="Path_26788" data-name="Path 26788" d="M60.193,121.662c2.441-1.529,4.968-2.889,7.542-4.163,2.7-1.335,6.018-1.86,7.868-4.367.408-.555-.168-1.152-.7-1.218-3.012-.392-6.069,1.712-8.663,3.057-2.741,1.417-5.31,3.3-6.563,6.2-.132.311.158.718.51.51Z" transform="translate(-29.255 -54.861)" fill="#231f20"/>
        <path id="Path_26789" data-name="Path 26789" d="M60.21,90.61c3.124-1.962,7.083-2.069,10.319-3.71a.535.535,0,0,0,0-.927c-2.038-.912-3.949-.51-5.972.214a9.574,9.574,0,0,0-4.744,4.021C59.634,90.452,59.975,90.762,60.21,90.61Z" transform="translate(-29.312 -41.904)" fill="#231f20"/>
        <path id="Path_26790" data-name="Path 26790" d="M538.516,238.162c5.417,2.094,11.058,3.455,16.515,5.447,5.947,2.176,11.618,6.558,17.835,7.567a.719.719,0,0,0,.693-1.187c-6.91-8.729-24.459-12.337-35-12.26a.219.219,0,0,0-.061.433Z" transform="translate(-264.013 -116.587)" fill="#231f20"/>
        <path id="Path_26791" data-name="Path 26791" d="M565.776,205.354a74.4,74.4,0,0,1,16.714,4.214c5.2,2.038,10.609,6.426,16.362,6.115a.744.744,0,0,0,.51-1.254c-3.664-4.423-10.66-6.324-15.909-8.4a31.756,31.756,0,0,0-17.7-1.84c-.545.112-.576,1.05,0,1.131Z" transform="translate(-277.259 -99.872)" fill="#231f20"/>
        <path id="Path_26792" data-name="Path 26792" d="M592.131,184.239c2.925,1.722,6.431,2.5,9.651,3.5,3.485,1.09,7.231,3.837,10.915,3.8a.576.576,0,0,0,.545-.718c-.8-3.659-5.121-4.79-8.27-5.738a37.856,37.856,0,0,0-12.658-1.529.372.372,0,0,0-.183.688Z" transform="translate(-290.314 -89.998)" fill="#231f20"/>
        <path id="Path_26793" data-name="Path 26793" d="M604.553,145.059a73.726,73.726,0,0,1,15.119,3.924c3.842,1.452,7.644,5.04,11.837,4.342.545-.092.652-.734.469-1.152-1.727-3.934-7.526-5.32-11.312-6.808a26.192,26.192,0,0,0-16.113-.968c-.311.082-.346.611,0,.662Z" transform="translate(-296.372 -70.405)" fill="#231f20"/>
        <path id="Path_26794" data-name="Path 26794" d="M626.125,126.755c4.7.9,10.293,3.669,15.119,2.548a.51.51,0,0,0,.229-.861c-3.567-4.031-10.655-3.057-15.348-2.293a.321.321,0,0,0,0,.611Z" transform="translate(-306.963 -61.528)" fill="#231f20"/>
        <path id="Path_26795" data-name="Path 26795" d="M633.828,72.2c2.655.255,5.33.933,7.949,1.427,1.284.245,2.517.683,3.781.989a26.2,26.2,0,0,0,3.164.061c.459.056.662-.591.367-.882-1.121-1.08-1.671-1.987-3.129-2.619a17.406,17.406,0,0,0-4.229-1.019,14.612,14.612,0,0,0-8.005,1.259.392.392,0,0,0,.1.769Z" transform="translate(-310.661 -34.336)" fill="#231f20"/>
        <path id="Path_26796" data-name="Path 26796" d="M98.923,406.718c1.019-2.038,1.763-4.168,2.645-6.258.107-.26-.2-.571-.423-.326A10.614,10.614,0,0,0,98.49,406.6a.234.234,0,0,0,.433.122Z" transform="translate(-48.305 -196.193)" fill="#fff"/>
        <path id="Path_26797" data-name="Path 26797" d="M577.671,542.018c-1.748,1.233-4.015,1.926-5.605,3.312a.122.122,0,0,0,.087.209c1.885.163,3.893-1.223,5.427-2.186a24.572,24.572,0,0,0,5.677-4.861c.127-.153-.036-.408-.219-.291C581.187,539.373,579.464,540.754,577.671,542.018Z" transform="translate(-280.542 -263.933)" fill="#fff"/>
        <path id="Path_26798" data-name="Path 26798" d="M209.711,434.974c13.85-19.4,16.6-45.637-2.1-67.518-17.7-20.719-48.919-31.548-74.657-19.5a59.024,59.024,0,0,0-23.98,20.678c-11.491,14.222-15.659,33.744-10.467,52.72a52.812,52.812,0,0,0,21.05,29.316,48.634,48.634,0,0,0,38.406,12.107,62.945,62.945,0,0,0,33.2-10.191c-21.876,21.219-49.469,16.357-74.606,4.744-.189-.087-.423.158-.234.311,23.145,18.6,52.486,17.122,75.575-.775A66.808,66.808,0,0,0,209.711,434.974Zm-9.86,4.953c14.115-18.2,16.4-39.747,8.576-61.077-.051-.138.148-.2.224-.092,12.525,17.127,7.853,48.262-8.153,61.826a.464.464,0,0,1-.647-.657Zm-54.9-88.1c.341,0,.51.535.183.683-7.083,3.006-14.416,5.264-20.419,10.324a47.426,47.426,0,0,0-14.38,20.566.418.418,0,0,1-.805-.219C112.418,367.5,128.444,351.985,144.949,351.827Zm24.22,102.689c-22.773,7.221-56.664-4.922-62.942-29.856a.321.321,0,0,1,.581-.245c14.161,23.236,36.256,29.407,62.27,29.428a.347.347,0,0,1,.092.673Zm9.244-1.814c-.82,1.5-4.077,2.038-5.514,1.35a.545.545,0,0,1,0-.933,14.346,14.346,0,0,1,3.057-.805,2.93,2.93,0,0,1,2.359-.051.321.321,0,0,1,.1.438Z" transform="translate(-47.232 -168.181)" fill="#100725"/>
        <path id="Path_26799" data-name="Path 26799" d="M295.074,531.482c-3.205,6.314-6.691,12.276-11.69,17.371-5.32,5.432-11.868,8.428-18.447,11.939-.112.061-.036.224.087.2,14.146-3.154,26.386-15.649,30.544-29.3C295.654,531.4,295.211,531.207,295.074,531.482Z" transform="translate(-129.909 -260.588)" fill="#fff"/>
        <path id="Path_26800" data-name="Path 26800" d="M88.227,489.035c-4.077-8.663-4.78-17.555-6.237-26.854-.031-.209-.316-.127-.336.046-2.2,18.08,8.041,40.256,23.135,50.325.321.214.652-.255.4-.51C98.378,504.959,92.411,498.014,88.227,489.035Z" transform="translate(-39.902 -226.604)" fill="#fff"/>
        <path id="Path_26801" data-name="Path 26801" d="M472.992,566.233a.27.27,0,0,0,0-.51c-16.658-1.809-30.88-2.8-45.4-12a.133.133,0,0,0-.163.209C437.821,565.214,458.55,567.609,472.992,566.233Z" transform="translate(-209.602 -271.547)" fill="#fff"/>
        <path id="Path_26802" data-name="Path 26802" d="M488.48,348.384c-39.935-49.938-121.543-9.529-105.293,52.038a55.761,55.761,0,0,0,3.74,10.064c4.209,15.435,14.548,28.679,31.033,34.4,17.055,5.926,41.041,7.455,57.281-1.758a.28.28,0,0,0-.2-.51c-14.513,4.994-31.971,4.586-46.631.861A46.08,46.08,0,0,1,408.7,433.421a59.505,59.505,0,0,0,14.018,5.666c.153.056.3.127.453.183,23.884,8.714,49.016,3.735,66.484-14.981C510.239,402.24,506.081,370.423,488.48,348.384Zm-94.663,11.109c-.275.311-.693-.082-.535-.413,7.134-15.165,25.947-26.8,42.631-26.64a.418.418,0,0,1,.107.82c-8.714,2.726-17.55,4.474-25.234,9.763-6.721,4.642-11.623,10.456-16.969,16.49Zm63.875,76.156c-16.429,4.342-41.1,2.471-52.792-11.4-.168-.2.051-.54.3-.382,17.111,10.66,32.908,10.94,52.4,11.1a.347.347,0,0,1,.092.678Zm24.128-9.682c-.341.234-.662-.26-.418-.535,13.922-16.1,16.26-31.41,15.364-52.022a.3.3,0,0,1,.581-.081c5.06,17.922.555,41.6-15.527,52.613Z" transform="translate(-186.893 -159.841)" fill="#100725"/>
        <path id="Path_26803" data-name="Path 26803" d="M106.1,361.813c7.644-12.663,18.854-21.484,32.613-26.712,16-6.069,30.574-3.592,46.371,1.172.3.087.423-.311.194-.469-24.307-16.964-68.833-.815-79.427,25.912C105.817,361.848,106.025,361.925,106.1,361.813Z" transform="translate(-51.912 -161.275)" fill="#fff"/>
        <path id="Path_26804" data-name="Path 26804" d="M587,342.633c-.285-.133-.627.229-.357.464a68.481,68.481,0,0,1,20.74,71.809.392.392,0,0,0,.713.306C620.221,393.824,610.351,353.507,587,342.633Z" transform="translate(-287.662 -168.022)" fill="#fff"/>
        <path id="Path_26805" data-name="Path 26805" d="M618.637,492.538a50.84,50.84,0,0,1-2.594,4.917c-1.1,1.758-2.548,3.266-3.654,5.024a.219.219,0,0,0,.3.3,16.045,16.045,0,0,0,6.4-10.054C619.126,492.477,618.77,492.268,618.637,492.538Z" transform="translate(-300.321 -241.491)" fill="#fff"/>
        <path id="Path_26806" data-name="Path 26806" d="M418.555,328.109c-.143.2.163.418.326.255,15.542-15.537,34.6-17.723,55.151-12.836a.392.392,0,0,0,.3-.719C457.053,305.412,429.852,312.363,418.555,328.109Z" transform="translate(-205.256 -152.305)" fill="#fff"/>
        <path id="Path_26807" data-name="Path 26807" d="M379.026,613.584c-28.663-2.8-57.882-2.14-86.627-1.457-23.512.555-51.722-.831-74.214,6.94-.571.2-.51,1.152.153,1.111,6.426-.392,12.872-.7,19.323-.953a15.4,15.4,0,0,0,.413,4.036,50.632,50.632,0,0,0,2.247,7.282c.734,1.982,4.015,3.1,5.1.668,1.748-3.985,2.324-8.112,3.108-12.352,14.625-.469,29.27-.78,43.854-1.259,17.983-.581,36.042.081,54.06,0a65.388,65.388,0,0,0,1.294,11.654,2.383,2.383,0,0,0,3.964,1.05c2.956-3.6,3.771-8.311,4.275-12.836,7.7-.168,15.384-.51,23.053-1.238a1.325,1.325,0,0,0,0-2.645Z" transform="translate(-106.816 -299.911)" fill="#fff"/>
        <path id="Path_26865" data-name="Path 26865" d="M379.026,613.584c-28.663-2.8-57.882-2.14-86.627-1.457-23.512.555-51.722-.831-74.214,6.94-.571.2-.51,1.152.153,1.111,6.426-.392,12.872-.7,19.323-.953a15.4,15.4,0,0,0,.413,4.036,50.632,50.632,0,0,0,2.247,7.282c.734,1.982,4.015,3.1,5.1.668,1.748-3.985,2.324-8.112,3.108-12.352,14.625-.469,29.27-.78,43.854-1.259,17.983-.581,36.042.081,54.06,0a65.388,65.388,0,0,0,1.294,11.654,2.383,2.383,0,0,0,3.964,1.05c2.956-3.6,3.771-8.311,4.275-12.836,7.7-.168,15.384-.51,23.053-1.238a1.325,1.325,0,0,0,0-2.645Z" transform="translate(-125.161 -295.834)" fill="#272727"/>
        <path id="Path_26808" data-name="Path 26808" d="M350.907,305.278a.443.443,0,0,0,.851,0c1.8-5.835,1.355-12.1,1.432-18.146.071-5.87,1.967-12.673.112-18.289a.968.968,0,0,0-1.748-.224c-3.266,4.413-2.6,10.6-2.629,15.883C348.894,291.31,348.792,298.694,350.907,305.278Z" transform="translate(-171.107 -131.513)" fill="#fff"/>
        <path id="Path_26809" data-name="Path 26809" d="M371.875,311.469a57.2,57.2,0,0,0,3.857-10.477c1.131-3.934,2.507-7.363,1.61-11.455-.163-.724-1.045-.662-1.412-.183-2.441,3.164-3.057,6.762-4.077,10.569-1.07,4.031-1.682,7.3-1.019,11.409a.586.586,0,0,0,1.04.138Z" transform="translate(-181.736 -141.729)" fill="#fff"/>
        <path id="Path_26810" data-name="Path 26810" d="M391.528,306.389c3.44-2.986,5.937-6.828,8.734-10.405a59.01,59.01,0,0,0,7.8-12.016.775.775,0,0,0-1.213-.938c-6.309,5.8-14.732,14.1-16.118,22.9a.51.51,0,0,0,.8.464Z" transform="translate(-191.626 -138.698)" fill="#fff"/>
        <path id="Path_26811" data-name="Path 26811" d="M323.1,314.031c.27.25.861.2.922-.245.535-3.9-.805-8.01-1.315-11.878-.474-3.623-1.045-7.6-3.159-10.66-.392-.566-1.468-.612-1.615.209-.652,3.674.107,7.368.662,11.007C319.182,306.332,320.089,311.3,323.1,314.031Z" transform="translate(-155.8 -142.631)" fill="#fff"/>
        <path id="Path_26812" data-name="Path 26812" d="M268.442,296.425c3.715,3.771,7.674,9.5,12.546,11.72.25.112.647,0,.612-.346-.566-5.182-5.463-9.565-8.765-13.249-4.214-4.714-9.172-9.519-14.823-12.4a.668.668,0,0,0-.907.9C259.83,288.313,264.324,292.226,268.442,296.425Z" transform="translate(-126.055 -138.335)" fill="#fff"/>
        <path id="Path_26813" data-name="Path 26813" d="M21.741,356.554C-3.62,390.1-10.326,446.03,20.9,478.51c.347.362.846-.1.652-.51-9.1-19.486-17.978-35.67-18.487-57.816-.606-23.022,9.6-43.181,19.1-63.381a.246.246,0,0,0-.423-.25Z" transform="translate(-0.006 -174.804)" fill="#231f20"/>
        <path id="Path_26814" data-name="Path 26814" d="M654.678,310.672c21.249,25.479,29.448,50.473,26.452,83.57-.051.6.846.673,1.019.138,9.264-29.555-2.92-65.067-26.839-84.329a.443.443,0,0,0-.627.622Z" transform="translate(-321.029 -152.006)" fill="#231f20"/>
        <path id="Path_26815" data-name="Path 26815" d="M123.849,56.663c7.134,17.188,16.561,33.53,25.851,49.627,7.781,13.5,16,28.388,27.456,39.089a.545.545,0,0,0,.846-.657c-7.374-13.891-17.55-26.437-25.55-40.042-9.417-16.011-17.392-32.974-27.889-48.323-.234-.341-.9-.127-.713.306Z" transform="translate(-60.727 -27.556)" fill="#231f20"/>
        <path id="Path_26816" data-name="Path 26816" d="M676.17,316.724c1.442,2.548,4.046,4.515,5.748,6.925,1.962,2.8,3.353,5.911,5.208,8.77a.443.443,0,0,0,.82-.224c-.087-3.74-1.947-6.686-4.041-9.707-1.631-2.349-4.286-5.835-7.266-6.37a.418.418,0,0,0-.469.606Z" transform="translate(-331.59 -155.026)" fill="#231f20"/>
        <path id="Path_26817" data-name="Path 26817" d="M546.251,25.757C541.171,43.806,534.388,60.006,524.2,75.8c-9.03,13.952-20.342,26.268-29.83,39.9-.377.545.433,1.1.887.683,24.521-22.569,50.076-55.976,51.671-90.556a.347.347,0,0,0-.673-.092Z" transform="translate(-242.407 -12.508)" fill="#231f20"/>
        <path id="Path_26818" data-name="Path 26818" d="M10.7,202.355c-.933,18.941,8.489,41.994,19.664,57.072.331.454,1.218.2.983-.413-3.3-8.581-7.888-16.587-11.353-25.127-4.158-10.278-5.605-21.1-8.775-31.593a.27.27,0,0,0-.51.076Z" transform="translate(-5.219 -99.135)" fill="#231f20"/>
        <path id="Path_26819" data-name="Path 26819" d="M672.328,188.8c-2.247,4.846-2.93,10.472-4.189,15.644-1.473,6.059-4.306,11.5-6.436,17.325-.163.448.438.7.739.433,7.9-7.134,10.946-23.028,10.436-33.239,0-.27-.418-.433-.55-.148Z" transform="translate(-324.507 -92.526)" fill="#231f20"/>
        <path id="Path_26820" data-name="Path 26820" d="M684.017,174.793a7.66,7.66,0,0,0,1.422-1.631,9.994,9.994,0,0,0,.673-2.329c.285-1.32.606-2.92-.443-3.964a.51.51,0,0,0-.693,0c-.932.876-.851,2.181-1.019,3.368a16.477,16.477,0,0,1-.464,2.1,15.281,15.281,0,0,0-.1,2.094c-.051.331.341.657.617.357Z" transform="translate(-335.157 -81.77)" fill="#231f20"/>
        <path id="Path_26821" data-name="Path 26821" d="M44.6,601.275c-.041,1.748,1.019,3.231,2.038,4.545,1.111,1.411,2.089,3.006,3.959,3.236a.464.464,0,0,0,.469-.464c-.189-1.57-1.213-2.288-2.293-3.373-1.315-1.31-2.354-2.894-3.73-4.133a.27.27,0,0,0-.459.188Z" transform="translate(-21.866 -294.751)" fill="#231f20"/>
        <path id="Path_26822" data-name="Path 26822" d="M294.182,221.874c10.258-1.9,20.092-3.8,30.574-3.878,9.142-.076,18.243,1.468,27.369,1.019a.51.51,0,0,0,.127-.963c-16.271-5.8-43.416-6.548-58.254,3.419a.219.219,0,0,0,.168.4Z" transform="translate(-144.131 -104.855)" fill="#231f20"/>
        <path id="Path_26823" data-name="Path 26823" d="M416.8,224.33a9.315,9.315,0,0,0,3.633.882c1.162.107,2.319.576,3.246-.321a.535.535,0,0,0,.148-.545c-.871-2.293-5.32-1.631-7.027-.734a.418.418,0,0,0,0,.718Z" transform="translate(-204.315 -109.258)" fill="#231f20"/>
        <g id="Group_73498" data-name="Group 73498" transform="translate(130.969 136.648)">
          <path id="Path_26867" data-name="Path 26867" d="M350.907,305.278a.443.443,0,0,0,.851,0c1.8-5.835,1.355-12.1,1.432-18.146.071-5.87,1.967-12.673.112-18.289a.968.968,0,0,0-1.748-.224c-3.266,4.413-2.6,10.6-2.629,15.883C348.894,291.31,348.792,298.694,350.907,305.278Z" transform="translate(-302.077 -268.161)" fill="#272727"/>
          <path id="Path_26868" data-name="Path 26868" d="M371.875,311.469a57.2,57.2,0,0,0,3.857-10.477c1.131-3.934,2.507-7.363,1.61-11.455-.163-.724-1.045-.662-1.412-.183-2.441,3.164-3.057,6.762-4.077,10.569-1.07,4.031-1.682,7.3-1.019,11.409a.586.586,0,0,0,1.04.138Z" transform="translate(-312.706 -278.378)" fill="#272727"/>
          <path id="Path_26869" data-name="Path 26869" d="M391.528,306.389c3.44-2.986,5.937-6.828,8.734-10.405a59.01,59.01,0,0,0,7.8-12.016.775.775,0,0,0-1.213-.938c-6.309,5.8-14.732,14.1-16.118,22.9a.51.51,0,0,0,.8.464Z" transform="translate(-322.595 -275.347)" fill="#272727"/>
          <path id="Path_26870" data-name="Path 26870" d="M323.1,314.031c.27.25.861.2.922-.245.535-3.9-.805-8.01-1.315-11.878-.474-3.623-1.045-7.6-3.159-10.66-.392-.566-1.468-.612-1.615.209-.652,3.674.107,7.368.662,11.007C319.182,306.332,320.089,311.3,323.1,314.031Z" transform="translate(-286.77 -279.279)" fill="#272727"/>
          <path id="Path_26871" data-name="Path 26871" d="M268.442,296.425c3.715,3.771,7.674,9.5,12.546,11.72.25.112.647,0,.612-.346-.566-5.182-5.463-9.565-8.765-13.249-4.214-4.714-9.172-9.519-14.823-12.4a.668.668,0,0,0-.907.9C259.83,288.313,264.324,292.226,268.442,296.425Z" transform="translate(-257.025 -274.983)" fill="#272727"/>
        </g>
      </g>
    </g>
    <g id="Layer_2-2" data-name="Layer 2" transform="translate(14995.898 5974.073)">
      <g id="Layer_5_copy-2" data-name="Layer 5 copy" transform="translate(0.002 -0.001)">
        <g transform="matrix(1, 0, 0, 1, -193.63, -165)" filter="url(#Path_26837)">
          <path id="Path_26837-3" data-name="Path 26837" d="M120.989,39.744c2.035-16.06-1.812-31.394-17.592-37.191C88.343-2.978,71.88,1.064,58.157,9.026,52.569,5.4,45.549,3.6,37.134,4.437,9.6,7.257-7.091,48.907,2.942,72.289a27.115,27.115,0,0,0,3.869,6.4c.877,13.852,7.034,27.251,18.549,35.486,13.752,9.832,28.733,5.035,39.665-5.552a39.2,39.2,0,0,0,18.592-3.373c6.473,3.668,14.507.957,20.8-4.315,11.22-9.35,18.808-26.057,20.462-40.363C125.8,52.654,124.52,45.534,120.989,39.744ZM84.15,99.54a16.312,16.312,0,0,1-2.783-3.812A30.632,30.632,0,0,0,91.342,91.6,22.1,22.1,0,0,1,84.15,99.54ZM63.609,104.1a33.146,33.146,0,0,1-17.981-7.7A36.235,36.235,0,0,0,57.855,96.1a18.276,18.276,0,0,0,9.861,3.15,45.739,45.739,0,0,1-4.121,4.848ZM9.034,58.393c-.568-8.408,3.078-16.779,7.559-23.634A37.155,37.155,0,0,1,30.719,21.72a51.3,51.3,0,0,0-8.76,18.6C16,44.491,11.091,53.56,9.142,59.257,9.12,58.976,9.056,58.674,9.034,58.393ZM94.478,83.257A50.276,50.276,0,0,1,89.53,87.17c-.561.381-1.1.654-1.654.978a45.476,45.476,0,0,0,9.012-19.1,74.906,74.906,0,0,1-1.812,11.8C94.938,81.7,94.679,82.466,94.478,83.257ZM23.663,71.2a34.35,34.35,0,0,1-.9-7.818A32.638,32.638,0,0,0,33.042,77.669a20.735,20.735,0,0,1-4.668,3.79A28.891,28.891,0,0,1,23.663,71.2ZM63.292,19.469a29.912,29.912,0,0,1,4.028,7.315l-.209.093h0a37.248,37.248,0,0,0-7.005-7.142C61.135,19.591,62.221,19.512,63.292,19.469Zm-32.365,25.4c-2.158,8.9-1.057,17.772,5.085,23.454a26.978,26.978,0,0,0,0,3.812c-.187.518-.367,1.036-.532,1.561a26.446,26.446,0,0,1-3.294-2.992,27.331,27.331,0,0,1-5.574-9.192,25.173,25.173,0,0,1,4.315-16.643Zm14.384,3.6a10.285,10.285,0,0,1,.827-4.812,31.44,31.44,0,0,0,.554,3.539c-.467.46-.928.913-1.367,1.359a.432.432,0,0,0-.014-.079Zm4.84-10.35a30.639,30.639,0,0,1,8.631-5.272,29.244,29.244,0,0,0-5.56,8.926q-1.438,1.043-2.8,2.158a23.353,23.353,0,0,1-.266-5.811Zm30.4,31.97c-.036-.216-.093-.417-.129-.633a33.005,33.005,0,0,0,5.25-3.74,30.984,30.984,0,0,1-4.912,10.22A32.187,32.187,0,0,0,80.554,70.088Zm1.733-6.574a36.048,36.048,0,0,1,1.625-3.3,8.954,8.954,0,0,1,3.222-3.445c-.058.719-.093,1.438-.173,2.1a26.669,26.669,0,0,1-4.668,4.646Zm-2.373-5.639A28.567,28.567,0,0,0,77.619,62a18.88,18.88,0,0,0-1.82-2.409c4.315-6.415,5.365-13.953,4.222-21.411a13.342,13.342,0,0,1,2.251,1.5c3.366,2.8,4.668,7.408,4.927,12.227a14.93,14.93,0,0,0-7.279,5.962ZM43.787,68.506V67.29a1.224,1.224,0,0,1,.079-.309c.2-.266.41-.525.619-.784.662.41,1.345.806,2.05,1.165-.108.59-.2,1.172-.273,1.769a15.63,15.63,0,0,1-2.474-.626ZM65.659,33.264c.245.41.475.834.719,1.266q-2.158.809-4.315,1.856a20.067,20.067,0,0,1,3.6-3.136ZM75.728,48.238c-.086-.813-.237-1.611-.388-2.417a22.907,22.907,0,0,0-.719-7.976c.259-.151.518-.28.777-.424a33.142,33.142,0,0,1,.316,10.8ZM65.508,61.429a7.983,7.983,0,0,1-4.373,2.582,24.576,24.576,0,0,1-5.322-5.667c-.079-.115-.158-.266-.245-.388a17.613,17.613,0,0,1,3.963-1.036,13.277,13.277,0,0,1,7.5,1.05C66.55,59.127,66.061,60.292,65.508,61.429Zm4.366-17.981a48.842,48.842,0,0,1-1.712,10.889,21.828,21.828,0,0,0-10.206-1.352,52.77,52.77,0,0,1,11.357-11.6c.209.676.381,1.352.561,2.035Zm-4.157-4.912c-1.438,1.079-2.755,2.158-4.006,3.294a53.389,53.389,0,0,0-5.25,5.409,31.819,31.819,0,0,1,1.568-4.394,39.328,39.328,0,0,1,7.689-4.337ZM51.181,69.247l.273.079h-.28A.352.352,0,0,0,51.181,69.247ZM49.627,55.538c-.424.23-.834.489-1.251.719a22.612,22.612,0,0,1-1.51-2.64c.381-.525.791-1.072,1.244-1.625A29.2,29.2,0,0,0,49.627,55.538ZM37.925,60c-.331.87-.611,1.748-.87,2.632A20.347,20.347,0,0,1,35.07,54.6,23.648,23.648,0,0,0,37.925,60Zm5.495,12.73.295.115a18.137,18.137,0,0,0,2.366.539,25.008,25.008,0,0,0,.144,2.532,20.673,20.673,0,0,1-3.6.137,24.338,24.338,0,0,0,.791-3.323Zm7.552,1.108a17.938,17.938,0,0,0,1.949-.158.9.9,0,0,0,.093.288c-.654.295-1.309.575-1.978.806-.022-.309-.058-.626-.065-.935ZM72.254,63.86c.18-.18.388-.345.561-.525A21.044,21.044,0,0,1,74.656,67.2a15.686,15.686,0,0,1-5.847.173,14.981,14.981,0,0,0,3.445-3.517Zm1.92-31.308-1.007.151c-.058-.3-.122-.6-.187-.9.352.094.719.216,1.05.316.05.144.1.288.144.432ZM64.5,71.2a16.441,16.441,0,0,0,10.069.611,51.4,51.4,0,0,0-.885,11.558,44.433,44.433,0,0,1-5.912,4.064,30.042,30.042,0,0,1-8.365-10.788A39.9,39.9,0,0,0,64.5,71.2ZM53.453,21.418a27.69,27.69,0,0,1,6.761,4.97c-5.811-.619-11.141,2.007-13.234,8.329a26.288,26.288,0,0,0-5.632,8.76c-.079.216-.1.432-.173.647a28.459,28.459,0,0,0-2.287-3.646c-.05-.065-.1-.1-.144-.165a31.649,31.649,0,0,1,.511-3.452,25.892,25.892,0,0,1,2.668-7.02,25.662,25.662,0,0,1,11.529-8.422ZM29.719,43.3a23.986,23.986,0,0,0-4.725,11.1,34.027,34.027,0,0,1-.2-5.142,12.834,12.834,0,0,1,4.315-6.135,3.188,3.188,0,0,1,.6.173ZM55.381,79.69A33.545,33.545,0,0,0,62.7,89.86a34.892,34.892,0,0,1-3.74,1.223,21.958,21.958,0,0,1-6.71-9.81,21.52,21.52,0,0,0,3.136-1.582Zm23.627,8.775C85.315,82.358,90.558,72.879,93.284,63A45.714,45.714,0,0,1,79.209,89.716C79.115,89.277,79.065,88.86,79.007,88.464ZM71.1,25.64c-.065-.173-.122-.345-.187-.511.086.165.187.316.28.489a.36.36,0,0,0-.086,0ZM58.143,15.1c-.59.093-1.18.223-1.762.367.6-.381,1.194-.719,1.8-1.1a6.993,6.993,0,0,1,.719.64ZM20.6,48.094c-.065.64-.079,1.295-.1,1.942a45.311,45.311,0,0,0-1.8,7.5,40.327,40.327,0,0,0,3.776,23.015c-5.315-2.158-9.041-7.192-11.206-12.694.957-8.429,3.877-17.024,9.587-21.757C20.75,46.749,20.664,47.468,20.6,48.094ZM47.714,82.459c.18.5.331,1.014.532,1.518a29.8,29.8,0,0,0,2.582,4.855A17.3,17.3,0,0,1,44.513,82.5,15.319,15.319,0,0,0,47.714,82.459ZM90.278,32.07l.28-.036c.309.511.59,1.036.856,1.568-.338-.518-.755-1.028-1.136-1.532Zm-4.366-4.186A18.628,18.628,0,0,0,75.843,25.1a34.94,34.94,0,0,0-2.877-4.711A30.624,30.624,0,0,1,86.9,27.582ZM49.951,14.442c-.59-.173-1.2-.288-1.805-.417a16.542,16.542,0,0,1,3.459-.813c-.539.4-1.072.813-1.625,1.23Zm-5.358,4.466a37.227,37.227,0,0,0-9.2,14.6c-.511.913-.993,1.834-1.438,2.776-2.611-1.079-4.97-.187-7.012,1.82A43.153,43.153,0,0,1,40,18.915a24.525,24.525,0,0,1,4.589-.007ZM11.163,77.129l-.273-.324v-.079C10.983,76.863,11.07,77,11.163,77.129Zm23.13,8.149c.1.755.216,1.5.388,2.237C33.962,87,33.2,86.479,32.524,85.9a15.377,15.377,0,0,0,1.769-.619Zm4.783,1.158a15.758,15.758,0,0,1-.611-3.7c.187-.173.36-.352.532-.539a21.238,21.238,0,0,0,2.2,3.15,33.286,33.286,0,0,0,8.07,6.825,29.337,29.337,0,0,1-8.336-1.5,20.232,20.232,0,0,1-1.856-4.229Zm62.04-23.562a15.32,15.32,0,0,0-3.452-8.17,37.839,37.839,0,0,0-.942-5.214,23.015,23.015,0,0,0-2.158-17.858,31.984,31.984,0,0,1,10.695,1.208,20.246,20.246,0,0,1,10.709,7.077,69.3,69.3,0,0,1-14.845,36.429A54.021,54.021,0,0,0,101.116,62.874Zm5.394-53.223c7.911,5.178,9.781,15.593,9.8,24.454a30.977,30.977,0,0,0-9.767-5.912,30.049,30.049,0,0,0-15.456-1.438,36.816,36.816,0,0,0-23.116-11.81,25.274,25.274,0,0,0-4.905-3.258A93.024,93.024,0,0,1,73.045,7.48C83.61,3.725,96.859,3.3,106.511,9.616ZM47.973,9.565c.252.058.475.158.719.223a26.611,26.611,0,0,0-5.035,1.568,28.474,28.474,0,0,0-3.956,2.1C22.548,15.168,9.458,33.084,5.409,48.475A77.1,77.1,0,0,1,7.4,40.2C12.673,22.59,27.835,4.617,47.973,9.565ZM4.517,57.113A38.119,38.119,0,0,0,7.035,69.426c0,.295-.065.583-.086.877a25.5,25.5,0,0,1-1.093-2.934A34.149,34.149,0,0,1,4.517,57.113ZM34.725,114.1c-13.73-3.337-20.649-17.916-23.1-30.452-.036-.151-.05-.324-.079-.475a18.272,18.272,0,0,0,14.83,3.359,25.892,25.892,0,0,0,10.148,7.5c.453.18.9.266,1.345.432.086.122.151.252.245.374a35.961,35.961,0,0,0,21.26,13.047c-7.084,5.466-15.729,8.372-24.662,6.214Zm34.285-9.774a54.722,54.722,0,0,0,4.2-5.811c.532-.151,1.057-.309,1.589-.511.676-.259,1.295-.626,1.942-.935a24.183,24.183,0,0,0,1.5,2.956,19.634,19.634,0,0,0,1.438,1.92,32.689,32.689,0,0,1-3.726,1.323A29.193,29.193,0,0,1,69,104.323Zm43.412-21.49c-3.769,7.128-9.012,14.046-16.067,18.146A9.817,9.817,0,0,1,88.8,102.3c5.071-3.776,8.487-10.012,10.486-16.851a60.411,60.411,0,0,0,4.445-4.632c6.372-7.394,12.745-20.081,15.823-33.228,2.668,11.256-2.186,25.849-7.142,35.242Z" transform="translate(193.63 165)" fill="#231f20" stroke="#51efde" stroke-width="2"/>
        </g>
      </g>
    </g>
    <g id="Layer_2-3" data-name="Layer 2" transform="translate(14851.898 5983.073)">
      <g id="Layer_5_copy-3" data-name="Layer 5 copy" transform="translate(0.002 -0.001)">
        <g transform="matrix(1, 0, 0, 1, -49.63, -174)" filter="url(#Path_26837-2)">
          <path id="Path_26837-4" data-name="Path 26837" d="M120.989,39.744c2.035-16.06-1.812-31.394-17.592-37.191C88.343-2.978,71.88,1.064,58.157,9.026,52.569,5.4,45.549,3.6,37.134,4.437,9.6,7.257-7.091,48.907,2.942,72.289a27.115,27.115,0,0,0,3.869,6.4c.877,13.852,7.034,27.251,18.549,35.486,13.752,9.832,28.733,5.035,39.665-5.552a39.2,39.2,0,0,0,18.592-3.373c6.473,3.668,14.507.957,20.8-4.315,11.22-9.35,18.808-26.057,20.462-40.363C125.8,52.654,124.52,45.534,120.989,39.744ZM84.15,99.54a16.312,16.312,0,0,1-2.783-3.812A30.632,30.632,0,0,0,91.342,91.6,22.1,22.1,0,0,1,84.15,99.54ZM63.609,104.1a33.146,33.146,0,0,1-17.981-7.7A36.235,36.235,0,0,0,57.855,96.1a18.276,18.276,0,0,0,9.861,3.15,45.739,45.739,0,0,1-4.121,4.848ZM9.034,58.393c-.568-8.408,3.078-16.779,7.559-23.634A37.155,37.155,0,0,1,30.719,21.72a51.3,51.3,0,0,0-8.76,18.6C16,44.491,11.091,53.56,9.142,59.257,9.12,58.976,9.056,58.674,9.034,58.393ZM94.478,83.257A50.276,50.276,0,0,1,89.53,87.17c-.561.381-1.1.654-1.654.978a45.476,45.476,0,0,0,9.012-19.1,74.906,74.906,0,0,1-1.812,11.8C94.938,81.7,94.679,82.466,94.478,83.257ZM23.663,71.2a34.35,34.35,0,0,1-.9-7.818A32.638,32.638,0,0,0,33.042,77.669a20.735,20.735,0,0,1-4.668,3.79A28.891,28.891,0,0,1,23.663,71.2ZM63.292,19.469a29.912,29.912,0,0,1,4.028,7.315l-.209.093h0a37.248,37.248,0,0,0-7.005-7.142C61.135,19.591,62.221,19.512,63.292,19.469Zm-32.365,25.4c-2.158,8.9-1.057,17.772,5.085,23.454a26.978,26.978,0,0,0,0,3.812c-.187.518-.367,1.036-.532,1.561a26.446,26.446,0,0,1-3.294-2.992,27.331,27.331,0,0,1-5.574-9.192,25.173,25.173,0,0,1,4.315-16.643Zm14.384,3.6a10.285,10.285,0,0,1,.827-4.812,31.44,31.44,0,0,0,.554,3.539c-.467.46-.928.913-1.367,1.359a.432.432,0,0,0-.014-.079Zm4.84-10.35a30.639,30.639,0,0,1,8.631-5.272,29.244,29.244,0,0,0-5.56,8.926q-1.438,1.043-2.8,2.158a23.353,23.353,0,0,1-.266-5.811Zm30.4,31.97c-.036-.216-.093-.417-.129-.633a33.005,33.005,0,0,0,5.25-3.74,30.984,30.984,0,0,1-4.912,10.22A32.187,32.187,0,0,0,80.554,70.088Zm1.733-6.574a36.048,36.048,0,0,1,1.625-3.3,8.954,8.954,0,0,1,3.222-3.445c-.058.719-.093,1.438-.173,2.1a26.669,26.669,0,0,1-4.668,4.646Zm-2.373-5.639A28.567,28.567,0,0,0,77.619,62a18.88,18.88,0,0,0-1.82-2.409c4.315-6.415,5.365-13.953,4.222-21.411a13.342,13.342,0,0,1,2.251,1.5c3.366,2.8,4.668,7.408,4.927,12.227a14.93,14.93,0,0,0-7.279,5.962ZM43.787,68.506V67.29a1.224,1.224,0,0,1,.079-.309c.2-.266.41-.525.619-.784.662.41,1.345.806,2.05,1.165-.108.59-.2,1.172-.273,1.769a15.63,15.63,0,0,1-2.474-.626ZM65.659,33.264c.245.41.475.834.719,1.266q-2.158.809-4.315,1.856a20.067,20.067,0,0,1,3.6-3.136ZM75.728,48.238c-.086-.813-.237-1.611-.388-2.417a22.907,22.907,0,0,0-.719-7.976c.259-.151.518-.28.777-.424a33.142,33.142,0,0,1,.316,10.8ZM65.508,61.429a7.983,7.983,0,0,1-4.373,2.582,24.576,24.576,0,0,1-5.322-5.667c-.079-.115-.158-.266-.245-.388a17.613,17.613,0,0,1,3.963-1.036,13.277,13.277,0,0,1,7.5,1.05C66.55,59.127,66.061,60.292,65.508,61.429Zm4.366-17.981a48.842,48.842,0,0,1-1.712,10.889,21.828,21.828,0,0,0-10.206-1.352,52.77,52.77,0,0,1,11.357-11.6c.209.676.381,1.352.561,2.035Zm-4.157-4.912c-1.438,1.079-2.755,2.158-4.006,3.294a53.389,53.389,0,0,0-5.25,5.409,31.819,31.819,0,0,1,1.568-4.394,39.328,39.328,0,0,1,7.689-4.337ZM51.181,69.247l.273.079h-.28A.352.352,0,0,0,51.181,69.247ZM49.627,55.538c-.424.23-.834.489-1.251.719a22.612,22.612,0,0,1-1.51-2.64c.381-.525.791-1.072,1.244-1.625A29.2,29.2,0,0,0,49.627,55.538ZM37.925,60c-.331.87-.611,1.748-.87,2.632A20.347,20.347,0,0,1,35.07,54.6,23.648,23.648,0,0,0,37.925,60Zm5.495,12.73.295.115a18.137,18.137,0,0,0,2.366.539,25.008,25.008,0,0,0,.144,2.532,20.673,20.673,0,0,1-3.6.137,24.338,24.338,0,0,0,.791-3.323Zm7.552,1.108a17.938,17.938,0,0,0,1.949-.158.9.9,0,0,0,.093.288c-.654.295-1.309.575-1.978.806-.022-.309-.058-.626-.065-.935ZM72.254,63.86c.18-.18.388-.345.561-.525A21.044,21.044,0,0,1,74.656,67.2a15.686,15.686,0,0,1-5.847.173,14.981,14.981,0,0,0,3.445-3.517Zm1.92-31.308-1.007.151c-.058-.3-.122-.6-.187-.9.352.094.719.216,1.05.316.05.144.1.288.144.432ZM64.5,71.2a16.441,16.441,0,0,0,10.069.611,51.4,51.4,0,0,0-.885,11.558,44.433,44.433,0,0,1-5.912,4.064,30.042,30.042,0,0,1-8.365-10.788A39.9,39.9,0,0,0,64.5,71.2ZM53.453,21.418a27.69,27.69,0,0,1,6.761,4.97c-5.811-.619-11.141,2.007-13.234,8.329a26.288,26.288,0,0,0-5.632,8.76c-.079.216-.1.432-.173.647a28.459,28.459,0,0,0-2.287-3.646c-.05-.065-.1-.1-.144-.165a31.649,31.649,0,0,1,.511-3.452,25.892,25.892,0,0,1,2.668-7.02,25.662,25.662,0,0,1,11.529-8.422ZM29.719,43.3a23.986,23.986,0,0,0-4.725,11.1,34.027,34.027,0,0,1-.2-5.142,12.834,12.834,0,0,1,4.315-6.135,3.188,3.188,0,0,1,.6.173ZM55.381,79.69A33.545,33.545,0,0,0,62.7,89.86a34.892,34.892,0,0,1-3.74,1.223,21.958,21.958,0,0,1-6.71-9.81,21.52,21.52,0,0,0,3.136-1.582Zm23.627,8.775C85.315,82.358,90.558,72.879,93.284,63A45.714,45.714,0,0,1,79.209,89.716C79.115,89.277,79.065,88.86,79.007,88.464ZM71.1,25.64c-.065-.173-.122-.345-.187-.511.086.165.187.316.28.489a.36.36,0,0,0-.086,0ZM58.143,15.1c-.59.093-1.18.223-1.762.367.6-.381,1.194-.719,1.8-1.1a6.993,6.993,0,0,1,.719.64ZM20.6,48.094c-.065.64-.079,1.295-.1,1.942a45.311,45.311,0,0,0-1.8,7.5,40.327,40.327,0,0,0,3.776,23.015c-5.315-2.158-9.041-7.192-11.206-12.694.957-8.429,3.877-17.024,9.587-21.757C20.75,46.749,20.664,47.468,20.6,48.094ZM47.714,82.459c.18.5.331,1.014.532,1.518a29.8,29.8,0,0,0,2.582,4.855A17.3,17.3,0,0,1,44.513,82.5,15.319,15.319,0,0,0,47.714,82.459ZM90.278,32.07l.28-.036c.309.511.59,1.036.856,1.568-.338-.518-.755-1.028-1.136-1.532Zm-4.366-4.186A18.628,18.628,0,0,0,75.843,25.1a34.94,34.94,0,0,0-2.877-4.711A30.624,30.624,0,0,1,86.9,27.582ZM49.951,14.442c-.59-.173-1.2-.288-1.805-.417a16.542,16.542,0,0,1,3.459-.813c-.539.4-1.072.813-1.625,1.23Zm-5.358,4.466a37.227,37.227,0,0,0-9.2,14.6c-.511.913-.993,1.834-1.438,2.776-2.611-1.079-4.97-.187-7.012,1.82A43.153,43.153,0,0,1,40,18.915a24.525,24.525,0,0,1,4.589-.007ZM11.163,77.129l-.273-.324v-.079C10.983,76.863,11.07,77,11.163,77.129Zm23.13,8.149c.1.755.216,1.5.388,2.237C33.962,87,33.2,86.479,32.524,85.9a15.377,15.377,0,0,0,1.769-.619Zm4.783,1.158a15.758,15.758,0,0,1-.611-3.7c.187-.173.36-.352.532-.539a21.238,21.238,0,0,0,2.2,3.15,33.286,33.286,0,0,0,8.07,6.825,29.337,29.337,0,0,1-8.336-1.5,20.232,20.232,0,0,1-1.856-4.229Zm62.04-23.562a15.32,15.32,0,0,0-3.452-8.17,37.839,37.839,0,0,0-.942-5.214,23.015,23.015,0,0,0-2.158-17.858,31.984,31.984,0,0,1,10.695,1.208,20.246,20.246,0,0,1,10.709,7.077,69.3,69.3,0,0,1-14.845,36.429A54.021,54.021,0,0,0,101.116,62.874Zm5.394-53.223c7.911,5.178,9.781,15.593,9.8,24.454a30.977,30.977,0,0,0-9.767-5.912,30.049,30.049,0,0,0-15.456-1.438,36.816,36.816,0,0,0-23.116-11.81,25.274,25.274,0,0,0-4.905-3.258A93.024,93.024,0,0,1,73.045,7.48C83.61,3.725,96.859,3.3,106.511,9.616ZM47.973,9.565c.252.058.475.158.719.223a26.611,26.611,0,0,0-5.035,1.568,28.474,28.474,0,0,0-3.956,2.1C22.548,15.168,9.458,33.084,5.409,48.475A77.1,77.1,0,0,1,7.4,40.2C12.673,22.59,27.835,4.617,47.973,9.565ZM4.517,57.113A38.119,38.119,0,0,0,7.035,69.426c0,.295-.065.583-.086.877a25.5,25.5,0,0,1-1.093-2.934A34.149,34.149,0,0,1,4.517,57.113ZM34.725,114.1c-13.73-3.337-20.649-17.916-23.1-30.452-.036-.151-.05-.324-.079-.475a18.272,18.272,0,0,0,14.83,3.359,25.892,25.892,0,0,0,10.148,7.5c.453.18.9.266,1.345.432.086.122.151.252.245.374a35.961,35.961,0,0,0,21.26,13.047c-7.084,5.466-15.729,8.372-24.662,6.214Zm34.285-9.774a54.722,54.722,0,0,0,4.2-5.811c.532-.151,1.057-.309,1.589-.511.676-.259,1.295-.626,1.942-.935a24.183,24.183,0,0,0,1.5,2.956,19.634,19.634,0,0,0,1.438,1.92,32.689,32.689,0,0,1-3.726,1.323A29.193,29.193,0,0,1,69,104.323Zm43.412-21.49c-3.769,7.128-9.012,14.046-16.067,18.146A9.817,9.817,0,0,1,88.8,102.3c5.071-3.776,8.487-10.012,10.486-16.851a60.411,60.411,0,0,0,4.445-4.632c6.372-7.394,12.745-20.081,15.823-33.228,2.668,11.256-2.186,25.849-7.142,35.242Z" transform="translate(49.63 174)" fill="#231f20" stroke="#51efde" stroke-width="2"/>
        </g>
      </g>
    </g>
  </g>
</svg>
