<svg xmlns="http://www.w3.org/2000/svg" xmlns:xlink="http://www.w3.org/1999/xlink" width="546.322" height="440.684" viewBox="0 0 546.322 440.684">
  <defs>
    <filter id="Rectangle_146283" x="344.936" y="81.917" width="66.381" height="28.614" filterUnits="userSpaceOnUse">
      <feOffset dy="3" input="SourceAlpha"/>
      <feGaussianBlur stdDeviation="3" result="blur"/>
      <feFlood flood-color="#a0a0a0" flood-opacity="0.98"/>
      <feComposite operator="in" in2="blur"/>
      <feComposite in="SourceGraphic"/>
    </filter>
    <filter id="Rectangle_146284" x="453.301" y="210.507" width="66.381" height="28.614" filterUnits="userSpaceOnUse">
      <feOffset dy="3" input="SourceAlpha"/>
      <feGaussianBlur stdDeviation="3" result="blur-2"/>
      <feFlood flood-color="#a0a0a0" flood-opacity="0.98"/>
      <feComposite operator="in" in2="blur-2"/>
      <feComposite in="SourceGraphic"/>
    </filter>
    <filter id="Rectangle_146285" x="402.617" y="81.917" width="100.898" height="28.614" filterUnits="userSpaceOnUse">
      <feOffset dy="3" input="SourceAlpha"/>
      <feGaussianBlur stdDeviation="3" result="blur-3"/>
      <feFlood flood-color="#a0a0a0" flood-opacity="0.98"/>
      <feComposite operator="in" in2="blur-3"/>
      <feComposite in="SourceGraphic"/>
    </filter>
    <filter id="Rectangle_146288" x="332.105" y="210.507" width="128.947" height="28.614" filterUnits="userSpaceOnUse">
      <feOffset dy="3" input="SourceAlpha"/>
      <feGaussianBlur stdDeviation="3" result="blur-4"/>
      <feFlood flood-color="#a0a0a0" flood-opacity="0.98"/>
      <feComposite operator="in" in2="blur-4"/>
      <feComposite in="SourceGraphic"/>
    </filter>
    <filter id="Rectangle_146289" x="43.485" y="184.779" width="198.36" height="28.614" filterUnits="userSpaceOnUse">
      <feOffset dy="3" input="SourceAlpha"/>
      <feGaussianBlur stdDeviation="3" result="blur-5"/>
      <feFlood flood-color="#a0a0a0" flood-opacity="0.98"/>
      <feComposite operator="in" in2="blur-5"/>
      <feComposite in="SourceGraphic"/>
    </filter>
    <filter id="Rectangle_146291" x="376.613" y="159.068" width="67" height="28.614" filterUnits="userSpaceOnUse">
      <feOffset dy="3" input="SourceAlpha"/>
      <feGaussianBlur stdDeviation="3" result="blur-6"/>
      <feFlood flood-color="#a0a0a0" flood-opacity="0.98"/>
      <feComposite operator="in" in2="blur-6"/>
      <feComposite in="SourceGraphic"/>
    </filter>
    <filter id="Rectangle_146292" x="207.59" y="133.339" width="219.926" height="28.614" filterUnits="userSpaceOnUse">
      <feOffset dy="3" input="SourceAlpha"/>
      <feGaussianBlur stdDeviation="3" result="blur-7"/>
      <feFlood flood-color="#a0a0a0" flood-opacity="0.98"/>
      <feComposite operator="in" in2="blur-7"/>
      <feComposite in="SourceGraphic"/>
    </filter>
    <filter id="Rectangle_146293" x="43.485" y="210.507" width="258.847" height="28.614" filterUnits="userSpaceOnUse">
      <feOffset dy="3" input="SourceAlpha"/>
      <feGaussianBlur stdDeviation="3" result="blur-8"/>
      <feFlood flood-color="#a0a0a0" flood-opacity="0.98"/>
      <feComposite operator="in" in2="blur-8"/>
      <feComposite in="SourceGraphic"/>
    </filter>
    <filter id="Rectangle_146294" x="397.338" y="107.628" width="148.984" height="28.614" filterUnits="userSpaceOnUse">
      <feOffset dy="3" input="SourceAlpha"/>
      <feGaussianBlur stdDeviation="3" result="blur-9"/>
      <feFlood flood-color="#a0a0a0" flood-opacity="0.98"/>
      <feComposite operator="in" in2="blur-9"/>
      <feComposite in="SourceGraphic"/>
    </filter>
    <filter id="Rectangle_146295" x="267.355" y="107.628" width="138.666" height="28.614" filterUnits="userSpaceOnUse">
      <feOffset dy="3" input="SourceAlpha"/>
      <feGaussianBlur stdDeviation="3" result="blur-10"/>
      <feFlood flood-color="#a0a0a0" flood-opacity="0.98"/>
      <feComposite operator="in" in2="blur-10"/>
      <feComposite in="SourceGraphic"/>
    </filter>
    <filter id="Rectangle_146296" x="417.959" y="133.339" width="99.764" height="28.614" filterUnits="userSpaceOnUse">
      <feOffset dy="3" input="SourceAlpha"/>
      <feGaussianBlur stdDeviation="3" result="blur-11"/>
      <feFlood flood-color="#a0a0a0" flood-opacity="0.98"/>
      <feComposite operator="in" in2="blur-11"/>
      <feComposite in="SourceGraphic"/>
    </filter>
    <filter id="Rectangle_146281" x="0.353" y="81.917" width="43.938" height="28.614" filterUnits="userSpaceOnUse">
      <feOffset dy="3" input="SourceAlpha"/>
      <feGaussianBlur stdDeviation="3" result="blur-12"/>
      <feFlood flood-color="#a0a0a0" flood-opacity="0.98"/>
      <feComposite operator="in" in2="blur-12"/>
      <feComposite in="SourceGraphic"/>
    </filter>
    <filter id="Rectangle_146282" x="43.485" y="81.917" width="305.126" height="28.614" filterUnits="userSpaceOnUse">
      <feOffset dy="3" input="SourceAlpha"/>
      <feGaussianBlur stdDeviation="3" result="blur-13"/>
      <feFlood flood-color="#a0a0a0" flood-opacity="0.98"/>
      <feComposite operator="in" in2="blur-13"/>
      <feComposite in="SourceGraphic"/>
    </filter>
    <filter id="Rectangle_146286" x="25.307" y="107.628" width="43.938" height="28.614" filterUnits="userSpaceOnUse">
      <feOffset dy="3" input="SourceAlpha"/>
      <feGaussianBlur stdDeviation="3" result="blur-14"/>
      <feFlood flood-color="#a0a0a0" flood-opacity="0.98"/>
      <feComposite operator="in" in2="blur-14"/>
      <feComposite in="SourceGraphic"/>
    </filter>
    <filter id="Rectangle_146287" x="67.804" y="107.628" width="206.771" height="28.614" filterUnits="userSpaceOnUse">
      <feOffset dy="3" input="SourceAlpha"/>
      <feGaussianBlur stdDeviation="3" result="blur-15"/>
      <feFlood flood-color="#a0a0a0" flood-opacity="0.98"/>
      <feComposite operator="in" in2="blur-15"/>
      <feComposite in="SourceGraphic"/>
    </filter>
    <filter id="Rectangle_146290" x="67.804" y="133.339" width="144.821" height="28.614" filterUnits="userSpaceOnUse">
      <feOffset dy="3" input="SourceAlpha"/>
      <feGaussianBlur stdDeviation="3" result="blur-16"/>
      <feFlood flood-color="#a0a0a0" flood-opacity="0.98"/>
      <feComposite operator="in" in2="blur-16"/>
      <feComposite in="SourceGraphic"/>
    </filter>
    <filter id="Rectangle_146297" x="25.307" y="133.339" width="43.938" height="28.614" filterUnits="userSpaceOnUse">
      <feOffset dy="3" input="SourceAlpha"/>
      <feGaussianBlur stdDeviation="3" result="blur-17"/>
      <feFlood flood-color="#a0a0a0" flood-opacity="0.98"/>
      <feComposite operator="in" in2="blur-17"/>
      <feComposite in="SourceGraphic"/>
    </filter>
    <filter id="Rectangle_146298" x="0.353" y="159.068" width="43.938" height="28.614" filterUnits="userSpaceOnUse">
      <feOffset dy="3" input="SourceAlpha"/>
      <feGaussianBlur stdDeviation="3" result="blur-18"/>
      <feFlood flood-color="#a0a0a0" flood-opacity="0.98"/>
      <feComposite operator="in" in2="blur-18"/>
      <feComposite in="SourceGraphic"/>
    </filter>
    <filter id="Rectangle_146299" x="43.485" y="159.068" width="166.423" height="28.614" filterUnits="userSpaceOnUse">
      <feOffset dy="3" input="SourceAlpha"/>
      <feGaussianBlur stdDeviation="3" result="blur-19"/>
      <feFlood flood-color="#a0a0a0" flood-opacity="0.98"/>
      <feComposite operator="in" in2="blur-19"/>
      <feComposite in="SourceGraphic"/>
    </filter>
    <filter id="Rectangle_146300" x="67.804" y="236.219" width="166.423" height="28.614" filterUnits="userSpaceOnUse">
      <feOffset dy="3" input="SourceAlpha"/>
      <feGaussianBlur stdDeviation="3" result="blur-20"/>
      <feFlood flood-color="#a0a0a0" flood-opacity="0.98"/>
      <feComposite operator="in" in2="blur-20"/>
      <feComposite in="SourceGraphic"/>
    </filter>
    <filter id="Rectangle_146301" x="342.684" y="261.93" width="131.08" height="28.614" filterUnits="userSpaceOnUse">
      <feOffset dy="3" input="SourceAlpha"/>
      <feGaussianBlur stdDeviation="3" result="blur-21"/>
      <feFlood flood-color="#a0a0a0" flood-opacity="0.98"/>
      <feComposite operator="in" in2="blur-21"/>
      <feComposite in="SourceGraphic"/>
    </filter>
    <filter id="Rectangle_146302" x="227.18" y="236.219" width="166.836" height="28.614" filterUnits="userSpaceOnUse">
      <feOffset dy="3" input="SourceAlpha"/>
      <feGaussianBlur stdDeviation="3" result="blur-22"/>
      <feFlood flood-color="#a0a0a0" flood-opacity="0.98"/>
      <feComposite operator="in" in2="blur-22"/>
      <feComposite in="SourceGraphic"/>
    </filter>
    <filter id="Rectangle_146303" x="201.105" y="261.93" width="147.678" height="28.614" filterUnits="userSpaceOnUse">
      <feOffset dy="3" input="SourceAlpha"/>
      <feGaussianBlur stdDeviation="3" result="blur-23"/>
      <feFlood flood-color="#a0a0a0" flood-opacity="0.98"/>
      <feComposite operator="in" in2="blur-23"/>
      <feComposite in="SourceGraphic"/>
    </filter>
    <filter id="Rectangle_146304" x="67.804" y="261.93" width="61.686" height="28.614" filterUnits="userSpaceOnUse">
      <feOffset dy="3" input="SourceAlpha"/>
      <feGaussianBlur stdDeviation="3" result="blur-24"/>
      <feFlood flood-color="#a0a0a0" flood-opacity="0.98"/>
      <feComposite operator="in" in2="blur-24"/>
      <feComposite in="SourceGraphic"/>
    </filter>
    <filter id="Rectangle_146305" x="232.975" y="184.779" width="178.324" height="28.614" filterUnits="userSpaceOnUse">
      <feOffset dy="3" input="SourceAlpha"/>
      <feGaussianBlur stdDeviation="3" result="blur-25"/>
      <feFlood flood-color="#a0a0a0" flood-opacity="0.98"/>
      <feComposite operator="in" in2="blur-25"/>
      <feComposite in="SourceGraphic"/>
    </filter>
    <filter id="Rectangle_146306" x="402.617" y="184.779" width="120.383" height="28.614" filterUnits="userSpaceOnUse">
      <feOffset dy="3" input="SourceAlpha"/>
      <feGaussianBlur stdDeviation="3" result="blur-26"/>
      <feFlood flood-color="#a0a0a0" flood-opacity="0.98"/>
      <feComposite operator="in" in2="blur-26"/>
      <feComposite in="SourceGraphic"/>
    </filter>
    <filter id="Rectangle_146307" x="205.887" y="159.068" width="178.135" height="28.614" filterUnits="userSpaceOnUse">
      <feOffset dy="3" input="SourceAlpha"/>
      <feGaussianBlur stdDeviation="3" result="blur-27"/>
      <feFlood flood-color="#a0a0a0" flood-opacity="0.98"/>
      <feComposite operator="in" in2="blur-27"/>
      <feComposite in="SourceGraphic"/>
    </filter>
    <filter id="Rectangle_146308" x="0.353" y="184.779" width="43.938" height="28.614" filterUnits="userSpaceOnUse">
      <feOffset dy="3" input="SourceAlpha"/>
      <feGaussianBlur stdDeviation="3" result="blur-28"/>
      <feFlood flood-color="#a0a0a0" flood-opacity="0.98"/>
      <feComposite operator="in" in2="blur-28"/>
      <feComposite in="SourceGraphic"/>
    </filter>
    <filter id="Rectangle_146309" x="0.353" y="210.507" width="43.938" height="28.614" filterUnits="userSpaceOnUse">
      <feOffset dy="3" input="SourceAlpha"/>
      <feGaussianBlur stdDeviation="3" result="blur-29"/>
      <feFlood flood-color="#a0a0a0" flood-opacity="0.98"/>
      <feComposite operator="in" in2="blur-29"/>
      <feComposite in="SourceGraphic"/>
    </filter>
    <filter id="Rectangle_146310" x="25.307" y="236.219" width="43.938" height="28.614" filterUnits="userSpaceOnUse">
      <feOffset dy="3" input="SourceAlpha"/>
      <feGaussianBlur stdDeviation="3" result="blur-30"/>
      <feFlood flood-color="#a0a0a0" flood-opacity="0.98"/>
      <feComposite operator="in" in2="blur-30"/>
      <feComposite in="SourceGraphic"/>
    </filter>
    <filter id="Rectangle_146311" x="25.307" y="261.93" width="43.938" height="28.614" filterUnits="userSpaceOnUse">
      <feOffset dy="3" input="SourceAlpha"/>
      <feGaussianBlur stdDeviation="3" result="blur-31"/>
      <feFlood flood-color="#a0a0a0" flood-opacity="0.98"/>
      <feComposite operator="in" in2="blur-31"/>
      <feComposite in="SourceGraphic"/>
    </filter>
    <filter id="Rectangle_146312" x="0.353" y="283.479" width="43.938" height="28.614" filterUnits="userSpaceOnUse">
      <feOffset dy="3" input="SourceAlpha"/>
      <feGaussianBlur stdDeviation="3" result="blur-32"/>
      <feFlood flood-color="#a0a0a0" flood-opacity="0.98"/>
      <feComposite operator="in" in2="blur-32"/>
      <feComposite in="SourceGraphic"/>
    </filter>
    <filter id="Rectangle_146313" x="43.485" y="283.479" width="305.126" height="28.614" filterUnits="userSpaceOnUse">
      <feOffset dy="3" input="SourceAlpha"/>
      <feGaussianBlur stdDeviation="3" result="blur-33"/>
      <feFlood flood-color="#a0a0a0" flood-opacity="0.98"/>
      <feComposite operator="in" in2="blur-33"/>
      <feComposite in="SourceGraphic"/>
    </filter>
    <filter id="Rectangle_146314" x="25.307" y="309.191" width="43.938" height="28.614" filterUnits="userSpaceOnUse">
      <feOffset dy="3" input="SourceAlpha"/>
      <feGaussianBlur stdDeviation="3" result="blur-34"/>
      <feFlood flood-color="#a0a0a0" flood-opacity="0.98"/>
      <feComposite operator="in" in2="blur-34"/>
      <feComposite in="SourceGraphic"/>
    </filter>
    <filter id="Rectangle_146315" x="67.804" y="309.191" width="206.771" height="28.614" filterUnits="userSpaceOnUse">
      <feOffset dy="3" input="SourceAlpha"/>
      <feGaussianBlur stdDeviation="3" result="blur-35"/>
      <feFlood flood-color="#a0a0a0" flood-opacity="0.98"/>
      <feComposite operator="in" in2="blur-35"/>
      <feComposite in="SourceGraphic"/>
    </filter>
    <filter id="Rectangle_146316" x="43.485" y="386.342" width="198.36" height="28.614" filterUnits="userSpaceOnUse">
      <feOffset dy="3" input="SourceAlpha"/>
      <feGaussianBlur stdDeviation="3" result="blur-36"/>
      <feFlood flood-color="#a0a0a0" flood-opacity="0.98"/>
      <feComposite operator="in" in2="blur-36"/>
      <feComposite in="SourceGraphic"/>
    </filter>
    <filter id="Rectangle_146317" x="67.804" y="334.919" width="144.821" height="28.614" filterUnits="userSpaceOnUse">
      <feOffset dy="3" input="SourceAlpha"/>
      <feGaussianBlur stdDeviation="3" result="blur-37"/>
      <feFlood flood-color="#a0a0a0" flood-opacity="0.98"/>
      <feComposite operator="in" in2="blur-37"/>
      <feComposite in="SourceGraphic"/>
    </filter>
    <filter id="Rectangle_146318" x="207.59" y="334.919" width="219.926" height="28.614" filterUnits="userSpaceOnUse">
      <feOffset dy="3" input="SourceAlpha"/>
      <feGaussianBlur stdDeviation="3" result="blur-38"/>
      <feFlood flood-color="#a0a0a0" flood-opacity="0.98"/>
      <feComposite operator="in" in2="blur-38"/>
      <feComposite in="SourceGraphic"/>
    </filter>
    <filter id="Rectangle_146319" x="43.485" y="412.07" width="258.847" height="28.614" filterUnits="userSpaceOnUse">
      <feOffset dy="3" input="SourceAlpha"/>
      <feGaussianBlur stdDeviation="3" result="blur-39"/>
      <feFlood flood-color="#a0a0a0" flood-opacity="0.98"/>
      <feComposite operator="in" in2="blur-39"/>
      <feComposite in="SourceGraphic"/>
    </filter>
    <filter id="Rectangle_146320" x="397.338" y="309.191" width="148.984" height="28.614" filterUnits="userSpaceOnUse">
      <feOffset dy="3" input="SourceAlpha"/>
      <feGaussianBlur stdDeviation="3" result="blur-40"/>
      <feFlood flood-color="#a0a0a0" flood-opacity="0.98"/>
      <feComposite operator="in" in2="blur-40"/>
      <feComposite in="SourceGraphic"/>
    </filter>
    <filter id="Rectangle_146321" x="267.355" y="309.191" width="138.666" height="28.614" filterUnits="userSpaceOnUse">
      <feOffset dy="3" input="SourceAlpha"/>
      <feGaussianBlur stdDeviation="3" result="blur-41"/>
      <feFlood flood-color="#a0a0a0" flood-opacity="0.98"/>
      <feComposite operator="in" in2="blur-41"/>
      <feComposite in="SourceGraphic"/>
    </filter>
    <filter id="Rectangle_146322" x="417.959" y="334.919" width="99.764" height="28.614" filterUnits="userSpaceOnUse">
      <feOffset dy="3" input="SourceAlpha"/>
      <feGaussianBlur stdDeviation="3" result="blur-42"/>
      <feFlood flood-color="#a0a0a0" flood-opacity="0.98"/>
      <feComposite operator="in" in2="blur-42"/>
      <feComposite in="SourceGraphic"/>
    </filter>
    <filter id="Rectangle_146323" x="25.307" y="334.919" width="43.938" height="28.614" filterUnits="userSpaceOnUse">
      <feOffset dy="3" input="SourceAlpha"/>
      <feGaussianBlur stdDeviation="3" result="blur-43"/>
      <feFlood flood-color="#a0a0a0" flood-opacity="0.98"/>
      <feComposite operator="in" in2="blur-43"/>
      <feComposite in="SourceGraphic"/>
    </filter>
    <filter id="Rectangle_146324" x="0.353" y="360.63" width="43.938" height="28.614" filterUnits="userSpaceOnUse">
      <feOffset dy="3" input="SourceAlpha"/>
      <feGaussianBlur stdDeviation="3" result="blur-44"/>
      <feFlood flood-color="#a0a0a0" flood-opacity="0.98"/>
      <feComposite operator="in" in2="blur-44"/>
      <feComposite in="SourceGraphic"/>
    </filter>
    <filter id="Rectangle_146325" x="43.485" y="360.63" width="166.423" height="28.614" filterUnits="userSpaceOnUse">
      <feOffset dy="3" input="SourceAlpha"/>
      <feGaussianBlur stdDeviation="3" result="blur-45"/>
      <feFlood flood-color="#a0a0a0" flood-opacity="0.98"/>
      <feComposite operator="in" in2="blur-45"/>
      <feComposite in="SourceGraphic"/>
    </filter>
    <filter id="Rectangle_146326" x="232.975" y="386.342" width="178.324" height="28.614" filterUnits="userSpaceOnUse">
      <feOffset dy="3" input="SourceAlpha"/>
      <feGaussianBlur stdDeviation="3" result="blur-46"/>
      <feFlood flood-color="#a0a0a0" flood-opacity="0.98"/>
      <feComposite operator="in" in2="blur-46"/>
      <feComposite in="SourceGraphic"/>
    </filter>
    <filter id="Rectangle_146327" x="205.887" y="360.63" width="178.135" height="28.614" filterUnits="userSpaceOnUse">
      <feOffset dy="3" input="SourceAlpha"/>
      <feGaussianBlur stdDeviation="3" result="blur-47"/>
      <feFlood flood-color="#a0a0a0" flood-opacity="0.98"/>
      <feComposite operator="in" in2="blur-47"/>
      <feComposite in="SourceGraphic"/>
    </filter>
    <filter id="Rectangle_146328" x="0.353" y="386.342" width="43.938" height="28.614" filterUnits="userSpaceOnUse">
      <feOffset dy="3" input="SourceAlpha"/>
      <feGaussianBlur stdDeviation="3" result="blur-48"/>
      <feFlood flood-color="#a0a0a0" flood-opacity="0.98"/>
      <feComposite operator="in" in2="blur-48"/>
      <feComposite in="SourceGraphic"/>
    </filter>
    <filter id="Path_26655" x="0" y="0" width="41.941" height="60.141" filterUnits="userSpaceOnUse">
      <feOffset dy="3" input="SourceAlpha"/>
      <feGaussianBlur stdDeviation="3" result="blur-49"/>
      <feFlood flood-color="#a0a0a0"/>
      <feComposite operator="in" in2="blur-49"/>
      <feComposite in="SourceGraphic"/>
    </filter>
    <filter id="Path_26656" x="35.642" y="0.068" width="39.207" height="60.073" filterUnits="userSpaceOnUse">
      <feOffset dy="3" input="SourceAlpha"/>
      <feGaussianBlur stdDeviation="3" result="blur-50"/>
      <feFlood flood-color="#a0a0a0"/>
      <feComposite operator="in" in2="blur-50"/>
      <feComposite in="SourceGraphic"/>
    </filter>
    <filter id="Path_26657" x="60.159" y="0.028" width="41.994" height="60.113" filterUnits="userSpaceOnUse">
      <feOffset dy="3" input="SourceAlpha"/>
      <feGaussianBlur stdDeviation="3" result="blur-51"/>
      <feFlood flood-color="#a0a0a0"/>
      <feComposite operator="in" in2="blur-51"/>
      <feComposite in="SourceGraphic"/>
    </filter>
  </defs>
  <g id="write_code" data-name="write code" transform="translate(-13914.637 -5713.27)">
    <g id="blur-anime" transform="translate(6 174)">
      <g transform="matrix(1, 0, 0, 1, 13908.64, 5539.27)" filter="url(#Rectangle_146283)">
        <rect id="Rectangle_146283-2" data-name="Rectangle 146283" width="47.381" height="9.614" transform="translate(354.44 88.42)" fill="none" stroke="#a0a0a0" stroke-width="1"/>
      </g>
      <g transform="matrix(1, 0, 0, 1, 13908.64, 5539.27)" filter="url(#Rectangle_146284)">
        <rect id="Rectangle_146284-2" data-name="Rectangle 146284" width="47.381" height="9.614" transform="translate(462.8 217.01)" fill="none" stroke="#a0a0a0" stroke-width="1"/>
      </g>
      <g transform="matrix(1, 0, 0, 1, 13908.64, 5539.27)" filter="url(#Rectangle_146285)">
        <rect id="Rectangle_146285-2" data-name="Rectangle 146285" width="81.898" height="9.614" transform="translate(412.12 88.42)" fill="none" stroke="#a0a0a0" stroke-width="1"/>
      </g>
      <g transform="matrix(1, 0, 0, 1, 13908.64, 5539.27)" filter="url(#Rectangle_146288)">
        <rect id="Rectangle_146288-2" data-name="Rectangle 146288" width="109.948" height="9.614" transform="translate(341.61 217.01)" fill="none" stroke="#a0a0a0" stroke-width="1"/>
      </g>
      <g transform="matrix(1, 0, 0, 1, 13908.64, 5539.27)" filter="url(#Rectangle_146289)">
        <rect id="Rectangle_146289-2" data-name="Rectangle 146289" width="179.36" height="9.614" transform="translate(52.99 191.28)" fill="none" stroke="#a0a0a0" stroke-width="1"/>
      </g>
      <g transform="matrix(1, 0, 0, 1, 13908.64, 5539.27)" filter="url(#Rectangle_146291)">
        <rect id="Rectangle_146291-2" data-name="Rectangle 146291" width="48" height="9.614" transform="translate(386.11 165.57)" fill="none" stroke="#a0a0a0" stroke-width="1"/>
      </g>
      <g transform="matrix(1, 0, 0, 1, 13908.64, 5539.27)" filter="url(#Rectangle_146292)">
        <rect id="Rectangle_146292-2" data-name="Rectangle 146292" width="200.927" height="9.614" transform="translate(217.09 139.84)" fill="none" stroke="#a0a0a0" stroke-width="1"/>
      </g>
      <g transform="matrix(1, 0, 0, 1, 13908.64, 5539.27)" filter="url(#Rectangle_146293)">
        <rect id="Rectangle_146293-2" data-name="Rectangle 146293" width="239.846" height="9.614" transform="translate(52.99 217.01)" fill="none" stroke="#a0a0a0" stroke-width="1"/>
      </g>
      <g transform="matrix(1, 0, 0, 1, 13908.64, 5539.27)" filter="url(#Rectangle_146294)">
        <rect id="Rectangle_146294-2" data-name="Rectangle 146294" width="129.984" height="9.614" transform="translate(406.84 114.13)" fill="none" stroke="#a0a0a0" stroke-width="1"/>
      </g>
      <g transform="matrix(1, 0, 0, 1, 13908.64, 5539.27)" filter="url(#Rectangle_146295)">
        <rect id="Rectangle_146295-2" data-name="Rectangle 146295" width="119.665" height="9.614" transform="translate(276.85 114.13)" fill="none" stroke="#a0a0a0" stroke-width="1"/>
      </g>
      <g transform="matrix(1, 0, 0, 1, 13908.64, 5539.27)" filter="url(#Rectangle_146296)">
        <rect id="Rectangle_146296-2" data-name="Rectangle 146296" width="80.763" height="9.614" transform="translate(427.46 139.84)" fill="none" stroke="#a0a0a0" stroke-width="1"/>
      </g>
      <g transform="matrix(1, 0, 0, 1, 13908.64, 5539.27)" filter="url(#Rectangle_146281)">
        <rect id="Rectangle_146281-2" data-name="Rectangle 146281" width="24.937" height="9.614" transform="translate(9.85 88.42)" fill="none" stroke="#a0a0a0" stroke-width="1"/>
      </g>
      <g transform="matrix(1, 0, 0, 1, 13908.64, 5539.27)" filter="url(#Rectangle_146282)">
        <rect id="Rectangle_146282-2" data-name="Rectangle 146282" width="286.126" height="9.614" transform="translate(52.99 88.42)" fill="none" stroke="#a0a0a0" stroke-width="1"/>
      </g>
      <g transform="matrix(1, 0, 0, 1, 13908.64, 5539.27)" filter="url(#Rectangle_146286)">
        <rect id="Rectangle_146286-2" data-name="Rectangle 146286" width="24.937" height="9.614" transform="translate(34.81 114.13)" fill="none" stroke="#a0a0a0" stroke-width="1"/>
      </g>
      <g transform="matrix(1, 0, 0, 1, 13908.64, 5539.27)" filter="url(#Rectangle_146287)">
        <rect id="Rectangle_146287-2" data-name="Rectangle 146287" width="187.77" height="9.614" transform="translate(77.3 114.13)" fill="none" stroke="#a0a0a0" stroke-width="1"/>
      </g>
      <g transform="matrix(1, 0, 0, 1, 13908.64, 5539.27)" filter="url(#Rectangle_146290)">
        <rect id="Rectangle_146290-2" data-name="Rectangle 146290" width="125.822" height="9.614" transform="translate(77.3 139.84)" fill="none" stroke="#a0a0a0" stroke-width="1"/>
      </g>
      <g transform="matrix(1, 0, 0, 1, 13908.64, 5539.27)" filter="url(#Rectangle_146297)">
        <rect id="Rectangle_146297-2" data-name="Rectangle 146297" width="24.937" height="9.614" transform="translate(34.81 139.84)" fill="none" stroke="#a0a0a0" stroke-width="1"/>
      </g>
      <g transform="matrix(1, 0, 0, 1, 13908.64, 5539.27)" filter="url(#Rectangle_146298)">
        <rect id="Rectangle_146298-2" data-name="Rectangle 146298" width="24.937" height="9.614" transform="translate(9.85 165.57)" fill="none" stroke="#a0a0a0" stroke-width="1"/>
      </g>
      <g transform="matrix(1, 0, 0, 1, 13908.64, 5539.27)" filter="url(#Rectangle_146299)">
        <rect id="Rectangle_146299-2" data-name="Rectangle 146299" width="147.423" height="9.614" transform="translate(52.99 165.57)" fill="none" stroke="#a0a0a0" stroke-width="1"/>
      </g>
      <g transform="matrix(1, 0, 0, 1, 13908.64, 5539.27)" filter="url(#Rectangle_146300)">
        <rect id="Rectangle_146300-2" data-name="Rectangle 146300" width="147.423" height="9.614" transform="translate(77.3 242.72)" fill="none" stroke="#a0a0a0" stroke-width="1"/>
      </g>
      <g transform="matrix(1, 0, 0, 1, 13908.64, 5539.27)" filter="url(#Rectangle_146301)">
        <rect id="Rectangle_146301-2" data-name="Rectangle 146301" width="112.081" height="9.614" transform="translate(352.18 268.43)" fill="none" stroke="#a0a0a0" stroke-width="1"/>
      </g>
      <g transform="matrix(1, 0, 0, 1, 13908.64, 5539.27)" filter="url(#Rectangle_146302)">
        <rect id="Rectangle_146302-2" data-name="Rectangle 146302" width="147.836" height="9.614" transform="translate(236.68 242.72)" fill="none" stroke="#a0a0a0" stroke-width="1"/>
      </g>
      <g transform="matrix(1, 0, 0, 1, 13908.64, 5539.27)" filter="url(#Rectangle_146303)">
        <rect id="Rectangle_146303-2" data-name="Rectangle 146303" width="128.677" height="9.614" transform="translate(210.61 268.43)" fill="none" stroke="#a0a0a0" stroke-width="1"/>
      </g>
      <g transform="matrix(1, 0, 0, 1, 13908.64, 5539.27)" filter="url(#Rectangle_146304)">
        <rect id="Rectangle_146304-2" data-name="Rectangle 146304" width="42.686" height="9.614" transform="translate(77.3 268.43)" fill="none" stroke="#a0a0a0" stroke-width="1"/>
      </g>
      <g transform="matrix(1, 0, 0, 1, 13908.64, 5539.27)" filter="url(#Rectangle_146305)">
        <rect id="Rectangle_146305-2" data-name="Rectangle 146305" width="159.324" height="9.614" transform="translate(242.47 191.28)" fill="none" stroke="#a0a0a0" stroke-width="1"/>
      </g>
      <g transform="matrix(1, 0, 0, 1, 13908.64, 5539.27)" filter="url(#Rectangle_146306)">
        <rect id="Rectangle_146306-2" data-name="Rectangle 146306" width="101.383" height="9.614" transform="translate(412.12 191.28)" fill="none" stroke="#a0a0a0" stroke-width="1"/>
      </g>
      <g transform="matrix(1, 0, 0, 1, 13908.64, 5539.27)" filter="url(#Rectangle_146307)">
        <rect id="Rectangle_146307-2" data-name="Rectangle 146307" width="159.135" height="9.614" transform="translate(215.39 165.57)" fill="none" stroke="#a0a0a0" stroke-width="1"/>
      </g>
      <g transform="matrix(1, 0, 0, 1, 13908.64, 5539.27)" filter="url(#Rectangle_146308)">
        <rect id="Rectangle_146308-2" data-name="Rectangle 146308" width="24.937" height="9.614" transform="translate(9.85 191.28)" fill="none" stroke="#a0a0a0" stroke-width="1"/>
      </g>
      <g transform="matrix(1, 0, 0, 1, 13908.64, 5539.27)" filter="url(#Rectangle_146309)">
        <rect id="Rectangle_146309-2" data-name="Rectangle 146309" width="24.937" height="9.614" transform="translate(9.85 217.01)" fill="none" stroke="#a0a0a0" stroke-width="1"/>
      </g>
      <g transform="matrix(1, 0, 0, 1, 13908.64, 5539.27)" filter="url(#Rectangle_146310)">
        <rect id="Rectangle_146310-2" data-name="Rectangle 146310" width="24.937" height="9.614" transform="translate(34.81 242.72)" fill="none" stroke="#a0a0a0" stroke-width="1"/>
      </g>
      <g transform="matrix(1, 0, 0, 1, 13908.64, 5539.27)" filter="url(#Rectangle_146311)">
        <rect id="Rectangle_146311-2" data-name="Rectangle 146311" width="24.937" height="9.614" transform="translate(34.81 268.43)" fill="none" stroke="#a0a0a0" stroke-width="1"/>
      </g>
      <g transform="matrix(1, 0, 0, 1, 13908.64, 5539.27)" filter="url(#Rectangle_146312)">
        <rect id="Rectangle_146312-2" data-name="Rectangle 146312" width="24.937" height="9.614" transform="translate(9.85 289.98)" fill="none" stroke="#a0a0a0" stroke-width="1"/>
      </g>
      <g transform="matrix(1, 0, 0, 1, 13908.64, 5539.27)" filter="url(#Rectangle_146313)">
        <rect id="Rectangle_146313-2" data-name="Rectangle 146313" width="286.126" height="9.614" transform="translate(52.99 289.98)" fill="none" stroke="#a0a0a0" stroke-width="1"/>
      </g>
      <g transform="matrix(1, 0, 0, 1, 13908.64, 5539.27)" filter="url(#Rectangle_146314)">
        <rect id="Rectangle_146314-2" data-name="Rectangle 146314" width="24.937" height="9.614" transform="translate(34.81 315.69)" fill="none" stroke="#a0a0a0" stroke-width="1"/>
      </g>
      <g transform="matrix(1, 0, 0, 1, 13908.64, 5539.27)" filter="url(#Rectangle_146315)">
        <rect id="Rectangle_146315-2" data-name="Rectangle 146315" width="187.77" height="9.614" transform="translate(77.3 315.69)" fill="none" stroke="#a0a0a0" stroke-width="1"/>
      </g>
      <g transform="matrix(1, 0, 0, 1, 13908.64, 5539.27)" filter="url(#Rectangle_146316)">
        <rect id="Rectangle_146316-2" data-name="Rectangle 146316" width="179.36" height="9.614" transform="translate(52.99 392.84)" fill="none" stroke="#a0a0a0" stroke-width="1"/>
      </g>
      <g transform="matrix(1, 0, 0, 1, 13908.64, 5539.27)" filter="url(#Rectangle_146317)">
        <rect id="Rectangle_146317-2" data-name="Rectangle 146317" width="125.822" height="9.614" transform="translate(77.3 341.42)" fill="none" stroke="#a0a0a0" stroke-width="1"/>
      </g>
      <g transform="matrix(1, 0, 0, 1, 13908.64, 5539.27)" filter="url(#Rectangle_146318)">
        <rect id="Rectangle_146318-2" data-name="Rectangle 146318" width="200.927" height="9.614" transform="translate(217.09 341.42)" fill="none" stroke="#a0a0a0" stroke-width="1"/>
      </g>
      <g transform="matrix(1, 0, 0, 1, 13908.64, 5539.27)" filter="url(#Rectangle_146319)">
        <rect id="Rectangle_146319-2" data-name="Rectangle 146319" width="239.846" height="9.614" transform="translate(52.99 418.57)" fill="none" stroke="#a0a0a0" stroke-width="1"/>
      </g>
      <g transform="matrix(1, 0, 0, 1, 13908.64, 5539.27)" filter="url(#Rectangle_146320)">
        <rect id="Rectangle_146320-2" data-name="Rectangle 146320" width="129.984" height="9.614" transform="translate(406.84 315.69)" fill="none" stroke="#a0a0a0" stroke-width="1"/>
      </g>
      <g transform="matrix(1, 0, 0, 1, 13908.64, 5539.27)" filter="url(#Rectangle_146321)">
        <rect id="Rectangle_146321-2" data-name="Rectangle 146321" width="119.665" height="9.614" transform="translate(276.85 315.69)" fill="none" stroke="#a0a0a0" stroke-width="1"/>
      </g>
      <g transform="matrix(1, 0, 0, 1, 13908.64, 5539.27)" filter="url(#Rectangle_146322)">
        <rect id="Rectangle_146322-2" data-name="Rectangle 146322" width="80.763" height="9.614" transform="translate(427.46 341.42)" fill="none" stroke="#a0a0a0" stroke-width="1"/>
      </g>
      <g transform="matrix(1, 0, 0, 1, 13908.64, 5539.27)" filter="url(#Rectangle_146323)">
        <rect id="Rectangle_146323-2" data-name="Rectangle 146323" width="24.937" height="9.614" transform="translate(34.81 341.42)" fill="none" stroke="#a0a0a0" stroke-width="1"/>
      </g>
      <g transform="matrix(1, 0, 0, 1, 13908.64, 5539.27)" filter="url(#Rectangle_146324)">
        <rect id="Rectangle_146324-2" data-name="Rectangle 146324" width="24.937" height="9.614" transform="translate(9.85 367.13)" fill="none" stroke="#a0a0a0" stroke-width="1"/>
      </g>
      <g transform="matrix(1, 0, 0, 1, 13908.64, 5539.27)" filter="url(#Rectangle_146325)">
        <rect id="Rectangle_146325-2" data-name="Rectangle 146325" width="147.423" height="9.614" transform="translate(52.99 367.13)" fill="none" stroke="#a0a0a0" stroke-width="1"/>
      </g>
      <g transform="matrix(1, 0, 0, 1, 13908.64, 5539.27)" filter="url(#Rectangle_146326)">
        <rect id="Rectangle_146326-2" data-name="Rectangle 146326" width="159.324" height="9.614" transform="translate(242.47 392.84)" fill="none" stroke="#a0a0a0" stroke-width="1"/>
      </g>
      <g transform="matrix(1, 0, 0, 1, 13908.64, 5539.27)" filter="url(#Rectangle_146327)">
        <rect id="Rectangle_146327-2" data-name="Rectangle 146327" width="159.135" height="9.614" transform="translate(215.39 367.13)" fill="none" stroke="#a0a0a0" stroke-width="1"/>
      </g>
      <g transform="matrix(1, 0, 0, 1, 13908.64, 5539.27)" filter="url(#Rectangle_146328)">
        <rect id="Rectangle_146328-2" data-name="Rectangle 146328" width="24.937" height="9.614" transform="translate(9.85 392.84)" fill="none" stroke="#a0a0a0" stroke-width="1"/>
      </g>
    </g>
    <g id="Group_73501" data-name="Group 73501" transform="translate(13869.414 5616.532)">
      <g transform="matrix(1, 0, 0, 1, 45.22, 96.74)" filter="url(#Path_26655)">
        <path id="Path_26655-2" data-name="Path 26655" d="M53.48,94.752a3.9,3.9,0,0,1,0,5.343,3.478,3.478,0,0,1-2.46,1.074,3.7,3.7,0,0,1-2.6-1.074l-15.8-16.963c-.17,0-.226-.2-.283-.368h-.17a1.64,1.64,0,0,1-.17-.481.311.311,0,0,1-.17-.226V80.983a3.475,3.475,0,0,1,0-.368V79.032h0a3.081,3.081,0,0,1,.283-.537.933.933,0,0,1,.339-.424l15.8-16.963a3.506,3.506,0,0,1,5.061,0,3.9,3.9,0,0,1,0,5.343L39.994,80.587Z" transform="translate(-22.32 -53.53)" fill="#51efde" stroke="#51efde" stroke-width="1"/>
      </g>
      <g transform="matrix(1, 0, 0, 1, 45.22, 96.74)" filter="url(#Path_26656)">
        <path id="Path_26656-2" data-name="Path 26656" d="M44.7,96.65,58.5,62.044a3.053,3.053,0,0,1,4.1-1.725,3.28,3.28,0,0,1,1.583,4.213l-13.8,34.634a3.082,3.082,0,0,1-2.827,1.951,2.828,2.828,0,0,1-1.131-.226A3.308,3.308,0,0,1,44.7,96.65Z" transform="translate(0.79 -53.48)" fill="#51efde" stroke="#51efde" stroke-width="1"/>
      </g>
      <g transform="matrix(1, 0, 0, 1, 45.22, 96.74)" filter="url(#Path_26657)">
        <path id="Path_26657-2" data-name="Path 26657" d="M75.495,82.689a5.062,5.062,0,0,1-.4.424l-15.8,16.963a3.591,3.591,0,0,1-2.545,1.074,3.506,3.506,0,0,1-2.516-1.074,3.9,3.9,0,0,1,0-5.343L67.55,80.6,54.234,66.461a3.9,3.9,0,0,1,0-5.343,3.506,3.506,0,0,1,5.061,0L75.1,78.081a1.867,1.867,0,0,1,.4.424h0a3.34,3.34,0,0,1,.283.537h0a3.679,3.679,0,0,0,.17.537v1.668h0a3.678,3.678,0,0,0-.17.537s0,0,0,.17Z" transform="translate(16.71 -53.51)" fill="#51efde" stroke="#51efde" stroke-width="1"/>
      </g>
    </g>
  </g>
</svg>
