<svg xmlns="http://www.w3.org/2000/svg" width="310" height="170" viewBox="0 0 310 170">
  <g id="Group_73447" data-name="Group 73447" transform="translate(-15232 -103)">
    <rect id="Rectangle_146336" data-name="Rectangle 146336" width="310" height="170" transform="translate(15232 103)" fill="#1c1b29"/>
    <text id="airbnb" transform="translate(15340 235)" fill="#f9f5f5" font-size="33" font-family="MyanmarText, Myanmar Text"><tspan x="0" y="0">airbnb</tspan></text>
    <g id="airbnb-seeklogo.com" transform="translate(15354.866 134.255)">
      <path id="Path_26658" data-name="Path 26658" d="M57.9,54.271a9.97,9.97,0,0,1-6.1,7.85,10.159,10.159,0,0,1-5.1.67,13.2,13.2,0,0,1-5.1-1.743A31.35,31.35,0,0,1,33.95,54.54c4.428-5.434,7.11-10.4,8.117-14.825a16.827,16.827,0,0,0,.336-5.7,10.877,10.877,0,0,0-1.812-4.562,11.3,11.3,0,0,0-9.459-4.763,11.477,11.477,0,0,0-9.459,4.763,10.887,10.887,0,0,0-1.811,4.562,13.936,13.936,0,0,0,.336,5.7c1.006,4.426,3.756,9.458,8.117,14.891a30.123,30.123,0,0,1-7.648,6.508,13.172,13.172,0,0,1-5.1,1.744,10.736,10.736,0,0,1-5.1-.67,9.971,9.971,0,0,1-6.1-7.85,11.107,11.107,0,0,1,.6-5.232c.2-.672.537-1.341.872-2.147.47-1.073,1.007-2.214,1.543-3.355l.068-.133c4.628-10,9.593-20.193,14.758-30.121l.2-.4c.537-1.005,1.073-2.078,1.61-3.085A14.723,14.723,0,0,1,25.9,6.909a7.043,7.043,0,0,1,10.733,0,14.754,14.754,0,0,1,1.878,2.953c.537,1.007,1.073,2.08,1.61,3.085l.2.4c5.1,9.995,10.063,20.191,14.691,30.188V43.6c.537,1.074,1.006,2.282,1.543,3.355.336.806.671,1.475.872,2.147a11.336,11.336,0,0,1,.47,5.165ZM31.133,51.118c-3.622-4.561-5.971-8.855-6.775-12.476a10.822,10.822,0,0,1-.2-4.093,6.52,6.52,0,0,1,1.073-2.819,7.127,7.127,0,0,1,5.9-2.952,6.871,6.871,0,0,1,5.9,2.952,6.52,6.52,0,0,1,1.073,2.819,10.779,10.779,0,0,1-.2,4.093c-.8,3.555-3.153,7.848-6.775,12.476Zm30.255-3.488c-.335-.8-.671-1.677-1.006-2.415-.537-1.207-1.074-2.348-1.543-3.422l-.067-.066c-4.628-10.063-9.593-20.26-14.826-30.321l-.2-.4c-.537-1.007-1.074-2.08-1.61-3.153a19.343,19.343,0,0,0-2.415-3.69A10.836,10.836,0,0,0,31.2,0a11.258,11.258,0,0,0-8.587,4.026A23.089,23.089,0,0,0,20.2,7.716c-.537,1.073-1.074,2.147-1.61,3.153l-.2.4C13.222,21.333,8.19,31.53,3.561,41.593l-.067.134c-.47,1.073-1.007,2.213-1.543,3.421q-.5,1.108-1.006,2.415A15.065,15.065,0,0,0,.14,54.808,14.258,14.258,0,0,0,8.861,65.944a13.765,13.765,0,0,0,5.434,1.074,15.148,15.148,0,0,0,1.744-.135A17.716,17.716,0,0,0,22.747,64.6a33.948,33.948,0,0,0,8.319-6.976A35.236,35.236,0,0,0,39.384,64.6a17.722,17.722,0,0,0,6.708,2.281,15.149,15.149,0,0,0,1.744.135,13.538,13.538,0,0,0,5.434-1.074,14.227,14.227,0,0,0,8.721-11.136,12.676,12.676,0,0,0-.6-7.178Z" transform="translate(0)" fill="#f9f5f5"/>
    </g>
  </g>
</svg>
