<svg id="Layer_1" enable-background="new 0 0 510.229 510.229" height="512" viewBox="0 0 510.229 510.229" width="512" xmlns="http://www.w3.org/2000/svg"><path d="m451.224 45.149h-392.22c-32.535 0-59.004 26.47-59.004 59.005v233.424c0 32.535 26.469 59.005 59.004 59.005h248.285v34.722c0 31.374 38.955 45.601 59.279 22.02l48.901-56.741h35.754c32.535 0 59.005-26.47 59.005-59.005v-233.425c.001-32.535-26.469-59.005-59.004-59.005zm-327.326 213.179c-21.289 0-38.546-17.258-38.546-38.546s17.258-38.546 38.546-38.546 38.546 17.257 38.546 38.546-17.258 38.546-38.546 38.546zm131.216 0c-21.289 0-38.546-17.258-38.546-38.546s17.258-38.546 38.546-38.546 38.546 17.257 38.546 38.546-17.257 38.546-38.546 38.546zm131.217 0c-21.288 0-38.546-17.258-38.546-38.546s17.258-38.546 38.546-38.546c21.289 0 38.546 17.257 38.546 38.546s-17.258 38.546-38.546 38.546z"/></svg>